<svg width="320" height="330" viewBox="0 0 320 330" fill="none" xmlns="http://www.w3.org/2000/svg">
<path d="M27.6472 210.809C28.0227 210.582 28.4501 210.455 28.8885 210.441C29.327 210.426 29.7619 210.524 30.1516 210.726C30.5375 210.93 30.9082 211.172 31.2941 211.354C31.6996 211.523 32.0772 211.753 32.4139 212.035C32.7348 212.338 32.972 212.718 33.1024 213.14C33.2042 213.566 33.25 214.003 33.2386 214.441L33.3218 217.059L44.0054 216.688L43.9373 216.756L43.8086 213.321C43.8221 212.716 44.047 212.135 44.4442 211.679C45.3387 210.932 46.3316 210.311 47.395 209.833C47.9845 209.667 48.6137 209.712 49.1731 209.962L52.1996 211.558L51.965 211.626L56.9512 202.168L57.0496 202.517L54.0231 200.897C53.4735 200.559 53.0588 200.04 52.8503 199.43C52.7456 199.128 52.6894 198.811 52.6838 198.491V197.644V196.789C52.661 196.468 52.6917 196.146 52.7746 195.836C52.945 195.203 53.3302 194.649 53.8642 194.269L56.7847 192.438L56.6788 192.9L51.0193 183.82L51.5262 183.934L48.5829 185.765C47.9956 186.083 47.3147 186.182 46.6611 186.045C46.3386 185.981 46.0291 185.863 45.7456 185.697L44.989 185.273L44.2324 184.895C43.7728 184.683 43.3763 184.356 43.0817 183.945C42.7872 183.533 42.6049 183.052 42.5527 182.549L42.4543 179.091L42.8099 179.424L32.1264 179.719L32.4215 179.402L32.4971 182.859C32.4699 183.5 32.2273 184.114 31.8086 184.6C31.5894 184.835 31.334 185.035 31.052 185.19L30.2954 185.629L29.5387 186.068C29.2781 186.245 28.9889 186.375 28.6838 186.453C28.0697 186.608 27.4214 186.549 26.8452 186.287L23.8187 184.63L24.091 184.547L18.9687 193.936L18.9157 193.77L21.9422 195.427C22.4472 195.748 22.8244 196.235 23.0091 196.804C23.1437 197.371 23.1972 197.955 23.168 198.537C23.2244 199.112 23.2015 199.693 23.0999 200.262C22.9445 200.831 22.597 201.328 22.1163 201.669L19.1881 203.477V203.424L24.7947 212.504L27.6472 210.809ZM27.6472 210.809L24.8628 212.542L19.1957 203.462L22.1087 201.639C22.5646 201.307 22.893 200.829 23.0393 200.285C23.1339 199.724 23.1492 199.154 23.0847 198.59C23.1042 198.024 23.0457 197.459 22.9107 196.91C22.7485 196.373 22.4066 195.908 21.9422 195.593L18.9157 193.989L18.8098 193.936L18.8628 193.831L23.8489 184.365L23.9397 184.184L24.1213 184.282L27.1478 185.871C27.6234 186.084 28.1577 186.126 28.661 185.992C28.9099 185.924 29.1453 185.814 29.3571 185.667L30.1138 185.197L30.8704 184.736C31.0914 184.607 31.2906 184.443 31.4606 184.252C31.7946 183.857 31.9841 183.361 31.9978 182.844L31.7783 179.424V179.122H32.0886L42.7872 178.766H43.1277V179.114L43.2412 182.527C43.2903 183.022 43.5095 183.484 43.8616 183.836C44.0378 184.007 44.2395 184.15 44.4593 184.259L45.216 184.645L45.9726 185.076C46.1823 185.204 46.4128 185.294 46.6536 185.341C47.1364 185.434 47.6364 185.356 48.0684 185.122L50.989 183.336L51.2992 183.139L51.4884 183.45L57.1025 192.529L57.2765 192.817L56.989 192.991L54.0836 194.791C53.6707 195.078 53.3731 195.501 53.2437 195.987C53.1776 196.233 53.1495 196.489 53.1605 196.744V197.614V198.476C53.1588 198.733 53.1997 198.989 53.2816 199.233C53.4429 199.717 53.7628 200.133 54.1895 200.413L57.216 202.055L57.443 202.176L57.3219 202.403L52.1996 211.785L52.1164 211.944L51.965 211.861L48.9386 210.219C48.4401 209.993 47.8793 209.945 47.3496 210.083C46.8123 210.263 46.3029 210.518 45.8364 210.839C45.3393 211.098 44.8788 211.421 44.4669 211.8C44.0902 212.216 43.8753 212.753 43.8616 213.314L43.9373 216.749V216.817H43.8692L33.2916 217.089L33.2159 214.471C33.2365 214.036 33.1957 213.601 33.0949 213.177C32.9661 212.763 32.7345 212.388 32.4215 212.088C32.0913 211.804 31.7185 211.574 31.3168 211.407C30.9234 211.218 30.5602 210.976 30.1743 210.771C29.7866 210.556 29.3491 210.446 28.9057 210.453C28.4622 210.459 28.0283 210.582 27.6472 210.809V210.809Z" fill="#EBEBEB"/>
<path d="M29.8491 194.973C30.4731 193.331 31.5664 191.909 32.9928 190.884C34.4192 189.859 36.1157 189.276 37.8709 189.208C39.6262 189.141 41.3625 189.591 42.8637 190.503C44.3649 191.415 45.5646 192.748 46.3133 194.337C46.8221 195.421 47.1083 196.596 47.1547 197.792C47.2011 198.988 47.0069 200.182 46.5835 201.302C46.1601 202.421 45.5162 203.445 44.69 204.311C43.8638 205.177 42.872 205.869 41.7735 206.345C40.687 206.813 39.5189 207.061 38.3361 207.077C37.1534 207.092 35.9792 206.875 34.8807 206.436C32.6952 205.56 30.9458 203.855 30.0156 201.692C29.0733 199.562 29.0135 197.146 29.8491 194.973V194.973ZM29.8491 194.973C29.454 196.049 29.2747 197.192 29.3214 198.337C29.3681 199.482 29.64 200.606 30.1215 201.646C30.8375 203.169 31.9859 204.446 33.4234 205.32C34.8609 206.194 36.5238 206.625 38.2047 206.559C39.8856 206.494 41.5101 205.935 42.8754 204.952C44.2407 203.97 45.2864 202.607 45.882 201.034C46.6692 198.939 46.6066 196.619 45.7076 194.569C44.8087 192.52 43.1444 190.902 41.0699 190.063C38.9438 189.215 36.5686 189.245 34.4645 190.146C32.3548 191.091 30.6983 192.823 29.8491 194.973Z" fill="#EBEBEB"/>
<path d="M282.311 138.499L278.574 132.014L276.584 133.164C276.298 133.326 275.972 133.406 275.643 133.394C275.315 133.382 274.996 133.279 274.722 133.096C274.407 132.894 274.081 132.707 273.746 132.536C273.452 132.39 273.205 132.164 273.031 131.885C272.857 131.606 272.765 131.284 272.763 130.955V128.685H265.272V130.955C265.27 131.284 265.178 131.606 265.004 131.885C264.83 132.164 264.583 132.39 264.289 132.536C263.957 132.707 263.633 132.894 263.32 133.096C263.045 133.279 262.725 133.383 262.395 133.395C262.065 133.407 261.739 133.327 261.451 133.164L259.469 132.014L255.739 138.499L257.736 139.649C258.019 139.817 258.25 140.06 258.404 140.351C258.557 140.642 258.627 140.97 258.606 141.298C258.606 141.487 258.606 141.669 258.606 141.85C258.606 142.032 258.606 142.221 258.606 142.403C258.627 142.731 258.556 143.059 258.403 143.35C258.249 143.64 258.019 143.884 257.736 144.052L255.739 145.202L259.484 151.694L261.474 150.544C261.761 150.38 262.087 150.299 262.417 150.31C262.747 150.321 263.067 150.423 263.343 150.605C263.652 150.81 263.973 150.997 264.304 151.165C264.597 151.313 264.843 151.539 265.017 151.817C265.19 152.096 265.284 152.417 265.287 152.746V155.016H272.778V152.746C272.781 152.417 272.875 152.096 273.048 151.817C273.222 151.539 273.469 151.313 273.762 151.165C274.095 150.997 274.419 150.81 274.73 150.605C275.005 150.423 275.326 150.321 275.656 150.31C275.986 150.299 276.312 150.38 276.599 150.544L278.589 151.694L282.327 145.202L280.337 144.052C280.054 143.885 279.824 143.644 279.67 143.354C279.516 143.064 279.446 142.738 279.466 142.41C279.466 142.221 279.466 142.04 279.466 141.85C279.466 141.661 279.466 141.487 279.466 141.298C279.445 140.969 279.516 140.64 279.671 140.349C279.826 140.058 280.059 139.815 280.344 139.649L282.311 138.499ZM275.154 141.85C275.154 143.064 274.794 144.251 274.119 145.26C273.444 146.27 272.486 147.056 271.364 147.52C270.242 147.985 269.008 148.106 267.818 147.868C266.627 147.631 265.534 147.046 264.676 146.187C263.818 145.328 263.234 144.234 262.998 143.043C262.762 141.852 262.885 140.618 263.351 139.497C263.816 138.376 264.604 137.418 265.614 136.745C266.624 136.071 267.811 135.713 269.025 135.714C270.651 135.716 272.21 136.364 273.359 137.514C274.508 138.665 275.154 140.224 275.154 141.85V141.85Z" fill="#EBEBEB"/>
<path d="M26.7318 232.532L22.9487 226.04L21.0041 227.19C20.7168 227.353 20.39 227.432 20.0601 227.42C19.7302 227.408 19.41 227.305 19.1353 227.122C18.8251 226.925 18.4997 226.736 18.1668 226.562C17.8727 226.415 17.625 226.19 17.4514 225.91C17.2778 225.631 17.1849 225.309 17.1832 224.981V222.711H9.68505V224.981C9.68331 225.309 9.59047 225.631 9.41683 225.91C9.24319 226.19 8.99555 226.415 8.70144 226.562C8.36852 226.736 8.04318 226.925 7.73296 227.122C7.45819 227.305 7.13807 227.408 6.80816 227.42C6.47824 227.432 6.15146 227.353 5.8641 227.19L3.88175 226.04L0.0986328 232.532L2.09612 233.674C2.39091 233.836 2.63446 234.076 2.799 234.369C2.96355 234.662 3.04247 234.996 3.02676 235.331C3.02676 235.513 3.02676 235.694 3.02676 235.884C3.02676 236.073 3.02676 236.247 3.02676 236.428C3.04856 236.756 2.97958 237.083 2.82741 237.374C2.67523 237.665 2.44576 237.909 2.16421 238.078L0.159161 239.235L3.94228 245.72L5.87167 244.592C6.15902 244.43 6.48581 244.35 6.81572 244.362C7.14564 244.374 7.46576 244.477 7.74053 244.66C8.05074 244.865 8.37609 245.046 8.70144 245.22C8.99666 245.366 9.24525 245.591 9.41909 245.871C9.59292 246.15 9.68505 246.473 9.68505 246.802V249.072H17.1832V246.802C17.1782 246.47 17.2672 246.143 17.4399 245.859C17.6126 245.575 17.8619 245.346 18.1592 245.198C18.4846 245.024 18.8099 244.842 19.1201 244.638C19.3949 244.455 19.715 244.351 20.0449 244.339C20.3749 244.327 20.7016 244.407 20.989 244.57L22.9789 245.72L26.762 239.235L24.7646 238.085C24.4818 237.918 24.2514 237.674 24.099 237.383C23.9467 237.092 23.8785 236.764 23.902 236.436C23.902 236.254 23.902 236.065 23.902 235.884C23.902 235.702 23.902 235.513 23.902 235.331C23.8804 235.002 23.9502 234.673 24.1037 234.38C24.2573 234.088 24.4886 233.844 24.7721 233.674L26.7318 232.532ZM19.5665 235.884C19.5651 237.097 19.2037 238.283 18.5282 239.291C17.8527 240.3 16.8934 241.085 15.7716 241.548C14.6498 242.011 13.4158 242.131 12.2258 241.893C11.0358 241.655 9.94314 241.069 9.08603 240.21C8.22893 239.35 7.64586 238.256 7.41056 237.066C7.17526 235.875 7.2983 234.641 7.76411 233.521C8.22993 232.4 9.01761 231.443 10.0275 230.77C11.0375 230.097 12.2243 229.738 13.4379 229.74C14.244 229.74 15.0422 229.899 15.7867 230.208C16.5313 230.517 17.2076 230.97 17.7769 231.54C18.3462 232.111 18.7973 232.788 19.1044 233.534C19.4115 234.279 19.5685 235.077 19.5665 235.884V235.884Z" fill="#EBEBEB"/>
<path d="M69.5114 70.569L3.22363 70.4706C3.22363 70.4706 6.52251 66.1806 10.1619 65.651C10.1619 65.651 17.259 44.6244 29.0774 44.4655C40.1014 44.3898 44.4747 57.4794 44.4747 57.4794C44.4747 57.4794 49.5819 51.6232 54.447 54.3092C59.3121 56.9952 62.0435 64.6825 62.0435 64.6825C62.0435 64.6825 67.529 67.6409 69.5114 70.569Z" fill="#EBEBEB"/>
<path d="M232.284 45.8653L316.11 45.9939C316.11 45.9939 316.11 40.637 304.572 39.5778C304.572 39.5778 294.062 16.1224 277.961 19.27C267.898 21.2145 262.753 35.0077 262.753 35.0077C262.753 35.0077 255.187 24.1653 249.134 26.2536C243.081 28.3419 239.457 39.8728 239.457 39.8728C239.457 39.8728 233.199 42.8388 232.284 45.8653Z" fill="#EBEBEB"/>
<path d="M89.9478 21.0707L146.944 21.1615C146.944 21.1615 141.572 16.1451 139.181 16.1451C136.79 16.1451 129.844 -0.682191 120.924 0.0214689C112.003 0.725129 107.259 13.2321 107.259 13.2321C107.259 13.2321 96.4244 9.81974 89.9478 21.0707Z" fill="#EBEBEB"/>
<path d="M222.19 89.9461L270.932 90.0218C270.932 90.0218 268.51 86.8591 265.84 86.4656C265.84 86.4656 260.672 70.9851 251.971 70.8641C243.882 70.7506 240.621 80.3597 240.621 80.3597C240.621 80.3597 236.884 76.0394 233.297 78.0066C229.711 79.9738 227.683 85.6182 227.683 85.6182C227.683 85.6182 223.65 87.7822 222.19 89.9461Z" fill="#EBEBEB"/>
<path d="M42.7116 223.989L59.2135 221.205L73.4986 206.663L99.0422 233.22L116.717 222.242L129.178 232.373L153.595 205.551L172.813 203.773L193.408 173.288L215.797 195.714L229.015 175.255L237.262 174.075L248.233 153.745L269.661 189.208L299.623 305.743H4.14648L42.7116 223.989Z" fill="#DBDBDB"/>
<path d="M45.6473 262.986L45.1858 262.388L70.0409 243.004L106.298 239.901L106.359 239.916L138.349 248.391L166.336 224.103L166.442 224.08L205.658 218.451L234.871 198.794L248.415 167.894L249.111 168.204L235.477 199.301L235.386 199.361L205.938 219.177L205.847 219.185L166.662 224.814L138.538 249.231L138.349 249.178L106.23 240.666L70.3284 243.745L45.6473 262.986Z" fill="white"/>
<path d="M46.752 262.54C46.752 263.216 46.5514 263.877 46.1756 264.44C45.7998 265.002 45.2657 265.44 44.6408 265.699C44.0159 265.958 43.3283 266.026 42.6649 265.894C42.0014 265.762 41.3921 265.436 40.9138 264.958C40.4355 264.48 40.1098 263.87 39.9778 263.207C39.8459 262.543 39.9136 261.856 40.1724 261.231C40.4313 260.606 40.8696 260.072 41.432 259.696C41.9944 259.32 42.6556 259.12 43.332 259.12C44.2391 259.12 45.1089 259.48 45.7503 260.121C46.3917 260.763 46.752 261.633 46.752 262.54Z" fill="#DBDBDB"/>
<path d="M43.3322 266.338C42.584 266.338 41.8525 266.116 41.2304 265.7C40.6083 265.284 40.1234 264.694 39.837 264.002C39.5507 263.311 39.4758 262.55 39.6218 261.817C39.7677 261.083 40.128 260.409 40.6571 259.88C41.1862 259.35 41.8603 258.99 42.5941 258.844C43.328 258.698 44.0887 258.773 44.7799 259.059C45.4712 259.346 46.062 259.831 46.4777 260.453C46.8934 261.075 47.1153 261.806 47.1153 262.555C47.1153 263.558 46.7167 264.52 46.0073 265.23C45.2978 265.939 44.3355 266.338 43.3322 266.338V266.338ZM43.3322 259.528C42.7336 259.528 42.1485 259.706 41.6508 260.038C41.1531 260.371 40.7651 260.843 40.5361 261.396C40.307 261.949 40.2471 262.558 40.3638 263.145C40.4806 263.732 40.7689 264.271 41.1921 264.695C41.6154 265.118 42.1547 265.406 42.7418 265.523C43.3288 265.64 43.9374 265.58 44.4904 265.351C45.0434 265.122 45.5161 264.734 45.8486 264.236C46.1812 263.738 46.3587 263.153 46.3587 262.555C46.3627 262.155 46.2874 261.758 46.137 261.387C45.9867 261.016 45.7645 260.679 45.483 260.395C45.2016 260.111 44.8666 259.885 44.4974 259.731C44.1282 259.577 43.7322 259.498 43.3322 259.498V259.528Z" fill="white"/>
<path d="M73.4458 243.374C73.4458 244.051 73.2453 244.712 72.8695 245.274C72.4937 245.837 71.9596 246.275 71.3346 246.534C70.7097 246.793 70.0221 246.86 69.3587 246.728C68.6953 246.596 68.0859 246.271 67.6076 245.792C67.1294 245.314 66.8036 244.705 66.6717 244.041C66.5397 243.378 66.6074 242.69 66.8663 242.065C67.1251 241.441 67.5635 240.906 68.1259 240.531C68.6883 240.155 69.3495 239.954 70.0259 239.954C70.9323 239.956 71.801 240.317 72.442 240.958C73.0829 241.599 73.4438 242.468 73.4458 243.374V243.374Z" fill="#DBDBDB"/>
<path d="M70.0258 247.173C69.2776 247.173 68.5461 246.951 67.924 246.535C67.3019 246.119 66.817 245.528 66.5307 244.837C66.2443 244.146 66.1694 243.385 66.3154 242.651C66.4613 241.917 66.8216 241.243 67.3507 240.714C67.8798 240.185 68.5539 239.825 69.2877 239.679C70.0216 239.533 70.7823 239.608 71.4735 239.894C72.1648 240.181 72.7556 240.665 73.1713 241.288C73.587 241.91 73.8089 242.641 73.8089 243.389C73.8089 244.393 73.4103 245.355 72.7009 246.064C71.9914 246.774 71.0291 247.173 70.0258 247.173ZM70.0258 240.363C69.4272 240.363 68.8421 240.54 68.3444 240.873C67.8467 241.205 67.4587 241.678 67.2297 242.231C67.0006 242.784 66.9407 243.393 67.0575 243.98C67.1742 244.567 67.4625 245.106 67.8857 245.529C68.309 245.953 68.8483 246.241 69.4354 246.358C70.0224 246.474 70.631 246.415 71.184 246.186C71.737 245.956 72.2097 245.569 72.5422 245.071C72.8748 244.573 73.0523 243.988 73.0523 243.389C73.0563 242.989 72.981 242.593 72.8307 242.222C72.6804 241.851 72.4581 241.514 72.1766 241.23C71.8952 240.945 71.5602 240.72 71.191 240.566C70.8218 240.412 70.4258 240.333 70.0258 240.333V240.363Z" fill="white"/>
<path d="M109.711 239.765C109.711 240.442 109.51 241.103 109.134 241.666C108.758 242.229 108.223 242.667 107.598 242.925C106.972 243.184 106.284 243.251 105.621 243.119C104.957 242.986 104.348 242.66 103.87 242.181C103.392 241.702 103.067 241.092 102.936 240.428C102.805 239.764 102.873 239.076 103.133 238.451C103.393 237.826 103.833 237.293 104.396 236.918C104.96 236.543 105.622 236.344 106.298 236.345C106.747 236.345 107.191 236.434 107.606 236.606C108.02 236.778 108.397 237.03 108.714 237.347C109.031 237.665 109.282 238.042 109.453 238.457C109.624 238.872 109.712 239.316 109.711 239.765V239.765Z" fill="#DBDBDB"/>
<path d="M106.268 243.563C105.52 243.563 104.788 243.341 104.166 242.926C103.544 242.51 103.059 241.919 102.773 241.228C102.487 240.537 102.412 239.776 102.558 239.042C102.704 238.308 103.064 237.634 103.593 237.105C104.122 236.576 104.796 236.216 105.53 236.07C106.264 235.924 107.024 235.999 107.716 236.285C108.407 236.571 108.998 237.056 109.414 237.678C109.829 238.301 110.051 239.032 110.051 239.78C110.051 240.784 109.653 241.746 108.943 242.455C108.234 243.165 107.271 243.563 106.268 243.563ZM106.268 236.754C105.669 236.754 105.084 236.931 104.587 237.264C104.089 237.596 103.701 238.069 103.472 238.622C103.243 239.175 103.183 239.784 103.3 240.371C103.416 240.958 103.705 241.497 104.128 241.92C104.551 242.344 105.09 242.632 105.678 242.749C106.265 242.865 106.873 242.805 107.426 242.576C107.979 242.347 108.452 241.959 108.784 241.462C109.117 240.964 109.294 240.379 109.294 239.78C109.298 239.38 109.223 238.983 109.073 238.613C108.923 238.242 108.7 237.905 108.419 237.621C108.137 237.336 107.802 237.111 107.433 236.957C107.064 236.803 106.668 236.723 106.268 236.723V236.754Z" fill="white"/>
<path d="M138.288 252.31C140.177 252.31 141.708 250.779 141.708 248.89C141.708 247.001 140.177 245.47 138.288 245.47C136.4 245.47 134.868 247.001 134.868 248.89C134.868 250.779 136.4 252.31 138.288 252.31Z" fill="#DBDBDB"/>
<path d="M138.288 252.688C137.54 252.688 136.809 252.466 136.187 252.051C135.565 251.635 135.08 251.044 134.793 250.353C134.507 249.662 134.432 248.901 134.578 248.167C134.724 247.433 135.084 246.759 135.613 246.23C136.143 245.701 136.817 245.341 137.55 245.195C138.284 245.049 139.045 245.124 139.736 245.41C140.427 245.696 141.018 246.181 141.434 246.803C141.85 247.425 142.072 248.157 142.072 248.905C142.072 249.908 141.673 250.871 140.964 251.58C140.254 252.29 139.292 252.688 138.288 252.688V252.688ZM138.288 245.879C137.69 245.879 137.105 246.056 136.607 246.389C136.109 246.721 135.721 247.194 135.492 247.747C135.263 248.3 135.203 248.908 135.32 249.496C135.437 250.083 135.725 250.622 136.148 251.045C136.572 251.468 137.111 251.757 137.698 251.873C138.285 251.99 138.894 251.93 139.447 251.701C140 251.472 140.472 251.084 140.805 250.587C141.137 250.089 141.315 249.504 141.315 248.905C141.319 248.505 141.244 248.108 141.093 247.738C140.943 247.367 140.721 247.03 140.439 246.745C140.158 246.461 139.823 246.236 139.454 246.082C139.085 245.928 138.688 245.848 138.288 245.848V245.879Z" fill="white"/>
<path d="M169.915 224.844C169.915 225.521 169.715 226.182 169.339 226.744C168.963 227.307 168.429 227.745 167.804 228.004C167.179 228.263 166.492 228.331 165.828 228.199C165.165 228.067 164.555 227.741 164.077 227.263C163.599 226.784 163.273 226.175 163.141 225.512C163.009 224.848 163.077 224.161 163.336 223.536C163.595 222.911 164.033 222.377 164.595 222.001C165.158 221.625 165.819 221.425 166.495 221.425C167.402 221.425 168.272 221.785 168.914 222.426C169.555 223.068 169.915 223.937 169.915 224.844Z" fill="#DBDBDB"/>
<path d="M166.495 228.643C165.747 228.643 165.015 228.421 164.393 228.005C163.771 227.59 163.286 226.999 163 226.307C162.714 225.616 162.639 224.855 162.785 224.122C162.931 223.388 163.291 222.714 163.82 222.185C164.349 221.656 165.023 221.295 165.757 221.149C166.491 221.003 167.251 221.078 167.943 221.365C168.634 221.651 169.225 222.136 169.641 222.758C170.056 223.38 170.278 224.111 170.278 224.86C170.278 225.863 169.88 226.825 169.17 227.535C168.461 228.244 167.498 228.643 166.495 228.643V228.643ZM166.495 221.833C165.896 221.833 165.311 222.011 164.814 222.343C164.316 222.676 163.928 223.148 163.699 223.701C163.47 224.255 163.41 224.863 163.527 225.45C163.643 226.037 163.932 226.576 164.355 227C164.778 227.423 165.318 227.711 165.905 227.828C166.492 227.945 167.1 227.885 167.653 227.656C168.206 227.427 168.679 227.039 169.011 226.541C169.344 226.043 169.522 225.458 169.522 224.86C169.526 224.46 169.45 224.063 169.3 223.692C169.15 223.322 168.927 222.984 168.646 222.7C168.364 222.416 168.029 222.19 167.66 222.036C167.291 221.882 166.895 221.803 166.495 221.803V221.833Z" fill="white"/>
<path d="M209.214 218.519C209.211 219.195 209.008 219.855 208.63 220.416C208.252 220.976 207.716 221.412 207.09 221.669C206.465 221.925 205.777 221.99 205.115 221.856C204.452 221.721 203.844 221.394 203.368 220.914C202.891 220.435 202.568 219.824 202.438 219.161C202.308 218.497 202.378 217.81 202.638 217.186C202.898 216.563 203.338 216.03 203.901 215.656C204.464 215.281 205.125 215.083 205.801 215.084C206.251 215.085 206.696 215.175 207.111 215.348C207.526 215.521 207.903 215.775 208.22 216.094C208.537 216.413 208.788 216.791 208.959 217.207C209.129 217.624 209.216 218.069 209.214 218.519V218.519Z" fill="#DBDBDB"/>
<path d="M205.802 222.317C205.053 222.317 204.322 222.096 203.7 221.68C203.078 221.264 202.593 220.673 202.307 219.982C202.02 219.291 201.945 218.53 202.091 217.796C202.237 217.062 202.598 216.388 203.127 215.859C203.656 215.33 204.33 214.97 205.064 214.824C205.797 214.678 206.558 214.753 207.249 215.039C207.941 215.325 208.532 215.81 208.947 216.432C209.363 217.055 209.585 217.786 209.585 218.534C209.585 219.538 209.186 220.5 208.477 221.209C207.767 221.919 206.805 222.317 205.802 222.317ZM205.802 215.508C205.203 215.508 204.618 215.685 204.12 216.018C203.623 216.35 203.235 216.823 203.006 217.376C202.776 217.929 202.717 218.538 202.833 219.125C202.95 219.712 203.238 220.251 203.662 220.674C204.085 221.098 204.624 221.386 205.211 221.503C205.798 221.619 206.407 221.559 206.96 221.33C207.513 221.101 207.986 220.713 208.318 220.216C208.651 219.718 208.828 219.133 208.828 218.534C208.831 218.135 208.755 217.739 208.604 217.369C208.454 216.999 208.231 216.663 207.95 216.38C207.668 216.096 207.334 215.871 206.965 215.718C206.596 215.564 206.201 215.485 205.802 215.485V215.508Z" fill="white"/>
<path d="M238.617 199.134C238.617 199.811 238.416 200.473 238.04 201.035C237.664 201.598 237.129 202.036 236.504 202.295C235.878 202.553 235.19 202.621 234.527 202.488C233.863 202.356 233.254 202.029 232.776 201.55C232.298 201.071 231.973 200.461 231.842 199.797C231.711 199.133 231.779 198.445 232.039 197.82C232.299 197.196 232.739 196.662 233.302 196.287C233.866 195.912 234.528 195.713 235.204 195.715C235.653 195.715 236.097 195.803 236.512 195.975C236.926 196.147 237.303 196.399 237.62 196.717C237.937 197.034 238.188 197.411 238.359 197.826C238.53 198.241 238.618 198.686 238.617 199.134V199.134Z" fill="#DBDBDB"/>
<path d="M235.204 202.933C234.456 202.933 233.724 202.711 233.102 202.295C232.48 201.879 231.995 201.289 231.709 200.597C231.423 199.906 231.348 199.145 231.494 198.412C231.64 197.678 232 197.004 232.529 196.475C233.058 195.945 233.732 195.585 234.466 195.439C235.2 195.293 235.96 195.368 236.652 195.654C237.343 195.941 237.934 196.426 238.35 197.048C238.765 197.67 238.987 198.401 238.987 199.15C238.987 200.153 238.589 201.115 237.879 201.825C237.17 202.534 236.207 202.933 235.204 202.933V202.933ZM235.204 196.123C234.605 196.123 234.02 196.301 233.523 196.633C233.025 196.966 232.637 197.438 232.408 197.991C232.179 198.544 232.119 199.153 232.236 199.74C232.352 200.327 232.641 200.866 233.064 201.29C233.487 201.713 234.026 202.001 234.614 202.118C235.201 202.235 235.809 202.175 236.362 201.946C236.915 201.717 237.388 201.329 237.72 200.831C238.053 200.333 238.23 199.748 238.23 199.15C238.234 198.75 238.159 198.353 238.009 197.982C237.859 197.611 237.636 197.274 237.355 196.99C237.073 196.706 236.738 196.48 236.369 196.326C236 196.172 235.604 196.093 235.204 196.093V196.123Z" fill="white"/>
<path d="M252.342 168.06C252.342 168.736 252.141 169.398 251.765 169.96C251.39 170.522 250.856 170.961 250.231 171.22C249.606 171.478 248.918 171.546 248.255 171.414C247.591 171.282 246.982 170.956 246.504 170.478C246.025 170 245.7 169.391 245.568 168.727C245.436 168.064 245.503 167.376 245.762 166.751C246.021 166.126 246.459 165.592 247.022 165.216C247.584 164.841 248.245 164.64 248.922 164.64C249.371 164.639 249.816 164.727 250.232 164.898C250.647 165.07 251.025 165.322 251.342 165.639C251.66 165.957 251.912 166.335 252.084 166.75C252.255 167.165 252.343 167.611 252.342 168.06V168.06Z" fill="#DBDBDB"/>
<path d="M248.929 171.851C248.181 171.851 247.45 171.629 246.828 171.213C246.205 170.797 245.721 170.207 245.434 169.515C245.148 168.824 245.073 168.063 245.219 167.329C245.365 166.596 245.725 165.922 246.254 165.392C246.783 164.863 247.457 164.503 248.191 164.357C248.925 164.211 249.686 164.286 250.377 164.572C251.068 164.859 251.659 165.344 252.075 165.966C252.491 166.588 252.712 167.319 252.712 168.067C252.712 169.071 252.314 170.033 251.604 170.743C250.895 171.452 249.933 171.851 248.929 171.851V171.851ZM248.929 165.041C248.331 165.041 247.746 165.219 247.248 165.551C246.75 165.884 246.362 166.356 246.133 166.909C245.904 167.462 245.844 168.071 245.961 168.658C246.078 169.245 246.366 169.784 246.789 170.208C247.213 170.631 247.752 170.919 248.339 171.036C248.926 171.153 249.535 171.093 250.088 170.864C250.641 170.635 251.113 170.247 251.446 169.749C251.778 169.251 251.956 168.666 251.956 168.067C251.959 167.668 251.883 167.272 251.732 166.902C251.581 166.533 251.359 166.196 251.077 165.913C250.796 165.629 250.461 165.404 250.093 165.251C249.724 165.097 249.329 165.018 248.929 165.018V165.041Z" fill="white"/>
<path d="M108.818 330C167.458 330 214.995 325.728 214.995 320.459C214.995 315.19 167.458 310.918 108.818 310.918C50.1779 310.918 2.64087 315.19 2.64087 320.459C2.64087 325.728 50.1779 330 108.818 330Z" fill="#EBEBEB"/>
<path d="M212.475 208.448H177.784V305.765H212.475V208.448Z" fill="#C68B59"/>
<g opacity="0.1">
<path opacity="0.1" d="M212.475 208.448H204.53V305.765H212.475V208.448Z" fill="black"/>
</g>
<path d="M258.182 171.669H223.491V305.765H258.182V171.669Z" fill="#C68B59"/>
<g opacity="0.1">
<path opacity="0.1" d="M258.175 171.669H250.23V305.765H258.175V171.669Z" fill="black"/>
</g>
<path d="M166.873 230.36H132.182V305.758H166.873V230.36Z" fill="#C68B59"/>
<g opacity="0.1">
<path opacity="0.1" d="M166.873 230.36H158.929V305.758H166.873V230.36Z" fill="black"/>
</g>
<path d="M303.883 122.685H269.191V305.758H303.883V122.685Z" fill="#C68B59"/>
<g opacity="0.1">
<path opacity="0.1" d="M303.883 122.685H295.938V305.758H303.883V122.685Z" fill="black"/>
</g>
<path d="M119.895 276.529V257.765C119.895 257.765 246.251 247.014 297.293 107.038L302.37 108.347C302.37 108.347 268.465 251.818 119.895 276.529Z" fill="#37474F"/>
<path d="M307.106 113.053L291.141 107.772L304.367 94.5843L307.106 113.053Z" fill="#37474F"/>
<path d="M0 305.765L39.9119 305.576L79.8238 305.516L159.648 305.387L239.471 305.508L279.383 305.576L319.295 305.765L279.383 305.947L239.471 306.015L159.648 306.144L79.8238 306.015L39.9119 305.947L0 305.765Z" fill="#263238"/>
<path d="M194.763 47.1137C197.032 59.9762 189.466 73.9586 172.941 79.1415C157.923 83.8553 140.929 76.0394 137.191 66.1427C133.234 55.6559 139.975 45.6004 148.427 44.7303C156.568 43.8602 163.045 48.347 169.068 45.9106C171.95 44.7379 175.181 40.6143 179.365 38.6773C184.034 36.5209 193.317 38.8665 194.763 47.1137Z" fill="#263238"/>
<path d="M143.343 74.9498C147.583 78.2632 152.599 80.4403 157.915 81.2752C163.234 82.0927 168.67 81.6786 173.804 80.0646C178.991 78.5345 183.671 75.6392 187.355 71.6812C190.961 67.6788 193.414 62.7732 194.452 57.487C193.198 62.6555 190.646 67.4185 187.038 71.3256C185.216 73.2397 183.144 74.8991 180.879 76.2588C178.609 77.6053 176.182 78.6675 173.653 79.4215C171.124 80.1921 168.523 80.6992 165.89 80.9347C160.598 81.402 155.271 80.6246 150.334 78.6649C147.851 77.7373 145.501 76.4884 143.343 74.9498V74.9498Z" fill="#263238"/>
<path d="M146.165 44.5033C147.739 44.011 149.381 43.7709 151.03 43.7921C152.666 43.7965 154.296 43.992 155.887 44.3747C157.491 44.7681 159.11 45.1313 160.745 45.4188C162.392 45.7328 164.07 45.8546 165.746 45.782C166.592 45.7377 167.433 45.6187 168.258 45.4264C169.08 45.1933 169.868 44.8551 170.603 44.4201C172.011 43.5358 173.363 42.5655 174.651 41.5147C175.937 40.5014 177.345 39.6548 178.843 38.9951C180.363 38.3577 181.986 38.0013 183.633 37.9434C181.965 37.8768 180.3 38.1337 178.73 38.7C177.178 39.3161 175.711 40.1271 174.364 41.1137C173.002 42.0594 171.716 43.1036 170.308 43.9056C169.618 44.3165 168.874 44.6321 168.099 44.8438C167.313 45.0211 166.513 45.1249 165.708 45.154C162.462 45.3583 159.224 44.5336 155.993 43.9056C154.358 43.5708 152.69 43.4311 151.022 43.4895C149.357 43.5515 147.715 43.8943 146.165 44.5033V44.5033Z" fill="#263238"/>
<path d="M29.2813 70.9851C30.8778 67.2853 80.3988 65.4694 122.497 64.9322H122.573C141.572 64.6976 159.822 62.9498 171.322 63.5475C178.631 63.9334 182.543 66.574 183.428 67.6182C186.25 71.0078 191.418 81.8805 171.958 95.6132C157.234 106.002 140.338 115.285 127.786 131.175C115.234 147.064 108.19 167.091 109.082 180.741C109.975 194.39 119.887 207.419 118.918 206.005C118.616 205.566 114.931 205.785 109.786 202.804C103.468 199.142 96.129 191.394 91.1655 189.117C81.0192 184.471 67.3016 185.258 56.5878 174.393C45.2309 162.983 42.4693 142.819 37.0745 126.854C30.5373 107.462 15.4729 102.937 29.2813 70.9851Z" fill="#C68B59"/>
<g opacity="0.2">
<path opacity="0.2" d="M29.2813 70.9851C30.8778 67.2853 80.3988 65.4694 122.497 64.9322H122.573C141.572 64.6976 159.822 62.9498 171.322 63.5475C178.631 63.9334 182.543 66.574 183.428 67.6182C186.25 71.0078 191.418 81.8805 171.958 95.6132C157.234 106.002 140.338 115.285 127.786 131.175C115.234 147.064 108.19 167.091 109.082 180.741C109.975 194.39 119.887 207.419 118.918 206.005C118.616 205.566 114.931 205.785 109.786 202.804C103.468 199.142 96.129 191.394 91.1655 189.117C81.0192 184.471 67.3016 185.258 56.5878 174.393C45.2309 162.983 42.4693 142.819 37.0745 126.854C30.5373 107.462 15.4729 102.937 29.2813 70.9851Z" fill="black"/>
</g>
<path opacity="0.1" d="M39.3443 134.08C38.6255 131.613 37.8992 129.185 37.0744 126.854C35.4726 122.361 33.4006 118.049 30.8928 113.992C30.8928 113.992 75.2839 102.945 88.2297 108.324C95.3344 111.26 74.5348 113.114 39.3443 134.08Z" fill="black"/>
<path opacity="0.1" d="M98.9586 194.701C96.0608 192.317 93.3294 190.161 91.0973 189.155C88.4908 188.024 85.7924 187.118 83.0317 186.446C85.8842 168.007 89.0847 155.273 97.0671 146.829C102.144 141.412 89.3268 172.501 98.9586 194.701Z" fill="black"/>
<path opacity="0.1" d="M43.1879 147.85C42.5297 145.626 41.9017 143.379 41.2737 141.132C55.5966 135.351 67.7555 126.998 67.8538 128.95C68.0052 131.099 52.5776 141.691 43.1879 147.85Z" fill="black"/>
<path d="M16.1086 111.427C16.1086 111.427 12.0153 93.2677 24.492 71.3256C25.7026 69.1919 46.8275 60.173 60.9461 58.9851C75.0647 57.7972 85.8012 62.0116 102.56 64.4404C119.32 66.8691 163.93 61.4744 174.72 63.7745C182.134 65.3559 183.33 67.656 183.33 67.656C183.33 67.656 174.667 64.917 169.461 65.0003C148.858 65.3332 112.283 76.2512 102.689 76.1075C90.9765 75.9335 77.9323 74.8742 68.4291 77.1592C57.8061 79.6485 22.328 104.731 16.1086 111.427Z" fill="#C68B59"/>
<path d="M132.046 248.118C130.919 246.87 112.684 204.991 113.009 202.94C113.115 202.184 152.195 190.161 152.195 190.161L162.909 217.354L138.19 222.696C138.19 222.696 137.993 241.853 137.433 244.055C136.873 246.257 133.166 249.367 132.046 248.118Z" fill="#EB9481"/>
<path d="M132.046 248.118C131.554 247.566 127.756 239.175 123.678 229.762C123.413 229.142 123.14 228.514 122.876 227.886C122.172 226.282 121.483 224.655 120.795 223.044C120.53 222.416 120.273 221.788 120.038 221.167C119.781 220.547 119.516 219.919 119.282 219.313C118.881 218.375 118.525 217.452 118.132 216.552C117.89 215.962 117.655 215.379 117.42 214.819L116.747 213.155C116.414 212.337 116.104 211.558 115.809 210.809C115.605 210.31 115.408 209.81 115.226 209.334C114.863 208.411 114.538 207.563 114.265 206.807C114.114 206.428 113.985 206.05 113.872 205.74C113.577 204.907 113.357 204.226 113.236 203.772C113.151 203.529 113.107 203.274 113.108 203.016C113.108 202.743 117.716 200.875 123.7 198.521C124.548 202.97 126.341 210.998 129.753 222.998C135.322 242.723 137.857 234.983 138.144 231.079C138.144 231.041 138.144 231.003 138.144 230.965C138.144 231.2 138.144 231.442 138.144 231.677V231.73C138.144 232.161 138.144 232.6 138.106 233.031C138.069 233.462 138.106 233.984 138.106 234.461C138.106 235.218 138.069 236.035 138.031 236.799C137.993 237.563 137.985 238.312 137.948 238.986C137.948 239.402 137.948 239.803 137.895 240.181C137.895 240.378 137.895 240.559 137.895 240.749C137.895 240.938 137.895 241.24 137.849 241.505C137.849 242.02 137.789 242.481 137.743 242.875C137.751 242.965 137.751 243.056 137.743 243.147C137.713 243.465 137.665 243.781 137.6 244.093C136.82 246.242 133.166 249.359 132.046 248.118Z" fill="#263238"/>
<path d="M146.679 225.026L136.033 193.467C136.033 193.467 176.407 177.828 177.095 175.172C177.368 174.136 150.924 135.449 146.006 120.514C142.737 110.572 150.818 99.5855 150.818 99.5855L179.925 107.394C179.925 107.394 178.412 115.717 179.388 117.374C188.596 132.65 214.389 174.824 211.968 189.48C209.653 203.508 146.679 225.026 146.679 225.026Z" fill="#263238"/>
<path d="M152.982 220.948C151.832 217.286 146.929 202.479 145.544 198.817C145.151 197.757 144.787 196.698 144.349 195.654C143.978 194.594 143.549 193.556 143.062 192.544C143.056 192.531 143.045 192.521 143.031 192.516C143.018 192.51 143.003 192.51 142.989 192.514C142.976 192.519 142.964 192.528 142.957 192.541C142.949 192.553 142.946 192.568 142.949 192.582C143.166 193.557 143.437 194.519 143.758 195.465C144.038 196.426 144.341 197.379 144.644 198.332C145.234 200.216 145.847 202.115 146.46 203.969C147.67 207.631 151.665 219.102 152.671 221.061C152.755 221.22 153.042 221.137 152.982 220.948Z" fill="#37474F"/>
<path d="M181.59 175.982C178.109 171.782 153.345 128.314 152.081 125.772C150.773 123.457 149.775 120.979 149.116 118.403C147.92 112.736 149.706 106.834 152.142 101.757C152.152 101.727 152.151 101.694 152.139 101.665C152.127 101.635 152.106 101.611 152.078 101.596C152.05 101.581 152.018 101.575 151.987 101.581C151.956 101.587 151.928 101.604 151.907 101.628C149.471 106.047 147.769 111.071 148.124 116.171C148.341 118.768 149.052 121.301 150.22 123.631C151.416 126.181 152.74 128.678 154.003 131.197C156.621 136.388 179.093 173.757 180.947 176.125C176.611 178.456 172.268 180.779 167.857 182.935C163.317 185.205 158.687 187.316 154.049 189.397C151.431 190.567 148.798 191.712 146.15 192.832C146.036 192.877 146.089 193.059 146.203 193.013C155.714 189.447 164.993 185.29 173.986 180.567C176.528 179.235 179.07 177.881 181.552 176.443C181.587 176.417 181.616 176.384 181.637 176.345C181.658 176.307 181.671 176.265 181.674 176.221C181.678 176.177 181.672 176.134 181.658 176.092C181.643 176.051 181.62 176.013 181.59 175.982V175.982Z" fill="#37474F"/>
<path d="M173.184 168.521C165.693 156.589 149.728 131.787 146.006 120.514C142.737 110.572 150.818 99.5855 150.818 99.5855L162.023 102.612L173.184 168.521Z" fill="#37474F"/>
<path d="M101.387 276.212C99.806 275.621 64.3129 246.84 63.6773 244.88C63.4125 244.123 67.3091 238.729 72.1969 232.32L72.3558 232.123C73.3621 230.799 92.7846 210.015 92.7846 210.015L115.619 229.354L95.4479 250.441L95.1225 250.819C95.1225 250.819 103.771 267.911 104.263 270.136C104.754 272.36 102.901 276.802 101.387 276.212Z" fill="#EB9481"/>
<path d="M69.7457 235.513C66.0533 240.454 63.4203 244.267 63.6397 244.887C64.3131 246.862 99.7685 275.614 101.388 276.212C103.007 276.809 104.762 272.353 104.27 270.159C103.975 268.804 100.646 261.926 98.0888 256.759C99.7079 260.398 100.956 267.775 86.7394 253.611C77.8794 244.85 72.636 238.94 69.7457 235.513Z" fill="#263238"/>
<path d="M179.925 107.394C179.925 107.394 173.161 123.101 167.645 126.657C167.645 126.657 147.58 175.982 141.209 188.943C132.803 206.058 103.658 245.455 103.658 245.455L75.8896 224.353C75.8896 224.353 112.427 179.107 112.896 177.972C115.552 171.518 136.563 123.994 136.488 122.738C135.731 109.876 144.81 97.9815 144.81 97.9815L179.925 107.394Z" fill="#263238"/>
<path d="M167.494 126.688C167.214 127.038 167.003 127.439 166.873 127.868C166.699 128.261 166.533 128.625 166.366 129.056C166.033 129.813 165.693 130.645 165.367 131.447C164.694 133.104 164.006 134.753 163.317 136.41C162.629 138.067 161.94 139.724 161.282 141.389C160.623 143.053 159.973 144.635 159.458 146.299C159.458 146.36 159.534 146.398 159.564 146.299C160.457 144.786 161.214 143.129 161.955 141.51C162.697 139.891 163.415 138.241 164.096 136.592C164.777 134.942 165.451 133.27 166.109 131.606C166.419 130.849 166.707 130.047 167.002 129.268C167.153 128.867 167.297 128.458 167.441 128.05C167.64 127.648 167.759 127.211 167.789 126.763C167.781 126.733 167.765 126.706 167.743 126.684C167.721 126.662 167.694 126.646 167.663 126.638C167.633 126.631 167.602 126.631 167.572 126.64C167.542 126.649 167.515 126.665 167.494 126.688Z" fill="#37474F"/>
<path d="M179.637 109.739C177.405 113.401 175.272 117.116 172.828 120.65C172.313 121.407 171.776 122.466 170.951 122.92C170.784 123.018 170.593 123.07 170.399 123.07C170.205 123.07 170.014 123.018 169.847 122.92C169.378 122.594 169.612 121.944 169.809 121.535C170.278 120.559 170.868 119.628 171.39 118.675C171.912 117.722 172.487 116.655 173.04 115.649C174.265 113.379 175.355 111.109 176.588 108.839C176.626 108.771 176.528 108.71 176.49 108.778C175.211 110.988 173.804 113.121 172.518 115.331L170.535 118.713L169.612 120.332C169.312 120.788 169.073 121.282 168.901 121.8C168.83 121.991 168.799 122.194 168.811 122.398C168.823 122.601 168.878 122.799 168.971 122.98C169.064 123.161 169.195 123.321 169.353 123.448C169.512 123.576 169.695 123.669 169.892 123.722C170.309 123.793 170.737 123.747 171.129 123.587C171.52 123.428 171.86 123.163 172.109 122.821C172.804 121.944 173.444 121.025 174.023 120.067C174.682 119.061 175.332 118.047 175.945 117.041C177.363 114.704 178.612 112.269 179.683 109.755C179.705 109.732 179.66 109.702 179.637 109.739Z" fill="#37474F"/>
<path d="M169.726 123.26C169.173 123.722 167.07 126.483 166.941 126.635C166.813 126.786 167.244 126.975 167.304 126.915C168.279 125.783 169.176 124.588 169.99 123.336C170.006 123.29 169.771 123.215 169.726 123.26Z" fill="#37474F"/>
<path d="M171.996 125.689C170.107 125.826 168.233 126.128 166.397 126.589C165.481 126.786 164.573 126.99 163.665 127.225C162.691 127.424 161.733 127.692 160.798 128.027C160.786 128.031 160.776 128.039 160.769 128.049C160.762 128.059 160.758 128.071 160.758 128.084C160.758 128.096 160.762 128.108 160.769 128.118C160.776 128.128 160.786 128.136 160.798 128.14C161.783 128.084 162.764 127.961 163.733 127.77C164.626 127.641 165.511 127.49 166.397 127.316C168.304 127.029 170.182 126.576 172.011 125.961C172.047 125.959 172.081 125.943 172.105 125.916C172.129 125.889 172.141 125.854 172.139 125.818C172.137 125.781 172.121 125.748 172.094 125.723C172.067 125.699 172.032 125.687 171.996 125.689Z" fill="#37474F"/>
<path d="M105.928 238.479C102.901 236.111 90.4697 226.698 87.2465 224.466C86.3234 223.823 85.4004 223.165 84.4697 222.537C83.5628 221.876 82.6207 221.265 81.6475 220.706C81.6345 220.699 81.6197 220.698 81.6057 220.702C81.5917 220.705 81.5795 220.714 81.5713 220.726C81.5631 220.738 81.5594 220.752 81.5609 220.766C81.5624 220.781 81.5689 220.794 81.5794 220.804C82.2996 221.484 83.0575 222.123 83.8493 222.718C84.6059 223.346 85.4231 223.959 86.21 224.58C87.7232 225.798 89.3348 226.993 90.901 228.189C93.9805 230.519 103.764 237.73 105.708 238.744C105.928 238.827 106.102 238.6 105.928 238.479Z" fill="#37474F"/>
<path d="M148.396 100.637C146.055 103.753 144.299 107.267 143.214 111.01C142.688 112.854 142.323 114.74 142.124 116.647C141.897 118.789 142.041 120.99 141.367 123.063C140.598 125.182 139.721 127.26 138.742 129.29L135.965 135.646L130.495 148.267L119.478 173.606C118.601 175.641 117.738 177.684 116.717 179.659C115.717 181.568 114.563 183.392 113.266 185.114C110.565 188.769 107.675 192.287 104.891 195.873C99.2689 203.084 93.6169 210.249 88.1238 217.573L86.0507 220.343C86.0053 220.403 86.0507 220.486 86.1339 220.426C91.9372 213.329 97.6043 206.126 103.279 198.915C106.119 195.313 108.946 191.702 111.761 188.08C113.032 186.446 114.295 184.796 115.423 183.056C116.599 181.213 117.633 179.283 118.517 177.283C122.3 168.96 125.841 160.478 129.496 152.08C133.15 143.681 136.843 135.185 140.49 126.726C141.425 124.878 142.071 122.898 142.404 120.854C142.623 118.758 142.631 116.662 142.994 114.574C143.694 110.625 145.052 106.822 147.012 103.323C147.496 102.453 148.026 101.606 148.578 100.781C148.669 100.66 148.48 100.524 148.396 100.637Z" fill="#37474F"/>
<path d="M84.8084 126.666L72.8254 160.244L128.252 180.024L140.235 146.446L84.8084 126.666Z" fill="#455A64"/>
<path d="M84.8111 126.661L79.168 142.474L134.594 162.254L140.238 146.441L84.8111 126.661Z" fill="#37474F"/>
<path d="M79.6716 136.918L137.72 157.634L143.313 141.964L85.2639 121.248L79.6716 136.918Z" fill="#455A64"/>
<path d="M105.254 118.312L102.061 127.248L106.268 128.746L108.084 123.661L124.117 129.389L122.301 134.473L126.508 135.971L129.693 127.028L105.254 118.312Z" fill="#263238"/>
<path d="M124.64 157.179L128.424 158.53L131.094 151.047L127.31 149.697L124.64 157.179Z" fill="#263238"/>
<path d="M86.2991 143.511L90.083 144.862L92.7532 137.379L88.9693 136.029L86.2991 143.511Z" fill="#263238"/>
<path d="M178.624 76.0924C188.18 91.6258 200.286 105.858 205.862 105.964C213.368 106.108 229.317 98.3976 237.247 93.5855C239.57 92.1857 228.273 74.3067 225.784 75.8048C222.757 77.6132 207.375 87.2374 207.027 87.3206C206.271 87.5022 188.959 75.6838 184.888 72.7556C178.086 67.8754 174.387 69.1995 178.624 76.0924Z" fill="#EB9481"/>
<path d="M248.755 85.8074C245.887 89.2954 237.217 94.1302 234.682 94.4934C232.147 94.8566 223.431 80.4051 224.377 77.946C225.322 75.487 235.908 64.5008 240.417 63.5702C244.926 62.6396 251.729 82.1907 248.755 85.8074Z" fill="#EB9481"/>
<path d="M233.797 66.4C233.449 68.7682 236.437 67.8224 236.437 67.8224C236.437 67.8224 232.465 70.2285 233.055 72.8086C233.645 75.3887 237.201 74.0192 237.459 73.9284C237.247 74.057 233.676 76.3647 234.508 78.8918C235.34 81.4189 238.768 79.6484 238.987 79.5047C238.828 79.6863 236.763 82.1529 237.852 83.9309C239.729 86.9574 245.176 80.8212 248.074 80.7682C248.074 80.7682 248.732 85.6636 248.778 85.8074C248.778 85.8074 254.074 80.0494 253.794 76.1453C253.761 75.577 253.534 75.0373 253.152 74.616C252.769 74.1947 252.253 73.9173 251.691 73.83C251.691 73.83 253.605 72.1579 252.992 70.1453C252.674 69.1162 250.722 68.7001 250.722 68.7001C251.135 68.2998 251.429 67.7937 251.574 67.2372C251.718 66.6807 251.706 66.0952 251.539 65.545C251.017 64.1377 249.164 63.9485 249.164 63.9485C249.164 63.9485 249.958 61.9435 248.959 60.6799C246.954 58.1301 234.553 61.3306 233.797 66.4Z" fill="#EB9481"/>
<path d="M248.868 63.8728C248.914 63.8728 248.914 63.8047 248.868 63.8047C244.349 63.8446 239.948 65.2562 236.248 67.8527C236.135 67.9435 236.248 68.1629 236.369 68.0948C240.308 66.0863 244.519 64.664 248.868 63.8728V63.8728Z" fill="#263238"/>
<path d="M250.775 68.6623C250.821 68.6623 250.813 68.5715 250.775 68.5715C245.79 68.6678 241.004 70.5468 237.285 73.8678C237.156 73.9889 237.164 74.2235 237.285 74.0948C239.933 71.946 246.659 69.3432 250.775 68.6623Z" fill="#263238"/>
<path d="M238.79 79.8376C242.46 76.637 246.788 74.9271 251.486 73.7846C251.547 73.7846 251.486 73.6862 251.486 73.6862C249.042 73.603 246.122 74.6244 243.92 75.6156C241.857 76.49 240.059 77.8911 238.707 79.6787C238.624 79.7846 238.715 79.9057 238.79 79.8376Z" fill="#263238"/>
<path d="M236.415 67.8224C235.697 68.3541 235.028 68.9492 234.417 69.6005C233.8 70.21 233.356 70.9725 233.131 71.8098C233.045 72.1991 233.107 72.6063 233.305 72.9523C233.511 73.2979 233.803 73.5845 234.152 73.7846C234.515 73.9575 234.91 74.0516 235.312 74.0607C235.714 74.0699 236.113 73.9938 236.483 73.8376L238.329 73.1566L236.816 74.4353C236.146 74.9991 235.574 75.6688 235.121 76.4177C234.892 76.7511 234.737 77.1291 234.665 77.5269C234.594 77.9247 234.607 78.3331 234.705 78.7254C234.799 79.0902 235.016 79.4116 235.319 79.6359C235.622 79.8603 235.993 79.9742 236.369 79.9587C237.207 79.9067 238.018 79.6466 238.73 79.202L240.727 78.0141L239.214 79.7846C238.795 80.2764 238.441 80.8207 238.162 81.4038C237.878 81.9424 237.759 82.5533 237.822 83.1592C237.864 83.4303 237.98 83.6847 238.156 83.8953C238.332 84.1059 238.562 84.2647 238.821 84.3546C239.433 84.4597 240.063 84.3889 240.637 84.1504C241.886 83.646 243.095 83.0465 244.253 82.3572C244.843 82.0318 245.449 81.6989 246.062 81.3962C246.659 81.0585 247.322 80.8521 248.006 80.7909C247.342 80.9184 246.71 81.1755 246.145 81.5476C245.562 81.8881 244.995 82.2664 244.427 82.6371C243.296 83.4234 242.093 84.0999 240.833 84.6573C240.156 84.972 239.401 85.0824 238.662 84.9751C238.273 84.8666 237.923 84.6483 237.655 84.3464C237.386 84.0445 237.211 83.6718 237.149 83.2727C237.049 82.5206 237.179 81.7562 237.519 81.0785C237.818 80.4248 238.2 79.812 238.654 79.255L239.161 79.8376C238.333 80.3933 237.372 80.7197 236.377 80.7834C235.832 80.7968 235.299 80.6262 234.864 80.2991C234.447 79.9539 234.142 79.4932 233.986 78.9751C233.861 78.4774 233.844 77.9588 233.935 77.4539C234.026 76.9489 234.224 76.4693 234.516 76.0469C235.021 75.2294 235.66 74.503 236.407 73.8981L236.755 74.4958C236.288 74.6701 235.788 74.7414 235.291 74.7048C234.793 74.6683 234.309 74.5247 233.872 74.284C233.456 74.0097 233.115 73.635 232.881 73.1945C232.651 72.7439 232.591 72.225 232.715 71.7342C233.002 70.8533 233.525 70.0682 234.228 69.4643C234.893 68.8362 235.626 68.2854 236.415 67.8224Z" fill="#263238"/>
<path d="M225.852 75.7594C225.852 75.7594 231.224 57.3583 237.391 62.98C239.222 64.6522 244.745 73.7014 242.952 74.8439C240.629 76.3571 237.618 72.9826 236.059 70.5765C236.059 70.5765 235.113 77.0986 230.384 77.7871C229.515 77.9008 228.632 77.7715 227.832 77.4135C227.032 77.0556 226.346 76.483 225.852 75.7594V75.7594Z" fill="#EB9481"/>
<path d="M236.823 62.5487C237.619 63.1189 238.327 63.802 238.926 64.5765C239.54 65.3381 240.106 66.1366 240.621 66.9674C241.668 68.6294 242.569 70.3786 243.315 72.1957C243.512 72.6798 243.639 73.1892 243.693 73.7089C243.724 74.0082 243.687 74.3106 243.587 74.5942C243.48 74.9095 243.266 75.1772 242.982 75.3508C242.482 75.6576 241.889 75.7757 241.31 75.6837C240.778 75.5903 240.266 75.406 239.796 75.1389C238.933 74.6117 238.165 73.9413 237.527 73.1566C236.882 72.4074 236.296 71.6106 235.771 70.7732L236.392 70.6295C236.254 71.3681 236.049 72.0925 235.779 72.7934C235.515 73.4916 235.18 74.1609 234.78 74.7909C234.374 75.4161 233.879 75.9793 233.312 76.463C232.748 76.9388 232.098 77.3033 231.398 77.5375C232.047 77.2227 232.638 76.8006 233.146 76.289C233.644 75.7743 234.069 75.1939 234.409 74.5639C234.755 73.9425 235.039 73.2887 235.257 72.6118C235.472 71.9386 235.627 71.2472 235.718 70.5463L235.817 69.6761L236.339 70.4328C236.874 71.2283 237.463 71.9866 238.102 72.7026C238.704 73.4084 239.417 74.0115 240.213 74.4883C240.551 74.7252 240.943 74.8718 241.354 74.9141C241.764 74.9565 242.179 74.8933 242.558 74.7304C243.141 74.4202 242.906 73.376 242.604 72.521C242.278 71.6227 241.906 70.7413 241.491 69.8804C241.075 69.0103 240.659 68.1402 240.197 67.2928C239.325 65.5461 238.187 63.9456 236.823 62.5487Z" fill="#263238"/>
<path d="M214.662 82.2437L223.658 102.408C223.658 102.408 209.085 107.545 204.334 105.865C199.582 104.186 186.175 90.0218 179.781 79.0432C173.388 68.0646 177.156 66.627 187.711 74.0495C198.266 81.4719 206.626 86.6851 206.936 86.5489C207.247 86.4127 214.662 82.2437 214.662 82.2437Z" fill="#EBEBEB"/>
<path d="M211.711 85.2172C211.711 85.1567 211.582 85.2172 211.597 85.2626C213.5 91.2401 215.725 97.1101 218.263 102.847C218.263 102.907 218.399 102.847 218.377 102.801C216.478 96.8224 214.252 90.9523 211.711 85.2172V85.2172Z" fill="#263238"/>
<path d="M196.283 99.6536C190.608 94.1302 183.799 85.9511 179.781 79.0431C174.613 70.1604 176.096 67.5198 182.452 70.7808L196.283 99.6536Z" fill="#C7C7C7"/>
<path d="M181.355 102.052L179.842 113.863C179.842 113.863 155.115 111.396 142.374 100.509C142.374 100.509 155.993 73.2171 169.801 67.3609C176.717 64.4252 181.991 67.2701 183.859 72.3622C184.336 73.6484 189.648 88.0697 188.354 93.8578C187.234 98.9575 181.355 102.052 181.355 102.052Z" fill="#EBEBEB"/>
<path d="M180.833 74.8136L180.788 74.6018V74.5186C180.788 74.5186 180.833 74.4807 180.841 74.5186L180.894 74.6169C180.947 74.7531 181 74.8893 181.045 75.0255C181.136 75.2979 181.211 75.5778 181.287 75.8578C181.438 76.4101 181.575 76.9776 181.703 77.5375C181.96 78.6649 182.134 79.8074 182.293 80.9499C182.605 83.2461 182.708 85.5657 182.604 87.8805C182.521 90.2132 182.103 92.5218 181.363 94.7355C180.65 96.9816 179.37 99.0063 177.648 100.615L177.701 100.531C177.005 102.612 176.278 104.678 175.544 106.743L174.424 109.83C174.039 110.852 173.668 111.888 173.184 112.857C173.622 111.85 173.94 110.806 174.303 109.77L175.332 106.652L177.315 100.395V100.35L177.353 100.312C178.907 98.6651 180.055 96.6778 180.704 94.5085C181.358 92.336 181.749 90.0931 181.87 87.8276C181.988 85.5579 181.953 83.2828 181.764 81.018C181.673 79.883 181.522 78.7481 181.37 77.6131C181.295 77.0381 181.204 76.4782 181.105 75.9107L180.931 75.0709C180.931 74.9271 180.871 74.7909 180.833 74.6547C180.835 74.622 180.835 74.5891 180.833 74.5564C180.833 74.5564 180.833 74.6094 180.833 74.632V74.8136Z" fill="#263238"/>
<path d="M187.953 85.0886L187.862 84.7179C187.88 84.2353 187.86 83.7521 187.802 83.2727C187.722 82.6907 187.585 82.1179 187.393 81.5627C187.393 81.5249 187.333 81.5627 187.34 81.5627C187.523 82.3671 187.644 83.184 187.703 84.0066C187.313 82.3301 186.794 80.6859 186.152 79.0886C186.152 79.0785 186.148 79.0689 186.141 79.0618C186.134 79.0547 186.125 79.0508 186.115 79.0508C186.104 79.0508 186.095 79.0547 186.088 79.0618C186.081 79.0689 186.077 79.0785 186.077 79.0886C186.576 81.0861 187.106 83.076 187.529 85.0886C187.953 87.1012 188.286 89.1214 188.634 91.1416C188.634 91.2173 188.77 91.1946 188.763 91.1416C188.674 89.1038 188.403 87.078 187.953 85.0886V85.0886Z" fill="#263238"/>
<path d="M180.651 80.5715C180.659 80.7225 180.621 80.8724 180.543 81.0017C180.464 81.131 180.349 81.2338 180.212 81.2969C180.074 81.36 179.921 81.3805 179.772 81.3557C179.623 81.331 179.484 81.262 179.375 81.1579C179.265 81.0537 179.189 80.9191 179.157 80.7714C179.124 80.6237 179.137 80.4697 179.193 80.3292C179.249 80.1887 179.346 80.0683 179.471 79.9833C179.596 79.8984 179.744 79.8529 179.895 79.8527C180.089 79.8525 180.276 79.927 180.417 80.0608C180.558 80.1946 180.642 80.3775 180.651 80.5715Z" fill="#263238"/>
<path d="M180.099 88.2134C180.5 88.2134 180.825 87.8882 180.825 87.4871C180.825 87.0859 180.5 86.7607 180.099 86.7607C179.698 86.7607 179.373 87.0859 179.373 87.4871C179.373 87.8882 179.698 88.2134 180.099 88.2134Z" fill="#263238"/>
<path d="M176.059 100.312C176.46 100.312 176.785 99.9867 176.785 99.5855C176.785 99.1843 176.46 98.8591 176.059 98.8591C175.657 98.8591 175.332 99.1843 175.332 99.5855C175.332 99.9867 175.657 100.312 176.059 100.312Z" fill="#263238"/>
<path d="M173.91 106.69C174.311 106.69 174.636 106.365 174.636 105.964C174.636 105.563 174.311 105.237 173.91 105.237C173.509 105.237 173.184 105.563 173.184 105.964C173.184 106.365 173.509 106.69 173.91 106.69Z" fill="#263238"/>
<path d="M179.199 94.4102C179.6 94.4102 179.925 94.085 179.925 93.6838C179.925 93.2827 179.6 92.9575 179.199 92.9575C178.798 92.9575 178.472 93.2827 178.472 93.6838C178.472 94.085 178.798 94.4102 179.199 94.4102Z" fill="#263238"/>
<path d="M166.291 66.0293C148.306 66.0974 134.21 69.9183 130.941 74.0116C128.24 77.3862 119.872 92.1706 116.339 101.174C115.347 103.702 135.519 112.743 136.238 109.929C137.358 105.57 146.543 84.4682 146.641 84.1277C146.838 83.3711 164.899 75.9637 169.514 74.2916C177.981 71.1062 175.824 65.9687 166.291 66.0293Z" fill="#EB9481"/>
<path d="M123.103 133.535C122.449 133.444 121.838 133.154 121.354 132.705C120.87 132.255 120.535 131.669 120.394 131.023C119.386 131.516 118.238 131.64 117.148 131.371C115.257 130.819 115.294 127.588 115.294 127.588C114.143 127.88 112.931 127.819 111.814 127.414C110.051 126.695 109.635 123.442 109.635 123.442C108.428 123.128 107.375 122.389 106.669 121.361C104.891 118.546 107.108 113.961 108.485 111.033C109.862 108.105 116.513 101.084 117.64 99.6233L136.556 108.302C136.556 108.302 134.112 123.192 132.016 126.408C130.185 129.116 125.6 133.785 123.103 133.535Z" fill="#EB9481"/>
<path d="M120.757 131.031C123.337 128.61 125.062 125.553 126.954 122.602C126.992 122.534 126.893 122.466 126.848 122.534C125.002 125.492 122.588 128.05 120.628 130.925C120.614 130.942 120.608 130.964 120.61 130.986C120.612 131.008 120.623 131.028 120.64 131.042C120.657 131.056 120.679 131.063 120.701 131.061C120.723 131.059 120.743 131.048 120.757 131.031Z" fill="#263238"/>
<path d="M115.574 127.649C116.107 127.042 116.557 126.368 116.913 125.644C117.337 124.887 117.746 124.13 118.147 123.374C118.949 121.86 119.721 120.347 120.417 118.773C120.417 118.705 120.349 118.645 120.311 118.713C119.509 120.226 118.692 121.739 117.821 123.185C117.39 123.941 116.951 124.652 116.512 125.386C116.045 126.046 115.654 126.757 115.347 127.505C115.328 127.535 115.322 127.571 115.33 127.606C115.337 127.641 115.359 127.671 115.389 127.69C115.419 127.709 115.455 127.716 115.49 127.708C115.525 127.7 115.555 127.679 115.574 127.649V127.649Z" fill="#263238"/>
<path d="M109.665 123.389C110.14 122.834 110.516 122.202 110.777 121.52C111.133 120.824 111.481 120.128 111.844 119.432C112.601 118.047 113.274 116.662 114.046 115.301C114.054 115.287 114.056 115.27 114.052 115.254C114.047 115.239 114.037 115.225 114.023 115.217C114.009 115.209 113.992 115.207 113.977 115.211C113.961 115.216 113.948 115.226 113.94 115.24C113.183 116.617 112.351 117.979 111.579 119.371C111.201 120.045 110.823 120.733 110.452 121.414C110.057 122.008 109.768 122.666 109.597 123.359C109.597 123.359 109.642 123.412 109.665 123.389Z" fill="#263238"/>
<path d="M140.944 99.994L120.621 89.9688C120.621 89.9688 127.363 74.7682 131.456 71.8098C135.549 68.8514 152.974 65.7568 165.663 65.8779C178.563 66.0065 179.093 71.0986 166.972 75.5097C154.851 79.9208 147.058 83.9385 146.989 84.279C146.921 84.6195 140.944 99.994 140.944 99.994Z" fill="#EBEBEB"/>
<path d="M142.071 97.6485C142.956 95.5299 147.095 84.4 147.231 84.3092C147.519 84.1276 152.157 81.8729 153.534 81.1995C154.699 80.632 155.879 80.0873 157.06 79.5425C158.058 79.3306 159.065 79.1188 160.041 78.7859C160.052 78.7816 160.062 78.7738 160.069 78.7637C160.076 78.7535 160.08 78.7415 160.08 78.7291C160.08 78.7168 160.076 78.7047 160.069 78.6946C160.062 78.6844 160.052 78.6767 160.041 78.6724C159.346 78.7651 158.659 78.9041 157.983 79.0885L161.864 77.3105C161.864 77.3105 161.864 77.2575 161.864 77.2651C158.936 78.2865 146.936 83.6131 146.913 83.7947C146.891 83.9763 141.995 97.1491 141.965 97.4139C141.912 97.5577 142.048 97.709 142.071 97.6485Z" fill="#263238"/>
<path d="M140.944 94.4858C141.012 94.4858 141.057 94.4026 140.997 94.3724C135.478 91.3903 129.8 88.7128 123.988 86.3521C123.92 86.3521 123.874 86.4278 123.935 86.4656C129.456 89.4432 135.134 92.1205 140.944 94.4858V94.4858Z" fill="#263238"/>
<path d="M175.817 67.202C175.817 67.9586 178.087 73.5652 181.431 74.2537C182.528 74.4731 184.003 68.5563 184.003 68.5563L184.215 68.1478L187.136 62.3747L181.121 55.9434L180.235 55.0733C180.235 55.0733 179.547 56.7 178.722 58.7429C178.684 58.8337 178.639 58.9245 178.601 59.0304C178.563 59.1364 178.503 59.2499 178.457 59.3634C178.329 59.666 178.192 59.9687 178.071 60.2864C177.95 60.6042 177.882 60.748 177.791 61.0431L177.504 61.7997C176.824 63.5617 176.26 65.3663 175.817 67.202Z" fill="#EB9481"/>
<path d="M178.699 58.7429C178.881 60.617 179.468 62.429 180.421 64.0532C181.374 65.6773 182.668 67.0745 184.215 68.1478L187.136 62.3747L181.121 55.9434L180.235 55.0733C180.235 55.0733 179.547 56.7 178.699 58.7429Z" fill="#263238"/>
<path d="M197.433 51.0481C199.703 62.1629 193.302 64.7808 190.911 65.2651C188.732 65.7115 181.264 66.9448 177.852 56.1175C174.439 45.2902 178.896 40.7278 183.822 39.4718C188.747 38.2158 195.163 39.9333 197.433 51.0481Z" fill="#EB9481"/>
<path d="M193.695 57.2448C193.48 57.7635 193.136 58.2191 192.697 58.5689C192.447 58.7494 192.149 58.8497 191.842 58.8564C191.176 58.8564 191.002 58.2889 190.987 57.7669C190.98 57.49 191.005 57.2132 191.062 56.9422C191.885 57.3205 192.808 57.4265 193.695 57.2448V57.2448Z" fill="#263238"/>
<path d="M192.704 58.5689C192.455 58.7495 192.157 58.8498 191.849 58.8564C191.184 58.8564 191.01 58.289 190.994 57.7669C191.328 57.6869 191.679 57.7227 191.99 57.8684C192.301 58.0141 192.553 58.2612 192.704 58.5689Z" fill="#FF9BBC"/>
<path d="M194.762 48.3318C194.51 48.3458 194.258 48.3458 194.006 48.3318C193.731 48.3686 193.451 48.3127 193.211 48.1729C193.142 48.1156 193.095 48.0363 193.077 47.9482C193.059 47.86 193.072 47.7685 193.113 47.6887C193.213 47.542 193.351 47.4251 193.512 47.3505C193.674 47.2759 193.852 47.2463 194.029 47.265C194.395 47.247 194.755 47.3626 195.042 47.5903C195.1 47.6501 195.139 47.725 195.156 47.8063C195.173 47.8875 195.166 47.9719 195.137 48.0495C195.107 48.1271 195.057 48.1948 194.99 48.2448C194.924 48.2947 194.845 48.3249 194.762 48.3318Z" fill="#263238"/>
<path d="M187.643 50.8514C187.897 50.8395 188.15 50.8092 188.399 50.7606C188.671 50.7628 188.936 50.6779 189.156 50.5185C189.216 50.4527 189.253 50.369 189.261 50.2802C189.27 50.1914 189.248 50.1024 189.201 50.0267C189.084 49.8928 188.933 49.7923 188.764 49.7352C188.596 49.6781 188.415 49.6664 188.24 49.7013C187.875 49.7256 187.531 49.8816 187.272 50.1402C187.215 50.2055 187.18 50.2864 187.17 50.3723C187.16 50.4582 187.176 50.5451 187.216 50.6218C187.256 50.6985 187.318 50.7614 187.394 50.8023C187.47 50.8432 187.557 50.8604 187.643 50.8514V50.8514Z" fill="#263238"/>
<path d="M189.769 53.0077C189.769 53.0077 189.723 53.0607 189.731 53.0909C189.928 53.8476 190.026 54.7252 189.398 55.1338C189.398 55.1338 189.398 55.1792 189.398 55.1716C190.223 54.8614 190.079 53.6887 189.769 53.0077Z" fill="#263238"/>
<path d="M188.921 52.41C187.688 52.5916 188.165 55.043 189.292 54.869C190.419 54.695 189.95 52.2208 188.921 52.41Z" fill="#263238"/>
<path d="M188.46 52.5992C188.271 52.7732 188.112 53.0607 187.855 53.1364C187.598 53.212 187.287 53.0077 187.045 52.7959C187.121 53.265 187.393 53.7114 187.915 53.6887C188.437 53.666 188.634 53.1893 188.672 52.6899C188.634 52.637 188.536 52.5235 188.46 52.5992Z" fill="#263238"/>
<path d="M193.892 51.956C193.892 51.956 193.96 51.956 193.96 52.009C194.074 52.7656 194.339 53.6357 195.065 53.7644C194.21 53.84 193.877 52.6975 193.892 51.956Z" fill="#263238"/>
<path d="M194.452 51.0405C195.655 50.7227 196.192 53.159 195.08 53.4465C193.968 53.7341 193.415 51.2977 194.452 51.0405Z" fill="#263238"/>
<path d="M194.974 51.0859C195.194 51.1691 195.436 51.3658 195.67 51.328C195.905 51.2902 196.079 50.98 196.192 50.6924C196.192 50.6924 196.192 50.6924 196.238 50.6924C196.351 51.154 196.306 51.6761 195.875 51.8652C195.443 52.0544 195.118 51.6988 194.883 51.2599C194.846 51.1994 194.883 51.0481 194.974 51.0859Z" fill="#263238"/>
<path d="M193.552 55.6256C193.552 55.6256 193.938 56.7228 194.044 57.26C194.044 57.3129 193.93 57.3583 193.749 57.4037C193.307 57.5792 192.825 57.6297 192.357 57.5496C191.889 57.4696 191.451 57.262 191.093 56.9497C191.081 56.9417 191.073 56.9292 191.07 56.915C191.067 56.9009 191.07 56.8861 191.078 56.8741C191.086 56.862 191.098 56.8537 191.112 56.8508C191.127 56.848 191.141 56.8509 191.153 56.8589C191.927 57.1907 192.788 57.2598 193.605 57.0557C193.605 56.9043 192.886 55.1944 192.969 55.1717C193.389 55.1158 193.814 55.1158 194.233 55.1717C193.476 52.9018 192.402 50.6849 191.706 48.3621C191.706 48.2788 191.804 48.2259 191.842 48.294C193.087 50.5941 194.101 53.012 194.868 55.5122C194.967 55.8526 193.786 55.671 193.552 55.6256Z" fill="#263238"/>
<path d="M178.843 57.4869C180.719 57.1389 180.114 53.1893 180.114 53.1893C180.114 53.1893 183.844 52.2057 183.655 46.5235C183.971 48.1571 183.806 49.8474 183.178 51.3886C183.178 51.3886 189.564 48.9522 190.866 42.7177C190.866 42.7177 190.51 45.8123 189.738 47.0834C191.27 46.1324 192.433 44.689 193.037 42.9901C193.037 42.9901 195.035 45.8577 196.147 46.4932C196.147 46.4932 195.784 40.531 192.613 38.299C185.925 33.6004 179.448 41.2801 179.448 41.2801C179.448 41.2801 175.151 43.27 174.53 47.1061C173.577 53.0229 178.843 57.4869 178.843 57.4869Z" fill="#263238"/>
<path d="M180.144 56.4201C180.144 56.4201 177.436 53.0531 175.892 54.0367C174.349 55.0204 176.55 60.0292 178.48 60.5967C178.722 60.6882 178.98 60.7298 179.238 60.7188C179.497 60.7078 179.75 60.6446 179.984 60.5328C180.217 60.4211 180.426 60.2632 180.596 60.0687C180.767 59.8742 180.896 59.6471 180.977 59.4012L180.144 56.4201Z" fill="#EB9481"/>
<path d="M176.558 55.4365V55.4819C177.92 55.9283 178.692 57.1086 179.267 58.3419C179.18 58.2155 179.068 58.1092 178.936 58.0302C178.805 57.9513 178.659 57.9015 178.506 57.8842C178.354 57.867 178.2 57.8828 178.054 57.9304C177.909 57.978 177.775 58.0565 177.663 58.1603C177.658 58.1677 177.656 58.1761 177.656 58.1847C177.657 58.1932 177.659 58.2015 177.664 58.2087C177.669 58.2158 177.675 58.2214 177.683 58.2249C177.691 58.2284 177.7 58.2296 177.708 58.2284C177.936 58.1401 178.185 58.124 178.422 58.1822C178.658 58.2404 178.872 58.3702 179.032 58.5538C179.294 58.8659 179.525 59.2029 179.721 59.5601C179.789 59.6736 180.001 59.5601 179.948 59.4617C179.842 57.7745 178.374 55.5046 176.558 55.4365Z" fill="#263238"/>
<path d="M183.988 68.6698L180.833 73.0658L176.293 65.4163L174.091 66.975C174.091 66.975 177.632 78.2335 177.776 77.8023L180.803 74.0872L182.997 77.719L184.555 70.3117L183.988 68.6698Z" fill="#EBEBEB"/>
<path d="M183.965 74.1024C184.177 72.8691 184.435 71.6358 184.593 70.3949C184.593 70.3949 184.533 70.3193 184.51 70.3949C183.981 71.5072 183.178 76.2209 182.906 77.3332C182.815 77.1743 180.841 74.0948 180.803 74.1327C180.205 74.6926 177.981 77.3937 177.814 77.6509C177.254 75.8578 175.045 69.3281 174.296 67.5727C174.296 67.5273 174.197 67.5727 174.213 67.5727C174.636 69.4265 177.534 78.2109 177.61 78.2109C178.741 76.9552 179.807 75.6419 180.803 74.2764C181.471 75.6129 182.229 76.9021 183.073 78.1352C183.439 76.807 183.737 75.461 183.965 74.1024Z" fill="#263238"/>
<path d="M176.619 65.4391C176.074 64.1528 174.606 66.8615 175.771 68.4656C177.497 70.796 180.758 73.5577 181.476 73.5728C182.195 73.5879 184.503 70.7052 184.798 70.0772C185.093 69.4492 184.442 68.0419 184.215 68.1781C183.988 68.3143 181.991 71.3786 181.711 71.5223C181.431 71.6661 177.807 68.2008 176.619 65.4391Z" fill="#C68B59"/>
<path d="M67.7707 308.875H33.541V316.441H67.7707V308.875Z" fill="#C68B59"/>
<g opacity="0.1">
<path opacity="0.1" d="M34.9561 309.564C35.4606 311.55 35.4606 313.63 34.9561 315.617C34.6847 314.631 34.5573 313.612 34.5778 312.59C34.5622 311.569 34.6895 310.55 34.9561 309.564Z" fill="black"/>
<path opacity="0.1" d="M37.506 309.564C38.0104 311.55 38.0104 313.63 37.506 315.617C37.0016 313.63 37.0016 311.55 37.506 309.564V309.564Z" fill="black"/>
<path opacity="0.1" d="M38.747 309.564C39.2514 311.55 39.2514 313.63 38.747 315.617C38.2425 313.63 38.2425 311.55 38.747 309.564V309.564Z" fill="black"/>
<path opacity="0.1" d="M45.5868 309.564C46.0912 311.55 46.0912 313.63 45.5868 315.617C45.0824 313.63 45.0824 311.55 45.5868 309.564V309.564Z" fill="black"/>
<path opacity="0.1" d="M47.433 309.564C47.6996 310.55 47.8269 311.569 47.8113 312.59C47.8319 313.612 47.7044 314.631 47.433 315.617C46.9286 313.63 46.9286 311.55 47.433 309.564V309.564Z" fill="black"/>
<path opacity="0.1" d="M55.0824 309.564C55.3453 310.551 55.4725 311.569 55.4607 312.59C55.4772 313.612 55.3498 314.631 55.0824 315.617C54.8109 314.631 54.6835 313.612 54.704 312.59C54.6884 311.569 54.8158 310.55 55.0824 309.564Z" fill="black"/>
<path opacity="0.1" d="M56.8456 309.564C57.35 311.55 57.35 313.63 56.8456 315.617C56.3412 313.63 56.3412 311.55 56.8456 309.564V309.564Z" fill="black"/>
<path opacity="0.1" d="M60.0912 309.564C60.3578 310.55 60.4851 311.569 60.4695 312.59C60.49 313.612 60.3626 314.631 60.0912 315.617C59.8237 314.631 59.6963 313.612 59.7128 312.59C59.701 311.569 59.8283 310.551 60.0912 309.564V309.564Z" fill="black"/>
<path opacity="0.1" d="M53.6068 309.564C54.1112 311.55 54.1112 313.63 53.6068 315.617C53.1024 313.63 53.1024 311.55 53.6068 309.564V309.564Z" fill="black"/>
<path opacity="0.1" d="M41.0091 309.564C41.272 310.551 41.3993 311.569 41.3874 312.59C41.404 313.612 41.2766 314.631 41.0091 315.617C40.7377 314.631 40.6102 313.612 40.6308 312.59C40.6152 311.569 40.7425 310.55 41.0091 309.564Z" fill="black"/>
<path opacity="0.1" d="M49.8693 309.564C50.3737 311.55 50.3737 313.63 49.8693 315.617C49.3649 313.63 49.3649 311.55 49.8693 309.564V309.564Z" fill="black"/>
<path opacity="0.1" d="M51.1405 309.564C51.4071 310.55 51.5345 311.569 51.5188 312.59C51.5394 313.612 51.412 314.631 51.1405 315.617C50.6361 313.63 50.6361 311.55 51.1405 309.564V309.564Z" fill="black"/>
<path opacity="0.1" d="M64.3133 309.564C64.5762 310.551 64.7035 311.569 64.6916 312.59C64.7122 313.612 64.5848 314.631 64.3133 315.617C64.0458 314.631 63.9185 313.612 63.935 312.59C63.9232 311.569 64.0504 310.551 64.3133 309.564V309.564Z" fill="black"/>
<path opacity="0.1" d="M66.235 309.564C66.7394 311.55 66.7394 313.63 66.235 315.617C65.7306 313.63 65.7306 311.55 66.235 309.564V309.564Z" fill="black"/>
<path opacity="0.1" d="M61.5968 309.564C61.8634 310.55 61.9908 311.569 61.9751 312.59C61.9957 313.612 61.8683 314.631 61.5968 315.617C61.0924 313.63 61.0924 311.55 61.5968 309.564V309.564Z" fill="black"/>
<path opacity="0.1" d="M44.1115 309.564C44.6159 311.55 44.6159 313.63 44.1115 315.617C43.6071 313.63 43.6071 311.55 44.1115 309.564V309.564Z" fill="black"/>
</g>
<path opacity="0.1" d="M67.7707 308.875V310.479L33.541 311.561V308.875H67.7707Z" fill="black"/>
<path d="M65.433 301.309H31.2034V308.875H65.433V301.309Z" fill="#C68B59"/>
<g opacity="0.1">
<path opacity="0.1" d="M32.6107 302.005C33.1151 303.991 33.1151 306.072 32.6107 308.058C32.1063 306.072 32.1063 303.991 32.6107 302.005V302.005Z" fill="black"/>
<path opacity="0.1" d="M35.1605 302.005C35.665 303.991 35.665 306.072 35.1605 308.058C34.6561 306.072 34.6561 303.991 35.1605 302.005V302.005Z" fill="black"/>
<path opacity="0.1" d="M36.409 302.005C36.6724 302.992 36.7997 304.01 36.7874 305.031C36.803 306.053 36.6756 307.072 36.409 308.058C36.1387 307.072 36.0113 306.053 36.0307 305.031C36.0146 304.01 36.142 302.991 36.409 302.005Z" fill="black"/>
<path opacity="0.1" d="M43.2411 302.005C43.7455 303.991 43.7455 306.072 43.2411 308.058C42.7367 306.072 42.7367 303.991 43.2411 302.005V302.005Z" fill="black"/>
<path opacity="0.1" d="M45.0948 302.005C45.5993 303.991 45.5993 306.072 45.0948 308.058C44.8245 307.072 44.6971 306.053 44.7165 305.031C44.7004 304.01 44.8277 302.991 45.0948 302.005Z" fill="black"/>
<path opacity="0.1" d="M52.737 302.005C53.2414 303.991 53.2414 306.072 52.737 308.058C52.2325 306.072 52.2325 303.991 52.737 302.005V302.005Z" fill="black"/>
<path opacity="0.1" d="M54.4769 302.005C54.7403 302.992 54.8676 304.01 54.8552 305.031C54.8746 306.053 54.7472 307.072 54.4769 308.058C54.2066 307.072 54.0792 306.053 54.0986 305.031C54.0863 304.01 54.2136 302.992 54.4769 302.005V302.005Z" fill="black"/>
<path opacity="0.1" d="M57.7536 302.005C58.258 303.991 58.258 306.072 57.7536 308.058C57.2491 306.072 57.2491 303.991 57.7536 302.005V302.005Z" fill="black"/>
<path opacity="0.1" d="M51.2614 302.005C51.7658 303.991 51.7658 306.072 51.2614 308.058C50.757 306.072 50.757 303.991 51.2614 302.005V302.005Z" fill="black"/>
<path opacity="0.1" d="M38.671 302.005C39.1755 303.991 39.1755 306.072 38.671 308.058C38.1666 306.072 38.1666 303.991 38.671 302.005V302.005Z" fill="black"/>
<path opacity="0.1" d="M47.5238 302.005C48.0282 303.991 48.0282 306.072 47.5238 308.058C47.0194 306.072 47.0194 303.991 47.5238 302.005V302.005Z" fill="black"/>
<path opacity="0.1" d="M48.8024 302.005C49.3068 303.991 49.3068 306.072 48.8024 308.058C48.532 307.072 48.4046 306.053 48.424 305.031C48.4079 304.01 48.5353 302.991 48.8024 302.005Z" fill="black"/>
<path opacity="0.1" d="M61.9828 302.005C62.4872 303.991 62.4872 306.072 61.9828 308.058C61.4784 306.072 61.4784 303.991 61.9828 302.005V302.005Z" fill="black"/>
<path opacity="0.1" d="M63.8895 302.005C64.394 303.991 64.394 306.072 63.8895 308.058C63.3851 306.072 63.3851 303.991 63.8895 302.005V302.005Z" fill="black"/>
<path opacity="0.1" d="M59.2589 302.005C59.7633 303.991 59.7633 306.072 59.2589 308.058C58.9886 307.072 58.8612 306.053 58.8806 305.031C58.8645 304.01 58.9918 302.991 59.2589 302.005Z" fill="black"/>
<path opacity="0.1" d="M41.7661 302.005C42.0332 302.991 42.1605 304.01 42.1444 305.031C42.1638 306.053 42.0364 307.072 41.7661 308.058C41.4995 307.072 41.3721 306.053 41.3878 305.031C41.3754 304.01 41.5027 302.992 41.7661 302.005V302.005Z" fill="black"/>
</g>
<path opacity="0.1" d="M65.4254 301.309V302.92L31.2034 303.995V301.309H65.4254Z" fill="black"/>
<path d="M70.7218 286.244H36.4922V293.811H70.7218V286.244Z" fill="#C68B59"/>
<g opacity="0.1">
<path opacity="0.1" d="M37.8993 286.963C38.4037 288.949 38.4037 291.03 37.8993 293.016C37.3949 291.03 37.3949 288.949 37.8993 286.963V286.963Z" fill="black"/>
<path opacity="0.1" d="M40.4494 286.963C40.7164 287.949 40.8438 288.968 40.8277 289.99C40.8471 291.011 40.7197 292.031 40.4494 293.016C39.9449 291.03 39.9449 288.949 40.4494 286.963Z" fill="black"/>
<path opacity="0.1" d="M41.6974 286.963C42.2018 288.949 42.2018 291.03 41.6974 293.016C41.4271 292.031 41.2997 291.011 41.3191 289.99C41.3029 288.968 41.4303 287.949 41.6974 286.963V286.963Z" fill="black"/>
<path opacity="0.1" d="M48.5297 286.963C49.0341 288.949 49.0341 291.03 48.5297 293.016C48.0253 291.03 48.0253 288.949 48.5297 286.963V286.963Z" fill="black"/>
<path opacity="0.1" d="M50.3837 286.963C50.8881 288.949 50.8881 291.03 50.3837 293.016C49.8793 291.03 49.8793 288.949 50.3837 286.963V286.963Z" fill="black"/>
<path opacity="0.1" d="M58.0255 286.963C58.5299 288.949 58.5299 291.03 58.0255 293.016C57.5211 291.03 57.5211 288.949 58.0255 286.963V286.963Z" fill="black"/>
<path opacity="0.1" d="M59.7731 286.963C60.2775 288.949 60.2775 291.03 59.7731 293.016C59.5028 292.031 59.3753 291.011 59.3947 289.99C59.3786 288.968 59.506 287.949 59.7731 286.963V286.963Z" fill="black"/>
<path opacity="0.1" d="M63.0416 286.963C63.5461 288.949 63.5461 291.03 63.0416 293.016C62.5372 291.03 62.5372 288.949 63.0416 286.963V286.963Z" fill="black"/>
<path opacity="0.1" d="M56.55 286.963C56.8171 287.949 56.9444 288.968 56.9283 289.99C56.9477 291.011 56.8203 292.031 56.55 293.016C56.2834 292.03 56.1561 291.011 56.1717 289.99C56.1594 288.968 56.2866 287.95 56.55 286.963V286.963Z" fill="black"/>
<path opacity="0.1" d="M43.952 286.963C44.4565 288.949 44.4565 291.03 43.952 293.016C43.4476 291.03 43.4476 288.949 43.952 286.963V286.963Z" fill="black"/>
<path opacity="0.1" d="M52.8121 286.963C53.3166 288.949 53.3166 291.03 52.8121 293.016C52.3077 291.03 52.3077 288.949 52.8121 286.963V286.963Z" fill="black"/>
<path opacity="0.1" d="M54.091 286.963C54.5954 288.949 54.5954 291.03 54.091 293.016C53.5865 291.03 53.5865 288.949 54.091 286.963Z" fill="black"/>
<path opacity="0.1" d="M67.2711 286.963C67.7655 288.951 67.7655 291.029 67.2711 293.016C66.7667 291.03 66.7667 288.949 67.2711 286.963Z" fill="black"/>
<path opacity="0.1" d="M69.1779 286.963C69.445 287.949 69.5723 288.968 69.5562 289.99C69.5756 291.011 69.4482 292.031 69.1779 293.016C68.6735 291.03 68.6735 288.949 69.1779 286.963Z" fill="black"/>
<path opacity="0.1" d="M64.5475 286.963C65.0519 288.949 65.0519 291.03 64.5475 293.016C64.0431 291.03 64.0431 288.949 64.5475 286.963V286.963Z" fill="black"/>
<path opacity="0.1" d="M47.0544 286.963C47.3178 287.95 47.445 288.968 47.4327 289.99C47.4521 291.011 47.3247 292.031 47.0544 293.016C46.7878 292.03 46.6605 291.011 46.6761 289.99C46.6638 288.968 46.791 287.95 47.0544 286.963Z" fill="black"/>
</g>
<path opacity="0.1" d="M70.7143 286.252V287.856L36.4922 288.938V286.252H70.7143Z" fill="black"/>
<path d="M69.859 278.686H35.6294V286.252H69.859V278.686Z" fill="#C68B59"/>
<g opacity="0.1">
<path opacity="0.1" d="M68.3155 285.45C68.0517 284.463 67.9244 283.445 67.9372 282.423C67.9178 281.402 68.0452 280.383 68.3155 279.397C68.5858 280.383 68.7132 281.402 68.6938 282.423C68.7067 283.445 68.5794 284.463 68.3155 285.45V285.45Z" fill="black"/>
<path opacity="0.1" d="M65.7658 285.45C65.502 284.463 65.3747 283.445 65.3875 282.423C65.3719 281.402 65.4992 280.383 65.7658 279.397C66.0361 280.383 66.1635 281.402 66.1441 282.423C66.1607 283.445 66.0333 284.464 65.7658 285.45V285.45Z" fill="black"/>
<path opacity="0.1" d="M64.5173 285.45C64.0229 283.463 64.0229 281.384 64.5173 279.397C65.0217 281.383 65.0217 283.464 64.5173 285.45V285.45Z" fill="black"/>
<path opacity="0.1" d="M57.685 285.45C57.4212 284.463 57.2939 283.445 57.3067 282.423C57.2911 281.402 57.4184 280.383 57.685 279.397C57.9553 280.383 58.0827 281.402 58.0633 282.423C58.0761 283.445 57.9488 284.463 57.685 285.45V285.45Z" fill="black"/>
<path opacity="0.1" d="M55.8388 285.45C55.3343 283.464 55.3343 281.383 55.8388 279.397C56.3432 281.383 56.3432 283.464 55.8388 285.45V285.45Z" fill="black"/>
<path opacity="0.1" d="M48.1893 285.45C47.9255 284.463 47.7982 283.445 47.811 282.423C47.7916 281.402 47.919 280.383 48.1893 279.397C48.4559 280.383 48.5833 281.402 48.5676 282.423C48.5804 283.445 48.4531 284.463 48.1893 285.45V285.45Z" fill="black"/>
<path opacity="0.1" d="M46.4188 285.45C45.9144 283.464 45.9144 281.383 46.4188 279.397C46.9233 281.383 46.9233 283.464 46.4188 285.45V285.45Z" fill="black"/>
<path opacity="0.1" d="M43.1803 285.45C42.6759 283.464 42.6759 281.383 43.1803 279.397C43.6847 281.383 43.6847 283.464 43.1803 285.45V285.45Z" fill="black"/>
<path opacity="0.1" d="M49.6649 285.45C49.1605 283.464 49.1605 281.383 49.6649 279.397C49.9352 280.383 50.0626 281.402 50.0432 282.423C50.0598 283.445 49.9324 284.464 49.6649 285.45V285.45Z" fill="black"/>
<path opacity="0.1" d="M62.2628 285.45C61.9953 284.464 61.868 283.445 61.8845 282.423C61.8651 281.402 61.9925 280.383 62.2628 279.397C62.5294 280.383 62.6567 281.402 62.6411 282.423C62.6539 283.445 62.5266 284.463 62.2628 285.45V285.45Z" fill="black"/>
<path opacity="0.1" d="M53.4025 285.45C53.1387 284.463 53.0114 283.445 53.0242 282.423C53.0086 281.402 53.1359 280.383 53.4025 279.397C53.6728 280.383 53.8003 281.402 53.7809 282.423C53.7937 283.445 53.6664 284.463 53.4025 285.45V285.45Z" fill="black"/>
<path opacity="0.1" d="M52.1312 285.45C51.6268 283.464 51.6268 281.383 52.1312 279.397C52.6357 281.383 52.6357 283.464 52.1312 285.45V285.45Z" fill="black"/>
<path opacity="0.1" d="M38.9511 285.45C38.4467 283.464 38.4467 281.383 38.9511 279.397C39.4555 281.383 39.4555 283.464 38.9511 285.45V285.45Z" fill="black"/>
<path opacity="0.1" d="M37.0747 285.45C36.8108 284.463 36.6835 283.445 36.6963 282.424C36.6807 281.402 36.8081 280.384 37.0747 279.397C37.345 280.383 37.4724 281.402 37.453 282.424C37.4695 283.445 37.3421 284.464 37.0747 285.45V285.45Z" fill="black"/>
<path opacity="0.1" d="M41.6749 285.45C41.1705 283.464 41.1705 281.383 41.6749 279.397C42.1794 281.383 42.1794 283.464 41.6749 285.45V285.45Z" fill="black"/>
<path opacity="0.1" d="M59.1603 285.45C58.6559 283.464 58.6559 281.383 59.1603 279.397C59.6647 281.383 59.6647 283.464 59.1603 285.45V285.45Z" fill="black"/>
</g>
<path opacity="0.1" d="M69.8515 278.686V280.29L35.6294 281.372V278.686H69.8515Z" fill="black"/>
<path d="M67.7707 271.12H33.541V278.686H67.7707V271.12Z" fill="#C68B59"/>
<g opacity="0.1">
<path opacity="0.1" d="M34.9562 271.831C35.22 272.818 35.3473 273.836 35.3345 274.857C35.3501 275.879 35.2228 276.898 34.9562 277.884C34.6859 276.898 34.5585 275.879 34.5779 274.857C34.5613 273.836 34.6887 272.817 34.9562 271.831Z" fill="black"/>
<path opacity="0.1" d="M37.5057 271.831C38.0101 273.817 38.0101 275.898 37.5057 277.884C37.2354 276.898 37.108 275.879 37.1274 274.857C37.1109 273.836 37.2382 272.817 37.5057 271.831V271.831Z" fill="black"/>
<path opacity="0.1" d="M38.7467 271.831C39.2511 273.817 39.2511 275.898 38.7467 277.884C38.2423 275.898 38.2423 273.817 38.7467 271.831V271.831Z" fill="black"/>
<path opacity="0.1" d="M45.5865 271.831C46.0909 273.817 46.0909 275.898 45.5865 277.884C45.3162 276.898 45.1888 275.879 45.2082 274.857C45.1917 273.836 45.3191 272.817 45.5865 271.831Z" fill="black"/>
<path opacity="0.1" d="M47.4328 271.831C47.9372 273.817 47.9372 275.898 47.4328 277.884C46.9283 275.898 46.9283 273.817 47.4328 271.831V271.831Z" fill="black"/>
<path opacity="0.1" d="M55.0824 271.831C55.3462 272.818 55.4735 273.836 55.4607 274.857C55.4763 275.879 55.349 276.898 55.0824 277.884C54.8121 276.898 54.6847 275.879 54.7041 274.857C54.6913 273.836 54.8186 272.818 55.0824 271.831V271.831Z" fill="black"/>
<path opacity="0.1" d="M56.8451 271.831C57.3496 273.817 57.3496 275.898 56.8451 277.884C56.3508 275.896 56.3508 273.818 56.8451 271.831V271.831Z" fill="black"/>
<path opacity="0.1" d="M60.0912 271.831C60.5956 273.817 60.5956 275.898 60.0912 277.884C59.5868 275.898 59.5868 273.817 60.0912 271.831V271.831Z" fill="black"/>
<path opacity="0.1" d="M53.6066 271.831C54.111 273.817 54.111 275.898 53.6066 277.884C53.1022 275.898 53.1022 273.817 53.6066 271.831V271.831Z" fill="black"/>
<path opacity="0.1" d="M41.009 271.831C41.2728 272.818 41.4001 273.836 41.3873 274.857C41.4067 275.879 41.2793 276.898 41.009 277.884C40.7424 276.898 40.6151 275.879 40.6307 274.857C40.6179 273.836 40.7452 272.818 41.009 271.831V271.831Z" fill="black"/>
<path opacity="0.1" d="M49.869 271.831C50.1328 272.818 50.2601 273.836 50.2473 274.857C50.2629 275.879 50.1356 276.898 49.869 277.884C49.5987 276.898 49.4713 275.879 49.4907 274.857C49.4742 273.836 49.6015 272.817 49.869 271.831Z" fill="black"/>
<path opacity="0.1" d="M51.1403 271.831C51.6447 273.817 51.6447 275.898 51.1403 277.884C50.6359 275.898 50.6359 273.817 51.1403 271.831V271.831Z" fill="black"/>
<path opacity="0.1" d="M64.3131 271.831C64.5806 272.817 64.708 273.836 64.6914 274.857C64.7108 275.879 64.5834 276.898 64.3131 277.884C63.8087 275.898 63.8087 273.817 64.3131 271.831V271.831Z" fill="black"/>
<path opacity="0.1" d="M66.2347 271.831C66.7391 273.817 66.7391 275.898 66.2347 277.884C65.9644 276.898 65.837 275.879 65.8564 274.857C65.8399 273.836 65.9672 272.817 66.2347 271.831V271.831Z" fill="black"/>
<path opacity="0.1" d="M61.5966 271.831C62.101 273.817 62.101 275.898 61.5966 277.884C61.0922 275.898 61.0922 273.817 61.5966 271.831V271.831Z" fill="black"/>
<path opacity="0.1" d="M44.1112 271.831C44.6156 273.817 44.6156 275.898 44.1112 277.884C43.6068 275.898 43.6068 273.817 44.1112 271.831V271.831Z" fill="black"/>
</g>
<path opacity="0.1" d="M67.7707 271.12V272.731L33.541 273.806V271.12H67.7707Z" fill="black"/>
<path d="M67.7707 293.811H33.541V301.377H67.7707V293.811Z" fill="#C68B59"/>
<g opacity="0.1">
<path opacity="0.1" d="M66.235 300.582C65.7293 298.596 65.7293 296.515 66.235 294.529C66.7407 296.515 66.7407 298.596 66.235 300.582V300.582Z" fill="black"/>
<path opacity="0.1" d="M63.6854 300.582C63.4179 299.596 63.2906 298.578 63.3071 297.556C63.2865 296.534 63.4139 295.515 63.6854 294.529C63.9532 295.515 64.0805 296.534 64.0637 297.556C64.0765 298.577 63.9492 299.596 63.6854 300.582V300.582Z" fill="black"/>
<path opacity="0.1" d="M62.4369 300.582C61.9312 298.596 61.9312 296.515 62.4369 294.529C62.9426 296.515 62.9426 298.596 62.4369 300.582V300.582Z" fill="black"/>
<path opacity="0.1" d="M55.6043 300.582C55.3368 299.596 55.2095 298.578 55.226 297.556C55.2055 296.534 55.3329 295.515 55.6043 294.529C56.11 296.515 56.11 298.596 55.6043 300.582V300.582Z" fill="black"/>
<path opacity="0.1" d="M53.7206 300.582C53.2149 298.596 53.2149 296.515 53.7206 294.529C54.2263 296.515 54.2263 298.596 53.7206 300.582V300.582Z" fill="black"/>
<path opacity="0.1" d="M46.1088 300.582C45.6031 298.596 45.6031 296.515 46.1088 294.529C46.6145 296.515 46.6145 298.596 46.1088 300.582V300.582Z" fill="black"/>
<path opacity="0.1" d="M44.3385 300.582C43.8328 298.596 43.8328 296.515 44.3385 294.529C44.6099 295.515 44.7374 296.534 44.7168 297.556C44.7333 298.578 44.606 299.596 44.3385 300.582V300.582Z" fill="black"/>
<path opacity="0.1" d="M41.0924 300.582C40.5867 298.596 40.5867 296.515 41.0924 294.529C41.5981 296.515 41.5981 298.596 41.0924 300.582V300.582Z" fill="black"/>
<path opacity="0.1" d="M47.5843 300.582C47.3205 299.596 47.1932 298.577 47.206 297.556C47.1854 296.534 47.3129 295.515 47.5843 294.529C47.8521 295.515 47.9795 296.534 47.9626 297.556C47.9754 298.577 47.8481 299.596 47.5843 300.582V300.582Z" fill="black"/>
<path opacity="0.1" d="M60.1823 300.582C59.6766 298.596 59.6766 296.515 60.1823 294.529C60.688 296.515 60.688 298.596 60.1823 300.582V300.582Z" fill="black"/>
<path opacity="0.1" d="M51.3219 300.582C51.0544 299.596 50.927 298.578 50.9435 297.556C50.923 296.534 51.0504 295.515 51.3219 294.529C51.8276 296.515 51.8276 298.596 51.3219 300.582V300.582Z" fill="black"/>
<path opacity="0.1" d="M50.0433 300.582C49.5376 298.596 49.5376 296.515 50.0433 294.529C50.549 296.515 50.549 298.596 50.0433 300.582V300.582Z" fill="black"/>
<path opacity="0.1" d="M36.8705 300.582C36.3648 298.596 36.3648 296.515 36.8705 294.529C37.3762 296.515 37.3762 298.596 36.8705 300.582V300.582Z" fill="black"/>
<path opacity="0.1" d="M34.9561 300.582C34.6887 299.596 34.5613 298.578 34.5778 297.556C34.5573 296.534 34.6847 295.515 34.9561 294.529C35.2239 295.515 35.3513 296.534 35.3344 297.556C35.3473 298.577 35.22 299.596 34.9561 300.582V300.582Z" fill="black"/>
<path opacity="0.1" d="M39.5866 300.582C39.0809 298.596 39.0809 296.515 39.5866 294.529C40.0923 296.515 40.0923 298.596 39.5866 300.582V300.582Z" fill="black"/>
<path opacity="0.1" d="M57.0797 300.582C56.8159 299.596 56.6886 298.577 56.7014 297.556C56.6846 296.534 56.812 295.515 57.0797 294.529C57.3512 295.515 57.4786 296.534 57.458 297.556C57.4709 298.577 57.3436 299.596 57.0797 300.582V300.582Z" fill="black"/>
</g>
<path opacity="0.1" d="M67.7707 293.811V295.415L33.541 296.497V293.811H67.7707Z" fill="black"/>
<path d="M102 317.1H67.7708V324.666H102V317.1Z" fill="#C68B59"/>
<g opacity="0.1">
<path opacity="0.1" d="M69.1854 317.796C69.6911 319.782 69.6911 321.863 69.1854 323.849C68.6797 321.863 68.6797 319.782 69.1854 317.796V317.796Z" fill="black"/>
<path opacity="0.1" d="M71.7355 317.796C72.2412 319.782 72.2412 321.863 71.7355 323.849C71.2298 321.863 71.2298 319.782 71.7355 317.796V317.796Z" fill="black"/>
<path opacity="0.1" d="M72.9762 317.796C73.244 318.782 73.3713 319.801 73.3545 320.822C73.3751 321.844 73.2476 322.863 72.9762 323.849C72.4705 321.863 72.4705 319.782 72.9762 317.796V317.796Z" fill="black"/>
<path opacity="0.1" d="M79.816 317.796C80.3217 319.782 80.3217 321.863 79.816 323.849C79.3103 321.863 79.3103 319.782 79.816 317.796V317.796Z" fill="black"/>
<path opacity="0.1" d="M81.6625 317.796C81.9302 318.782 82.0576 319.801 82.0408 320.822C82.0613 321.844 81.9339 322.863 81.6625 323.849C81.395 322.863 81.2676 321.844 81.2841 320.822C81.2711 319.801 81.3984 318.782 81.6625 317.796V317.796Z" fill="black"/>
<path opacity="0.1" d="M89.2814 317.796C89.7871 319.782 89.7871 321.863 89.2814 323.849C88.7757 321.863 88.7757 319.782 89.2814 317.796V317.796Z" fill="black"/>
<path opacity="0.1" d="M91.0746 317.796C91.5803 319.782 91.5803 321.863 91.0746 323.849C90.5689 321.863 90.5689 319.782 91.0746 317.796V317.796Z" fill="black"/>
<path opacity="0.1" d="M94.3209 317.796C94.5849 318.782 94.7122 319.801 94.6992 320.822C94.7198 321.844 94.5923 322.863 94.3209 323.849C94.0534 322.863 93.9261 321.844 93.9426 320.822C93.9296 319.801 94.0569 318.782 94.3209 317.796Z" fill="black"/>
<path opacity="0.1" d="M87.8366 317.796C88.3322 319.783 88.3322 321.861 87.8366 323.849C87.3309 321.863 87.3309 319.782 87.8366 317.796V317.796Z" fill="black"/>
<path opacity="0.1" d="M75.2386 317.796C75.7443 319.782 75.7443 321.863 75.2386 323.849C74.9672 322.863 74.8397 321.844 74.8603 320.822C74.8435 319.801 74.9708 318.782 75.2386 317.796V317.796Z" fill="black"/>
<path opacity="0.1" d="M84.0988 317.796C84.6045 319.782 84.6045 321.863 84.0988 323.849C83.5931 321.863 83.5931 319.782 84.0988 317.796V317.796Z" fill="black"/>
<path opacity="0.1" d="M85.37 317.796C85.6378 318.782 85.7651 319.801 85.7483 320.822C85.7688 321.844 85.6414 322.863 85.37 323.849C85.1025 322.863 84.9751 321.844 84.9917 320.822C84.9787 319.801 85.106 318.782 85.37 317.796Z" fill="black"/>
<path opacity="0.1" d="M98.5504 317.796C98.8144 318.782 98.9417 319.801 98.9287 320.822C98.9452 321.844 98.8179 322.863 98.5504 323.849C98.2789 322.863 98.1515 321.844 98.1721 320.822C98.1552 319.801 98.2826 318.782 98.5504 317.796Z" fill="black"/>
<path opacity="0.1" d="M100.464 317.796C100.97 319.782 100.97 321.863 100.464 323.849C99.9588 321.863 99.9588 319.782 100.464 317.796V317.796Z" fill="black"/>
<path opacity="0.1" d="M95.826 317.796C96.0938 318.782 96.2212 319.801 96.2043 320.822C96.2249 321.844 96.0975 322.863 95.826 323.849C95.5585 322.863 95.4312 321.844 95.4477 320.822C95.4347 319.801 95.562 318.782 95.826 317.796Z" fill="black"/>
<path opacity="0.1" d="M78.3331 317.796C78.8388 319.782 78.8388 321.863 78.3331 323.849C77.8274 321.863 77.8274 319.782 78.3331 317.796V317.796Z" fill="black"/>
</g>
<path opacity="0.1" d="M102 317.1V318.704L67.7708 319.786V317.1H102Z" fill="black"/>
<path d="M107.736 309.533H73.5061V317.1H107.736V309.533Z" fill="#C68B59"/>
<g opacity="0.1">
<path opacity="0.1" d="M74.9059 310.23C75.4103 312.216 75.4103 314.296 74.9059 316.283C74.4015 314.296 74.4015 312.216 74.9059 310.23Z" fill="black"/>
<path opacity="0.1" d="M77.4633 310.229C77.9677 312.216 77.9677 314.296 77.4633 316.282C76.9589 314.296 76.9589 312.216 77.4633 310.229Z" fill="black"/>
<path opacity="0.1" d="M78.6892 310.229C79.1936 312.216 79.1936 314.296 78.6892 316.282C78.4184 315.297 78.291 314.278 78.3108 313.256C78.2947 312.234 78.4221 311.216 78.6892 310.229V310.229Z" fill="black"/>
<path opacity="0.1" d="M85.5438 310.229C86.0483 312.216 86.0483 314.296 85.5438 316.282C85.0394 314.296 85.0394 312.216 85.5438 310.229V310.229Z" fill="black"/>
<path opacity="0.1" d="M87.3976 310.229C87.902 312.216 87.902 314.296 87.3976 316.282C86.8932 314.296 86.8932 312.216 87.3976 310.229Z" fill="black"/>
<path opacity="0.1" d="M95.0397 310.229C95.5441 312.216 95.5441 314.296 95.0397 316.282C94.5353 314.296 94.5353 312.216 95.0397 310.229V310.229Z" fill="black"/>
<path opacity="0.1" d="M96.8483 310.229C97.1117 311.216 97.239 312.235 97.2266 313.256C97.2428 314.277 97.1154 315.296 96.8483 316.282C96.5776 315.297 96.4502 314.278 96.47 313.256C96.4539 312.234 96.5812 311.216 96.8483 310.229V310.229Z" fill="black"/>
<path opacity="0.1" d="M100.056 310.229C100.56 312.216 100.56 314.296 100.056 316.282C99.5516 314.296 99.5516 312.216 100.056 310.229V310.229Z" fill="black"/>
<path opacity="0.1" d="M93.5643 310.229C93.8314 311.216 93.9588 312.234 93.9427 313.256C93.9625 314.278 93.8351 315.297 93.5643 316.282C93.0599 314.296 93.0599 312.216 93.5643 310.229V310.229Z" fill="black"/>
<path opacity="0.1" d="M80.9591 310.229C81.4635 312.216 81.4635 314.296 80.9591 316.282C80.4547 314.296 80.4547 312.216 80.9591 310.229Z" fill="black"/>
<path opacity="0.1" d="M89.8266 310.229C90.331 312.216 90.331 314.296 89.8266 316.282C89.3221 314.296 89.3221 312.216 89.8266 310.229V310.229Z" fill="black"/>
<path opacity="0.1" d="M91.1051 310.229C91.6095 312.216 91.6095 314.296 91.1051 316.282C90.6007 314.296 90.6007 312.216 91.1051 310.229Z" fill="black"/>
<path opacity="0.1" d="M104.286 310.229C104.79 312.216 104.79 314.296 104.286 316.282C103.781 314.296 103.781 312.216 104.286 310.229Z" fill="black"/>
<path opacity="0.1" d="M106.193 310.229C106.697 312.216 106.697 314.296 106.193 316.282C105.688 314.296 105.688 312.216 106.193 310.229V310.229Z" fill="black"/>
<path opacity="0.1" d="M101.562 310.229C102.066 312.216 102.066 314.296 101.562 316.282C101.057 314.296 101.057 312.216 101.562 310.229Z" fill="black"/>
<path opacity="0.1" d="M84.0686 310.229C84.3357 311.216 84.4631 312.234 84.4469 313.256C84.4668 314.278 84.3394 315.297 84.0686 316.282C83.8015 315.296 83.6742 314.277 83.6903 313.256C83.678 312.235 83.8053 311.216 84.0686 310.229V310.229Z" fill="black"/>
</g>
<path opacity="0.1" d="M107.728 309.533V311.145L73.5061 312.227V309.533H107.728Z" fill="black"/>
<path d="M104.868 302.035H70.6387V309.601H104.868V302.035Z" fill="#C68B59"/>
<g opacity="0.1">
<path opacity="0.1" d="M103.332 308.777C102.826 306.791 102.826 304.71 103.332 302.724C103.838 304.71 103.838 306.791 103.332 308.777V308.777Z" fill="black"/>
<path opacity="0.1" d="M100.783 308.777C100.515 307.791 100.387 306.772 100.404 305.75C100.384 304.728 100.511 303.709 100.783 302.724C101.288 304.71 101.288 306.791 100.783 308.777V308.777Z" fill="black"/>
<path opacity="0.1" d="M99.5341 308.777C99.0284 306.791 99.0284 304.71 99.5341 302.724C99.8055 303.709 99.9329 304.728 99.9124 305.75C99.9292 306.772 99.8018 307.791 99.5341 308.777Z" fill="black"/>
<path opacity="0.1" d="M92.7015 308.777C92.1958 306.791 92.1958 304.71 92.7015 302.724C93.2072 304.71 93.2072 306.791 92.7015 308.777V308.777Z" fill="black"/>
<path opacity="0.1" d="M90.848 308.777C90.3423 306.791 90.3423 304.71 90.848 302.724C91.3537 304.71 91.3537 306.791 90.848 308.777V308.777Z" fill="black"/>
<path opacity="0.1" d="M83.2286 308.777C82.7229 306.791 82.7229 304.71 83.2286 302.724C83.7343 304.71 83.7343 306.791 83.2286 308.777V308.777Z" fill="black"/>
<path opacity="0.1" d="M81.4356 308.777C81.1716 307.79 81.0443 306.772 81.0573 305.75C81.0408 304.729 81.1682 303.71 81.4356 302.724C81.7071 303.709 81.8345 304.728 81.814 305.75C81.8308 306.772 81.7034 307.791 81.4356 308.777Z" fill="black"/>
<path opacity="0.1" d="M78.1896 308.777C77.6839 306.791 77.6839 304.71 78.1896 302.724C78.6953 304.71 78.6953 306.791 78.1896 308.777V308.777Z" fill="black"/>
<path opacity="0.1" d="M84.6815 308.777C84.4137 307.791 84.2863 306.772 84.3032 305.75C84.2826 304.728 84.41 303.709 84.6815 302.724C84.949 303.71 85.0763 304.729 85.0598 305.75C85.0728 306.772 84.9455 307.79 84.6815 308.777V308.777Z" fill="black"/>
<path opacity="0.1" d="M97.2794 308.777C96.7737 306.791 96.7737 304.71 97.2794 302.724C97.7851 304.71 97.7851 306.791 97.2794 308.777V308.777Z" fill="black"/>
<path opacity="0.1" d="M88.4191 308.777C87.9134 306.791 87.9134 304.71 88.4191 302.724C88.9248 304.71 88.9248 306.791 88.4191 308.777V308.777Z" fill="black"/>
<path opacity="0.1" d="M87.1403 308.777C86.6346 306.791 86.6346 304.71 87.1403 302.724C87.646 304.71 87.646 306.791 87.1403 308.777V308.777Z" fill="black"/>
<path opacity="0.1" d="M73.9603 308.777C73.4546 306.791 73.4546 304.71 73.9603 302.724C74.466 304.71 74.466 306.791 73.9603 308.777V308.777Z" fill="black"/>
<path opacity="0.1" d="M72.0533 308.777C71.7855 307.791 71.6582 306.772 71.675 305.751C71.6544 304.729 71.7819 303.709 72.0533 302.724C72.559 304.71 72.559 306.791 72.0533 308.777V308.777Z" fill="black"/>
<path opacity="0.1" d="M76.6842 308.777C76.1785 306.791 76.1785 304.71 76.6842 302.724C77.1899 304.71 77.1899 306.791 76.6842 308.777V308.777Z" fill="black"/>
<path opacity="0.1" d="M94.1771 308.777C93.9131 307.79 93.7858 306.772 93.7988 305.75C93.7782 304.728 93.9056 303.709 94.1771 302.724C94.4446 303.71 94.5719 304.729 94.5554 305.75C94.5684 306.772 94.4411 307.79 94.1771 308.777Z" fill="black"/>
</g>
<path opacity="0.1" d="M104.868 302.035V303.647L70.6387 304.721V302.035H104.868Z" fill="black"/>
<path d="M30.6888 290.05C53.221 294.091 47.2664 327.465 24.7039 323.417C2.1414 319.369 8.11872 286.002 30.6888 290.05Z" fill="#C68B59"/>
<path opacity="0.1" d="M30.6888 290.05C53.221 294.091 47.2664 327.465 24.7039 323.417C2.1414 319.369 8.11872 286.002 30.6888 290.05Z" fill="black"/>
<path d="M28.5701 289.672C50.0431 293.523 44.096 326.898 22.5852 323.039C1.07442 319.18 7.06688 285.813 28.5701 289.672Z" fill="#C68B59"/>
<path opacity="0.1" d="M11.9624 307.142C12.0759 313.082 15.5412 318.847 23.0999 320.202C40.9411 323.402 45.8894 295.702 28.0633 292.509L27.7153 292.449C44.4291 295.793 39.6397 322.01 22.6232 318.931C15.6774 317.712 12.3331 312.575 11.9624 307.142Z" fill="black"/>
<g opacity="0.1">
<path opacity="0.1" d="M27.4354 295.967C27.5799 296.006 27.7039 296.1 27.7814 296.228C27.8588 296.356 27.884 296.509 27.8515 296.656L27.6169 297.556C29.0787 298.038 30.3606 298.95 31.2941 300.174C31.3753 300.25 31.4354 300.346 31.4685 300.452C31.5017 300.558 31.5068 300.671 31.4833 300.779C31.4643 300.858 31.4291 300.933 31.38 300.998C31.3309 301.063 31.2688 301.117 31.1977 301.157C31.1266 301.196 31.0481 301.221 30.967 301.229C30.886 301.237 30.8041 301.228 30.7267 301.203C30.6482 301.189 30.5738 301.158 30.5085 301.112C30.4432 301.066 30.3886 301.007 30.3484 300.938C29.5886 299.881 28.5367 299.068 27.3219 298.6L25.7254 305.024C29.0243 306.62 30.1668 308.292 29.6069 310.54C29.0016 312.968 26.535 314.179 23.6447 313.566L23.1983 315.352C23.1624 315.497 23.0708 315.622 22.9433 315.7C22.8158 315.778 22.6627 315.802 22.5173 315.768C22.3717 315.73 22.2466 315.637 22.1688 315.509C22.091 315.38 22.0667 315.226 22.1012 315.079L22.5551 313.271C20.6736 312.65 19.0542 311.416 17.9549 309.768C17.8719 309.673 17.8211 309.554 17.8098 309.428C17.7985 309.303 17.8272 309.177 17.8919 309.068C17.9565 308.96 18.0538 308.875 18.1698 308.825C18.2857 308.776 18.4144 308.764 18.5375 308.792C18.6142 308.808 18.6868 308.84 18.7506 308.885C18.8144 308.931 18.8681 308.989 18.9082 309.057C19.8241 310.539 21.2169 311.665 22.8578 312.25L24.4845 305.728C21.2386 304.116 20.1339 302.497 20.7014 300.212C21.2689 297.927 23.7279 296.633 26.5501 297.268L26.762 296.391C26.7979 296.247 26.8881 296.123 27.0136 296.044C27.139 295.965 27.2901 295.937 27.4354 295.967V295.967ZM24.7645 304.54L26.3231 298.313C24.0533 297.806 22.2903 298.767 21.8817 300.416C21.4732 302.065 21.9877 303.094 24.7645 304.54V304.54ZM25.4227 306.189L23.8414 312.514C26.1113 313.036 27.965 312.083 28.3811 310.343C28.7897 308.762 28.2298 307.596 25.4227 306.189V306.189Z" fill="black"/>
</g>
</svg>
