<svg width="450" height="449" viewBox="0 0 450 449" fill="none" xmlns="http://www.w3.org/2000/svg">
<path d="M74.8897 402.942C74.7243 399.741 71.3674 393.358 71.3674 393.349C71.3674 393.339 67.8354 396.842 67.6408 397.095C65.3835 400.014 62.7758 406.893 65.0332 410.289C65.4322 410.842 65.943 411.305 66.5325 411.648C67.122 411.99 67.777 412.206 68.4551 412.279C69.1331 412.352 69.819 412.282 70.4682 412.074C71.1174 411.865 71.7155 411.522 72.2236 411.067C74.4421 409.209 75.0259 405.686 74.8897 402.942Z" fill="#263238"/>
<path d="M43.811 336.992C43.811 336.924 38.946 337.965 38.6346 338.063C35.161 339.221 29.1284 343.521 29.1771 347.627C29.2048 348.311 29.3765 348.981 29.6809 349.594C29.9853 350.207 30.4155 350.749 30.9435 351.184C31.4715 351.619 32.0854 351.938 32.7451 352.12C33.4047 352.302 34.0953 352.343 34.7718 352.239C37.6908 351.909 40.0747 349.32 41.4758 346.937C43.091 344.173 43.811 337.002 43.811 336.992Z" fill="#263238"/>
<path d="M10.8466 329.384C12.2672 333.276 19.4382 335.085 23.1064 334.93C23.4178 334.93 28.3412 334.132 28.312 334.064V333.986C29.4407 334.288 30.6569 334.589 31.9899 334.901C34.4516 335.455 37.2538 336.068 40.3383 336.516C43.6541 337.033 46.9971 337.358 50.3504 337.489C54.1103 337.652 57.8772 337.486 61.608 336.992H61.7443C60.6545 337.508 57.6674 339.055 57.4533 339.201C54.4078 341.244 49.7277 346.985 50.8564 350.926C51.0635 351.575 51.4048 352.174 51.858 352.683C52.3113 353.192 52.8664 353.6 53.4875 353.88C54.1085 354.161 54.7816 354.308 55.4631 354.312C56.1446 354.316 56.8194 354.177 57.4436 353.903C60.1388 352.833 61.7929 349.671 62.5129 347.024C63.3303 344.047 62.26 337.44 62.1724 336.915C65.9408 336.308 69.6656 335.457 73.323 334.365C75.4636 333.733 77.6042 333.032 79.735 332.312C78.8107 332.789 77.9836 333.217 77.8766 333.285C74.8311 335.329 70.151 341.069 71.2894 345.01C71.4965 345.659 71.8378 346.258 72.291 346.767C72.7443 347.276 73.2994 347.684 73.9205 347.965C74.5415 348.245 75.2146 348.392 75.8961 348.396C76.5776 348.4 77.2524 348.261 77.8766 347.987C80.5621 346.907 82.2162 343.745 82.9459 341.108C83.6757 338.471 82.8778 332.77 82.6443 331.281L85.0963 330.425C88.9883 329.024 92.8803 327.613 96.7723 326.348C98.1345 325.9 99.4967 325.511 100.849 325.112L99.2437 325.968C96.1982 328.012 91.5181 333.752 92.6468 337.693C92.8529 338.343 93.1934 338.943 93.6462 339.453C94.099 339.963 94.6539 340.372 95.2751 340.654C95.8962 340.935 96.5697 341.083 97.2517 341.088C97.9337 341.092 98.6091 340.953 99.234 340.68C101.929 339.6 103.583 336.438 104.303 333.791C105.023 331.145 104.303 326.007 104.05 324.236C105.451 323.876 106.853 323.507 108.224 323.215C109.197 323.04 110.063 322.806 111.017 322.68L113.819 322.261C115.61 322.057 117.458 321.833 119.219 321.677C120.436 321.561 121.594 321.473 122.771 321.386C121.409 321.814 118.762 322.709 118.558 322.806C115.687 324.28 113.244 326.468 111.465 329.16C111.124 329.31 110.798 329.493 110.492 329.705C109.925 330.083 109.444 330.576 109.081 331.153C108.717 331.729 108.478 332.375 108.38 333.049C108.282 333.723 108.327 334.41 108.511 335.066C108.695 335.722 109.015 336.332 109.45 336.856C112.165 339.941 119.521 339.084 122.878 337.625C123.072 337.537 125.125 336.36 126.4 335.591C125.719 336.156 125.048 336.691 124.347 337.284C122.965 338.442 121.623 339.629 120.163 340.914C119.482 341.556 118.791 342.198 118.1 342.86C117.41 343.521 116.738 344.251 116.038 344.952C114.471 346.606 112.963 348.367 111.474 350.177C110.501 348.96 106.804 344.718 104.332 343.512C101.861 342.305 98.3972 341.459 95.8187 342.772C95.1998 343.06 94.6482 343.474 94.1999 343.988C93.7516 344.503 93.4165 345.106 93.2165 345.758C93.0164 346.411 92.9559 347.098 93.0388 347.775C93.1217 348.453 93.3461 349.105 93.6976 349.69C95.916 353.144 103.321 353.417 106.862 352.473C107.086 352.415 109.548 351.5 110.9 350.906C110.015 351.996 109.129 353.086 108.273 354.215C105.792 357.484 103.408 360.87 100.976 364.246C100.236 365.278 99.4869 366.299 98.7475 367.321C98.3874 366.883 94.1452 361.746 91.3721 360.393C88.9104 359.187 85.4465 358.34 82.8584 359.654C82.2402 359.942 81.6897 360.357 81.2423 360.872C80.795 361.387 80.461 361.99 80.2619 362.642C80.0628 363.295 80.0031 363.982 80.0866 364.659C80.1702 365.336 80.3952 365.987 80.747 366.572C82.9654 370.026 90.3699 370.298 93.9116 369.354C94.1744 369.286 97.7258 367.905 98.6112 367.506C96.9669 369.763 95.3128 371.991 93.5906 374.122C91.2794 377.018 88.7799 379.758 86.1082 382.325C85.9428 382.12 81.5351 376.74 78.7037 375.348C76.242 374.151 72.7781 373.305 70.1899 374.618C69.5731 374.907 69.0238 375.322 68.5774 375.836C68.131 376.35 67.7976 376.952 67.5985 377.603C67.3995 378.254 67.3394 378.94 67.4221 379.616C67.5048 380.292 67.7284 380.943 68.0785 381.527C70.2969 384.991 77.6917 385.253 81.2335 384.319C81.467 384.261 84.1525 383.2 85.4465 382.675L85.573 382.869C82.8245 385.404 79.8511 387.684 76.6895 389.68C74.9673 390.79 73.2646 391.763 71.5813 392.668C70.8613 391.578 67.5239 386.645 65.1108 385.117C62.6978 383.589 59.4382 382.432 56.7236 383.453C56.0793 383.673 55.4882 384.025 54.9887 384.488C54.4891 384.95 54.0922 385.512 53.8235 386.138C53.5548 386.763 53.4203 387.438 53.4288 388.119C53.4373 388.799 53.5885 389.471 53.8727 390.089C55.6922 393.767 63.0189 394.847 66.6385 394.312C66.8428 394.312 68.8082 393.757 70.2385 393.339C69.4796 393.738 68.6915 394.156 67.952 394.526C65.1692 395.898 62.5324 396.997 60.168 397.941C58.835 398.467 57.6187 398.914 56.4706 399.333C55.2154 398.632 50.0975 395.878 47.2952 395.635C44.493 395.392 41.0291 395.869 39.0928 398.019C38.6209 398.511 38.2577 399.096 38.0265 399.737C37.7954 400.379 37.7015 401.061 37.7511 401.741C37.8006 402.421 37.9924 403.082 38.3141 403.683C38.6357 404.284 39.08 404.811 39.6182 405.229C42.9264 407.652 49.932 405.229 52.8997 403.088C53.1527 402.903 56.7917 399.527 56.7917 399.498H56.7139C57.8231 399.128 59.0101 398.72 60.2945 398.243C62.6589 397.338 65.3152 396.297 68.1466 394.983C71.2011 393.583 74.1735 392.011 77.0496 390.274C80.2748 388.342 83.3225 386.128 86.1568 383.658L86.2541 383.56C85.6314 384.592 83.9968 387.53 83.8995 387.773C82.4886 391.15 81.7491 398.476 84.8725 401.191C85.404 401.619 86.0196 401.93 86.6792 402.104C87.3389 402.279 88.0279 402.313 88.7014 402.203C89.3749 402.094 90.0179 401.845 90.5887 401.471C91.1594 401.097 91.6452 400.607 92.0143 400.033C93.6684 397.649 93.2987 394.098 92.4424 391.5C91.4694 388.581 86.945 383.638 86.6044 383.249C89.4243 380.66 92.0702 377.887 94.5246 374.949C95.9647 373.246 97.3561 371.485 98.7377 369.695C98.2318 370.6 97.7647 371.417 97.7647 371.544C96.3539 374.92 95.6144 382.295 98.7377 384.961C99.2686 385.39 99.8837 385.701 100.543 385.877C101.202 386.052 101.891 386.086 102.564 385.978C103.238 385.87 103.881 385.621 104.452 385.248C105.023 384.875 105.51 384.386 105.88 383.813C107.524 381.429 107.164 377.878 106.308 375.27C105.451 372.663 101.657 368.352 100.635 367.243L102.211 365.171C104.692 361.853 107.164 358.525 109.684 355.343C110.579 354.215 111.494 353.144 112.408 352.064C111.951 352.872 111.581 353.563 111.533 353.67C110.122 357.056 109.382 364.421 112.506 367.087C113.037 367.516 113.652 367.827 114.311 368.003C114.97 368.178 115.659 368.212 116.332 368.104C117.006 367.996 117.649 367.747 118.22 367.374C118.791 367.001 119.278 366.512 119.647 365.939C121.292 363.555 120.932 360.004 120.076 357.396C119.219 354.789 115.794 350.906 114.588 349.564C115.561 348.493 116.534 347.413 117.507 346.421C118.198 345.749 118.82 345.059 119.54 344.426L121.652 342.529C123.034 341.371 124.454 340.164 125.826 339.065C126.799 338.296 127.704 337.586 128.628 336.856C127.733 337.965 126.021 340.174 125.904 340.369C123.958 343.502 122.148 350.673 124.824 353.786C125.284 354.289 125.845 354.69 126.47 354.962C127.095 355.234 127.77 355.372 128.452 355.366C129.133 355.361 129.806 355.212 130.426 354.93C131.047 354.648 131.601 354.238 132.053 353.728C134.048 351.626 134.223 348.055 133.775 345.36C133.279 342.383 129.708 337.031 129.261 336.36C130.798 335.173 132.306 334.025 133.737 332.964C138.67 329.315 142.922 326.465 145.938 324.499L144.693 322.008L144.498 322.144C141.482 324.198 137.22 327.194 132.277 331.028C130.711 332.225 129.056 333.548 127.412 334.92C125.869 333.528 124.244 332.228 122.547 331.028C123.647 328.109 123.627 322.125 123.617 321.356C125.563 321.201 127.451 321.084 129.232 320.996C135.352 320.675 140.47 320.636 144.07 320.656L142.708 317.922C139.185 318 134.525 318.165 129.086 318.564C127.14 318.71 125.018 318.895 122.858 319.109C122.654 318.35 120.99 312.123 119.083 309.778C117.351 307.657 114.559 305.438 111.659 305.545C110.978 305.548 110.304 305.694 109.683 305.974C109.061 306.253 108.506 306.66 108.052 307.169C107.597 307.677 107.255 308.275 107.047 308.924C106.839 309.573 106.769 310.258 106.843 310.936C107.407 315.003 114.014 318.35 117.624 318.982C117.838 318.982 120.192 319.167 121.681 319.235C120.805 319.333 119.949 319.41 119.044 319.517C117.244 319.712 115.464 319.965 113.547 320.228L110.754 320.714C109.781 320.86 108.808 321.123 107.884 321.327C105.656 321.843 103.428 322.475 101.19 323.166C101.015 321.6 100.304 316.034 98.9031 313.66C97.502 311.286 95.089 308.688 92.2089 308.347C91.5347 308.247 90.847 308.29 90.1903 308.473C89.5336 308.655 88.9227 308.974 88.397 309.408C87.8714 309.842 87.4428 310.381 87.139 310.991C86.8352 311.601 86.663 312.269 86.6336 312.95C86.5752 317.056 92.5981 321.366 96.0717 322.543C96.2858 322.612 98.8739 323.176 100.304 323.458C98.9615 323.876 97.6285 324.295 96.2858 324.762C92.3938 326.124 88.5018 327.632 84.6681 329.111L81.1167 330.444C81.0583 329.88 80.348 323.254 78.7912 320.597C77.3998 318.243 74.9771 315.616 72.097 315.285C71.4228 315.185 70.735 315.227 70.0784 315.41C69.4217 315.593 68.8107 315.911 68.2851 316.345C67.7594 316.779 67.3308 317.319 67.0271 317.929C66.7233 318.539 66.5511 319.206 66.5217 319.887C66.4633 323.993 72.4862 328.304 75.9501 329.471C76.2128 329.559 79.9394 330.366 80.8929 330.522C78.2853 331.495 75.6679 332.468 73.1089 333.276C69.5838 334.411 65.9892 335.317 62.3475 335.99C62.3475 335.728 61.6178 328.81 60.0123 326.085C58.6209 323.73 56.1982 321.103 53.3181 320.773C52.6439 320.672 51.9561 320.715 51.2995 320.898C50.6428 321.08 50.0318 321.399 49.5062 321.833C48.9805 322.267 48.5519 322.806 48.2482 323.417C47.9444 324.027 47.7722 324.694 47.7428 325.375C47.6844 329.481 53.7073 333.791 57.1809 334.959C57.4047 335.037 60.2458 335.65 61.5983 335.932V336.165C57.9139 336.742 54.1857 336.989 50.4575 336.905C48.4142 336.905 46.4487 336.749 44.5416 336.574C44.5416 335.27 44.4832 329.315 43.3156 326.708C42.148 324.1 40.0658 321.347 37.2441 320.695C36.578 320.499 35.8778 320.449 35.1906 320.547C34.5033 320.645 33.845 320.888 33.2597 321.262C32.6745 321.635 32.1759 322.129 31.7974 322.711C31.419 323.293 31.1694 323.949 31.0656 324.635C30.5596 328.712 36.0765 333.655 39.3944 335.202C39.5793 335.29 41.5059 335.942 42.9264 336.389C42.0702 336.302 41.175 336.224 40.3577 336.117C37.2733 335.737 34.5197 335.192 32.0094 334.696C30.5985 334.395 29.3336 334.103 28.1174 333.811C27.4557 332.536 24.7021 327.418 22.5032 325.676C20.3042 323.935 17.1517 322.407 14.3494 323.127C13.6933 323.282 13.0765 323.572 12.5382 323.978C12 324.384 11.5519 324.897 11.2226 325.485C10.8932 326.074 10.6897 326.724 10.625 327.395C10.5603 328.066 10.6358 328.743 10.8466 329.384V329.384Z" fill="#263238"/>
<path d="M52.559 277.863C55.1278 275.917 58.5235 269.573 58.5333 269.573C58.543 269.573 53.6683 268.6 53.3472 268.6C49.6887 268.357 42.469 270.021 40.9512 273.835C40.7165 274.476 40.6192 275.158 40.6655 275.839C40.7119 276.52 40.9008 277.183 41.2201 277.786C41.5395 278.388 41.982 278.917 42.519 279.338C43.056 279.759 43.6755 280.062 44.3372 280.228C47.12 280.996 50.3406 279.508 52.559 277.863Z" fill="#263238"/>
<path d="M89.7762 215.173C89.8443 215.173 86.254 211.67 86.001 211.485C83.082 209.257 76.1445 206.62 72.7779 209.004C72.2289 209.409 71.7712 209.925 71.4345 210.518C71.0978 211.112 70.8897 211.769 70.8236 212.448C70.7576 213.127 70.8351 213.812 71.051 214.459C71.267 215.107 71.6167 215.701 72.0774 216.204C73.9552 218.403 77.4872 218.958 80.2214 218.792C83.4225 218.578 89.7762 215.173 89.7762 215.173Z" fill="#263238"/>
<path d="M77.585 183.599C75.1915 186.936 77.6823 193.913 79.8619 196.861C80.0565 197.114 83.462 200.753 83.5009 200.685V200.617C83.8804 201.716 84.3085 202.894 84.795 204.178C85.768 206.533 86.741 209.179 88.1421 211.962C89.5627 215.005 91.1612 217.961 92.9293 220.816C94.9006 224.024 97.1504 227.052 99.6527 229.865L99.7403 229.953C98.7089 229.349 95.751 227.744 95.5077 227.637C92.1119 226.265 84.7366 225.603 82.0998 228.746C81.6768 229.282 81.3712 229.9 81.203 230.562C81.0347 231.223 81.0075 231.913 81.1231 232.586C81.2387 233.258 81.4946 233.899 81.8741 234.466C82.2536 235.034 82.7482 235.515 83.3258 235.878C85.7291 237.503 89.2708 237.095 91.8687 236.219C94.7877 235.246 99.6527 230.634 100.052 230.274C102.674 233.049 105.476 235.65 108.439 238.058C110.161 239.478 111.932 240.86 113.732 242.213C112.817 241.716 112 241.24 111.874 241.24C108.478 239.858 101.102 239.196 98.4754 242.349C98.0536 242.884 97.7488 243.501 97.5807 244.161C97.4126 244.821 97.385 245.509 97.4997 246.18C97.6143 246.852 97.8687 247.492 98.2463 248.058C98.6239 248.625 99.1163 249.107 99.6916 249.471C102.095 251.096 105.637 250.697 108.235 249.812C110.832 248.926 115.104 245.093 116.213 244.071C116.904 244.577 117.595 245.102 118.295 245.608C121.633 248.07 124.99 250.473 128.201 252.993C129.329 253.869 130.409 254.774 131.499 255.679C130.691 255.231 130.001 254.871 129.894 254.823C126.498 253.451 119.122 252.779 116.486 255.932C116.064 256.467 115.76 257.085 115.593 257.746C115.425 258.406 115.399 259.094 115.514 259.766C115.63 260.437 115.885 261.077 116.264 261.643C116.642 262.21 117.135 262.69 117.712 263.054C120.105 264.679 123.657 264.28 126.245 263.395C128.833 262.509 132.696 259.045 134.029 257.829C135.119 258.802 136.208 259.775 137.21 260.748C137.892 261.429 138.582 262.042 139.225 262.762L141.171 264.854C142.348 266.226 143.564 267.627 144.673 268.999C145.452 269.972 146.182 270.858 146.911 271.772C145.792 270.887 143.574 269.194 143.37 269.077C140.54 267.529 137.361 266.735 134.136 266.771C133.827 266.583 133.501 266.424 133.163 266.294C132.531 266.037 131.853 265.915 131.171 265.937C130.489 265.959 129.82 266.124 129.206 266.421C128.592 266.718 128.048 267.141 127.608 267.662C127.168 268.184 126.843 268.792 126.653 269.447C125.622 273.417 130.448 279.031 133.552 280.996C133.727 281.113 135.848 282.154 137.201 282.777L134.651 282.028C132.92 281.531 131.178 281.055 129.3 280.588L126.537 279.975C125.564 279.741 124.591 279.624 123.618 279.439C121.36 279.07 119.064 278.807 116.739 278.583C117.167 277.065 118.636 271.655 118.247 268.931C117.858 266.207 116.622 262.869 114.092 261.468C113.507 261.118 112.856 260.895 112.18 260.813C111.503 260.731 110.817 260.792 110.166 260.992C109.515 261.192 108.913 261.527 108.399 261.974C107.885 262.421 107.471 262.972 107.184 263.589C105.559 267.365 109.48 273.64 112.243 276.053C112.418 276.199 114.588 277.708 115.804 278.515C114.403 278.398 113.012 278.272 111.591 278.194C107.495 277.97 103.34 277.883 99.1954 277.766L95.4007 277.649C95.5564 277.104 97.444 270.712 97.0061 267.656C96.6267 264.952 95.3812 261.604 92.8514 260.194C92.2668 259.844 91.6153 259.621 90.939 259.539C90.2627 259.457 89.5767 259.518 88.9255 259.718C88.2742 259.918 87.6723 260.252 87.1585 260.699C86.6448 261.147 86.2307 261.697 85.9431 262.315C84.3182 266.09 88.2394 272.366 91.0027 274.779C91.2071 274.964 94.3401 277.124 95.1672 277.639C92.3844 277.542 89.6016 277.416 86.8675 277.182C83.178 276.891 79.5116 276.358 75.892 275.586C75.9699 275.333 77.9548 268.668 77.5169 265.545C77.1375 262.83 75.892 259.483 73.3622 258.072C72.7767 257.721 72.1237 257.497 71.4459 257.415C70.7681 257.333 70.0806 257.394 69.4281 257.595C68.7755 257.796 68.1726 258.132 67.6585 258.582C67.1445 259.031 66.7307 259.584 66.4442 260.203C64.829 263.969 68.7502 270.254 71.5038 272.667C71.6887 272.823 74.0823 274.477 75.2304 275.236L75.1428 275.45C71.5183 274.576 67.9788 273.381 64.5663 271.879C62.6787 271.072 60.9176 270.196 59.2245 269.311C59.7208 268.104 61.9392 262.577 61.8516 259.727C61.7641 256.876 60.8786 253.519 58.5434 251.845C58.0005 251.433 57.377 251.139 56.7133 250.983C56.0497 250.827 55.3606 250.813 54.6909 250.94C54.0212 251.068 53.3858 251.335 52.8258 251.724C52.2659 252.112 51.7939 252.615 51.4405 253.198C49.407 256.769 52.6179 263.443 55.099 266.139C55.2352 266.294 56.7726 267.627 57.9013 268.591C57.1423 268.182 56.3542 267.764 55.6342 267.355C52.939 265.827 50.5551 264.261 48.4632 262.85C47.2761 262.042 46.2253 261.283 45.2425 260.573C45.116 259.133 44.5322 253.353 43.1603 250.901C41.7884 248.449 39.4629 245.832 36.5926 245.433C35.9204 245.317 35.2314 245.344 34.5701 245.511C33.9089 245.679 33.2903 245.983 32.7545 246.405C32.2187 246.827 31.7776 247.358 31.4598 247.961C31.1421 248.565 30.9549 249.228 30.9102 249.909C30.7546 254.015 36.6801 258.452 40.1245 259.707C40.4262 259.814 45.2717 260.972 45.2717 260.904V260.816C46.2447 261.527 47.2177 262.276 48.3172 263.064C50.3897 264.523 52.7346 266.148 55.4201 267.744C58.2834 269.501 61.2499 271.083 64.3036 272.483C67.7097 274.079 71.2528 275.365 74.8898 276.326H75.0261C73.8195 276.384 70.4724 276.676 70.2194 276.725C66.6193 277.455 60.1002 280.967 59.6429 285.044C59.5855 285.724 59.6716 286.408 59.8958 287.052C60.12 287.697 60.4772 288.287 60.9443 288.784C61.4113 289.282 61.9778 289.675 62.6068 289.939C63.2358 290.203 63.9134 290.332 64.5955 290.318C67.5145 290.318 70.2292 288.06 71.9027 285.89C73.8487 283.448 75.3374 276.929 75.4542 276.413C79.1786 277.313 82.9591 277.963 86.7702 278.359C88.9886 278.603 91.2362 278.768 93.4839 278.914L91.3919 279.109C87.8016 279.838 81.2824 283.351 80.8154 287.428C80.7579 288.108 80.8441 288.792 81.0683 289.436C81.2925 290.081 81.6497 290.671 82.1168 291.168C82.5838 291.665 83.1503 292.059 83.7793 292.323C84.4083 292.587 85.0859 292.716 85.768 292.701C88.687 292.701 91.4017 290.444 93.0849 288.274C94.7682 286.105 96.2083 280.549 96.5586 279.079L99.1565 279.225C103.301 279.42 107.437 279.605 111.484 279.907C112.915 280.014 114.316 280.169 115.717 280.325C114.802 280.403 114.024 280.481 113.907 280.5C110.317 281.23 103.798 284.742 103.34 288.819C103.283 289.499 103.369 290.183 103.593 290.828C103.817 291.472 104.175 292.062 104.642 292.559C105.109 293.057 105.675 293.45 106.304 293.714C106.933 293.979 107.611 294.108 108.293 294.093C111.212 294.093 113.927 291.836 115.6 289.666C117.274 287.496 118.578 282.475 119.015 280.734C120.446 280.938 121.934 281.133 123.258 281.385C124.231 281.59 125.116 281.707 126.05 281.96L128.804 282.641C130.536 283.137 132.326 283.614 134.009 284.168C135.177 284.519 136.286 284.888 137.405 285.248C135.985 285.122 133.202 284.947 132.968 284.956C129.31 285.122 122.333 287.613 121.292 291.573C121.132 292.236 121.114 292.926 121.237 293.597C121.361 294.268 121.625 294.905 122.011 295.468C122.398 296.03 122.898 296.505 123.48 296.862C124.062 297.218 124.712 297.449 125.389 297.537C128.249 298.004 131.304 296.156 133.289 294.268C135.479 292.186 137.911 286.241 138.213 285.511C140.061 286.114 141.852 286.718 143.535 287.321C149.315 289.364 154.063 291.281 157.381 292.682L158.753 290.259L158.529 290.172C155.133 288.819 150.258 286.971 144.323 285.015C142.445 284.392 140.431 283.769 138.359 283.147C138.631 281.095 138.784 279.028 138.816 276.958C141.832 276.248 146.795 272.872 147.437 272.424C148.643 273.952 149.801 275.45 150.881 276.871C154.579 281.736 157.468 285.988 159.473 288.985L160.971 286.319C158.938 283.4 156.194 279.673 152.808 275.392C151.582 273.835 150.249 272.2 148.857 270.527C149.383 269.933 153.606 265.059 154.472 262.169C155.26 259.542 155.542 255.99 153.829 253.645C153.445 253.081 152.947 252.604 152.367 252.244C151.786 251.885 151.137 251.652 150.461 251.56C149.784 251.469 149.096 251.52 148.441 251.712C147.786 251.903 147.179 252.231 146.658 252.672C143.613 255.416 144.537 262.762 146.036 266.109C146.123 266.304 147.32 268.338 148.098 269.612C147.524 268.931 146.979 268.269 146.386 267.579C145.218 266.207 144.012 264.864 142.718 263.424L140.772 261.381C140.129 260.69 139.361 260.028 138.651 259.347C136.977 257.79 135.206 256.302 133.387 254.832C134.583 253.811 138.796 250.104 139.974 247.622C141.151 245.141 141.92 241.668 140.626 239.099C140.331 238.484 139.911 237.937 139.392 237.495C138.872 237.053 138.266 236.725 137.612 236.532C136.958 236.34 136.27 236.287 135.594 236.377C134.919 236.467 134.269 236.698 133.688 237.056C130.254 239.313 130.059 246.708 131.032 250.249C131.1 250.464 132.083 252.925 132.647 254.258C131.548 253.392 130.458 252.517 129.31 251.67C126.011 249.228 122.606 246.863 119.21 244.48L116.106 242.281C116.544 241.921 121.642 237.62 122.917 234.837C124.094 232.366 124.863 228.892 123.559 226.323C123.265 225.71 122.845 225.165 122.326 224.723C121.808 224.282 121.203 223.955 120.55 223.762C119.897 223.57 119.21 223.516 118.536 223.605C117.861 223.695 117.212 223.924 116.632 224.28C113.197 226.528 113.002 233.932 113.975 237.464C114.043 237.727 115.464 241.269 115.873 242.144C113.606 240.529 111.358 238.895 109.208 237.192C106.289 234.911 103.523 232.44 100.927 229.797C101.132 229.632 106.473 225.175 107.826 222.324C109.003 219.853 109.772 216.37 108.478 213.801C108.183 213.186 107.763 212.639 107.244 212.197C106.725 211.755 106.118 211.427 105.464 211.234C104.81 211.042 104.123 210.989 103.447 211.079C102.771 211.169 102.121 211.4 101.54 211.758C98.1056 214.015 97.911 221.41 98.884 224.952C98.9424 225.175 100.022 227.87 100.567 229.145L100.373 229.272C97.8481 226.539 95.5689 223.589 93.5617 220.456C92.433 218.744 91.4503 217.051 90.526 215.367C91.606 214.647 96.5002 211.261 98.0083 208.829C99.5165 206.396 100.635 203.137 99.5943 200.432C99.3693 199.788 99.0112 199.198 98.5435 198.701C98.0757 198.205 97.5086 197.812 96.8792 197.548C96.2497 197.285 95.5718 197.157 94.8897 197.173C94.2075 197.188 93.5362 197.347 92.9195 197.639C89.2611 199.498 88.2491 206.834 88.8329 210.454C88.8329 210.648 89.407 212.614 89.8059 214.044C89.3973 213.285 88.9691 212.507 88.5897 211.767C87.1886 208.994 86.0696 206.377 85.0966 204.051C84.5517 202.718 84.1236 201.502 83.6663 200.364C84.3571 199.099 87.0523 193.952 87.2664 191.159C87.4805 188.367 86.9745 184.893 84.8047 182.976C84.3063 182.508 83.7149 182.15 83.0689 181.926C82.423 181.702 81.737 181.616 81.0558 181.675C80.3746 181.734 79.7134 181.936 79.1154 182.267C78.5173 182.599 77.9959 183.052 77.585 183.599V183.599Z" fill="#263238"/>
<path d="M391.864 275.314C389.295 273.368 385.89 267.034 385.89 267.024C385.89 267.014 390.755 266.051 391.076 266.051C394.734 265.798 401.944 267.472 403.472 271.286C403.705 271.926 403.801 272.608 403.754 273.287C403.707 273.966 403.517 274.628 403.198 275.23C402.879 275.832 402.437 276.36 401.901 276.78C401.365 277.2 400.746 277.503 400.086 277.669C397.293 278.447 394.053 276.958 391.864 275.314Z" fill="#263238"/>
<path d="M354.636 212.624C354.578 212.624 358.168 209.131 358.421 208.936C361.34 206.708 368.268 204.071 371.644 206.464C372.194 206.869 372.651 207.385 372.988 207.979C373.325 208.572 373.533 209.23 373.599 209.909C373.665 210.588 373.587 211.273 373.371 211.92C373.155 212.567 372.806 213.161 372.345 213.665C370.457 215.864 366.935 216.409 364.201 216.243C360.99 216.049 354.646 212.633 354.636 212.624Z" fill="#263238"/>
<path d="M366.809 181.059C369.193 184.397 366.712 191.364 364.522 194.312C364.338 194.565 360.932 198.204 360.893 198.145V198.068C360.504 199.177 360.086 200.354 359.589 201.629C358.616 203.983 357.643 206.64 356.252 209.413C354.826 212.458 353.224 215.417 351.455 218.277C349.493 221.485 347.246 224.51 344.741 227.316C344.711 227.351 344.679 227.383 344.644 227.413C345.685 226.8 348.643 225.195 348.877 225.097C352.272 223.716 359.648 223.054 362.285 226.207C362.706 226.742 363.01 227.36 363.177 228.02C363.345 228.681 363.371 229.369 363.256 230.041C363.14 230.712 362.885 231.352 362.507 231.918C362.128 232.485 361.635 232.965 361.059 233.329C358.665 234.954 355.114 234.555 352.525 233.67C349.606 232.697 344.741 228.094 344.333 227.725C341.715 230.52 338.917 233.14 335.955 235.567C334.233 236.988 332.452 238.359 330.652 239.722C331.567 239.225 332.394 238.749 332.511 238.749C335.907 237.367 343.282 236.705 345.919 239.848C346.342 240.384 346.647 241.002 346.816 241.664C346.984 242.325 347.011 243.015 346.895 243.687C346.78 244.36 346.524 245.001 346.144 245.568C345.765 246.135 345.27 246.617 344.693 246.98C342.299 248.605 338.748 248.206 336.16 247.321C333.571 246.435 329.29 242.602 328.181 241.57C327.48 242.086 326.799 242.611 326.099 243.117C322.752 245.569 319.404 247.982 316.194 250.493C315.055 251.378 313.975 252.283 312.885 253.178C313.703 252.74 314.384 252.371 314.501 252.332C317.896 250.95 325.272 250.288 327.908 253.431C328.331 253.967 328.637 254.586 328.805 255.247C328.974 255.908 329.001 256.598 328.885 257.271C328.769 257.943 328.514 258.584 328.134 259.151C327.755 259.719 327.26 260.2 326.683 260.563C324.279 262.188 320.737 261.789 318.14 260.904C315.542 260.018 311.689 256.555 310.356 255.338C309.276 256.311 308.186 257.284 307.174 258.257C306.502 258.938 305.812 259.551 305.169 260.271C304.527 260.991 303.885 261.673 303.223 262.354C302.056 263.726 300.84 265.136 299.721 266.499C298.942 267.472 298.222 268.357 297.483 269.281C298.602 268.386 300.83 266.703 301.025 266.586C303.858 265.038 307.04 264.241 310.268 264.27C310.576 264.083 310.902 263.927 311.241 263.803C311.872 263.546 312.55 263.424 313.231 263.445C313.912 263.466 314.581 263.63 315.195 263.926C315.809 264.223 316.353 264.645 316.793 265.165C317.234 265.685 317.56 266.292 317.75 266.946C318.782 270.926 313.956 276.54 310.862 278.505C310.677 278.622 308.555 279.654 307.203 280.286C308.059 280.033 308.877 279.78 309.752 279.537C311.494 279.031 313.236 278.564 315.104 278.097L317.877 277.474C318.791 277.25 319.823 277.133 320.796 276.949C323.043 276.579 325.349 276.306 327.675 276.092C327.237 274.574 325.729 269.165 326.157 266.44C326.585 263.716 327.782 260.378 330.322 258.968C330.907 258.618 331.559 258.396 332.236 258.314C332.912 258.233 333.599 258.295 334.25 258.496C334.901 258.696 335.503 259.032 336.016 259.48C336.53 259.929 336.943 260.48 337.23 261.098C338.845 264.864 334.934 271.15 332.17 273.563C331.995 273.709 329.816 275.217 328.609 276.024C330.01 275.898 331.402 275.771 332.822 275.693C336.918 275.479 341.073 275.382 345.208 275.275C346.483 275.275 347.748 275.197 349.013 275.149C348.847 274.613 346.97 268.211 347.398 265.166C347.787 262.451 349.023 259.104 351.562 257.693C352.147 257.343 352.799 257.121 353.476 257.04C354.153 256.958 354.839 257.02 355.491 257.221C356.142 257.422 356.744 257.757 357.257 258.206C357.77 258.654 358.184 259.205 358.47 259.824C360.095 263.589 356.174 269.875 353.411 272.288C353.197 272.463 350.064 274.633 349.237 275.139C352.029 275.042 354.802 274.925 357.536 274.691C361.226 274.386 364.892 273.844 368.512 273.066C368.434 272.823 366.439 266.148 366.877 263.025C367.266 260.32 368.502 256.973 371.042 255.562C371.626 255.212 372.278 254.989 372.954 254.907C373.63 254.825 374.316 254.886 374.968 255.086C375.619 255.286 376.221 255.621 376.734 256.068C377.248 256.515 377.662 257.066 377.95 257.683C379.575 261.458 375.654 267.734 372.89 270.147C372.705 270.313 370.322 271.957 369.164 272.716C369.2 272.786 369.233 272.857 369.261 272.93C372.886 272.056 376.425 270.861 379.838 269.359C381.725 268.561 383.486 267.686 385.179 266.8C384.673 265.594 382.455 260.067 382.542 257.206C382.63 254.346 383.515 251.008 385.86 249.335C386.403 248.923 387.027 248.629 387.69 248.473C388.354 248.317 389.043 248.303 389.713 248.43C390.383 248.558 391.018 248.824 391.578 249.213C392.138 249.602 392.61 250.104 392.963 250.687C394.987 254.258 391.776 260.933 389.305 263.628C389.169 263.774 387.631 265.117 386.493 266.08C387.252 265.662 388.04 265.253 388.76 264.844C391.465 263.307 393.839 261.741 395.941 260.34C397.118 259.522 398.179 258.773 399.161 258.053C399.288 256.613 399.872 250.833 401.234 248.381C402.596 245.929 404.941 243.322 407.811 242.923C408.483 242.807 409.171 242.833 409.831 243C410.492 243.167 411.11 243.471 411.646 243.892C412.182 244.313 412.623 244.842 412.941 245.444C413.259 246.047 413.448 246.709 413.494 247.389C413.64 251.495 407.724 255.942 404.27 257.197C403.978 257.304 399.122 258.462 399.132 258.384C399.128 258.355 399.128 258.325 399.132 258.296C398.159 259.007 397.186 259.756 396.077 260.554C394.014 262.013 391.659 263.638 388.984 265.234C386.114 266.979 383.148 268.561 380.1 269.972C376.683 271.567 373.131 272.853 369.485 273.816C369.443 273.82 369.4 273.82 369.358 273.816C370.555 273.884 373.912 274.176 374.165 274.224C377.755 274.944 384.274 278.467 384.732 282.543C384.788 283.222 384.701 283.904 384.476 284.547C384.252 285.189 383.896 285.777 383.43 286.273C382.964 286.77 382.399 287.162 381.772 287.427C381.145 287.691 380.469 287.82 379.789 287.807C376.87 287.807 374.145 285.55 372.472 283.39C370.584 280.948 369.047 274.429 368.92 273.903C365.197 274.808 361.416 275.459 357.604 275.849C355.386 276.083 353.148 276.258 350.9 276.394C351.932 276.482 352.846 276.569 352.992 276.598C356.583 277.318 363.102 280.841 363.559 284.917C363.615 285.597 363.528 286.28 363.303 286.923C363.078 287.566 362.721 288.155 362.254 288.651C361.787 289.147 361.221 289.54 360.593 289.804C359.965 290.067 359.288 290.196 358.607 290.181C355.688 290.181 352.973 287.924 351.299 285.764C349.626 283.604 348.176 278.029 347.816 276.559C346.95 276.608 346.094 276.666 345.228 276.705C341.083 276.91 336.948 277.095 332.89 277.396C331.47 277.503 330.059 277.659 328.658 277.815C329.631 277.892 330.351 277.961 330.467 277.99C334.068 278.71 340.587 282.232 341.044 286.309C341.1 286.988 341.013 287.671 340.788 288.314C340.563 288.958 340.206 289.546 339.739 290.043C339.272 290.539 338.706 290.932 338.078 291.195C337.449 291.459 336.773 291.587 336.091 291.573C333.172 291.573 330.458 289.315 328.784 287.155C327.111 284.995 325.797 279.965 325.369 278.223C323.929 278.418 322.499 278.612 321.117 278.875C320.144 279.07 319.259 279.196 318.334 279.449L315.581 280.13C313.849 280.627 312.049 281.103 310.375 281.648C309.198 282.008 308.088 282.368 306.97 282.728C308.39 282.611 311.183 282.427 311.416 282.436C315.075 282.611 322.051 285.093 323.092 289.062C323.251 289.725 323.268 290.414 323.143 291.084C323.019 291.754 322.755 292.39 322.369 292.951C321.983 293.513 321.483 293.987 320.902 294.342C320.321 294.698 319.671 294.928 318.996 295.017C316.135 295.494 313.09 293.636 311.095 291.758C308.916 289.675 306.473 283.721 306.181 283.001C304.333 283.614 302.533 284.217 300.859 284.81C295.07 286.854 290.331 288.78 287.013 290.172L285.641 287.749L285.865 287.661C289.261 286.319 294.126 284.47 300.071 282.514C301.939 281.891 303.963 281.259 306.035 280.636C305.762 278.584 305.606 276.518 305.568 274.448C302.562 273.738 297.59 270.361 296.957 269.924C295.741 271.451 294.583 272.94 293.513 274.37C289.816 279.235 286.916 283.477 284.921 286.474L283.442 283.769C285.476 280.85 288.22 277.114 291.606 272.833C292.822 271.276 294.165 269.641 295.547 267.968C295.031 267.374 290.798 262.509 289.932 259.61C289.144 256.992 288.872 253.431 290.584 251.096C290.968 250.533 291.466 250.057 292.045 249.699C292.625 249.341 293.273 249.108 293.948 249.017C294.624 248.925 295.31 248.976 295.964 249.167C296.619 249.357 297.225 249.683 297.745 250.123C300.801 252.867 299.876 260.213 298.378 263.56C298.281 263.764 297.084 265.798 296.305 267.063C296.88 266.392 297.424 265.72 298.018 265.029C299.195 263.657 300.402 262.324 301.696 260.884C302.338 260.203 303 259.522 303.642 258.841C304.284 258.16 305.043 257.489 305.753 256.808C307.427 255.251 309.198 253.752 311.017 252.293C309.82 251.271 305.617 247.564 304.43 245.073C303.243 242.582 302.484 239.128 303.778 236.559C304.072 235.944 304.493 235.398 305.012 234.956C305.531 234.514 306.138 234.186 306.792 233.993C307.446 233.8 308.133 233.747 308.809 233.837C309.485 233.928 310.135 234.159 310.716 234.516C314.15 236.764 314.345 244.168 313.372 247.7C313.313 247.924 312.331 250.376 311.757 251.719C312.866 250.843 313.956 249.967 315.094 249.131C318.393 246.688 321.808 244.314 325.204 241.94C326.245 241.21 327.266 240.471 328.298 239.741C327.87 239.371 322.771 235.08 321.487 232.298C320.309 229.826 319.541 226.343 320.835 223.774C321.129 223.159 321.55 222.613 322.069 222.171C322.588 221.728 323.194 221.4 323.849 221.208C324.503 221.015 325.19 220.962 325.866 221.052C326.542 221.142 327.191 221.374 327.772 221.731C331.207 223.988 331.402 231.383 330.429 234.925C330.351 235.187 328.93 238.719 328.483 239.605C330.759 237.98 333.007 236.345 335.157 234.652C338.072 232.366 340.838 229.896 343.438 227.258C343.233 227.092 337.891 222.626 336.539 219.775C335.362 217.304 334.544 213.83 335.887 211.261C336.181 210.646 336.602 210.1 337.121 209.658C337.64 209.216 338.247 208.888 338.901 208.695C339.555 208.502 340.242 208.449 340.918 208.539C341.594 208.63 342.244 208.861 342.825 209.218C346.259 211.466 346.454 218.87 345.481 222.402C345.413 222.636 344.333 225.321 343.788 226.596L343.982 226.722C346.513 223.998 348.792 221.051 350.793 217.917C351.922 216.204 352.915 214.501 353.839 212.828C352.759 212.098 347.855 208.712 346.357 206.28C344.858 203.847 343.72 200.588 344.771 197.883C344.996 197.238 345.354 196.649 345.821 196.152C346.289 195.655 346.856 195.262 347.486 194.999C348.115 194.736 348.793 194.608 349.475 194.623C350.157 194.639 350.829 194.798 351.445 195.09C355.104 196.958 356.106 204.295 355.532 207.914C355.532 208.109 354.958 210.074 354.559 211.505C354.958 210.736 355.396 209.958 355.765 209.218C357.176 206.455 358.295 203.837 359.268 201.502C359.803 200.179 360.241 198.963 360.689 197.824C360.008 196.559 357.303 191.412 357.089 188.61C356.875 185.808 357.381 182.344 359.56 180.427C360.06 179.954 360.653 179.593 361.303 179.367C361.952 179.141 362.642 179.055 363.327 179.114C364.012 179.174 364.676 179.378 365.276 179.714C365.877 180.049 366.399 180.508 366.809 181.059V181.059Z" fill="#263238"/>
<path d="M421.053 331.116C418.407 333.062 414.846 339.425 414.846 339.435C414.846 339.444 419.769 340.505 420.09 340.524C423.807 340.846 431.163 339.269 432.739 335.416C432.988 334.771 433.098 334.08 433.062 333.389C433.027 332.698 432.846 332.022 432.532 331.405C432.218 330.789 431.778 330.245 431.241 329.81C430.703 329.374 430.08 329.057 429.412 328.878C426.648 328.021 423.33 329.5 421.053 331.116Z" fill="#263238"/>
<path d="M382.231 394.166C382.163 394.166 385.754 397.776 386.007 397.97C388.926 400.276 395.931 403.02 399.395 400.705C399.96 400.304 400.435 399.788 400.788 399.192C401.14 398.595 401.364 397.931 401.442 397.243C401.521 396.554 401.454 395.857 401.246 395.196C401.037 394.535 400.692 393.925 400.232 393.407C398.354 391.14 394.783 390.488 392 390.644C388.741 390.799 382.241 394.156 382.231 394.166Z" fill="#263238"/>
<path d="M394.062 426.431C396.544 423.074 394.131 415.951 391.971 412.925C391.776 412.663 388.38 408.907 388.341 408.975L388.293 409.053C387.923 407.924 387.514 406.718 387.037 405.414C386.142 403.001 385.091 400.296 383.778 397.416C382.377 394.305 380.798 391.277 379.049 388.347C377.109 385.054 374.879 381.941 372.384 379.046L372.287 378.948C373.328 379.581 376.305 381.264 376.548 381.371C379.973 382.821 387.456 383.619 390.17 380.466C390.608 379.93 390.928 379.307 391.11 378.639C391.292 377.971 391.332 377.272 391.226 376.588C391.121 375.903 390.873 375.249 390.498 374.667C390.123 374.084 389.631 373.587 389.052 373.208C386.638 371.514 383.029 371.865 380.382 372.721C377.395 373.694 372.365 378.257 371.966 378.627C369.357 375.742 366.558 373.034 363.588 370.522C361.856 369.053 360.076 367.603 358.276 366.212C359.19 366.737 360.017 367.185 360.144 367.243C363.569 368.703 371.051 369.5 373.766 366.348C374.205 365.812 374.526 365.19 374.709 364.521C374.892 363.853 374.932 363.154 374.826 362.469C374.721 361.784 374.472 361.129 374.096 360.547C373.721 359.965 373.227 359.468 372.647 359.089C370.234 357.396 366.624 357.747 363.977 358.593C361.331 359.44 356.923 363.283 355.785 364.305C355.084 363.769 354.393 363.225 353.693 362.699C350.336 360.15 346.979 357.62 343.758 355.042C342.62 354.127 341.53 353.193 340.44 352.259C341.258 352.716 341.958 353.105 342.065 353.154C345.49 354.604 352.973 355.402 355.687 352.249C356.125 351.713 356.445 351.09 356.627 350.422C356.809 349.754 356.849 349.055 356.743 348.371C356.638 347.686 356.389 347.032 356.015 346.45C355.64 345.867 355.147 345.37 354.568 344.991C352.155 343.297 348.546 343.648 345.899 344.504C343.252 345.36 339.273 348.814 337.911 350.021C336.821 349.048 335.731 348.075 334.729 347.034C334.058 346.333 333.357 345.701 332.725 344.961L330.779 342.811C329.611 341.4 328.395 339.95 327.285 338.54C326.507 337.567 325.787 336.593 325.057 335.689C326.176 336.603 328.404 338.355 328.609 338.481C331.459 340.095 334.674 340.955 337.95 340.982C338.257 341.176 338.583 341.339 338.923 341.468C339.559 341.742 340.246 341.879 340.939 341.869C341.632 341.86 342.315 341.704 342.943 341.413C343.572 341.122 344.133 340.702 344.588 340.18C345.044 339.658 345.384 339.046 345.588 338.384C346.697 334.365 341.89 328.586 338.777 326.533C338.592 326.416 336.451 325.326 335.099 324.665L337.677 325.472C339.429 326.007 341.19 326.494 343.087 327.019L345.88 327.691C346.853 327.944 347.826 328.08 348.799 328.284C351.085 328.693 353.411 329.004 355.775 329.257C355.308 330.794 353.722 336.263 354.072 339.036C354.422 341.809 355.619 345.214 358.168 346.684C358.756 347.051 359.414 347.29 360.1 347.386C360.785 347.482 361.484 347.432 362.149 347.24C362.815 347.048 363.432 346.719 363.962 346.272C364.491 345.826 364.921 345.273 365.223 344.65C366.935 340.846 363.063 334.395 360.29 331.904C360.124 331.748 357.935 330.181 356.719 329.345C358.139 329.491 359.55 329.637 360.99 329.744C365.145 330.026 369.368 330.191 373.571 330.376L377.463 330.571C377.298 331.116 375.274 337.576 375.663 340.68C376.004 343.443 377.21 346.859 379.759 348.338C380.348 348.703 381.006 348.94 381.692 349.035C382.378 349.129 383.076 349.078 383.741 348.886C384.406 348.693 385.023 348.363 385.553 347.916C386.082 347.47 386.512 346.917 386.814 346.294C388.526 342.49 384.654 336.039 381.89 333.548C381.676 333.363 378.533 331.116 377.697 330.58C380.528 330.726 383.35 330.892 386.123 331.174C389.865 331.538 393.58 332.143 397.244 332.984C397.166 333.237 395.026 339.98 395.425 343.161C395.765 345.915 396.972 349.34 399.521 350.809C400.109 351.176 400.767 351.414 401.454 351.51C402.14 351.605 402.839 351.554 403.504 351.362C404.17 351.169 404.787 350.838 405.316 350.391C405.845 349.944 406.274 349.39 406.575 348.766C408.288 344.961 404.415 338.52 401.642 336.019C401.467 335.864 399.064 334.142 397.906 333.353C397.942 333.284 397.975 333.212 398.003 333.139C401.678 334.082 405.261 335.355 408.706 336.944C410.652 337.79 412.384 338.705 414.087 339.639C413.561 340.846 411.216 346.45 411.255 349.369C411.294 352.288 412.121 355.674 414.486 357.425C415.03 357.854 415.659 358.162 416.331 358.332C417.002 358.501 417.702 358.528 418.385 358.41C419.067 358.291 419.717 358.031 420.293 357.645C420.868 357.259 421.356 356.757 421.725 356.17C423.846 352.57 420.693 345.74 418.222 342.957C418.086 342.811 416.548 341.42 415.42 340.427C416.179 340.855 416.977 341.293 417.697 341.721C420.411 343.317 422.805 344.952 424.907 346.411C426.103 347.258 427.154 348.036 428.147 348.785C428.244 350.245 428.74 356.131 430.093 358.642C431.445 361.152 433.771 363.847 436.67 364.295C437.35 364.426 438.05 364.411 438.725 364.253C439.399 364.095 440.032 363.796 440.583 363.377C441.134 362.957 441.591 362.426 441.922 361.818C442.254 361.21 442.454 360.539 442.508 359.848C442.732 355.684 436.797 351.091 433.313 349.739C433.012 349.632 428.108 348.367 428.108 348.445V348.532C427.135 347.802 426.162 347.024 425.053 346.197C422.97 344.679 420.606 342.996 417.92 341.332C415.033 339.51 412.044 337.853 408.969 336.37C405.529 334.698 401.947 333.337 398.266 332.303H398.13C399.346 332.303 402.761 332.02 402.995 331.981C406.663 331.3 413.338 327.837 413.873 323.701C413.942 323.012 413.866 322.316 413.649 321.658C413.432 321.001 413.079 320.396 412.613 319.884C412.146 319.372 411.577 318.964 410.943 318.686C410.308 318.408 409.623 318.267 408.93 318.272C406.011 318.184 403.17 320.471 401.438 322.641C399.492 325.093 397.799 331.68 397.672 332.205C393.903 331.246 390.074 330.537 386.21 330.084C383.963 329.802 381.686 329.598 379.399 329.413L381.521 329.247C385.189 328.566 391.863 325.102 392.399 320.967C392.468 320.278 392.392 319.582 392.175 318.924C391.958 318.267 391.605 317.662 391.138 317.15C390.672 316.638 390.103 316.229 389.469 315.952C388.834 315.674 388.148 315.533 387.456 315.538C384.537 315.45 381.696 317.737 379.954 319.907C378.212 322.076 376.656 327.691 376.266 329.189L373.639 329.004C369.436 328.732 365.232 328.469 361.126 328.099C359.677 327.963 358.256 327.778 356.835 327.603C357.808 327.535 358.558 327.476 358.674 327.457C362.343 326.776 369.017 323.312 369.553 319.177C369.622 318.488 369.546 317.792 369.329 317.134C369.112 316.476 368.759 315.872 368.292 315.359C367.826 314.847 367.257 314.439 366.623 314.161C365.988 313.884 365.302 313.743 364.61 313.747C361.691 313.67 358.85 315.946 357.108 318.116C355.366 320.286 353.965 325.375 353.498 327.136C352.039 326.902 350.579 326.679 349.188 326.396C348.215 326.182 347.31 326.036 346.376 325.774L343.583 325.034C341.832 324.499 340.022 323.964 338.319 323.4C337.142 323.02 336.023 322.631 334.885 322.242C336.325 322.397 339.156 322.621 339.39 322.612C343.116 322.504 350.239 320.091 351.396 316.083C351.57 315.412 351.601 314.713 351.487 314.029C351.373 313.346 351.116 312.695 350.733 312.117C350.35 311.54 349.85 311.05 349.266 310.678C348.681 310.307 348.024 310.063 347.339 309.963C344.42 309.437 341.306 311.266 339.263 313.154C337.006 315.226 334.398 321.23 334.116 321.989C332.248 321.337 330.438 320.695 328.735 320.043C322.897 317.873 318.12 315.839 314.763 314.36L313.333 316.803L313.566 316.9C316.981 318.321 321.905 320.276 327.898 322.368C329.796 323.03 331.79 323.701 333.931 324.363C333.618 326.442 333.426 328.537 333.357 330.639C330.282 331.31 325.184 334.657 324.532 335.095C323.325 333.529 322.177 331.991 321.107 330.522C317.439 325.492 314.559 321.162 312.583 318.087L311.104 320.743C313.119 323.662 315.843 327.554 319.21 331.981C320.426 333.577 321.759 335.261 323.102 336.983C322.557 337.576 318.188 342.451 317.264 345.37C316.427 348.026 316.086 351.636 317.789 354.039C318.169 354.618 318.667 355.11 319.25 355.484C319.833 355.858 320.488 356.104 321.173 356.208C321.858 356.312 322.557 356.27 323.224 356.086C323.892 355.902 324.513 355.579 325.048 355.139C328.19 352.405 327.373 344.922 325.904 341.517C325.816 341.322 324.639 339.23 323.87 337.927C324.435 338.627 324.979 339.308 325.573 340.018C326.741 341.439 327.937 342.811 329.231 344.3L331.177 346.411C331.81 347.121 332.579 347.802 333.289 348.513C334.962 350.118 336.743 351.665 338.563 353.183C337.327 354.205 332.987 357.892 331.752 360.403C330.516 362.913 329.63 366.406 330.944 369.043C331.233 369.673 331.651 370.235 332.171 370.693C332.692 371.151 333.302 371.494 333.964 371.7C334.626 371.907 335.323 371.972 336.011 371.891C336.7 371.81 337.363 371.586 337.959 371.232C341.482 369.004 341.851 361.502 340.878 357.883C340.82 357.659 339.905 355.139 339.302 353.777C340.411 354.682 341.501 355.586 342.649 356.462C345.957 359.002 349.382 361.463 352.788 363.935C353.839 364.684 354.87 365.453 355.901 366.221C355.454 366.581 350.209 370.853 348.818 373.665C347.582 376.156 346.697 379.668 348.02 382.305C348.308 382.935 348.725 383.497 349.245 383.954C349.764 384.412 350.374 384.755 351.035 384.962C351.696 385.168 352.392 385.233 353.08 385.153C353.768 385.072 354.431 384.848 355.026 384.494C358.548 382.266 358.869 374.764 357.945 371.145C357.877 370.872 356.485 367.253 356.086 366.358C358.373 368.041 360.63 369.734 362.781 371.495C365.703 373.862 368.469 376.417 371.061 379.143C370.856 379.308 365.359 383.755 363.938 386.625C362.703 389.116 361.817 392.638 363.131 395.265C363.42 395.895 363.838 396.457 364.358 396.915C364.879 397.373 365.489 397.716 366.151 397.923C366.812 398.129 367.51 398.194 368.198 398.113C368.887 398.033 369.55 397.808 370.146 397.455C373.668 395.226 373.989 387.725 373.065 384.105C373.007 383.872 371.956 381.118 371.43 379.824L371.625 379.697C374.162 382.507 376.442 385.539 378.436 388.756C379.555 390.517 380.528 392.259 381.433 393.971C380.324 394.691 375.293 398.048 373.727 400.49C372.16 402.933 370.963 406.231 371.985 408.994C372.204 409.651 372.558 410.253 373.025 410.763C373.492 411.273 374.061 411.679 374.695 411.954C375.33 412.23 376.015 412.368 376.706 412.361C377.398 412.354 378.08 412.202 378.709 411.913C382.455 410.084 383.574 402.651 383.077 398.963C383.077 398.768 382.532 396.764 382.104 395.304C382.503 396.083 382.922 396.881 383.291 397.64C384.673 400.471 385.773 403.156 386.716 405.531C387.242 406.893 387.689 408.128 388.108 409.296C387.388 410.571 384.556 415.757 384.294 418.588C384.031 421.42 384.488 424.961 386.668 426.946C387.166 427.44 387.764 427.822 388.422 428.066C389.08 428.31 389.782 428.411 390.482 428.362C391.182 428.313 391.863 428.116 392.48 427.783C393.098 427.45 393.637 426.989 394.062 426.431V426.431Z" fill="#263238"/>
<path d="M346.299 33.1148H104.858V409.627H346.299V33.1148Z" fill="white" stroke="#263238" stroke-miterlimit="10"/>
<path d="M340.353 42.3777H110.793V400.364H340.353V42.3777Z" fill="#263238" stroke="#263238" stroke-miterlimit="10"/>
<path d="M305.957 333.937H145.188V382.149H305.957V333.937Z" fill="#636363"/>
<g opacity="0.2">
<path opacity="0.2" d="M293.941 333.937H270.667L222.465 382.149H245.729L293.941 333.937Z" fill="white"/>
<path opacity="0.2" d="M149.84 382.149H159.21L207.412 333.937H198.042L149.84 382.149Z" fill="white"/>
</g>
<path d="M162.79 368.586V355.937H167.655V357.25H164.522V361.425H167.1V362.67H164.561V367.292H167.723V368.547L162.79 368.586Z" fill="white"/>
<path d="M168.979 368.586V359.595H170.526V360.452C170.791 360.129 171.123 359.866 171.499 359.683C171.85 359.522 172.231 359.439 172.618 359.44C172.933 359.433 173.244 359.518 173.513 359.683C173.811 359.893 174.016 360.21 174.087 360.568C174.369 360.208 174.728 359.915 175.138 359.712C175.507 359.531 175.913 359.437 176.325 359.44C176.604 359.437 176.879 359.507 177.123 359.644C177.374 359.808 177.573 360.041 177.697 360.315C177.855 360.697 177.929 361.109 177.911 361.522V368.586H176.393V361.609C176.426 361.301 176.35 360.992 176.179 360.734C176.107 360.657 176.019 360.597 175.922 360.558C175.824 360.52 175.719 360.503 175.614 360.51C175.362 360.513 175.114 360.58 174.894 360.705C174.634 360.836 174.403 361.018 174.213 361.24V368.566H172.686V361.609C172.723 361.301 172.647 360.99 172.472 360.734C172.4 360.657 172.312 360.597 172.215 360.558C172.117 360.52 172.012 360.503 171.907 360.51C171.658 360.511 171.413 360.578 171.197 360.705C170.937 360.841 170.703 361.022 170.506 361.24V368.566L168.979 368.586Z" fill="white"/>
<path d="M179.564 371.544V359.595H181.238V360.306C181.443 360.073 181.683 359.873 181.948 359.712C182.246 359.547 182.581 359.463 182.921 359.469C183.323 359.445 183.719 359.574 184.031 359.829C184.306 360.083 184.516 360.4 184.644 360.753C184.778 361.114 184.866 361.489 184.906 361.872C184.95 362.195 184.972 362.52 184.974 362.845V365.025C184.974 365.629 184.912 366.232 184.789 366.825C184.691 367.335 184.456 367.81 184.108 368.197C183.926 368.373 183.709 368.51 183.471 368.599C183.234 368.688 182.98 368.726 182.727 368.712C182.423 368.719 182.125 368.634 181.87 368.469C181.629 368.314 181.407 368.132 181.209 367.924V371.544H179.564ZM182.435 367.408C182.558 367.419 182.682 367.394 182.792 367.337C182.902 367.28 182.994 367.194 183.058 367.087C183.2 366.82 183.28 366.524 183.291 366.221C183.291 365.861 183.34 365.462 183.34 365.025V362.845C183.338 362.5 183.316 362.156 183.272 361.814C183.251 361.542 183.16 361.281 183.009 361.055C182.933 360.959 182.835 360.883 182.723 360.834C182.611 360.785 182.489 360.764 182.367 360.773C182.151 360.773 181.938 360.823 181.744 360.919C181.559 360.998 181.388 361.106 181.238 361.24V367C181.4 367.12 181.576 367.218 181.763 367.292C181.975 367.386 182.203 367.439 182.435 367.447V367.408Z" fill="white"/>
<path d="M186.668 368.586V355.937H188.332V368.586H186.668Z" fill="white"/>
<path d="M192.555 368.712C192.001 368.741 191.452 368.602 190.978 368.313C190.589 368.025 190.302 367.619 190.161 367.156C189.99 366.584 189.908 365.99 189.918 365.394V362.787C189.908 362.191 189.99 361.597 190.161 361.026C190.302 360.562 190.589 360.156 190.978 359.868C191.452 359.579 192.001 359.44 192.555 359.469C193.105 359.44 193.651 359.579 194.121 359.868C194.505 360.159 194.788 360.564 194.929 361.026C195.099 361.597 195.181 362.191 195.172 362.787V365.394C195.181 365.99 195.099 366.584 194.929 367.156C194.788 367.617 194.505 368.022 194.121 368.313C193.651 368.602 193.105 368.741 192.555 368.712V368.712ZM192.555 367.486C192.681 367.499 192.809 367.48 192.926 367.431C193.044 367.382 193.147 367.304 193.226 367.204C193.374 366.985 193.455 366.729 193.459 366.465C193.459 366.163 193.459 365.842 193.459 365.492V362.67C193.459 362.329 193.459 362.008 193.459 361.697C193.452 361.434 193.371 361.178 193.226 360.957C193.149 360.855 193.047 360.774 192.929 360.723C192.811 360.671 192.682 360.652 192.555 360.666C192.424 360.653 192.293 360.673 192.172 360.724C192.052 360.775 191.946 360.855 191.864 360.957C191.719 361.178 191.638 361.434 191.63 361.697C191.63 361.999 191.63 362.32 191.63 362.67V365.501C191.63 365.832 191.63 366.153 191.63 366.474C191.635 366.738 191.716 366.995 191.864 367.214C191.952 367.304 192.061 367.372 192.181 367.413C192.301 367.454 192.429 367.465 192.555 367.447V367.486Z" fill="white"/>
<path d="M196.553 370.843V369.568C196.878 369.572 197.203 369.556 197.526 369.52C197.714 369.503 197.893 369.432 198.042 369.316C198.097 369.261 198.139 369.196 198.166 369.124C198.193 369.051 198.204 368.974 198.197 368.897C198.176 368.687 198.141 368.479 198.09 368.274C198.012 367.95 197.934 367.609 197.857 367.253L196.047 359.595H197.73L198.946 366.319L200.114 359.595H201.797L199.647 369.092C199.576 369.477 199.397 369.835 199.131 370.123C198.858 370.386 198.524 370.577 198.158 370.678C197.698 370.8 197.223 370.855 196.747 370.843H196.553Z" fill="white"/>
<path d="M205.281 368.712C204.707 368.746 204.136 368.603 203.646 368.304C203.249 368.001 202.968 367.572 202.848 367.087C202.689 366.451 202.614 365.797 202.624 365.141V363.079C202.612 362.422 202.691 361.767 202.858 361.133C202.981 360.647 203.27 360.22 203.675 359.926C204.159 359.637 204.718 359.498 205.281 359.527C205.876 359.477 206.47 359.643 206.954 359.994C207.336 360.349 207.586 360.822 207.664 361.337C207.791 362.033 207.849 362.741 207.84 363.448V364.178H204.288V365.988C204.284 366.286 204.316 366.583 204.385 366.873C204.439 367.073 204.555 367.25 204.716 367.379C204.888 367.495 205.093 367.553 205.3 367.545C205.402 367.553 205.504 367.542 205.601 367.51C205.698 367.478 205.788 367.427 205.864 367.36C206.009 367.226 206.105 367.048 206.137 366.854C206.182 366.594 206.205 366.33 206.205 366.066V365.501H207.82V365.842C207.861 366.595 207.66 367.342 207.246 367.973C207.002 368.245 206.696 368.455 206.354 368.584C206.012 368.713 205.644 368.757 205.281 368.712ZM204.308 363.215H206.254V362.407C206.261 362.082 206.238 361.756 206.185 361.434C206.162 361.222 206.073 361.021 205.933 360.86C205.848 360.789 205.751 360.735 205.645 360.702C205.54 360.668 205.429 360.656 205.32 360.666C205.1 360.656 204.884 360.721 204.707 360.85C204.539 361.021 204.436 361.245 204.415 361.483C204.357 361.889 204.331 362.299 204.337 362.709L204.308 363.215Z" fill="white"/>
<path d="M211.859 368.712C211.285 368.746 210.715 368.603 210.224 368.304C209.825 368.004 209.542 367.573 209.427 367.087C209.259 366.453 209.181 365.798 209.193 365.141V363.079C209.179 362.422 209.261 361.766 209.436 361.133C209.555 360.648 209.841 360.221 210.244 359.926C210.732 359.639 211.293 359.501 211.859 359.527C212.455 359.479 213.048 359.644 213.533 359.994C213.914 360.349 214.165 360.822 214.243 361.337C214.365 362.034 214.421 362.741 214.408 363.448V364.178H210.886V365.988C210.877 366.286 210.91 366.584 210.983 366.873C211.03 367.076 211.147 367.255 211.314 367.379C211.486 367.495 211.691 367.553 211.898 367.545C212.103 367.56 212.306 367.494 212.462 367.36C212.598 367.221 212.69 367.045 212.725 366.854C212.779 366.595 212.805 366.33 212.803 366.066V365.501H214.418V365.842C214.459 366.595 214.258 367.342 213.844 367.973C213.598 368.248 213.289 368.459 212.943 368.587C212.597 368.716 212.225 368.759 211.859 368.712V368.712ZM210.886 363.215H212.832V362.407C212.834 362.082 212.811 361.756 212.764 361.434C212.74 361.222 212.652 361.021 212.511 360.86C212.339 360.72 212.12 360.65 211.898 360.666C211.675 360.654 211.455 360.719 211.275 360.85C211.115 361.025 211.017 361.247 210.993 361.483C210.931 361.888 210.905 362.299 210.915 362.709L210.886 363.215Z" fill="white"/>
<path d="M221.939 368.712C221.389 368.741 220.842 368.602 220.373 368.313C219.977 368.031 219.689 367.623 219.555 367.155C219.381 366.585 219.299 365.991 219.312 365.394V362.787C219.299 362.19 219.381 361.596 219.555 361.026C219.689 360.558 219.977 360.15 220.373 359.868C220.853 359.606 221.392 359.469 221.939 359.469C222.486 359.469 223.025 359.606 223.506 359.868C223.895 360.154 224.179 360.561 224.313 361.026C224.488 361.596 224.57 362.19 224.556 362.787V365.394C224.57 365.991 224.488 366.585 224.313 367.155C224.179 367.62 223.895 368.027 223.506 368.313C223.036 368.603 222.49 368.742 221.939 368.712V368.712ZM221.939 367.486C222.067 367.499 222.196 367.48 222.315 367.431C222.434 367.382 222.539 367.304 222.62 367.204C222.76 366.981 222.84 366.727 222.854 366.465C222.854 366.163 222.854 365.842 222.854 365.492V362.67C222.854 362.329 222.854 362.008 222.854 361.697C222.837 361.435 222.757 361.181 222.62 360.957C222.541 360.855 222.437 360.774 222.318 360.723C222.198 360.672 222.068 360.652 221.939 360.666C221.81 360.653 221.68 360.673 221.561 360.724C221.442 360.775 221.338 360.855 221.258 360.957C221.114 361.179 221.03 361.433 221.015 361.697C221.015 361.999 221.015 362.32 221.015 362.67V365.501C221.015 365.832 221.015 366.153 221.015 366.474C221.027 366.738 221.111 366.994 221.258 367.214C221.345 367.304 221.452 367.372 221.57 367.413C221.689 367.454 221.815 367.465 221.939 367.447V367.486Z" fill="white"/>
<path d="M226.609 368.586V360.802H225.539V359.576H226.609V359.109C226.604 358.625 226.649 358.143 226.746 357.669C226.805 357.287 227.002 356.941 227.3 356.696C227.673 356.457 228.113 356.344 228.555 356.375H229.11L229.645 356.462V357.717H229.373H229.061C228.938 357.699 228.812 357.72 228.702 357.777C228.592 357.835 228.503 357.927 228.448 358.038C228.353 358.31 228.31 358.597 228.322 358.885V359.634H229.684V360.86H228.322V368.644L226.609 368.586Z" fill="white"/>
<path d="M236.515 368.712C236.121 368.731 235.731 368.64 235.386 368.45C235.102 368.274 234.884 368.011 234.763 367.7C234.628 367.336 234.562 366.95 234.569 366.562V360.724H233.596V359.624H234.569V356.988H236.233V359.624H237.682V360.724H236.233V366.474C236.21 366.739 236.271 367.005 236.408 367.233C236.492 367.318 236.594 367.382 236.708 367.421C236.821 367.46 236.941 367.472 237.06 367.457H237.351H237.663V368.693L237.089 368.761L236.515 368.712Z" fill="white"/>
<path d="M238.957 368.586V355.937H240.621V360.49C240.912 360.2 241.239 359.948 241.594 359.741C241.974 359.53 242.404 359.422 242.839 359.43C242.988 359.417 243.137 359.436 243.278 359.485C243.418 359.533 243.547 359.611 243.657 359.712C243.855 359.903 243.997 360.146 244.065 360.413C244.144 360.691 244.183 360.979 244.182 361.269V368.547H242.518V361.736C242.531 361.478 242.48 361.221 242.372 360.987C242.312 360.892 242.226 360.818 242.124 360.771C242.022 360.724 241.909 360.708 241.798 360.724C241.582 360.73 241.372 360.79 241.185 360.899C240.97 361.017 240.768 361.157 240.582 361.318V368.537L238.957 368.586Z" fill="white"/>
<path d="M248.327 368.712C247.753 368.746 247.183 368.603 246.692 368.304C246.293 368.004 246.01 367.574 245.895 367.087C245.731 366.452 245.656 365.797 245.671 365.141V363.079C245.659 362.422 245.737 361.767 245.904 361.133C246.027 360.647 246.317 360.22 246.722 359.926C247.205 359.637 247.764 359.498 248.327 359.527C248.923 359.477 249.517 359.643 250.001 359.994C250.382 360.349 250.633 360.822 250.711 361.337C250.837 362.033 250.896 362.741 250.886 363.448V364.178H247.335V365.988C247.325 366.286 247.358 366.584 247.432 366.873C247.479 367.076 247.596 367.255 247.763 367.379C247.935 367.495 248.139 367.553 248.347 367.545C248.448 367.553 248.551 367.542 248.648 367.51C248.745 367.478 248.834 367.427 248.911 367.36C249.055 367.226 249.151 367.048 249.183 366.854C249.229 366.594 249.252 366.33 249.251 366.066V365.501H250.867V365.842C250.908 366.595 250.707 367.342 250.293 367.973C250.048 368.245 249.742 368.454 249.4 368.583C249.058 368.711 248.69 368.756 248.327 368.712V368.712ZM247.354 363.215H249.3V362.407C249.307 362.082 249.285 361.756 249.232 361.434C249.208 361.222 249.12 361.021 248.979 360.86C248.895 360.789 248.797 360.735 248.692 360.702C248.587 360.668 248.476 360.656 248.366 360.666C248.147 360.656 247.931 360.721 247.753 360.85C247.586 361.021 247.483 361.245 247.461 361.483C247.404 361.889 247.378 362.299 247.383 362.709L247.354 363.215Z" fill="white"/>
<path d="M256.062 368.586L256.296 355.937H258.028L260.256 366.173L262.494 355.937H264.207L264.44 368.586H263.029L262.883 359.44L260.752 368.586H259.779L257.658 359.44L257.522 368.586H256.062Z" fill="white"/>
<path d="M268.711 368.712C268.158 368.741 267.609 368.602 267.135 368.313C266.746 368.025 266.459 367.619 266.318 367.156C266.143 366.585 266.061 365.991 266.075 365.394V362.787C266.061 362.19 266.143 361.596 266.318 361.026C266.459 360.562 266.746 360.156 267.135 359.868C267.609 359.579 268.158 359.44 268.711 359.469C269.259 359.44 269.802 359.579 270.268 359.868C270.658 360.156 270.945 360.562 271.086 361.026C271.252 361.597 271.331 362.191 271.319 362.787V365.394C271.331 365.99 271.252 366.584 271.086 367.156C270.945 367.619 270.658 368.025 270.268 368.313C269.802 368.602 269.259 368.741 268.711 368.712V368.712ZM268.711 367.486C268.838 367.499 268.966 367.48 269.083 367.431C269.201 367.382 269.304 367.304 269.383 367.204C269.531 366.986 269.612 366.729 269.616 366.465C269.616 366.163 269.616 365.842 269.616 365.492V362.67C269.616 362.329 269.616 362.008 269.616 361.697C269.609 361.434 269.528 361.178 269.383 360.957C269.306 360.855 269.204 360.774 269.086 360.723C268.968 360.671 268.839 360.652 268.711 360.666C268.581 360.653 268.45 360.673 268.329 360.724C268.209 360.775 268.103 360.855 268.021 360.957C267.877 361.179 267.793 361.434 267.777 361.697C267.777 361.999 267.777 362.32 267.777 362.67V365.501C267.777 365.832 267.777 366.153 267.777 366.474C267.79 366.738 267.874 366.994 268.021 367.214C268.109 367.304 268.218 367.372 268.338 367.413C268.458 367.454 268.586 367.465 268.711 367.447V367.486Z" fill="white"/>
<path d="M272.846 368.586V359.595H274.51V360.481C274.805 360.204 275.131 359.962 275.483 359.761C275.85 359.564 276.262 359.463 276.679 359.469C276.831 359.458 276.982 359.477 277.126 359.525C277.27 359.574 277.402 359.651 277.516 359.751C277.708 359.945 277.846 360.187 277.915 360.451C277.993 360.73 278.033 361.018 278.032 361.308V368.586H276.368V361.775C276.378 361.518 276.332 361.262 276.232 361.026C276.169 360.931 276.081 360.857 275.978 360.81C275.874 360.764 275.76 360.747 275.648 360.763C275.443 360.77 275.243 360.827 275.064 360.928C274.859 361.044 274.663 361.178 274.48 361.327V368.576L272.846 368.586Z" fill="white"/>
<path d="M282.079 368.712C281.68 368.724 281.285 368.622 280.941 368.42C280.657 368.245 280.438 367.982 280.318 367.671C280.182 367.307 280.116 366.921 280.123 366.533V360.695H279.15V359.595H280.123V356.958H281.787V359.595H283.237V360.695H281.787V366.474C281.764 366.739 281.826 367.005 281.962 367.233C282.047 367.317 282.15 367.38 282.263 367.419C282.376 367.458 282.496 367.471 282.614 367.457H282.906H283.218V368.693L282.643 368.761L282.079 368.712Z" fill="white"/>
<path d="M284.522 368.586V355.937H286.186V360.49C286.477 360.2 286.804 359.948 287.159 359.741C287.543 359.529 287.976 359.422 288.414 359.43C288.561 359.418 288.709 359.437 288.848 359.486C288.987 359.535 289.114 359.612 289.222 359.712C289.42 359.903 289.562 360.146 289.631 360.413C289.709 360.691 289.748 360.979 289.747 361.269V368.547H288.084V361.736C288.096 361.478 288.046 361.221 287.938 360.987C287.877 360.892 287.791 360.818 287.689 360.771C287.587 360.724 287.474 360.708 287.364 360.724C287.148 360.73 286.937 360.79 286.751 360.899C286.536 361.017 286.333 361.157 286.147 361.318V368.537L284.522 368.586Z" fill="white"/>
<path d="M205.738 338.685L207.324 343.55H212.432L208.297 346.557L209.883 351.412L205.738 348.415L201.603 351.412L203.189 346.557L199.054 343.55H204.162L205.738 338.685Z" fill="white"/>
<path d="M226.288 338.685L227.864 343.55H232.982L228.837 346.557L230.423 351.412L226.288 348.415L222.153 351.412L223.729 346.557L219.594 343.55H224.702L226.288 338.685Z" fill="white"/>
<path d="M246.828 338.685L248.414 343.55H253.522L249.387 346.557L250.963 351.412L246.828 348.415L242.693 351.412L244.269 346.557L240.134 343.55H245.252L246.828 338.685Z" fill="white"/>
<path d="M299.03 343.58C300.319 343.58 301.365 342.534 301.365 341.244C301.365 339.955 300.319 338.909 299.03 338.909C297.74 338.909 296.694 339.955 296.694 341.244C296.694 342.534 297.74 343.58 299.03 343.58Z" fill="white"/>
<path d="M299.03 377.878C300.319 377.878 301.365 376.832 301.365 375.543C301.365 374.253 300.319 373.208 299.03 373.208C297.74 373.208 296.694 374.253 296.694 375.543C296.694 376.832 297.74 377.878 299.03 377.878Z" fill="white"/>
<path d="M151.523 343.58C152.812 343.58 153.858 342.534 153.858 341.244C153.858 339.955 152.812 338.909 151.523 338.909C150.233 338.909 149.188 339.955 149.188 341.244C149.188 342.534 150.233 343.58 151.523 343.58Z" fill="white"/>
<path d="M151.523 377.878C152.812 377.878 153.858 376.832 153.858 375.543C153.858 374.253 152.812 373.208 151.523 373.208C150.233 373.208 149.188 374.253 149.188 375.543C149.188 376.832 150.233 377.878 151.523 377.878Z" fill="white"/>
<path d="M327.568 52.4191H123.578V315.781H327.568V52.4191Z" fill="white" stroke="#263238" stroke-miterlimit="10"/>
<path d="M194.957 135.183C194.957 135.183 190.306 123.623 189.955 116.112C189.605 108.6 190.13 97.2452 192.748 95.3284C195.365 93.4116 204.978 88.3423 207.596 85.1898C210.213 82.0373 213.706 74.3603 234.49 78.0285C255.273 81.6967 260.692 97.4204 266.462 107.724C272.232 118.029 265.587 119.4 264.711 120.831C263.835 122.261 261.568 125.365 261.568 127.817C261.585 129.404 261.762 130.984 262.094 132.536C262.094 132.536 260.508 138.792 257.589 136.204C254.67 133.616 249.552 117.163 249.552 117.163C249.552 117.163 226.2 118.204 216.022 110.692L205.883 103.19C205.883 103.19 199.247 121.356 199.247 125.569C199.247 129.782 199.598 136.399 197.301 136.574C195.005 136.749 194.957 135.183 194.957 135.183Z" fill="#6E6E6E" stroke="#263238" stroke-miterlimit="10"/>
<path d="M243.062 108.814C247.026 110.667 251.337 111.662 255.712 111.733" stroke="#263238" stroke-miterlimit="10"/>
<path d="M220.197 92.3024C220.197 92.3024 229.188 101.75 240.299 107.481" stroke="#263238" stroke-miterlimit="10"/>
<path d="M263.203 110.099C264.731 111.782 265.626 113.018 265.626 113.494" stroke="#263238" stroke-miterlimit="10"/>
<path d="M222.444 82.6307C222.872 82.6307 223.33 82.5724 223.826 82.5626C232.32 82.4167 253.016 99.6291 261.724 108.532" stroke="#263238" stroke-miterlimit="10"/>
<path d="M217.337 88.8677C217.337 88.8677 214.262 84.5962 219.604 83.0881" stroke="#263238" stroke-miterlimit="10"/>
<path d="M192.632 107.656C192.023 108.517 191.654 109.525 191.562 110.575C191.562 116.112 193.508 126.046 194.043 126.231" stroke="#263238" stroke-miterlimit="10"/>
<path d="M202.752 97.5566C199.436 100.112 196.397 103.008 193.684 106.197" stroke="#263238" stroke-miterlimit="10"/>
<path d="M208.17 93.4505C208.17 93.4505 206.905 94.336 205.066 95.7371" stroke="#263238" stroke-miterlimit="10"/>
<path d="M201.155 105.856C201.155 105.856 195.998 110.624 196.193 112.346C196.372 113.549 196.761 114.712 197.341 115.781" stroke="#263238" stroke-miterlimit="10"/>
<path d="M311.105 217.537C306.463 211.349 254.204 179.931 254.204 179.931L226.142 177.557V177.45L225.5 177.508L224.858 177.45V177.557L196.797 179.931C196.797 179.931 144.527 211.349 139.857 217.537C135.186 223.725 123.374 315.81 123.374 315.81H327.568C327.568 315.81 315.726 223.725 311.105 217.537Z" fill="#C68B59" stroke="#263238" stroke-miterlimit="10"/>
<path d="M267.154 261.03L264.751 292.984L273.158 280.412L280.416 293.061L276.31 259.551L267.154 261.03Z" fill="#263238" stroke="#263238" stroke-miterlimit="10"/>
<path d="M284.532 248.946L285.223 244.042L280.835 241.736L278.509 237.367L273.595 238.077L269.139 235.907L265.597 239.371L260.713 240.237L259.886 245.122L256.432 248.693L258.64 253.13L257.95 258.043L262.338 260.349L264.663 264.718L269.577 264.008L274.033 266.178L277.575 262.714L282.459 261.848L283.296 256.963L286.741 253.392L284.532 248.946Z" fill="white" stroke="#263238" stroke-miterlimit="10"/>
<path d="M280.173 257.136C283.523 252.397 282.397 245.84 277.659 242.489C272.92 239.139 266.362 240.264 263.012 245.003C259.661 249.742 260.787 256.3 265.526 259.65C270.265 263.001 276.822 261.875 280.173 257.136Z" fill="white" stroke="#263238" stroke-miterlimit="10"/>
<path d="M147.845 272.006C149.791 259.581 152.408 246.98 155.707 238.379" stroke="#263238" stroke-miterlimit="10"/>
<path d="M143.019 313.349C143.019 313.349 144.264 296.496 146.979 277.737" stroke="#263238" stroke-miterlimit="10"/>
<path d="M296.606 247.408C298.368 263.706 301.793 298.656 300.635 313.728" stroke="#263238" stroke-miterlimit="10"/>
<path d="M295.644 238.768C295.644 238.768 295.848 240.549 296.188 243.584" stroke="#263238" stroke-miterlimit="10"/>
<path d="M208.541 199.975L219.673 219.269L203.842 315.781H234.773L225.861 219.765L241.205 196.997L222.893 186.109L208.541 199.975Z" fill="#636363" stroke="#263238" stroke-miterlimit="10"/>
<path d="M208.541 199.975L216.189 213.227L237.05 203.166L241.205 196.997L227.077 188.6L213.571 195.119L208.541 199.975Z" fill="#263238" stroke="#263238" stroke-miterlimit="10"/>
<path d="M232 285.881L206.751 298.063L203.842 315.781H210.186L233.723 304.426L232 285.881Z" fill="#263238" stroke="#263238" stroke-miterlimit="10"/>
<path d="M230.765 272.638L229.052 254.083L212.667 261.984L209.213 283.03L230.765 272.638Z" fill="#263238" stroke="#263238" stroke-miterlimit="10"/>
<path d="M227.816 240.841L226.094 222.285L218.582 225.915L215.138 246.961L227.816 240.841Z" fill="#263238" stroke="#263238" stroke-miterlimit="10"/>
<path d="M197.156 171.758C197.156 171.758 192.204 177.45 191.961 183.881C191.717 190.313 195.425 210.862 196.66 213.334C197.896 215.805 199.141 211.106 203.092 206.406C207.042 201.707 219.185 193.28 219.185 193.28H230.569C230.569 193.28 239.472 199.216 241.457 203.925C243.442 208.634 244.172 216.049 246.4 215.299C248.628 214.55 258.076 191.792 258.777 185.613C259.477 179.435 253.084 171.748 253.084 171.748C253.084 171.748 234.276 181.896 223.389 181.157C212.501 180.417 197.156 171.758 197.156 171.758Z" fill="#C68B59" stroke="#263238" stroke-miterlimit="10"/>
<path d="M195.804 132.954C195.804 132.954 192.69 125.307 188.73 129.276C184.77 133.246 187.601 140.028 189.294 144.844C190.4 147.871 191.926 150.727 193.828 153.329L195.804 132.954Z" fill="white" stroke="#263238" stroke-miterlimit="10"/>
<path d="M258.252 132.701C258.252 132.701 260.198 125.54 264.538 130.755C268.877 135.971 264.012 145.603 262.27 148.571L260.003 152.414L258.252 132.701Z" fill="white" stroke="#263238" stroke-miterlimit="10"/>
<path d="M216.46 95.2895C216.46 95.2895 219.856 114.808 254.651 114.526C254.651 114.526 258.621 136.029 260.031 143.103C261.442 150.176 262.298 159.799 257.764 169.14C253.23 178.481 245.913 183.852 238.528 189.787C231.143 195.723 222.114 196.598 215.614 192.337C209.114 188.075 195.804 174.823 193.235 165.18C190.666 155.538 194.373 142.256 194.938 135.183C195.502 128.109 196.932 99.814 216.46 95.2895Z" fill="white" stroke="#263238" stroke-miterlimit="10"/>
<path d="M214.583 133.227C215.454 133.227 216.159 132.016 216.159 130.522C216.159 129.028 215.454 127.817 214.583 127.817C213.713 127.817 213.007 129.028 213.007 130.522C213.007 132.016 213.713 133.227 214.583 133.227Z" fill="#263238"/>
<path d="M240.961 130.522C240.961 132.02 240.251 133.227 239.385 133.227C238.519 133.227 237.818 132.02 237.818 130.522C237.818 129.023 238.519 127.817 239.385 127.817C240.251 127.817 240.961 129.062 240.961 130.522Z" fill="#263238"/>
<path d="M218.251 164.324C218.251 164.324 221.043 168.517 230.306 165.024" stroke="#263238" stroke-miterlimit="10"/>
<path d="M205.495 175.679C205.495 175.679 215.984 185.808 219.818 186.508C223.651 187.209 231.698 187.034 234.15 185.633C236.602 184.231 242.703 176.554 242.703 176.554" stroke="#263238" stroke-miterlimit="10"/>
<path d="M203.403 123.273C203.403 123.273 206.721 118.904 212.16 119.079C217.6 119.255 220.713 120.305 220.013 121.025C219.312 121.745 217.395 122.242 212.16 122.971C206.926 123.701 203.228 124.674 203.403 123.273Z" fill="#6E6E6E" stroke="#263238" stroke-miterlimit="10"/>
<path d="M250.312 123.273C250.312 123.273 246.984 118.904 241.555 119.079C236.125 119.255 232.992 120.305 233.693 121.025C234.393 121.745 236.31 122.242 241.555 122.971C246.799 123.701 250.477 124.674 250.312 123.273Z" fill="#6E6E6E" stroke="#263238" stroke-miterlimit="10"/>
<path d="M205.495 155.411C206.137 157.55 206.897 159.652 207.772 161.707" stroke="#263238" stroke-miterlimit="10"/>
<path d="M245.155 155.937C245.155 155.937 242.878 162.572 241.486 164.499" stroke="#263238" stroke-miterlimit="10"/>
<path d="M220.168 150.176C220.168 150.176 214.583 152.794 211.615 152.794C208.647 152.794 205.145 149.126 204.804 153.319C204.464 157.513 214.758 161.181 220.868 161.882C226.979 162.582 235.891 161.531 238.859 160.481C242.032 159.329 244.652 157.021 246.196 154.02C247.422 151.218 247.246 150.702 245.33 151.042C243.413 151.383 242.352 152.268 240.26 152.093C237.496 151.724 234.754 151.201 232.048 150.527L220.168 150.176Z" fill="#6E6E6E" stroke="#263238" stroke-miterlimit="10"/>
<path d="M219.818 141.089C219.818 141.089 216.85 145.808 217.376 147.209C217.901 148.61 221.92 152.969 226.289 152.619C230.657 152.268 235.542 148.6 235.717 146.683C235.892 144.767 232.049 140.738 232.049 140.738" fill="white"/>
<path d="M219.818 141.089C219.818 141.089 216.85 145.808 217.376 147.209C217.901 148.61 221.92 152.969 226.289 152.619C230.657 152.268 235.542 148.6 235.717 146.683C235.892 144.767 232.049 140.738 232.049 140.738" stroke="#263238" stroke-miterlimit="10"/>
<path d="M205.486 124.149H221.414C222.188 124.149 222.93 124.456 223.478 125.004C224.025 125.551 224.333 126.293 224.333 127.068V130.279C224.333 132.859 223.307 135.334 221.483 137.159C219.658 138.983 217.183 140.009 214.603 140.009H212.219C209.638 140.009 207.163 138.983 205.339 137.159C203.514 135.334 202.489 132.859 202.489 130.279V127.116C202.482 126.722 202.555 126.331 202.704 125.966C202.852 125.601 203.073 125.27 203.353 124.992C203.633 124.715 203.967 124.497 204.333 124.352C204.7 124.207 205.092 124.138 205.486 124.149V124.149Z" stroke="#263238" stroke-miterlimit="10"/>
<path d="M232.039 124.149H247.958C248.732 124.149 249.474 124.456 250.022 125.004C250.569 125.551 250.877 126.294 250.877 127.068V130.279C250.877 132.859 249.851 135.334 248.027 137.159C246.202 138.983 243.727 140.009 241.147 140.009H238.763C236.182 140.009 233.707 138.983 231.882 137.159C230.058 135.334 229.033 132.859 229.033 130.279V127.116C229.026 126.721 229.099 126.329 229.249 125.964C229.398 125.598 229.62 125.266 229.901 124.989C230.182 124.711 230.516 124.494 230.884 124.35C231.251 124.205 231.644 124.137 232.039 124.149V124.149Z" stroke="#263238" stroke-miterlimit="10"/>
<path d="M224.187 128.167C224.187 128.167 227.154 125.365 228.906 128.167" stroke="#263238" stroke-miterlimit="10"/>
<path d="M251.09 129.559H258.251" stroke="#263238" stroke-miterlimit="10"/>
<path d="M195.541 129.559H202.702" stroke="#263238" stroke-miterlimit="10"/>
<path d="M220.343 133.227C220.343 133.227 220.343 136.895 215.108 138.471" stroke="#263238" stroke-miterlimit="10"/>
<path d="M232.399 132.701C232.399 132.701 232.048 136.545 237.118 137.771" stroke="#263238" stroke-miterlimit="10"/>
<path d="M315.58 71.2467L278.859 113.728" stroke="#263238" stroke-miterlimit="10"/>
<path d="M324.678 60.7188L319.842 66.3038" stroke="#263238" stroke-miterlimit="10"/>
<path d="M285.447 153.777L278.208 162.164" stroke="#263238" stroke-miterlimit="10"/>
<path d="M298.572 138.598L288.19 150.614" stroke="#263238" stroke-miterlimit="10"/>
<path d="M176.179 287.175L155.814 310.731" stroke="#263238" stroke-miterlimit="10"/>
<path d="M61.5404 205.929L58.4365 215.251C58.4365 215.251 74.0045 220.69 80.9615 210.59L80.1831 202.047C80.1831 202.047 67.7579 214.501 61.5404 205.929Z" fill="#BDBDBD"/>
<path d="M287.578 433.543L284.474 442.865C284.474 442.865 300.042 448.304 306.999 438.204L306.22 429.661C306.22 429.661 293.795 442.086 287.578 433.543Z" fill="#BDBDBD"/>
<path d="M369.485 240.335L367.539 246.124C367.539 246.124 377.181 249.5 381.521 243.205L381.035 237.892C381.035 237.892 373.377 245.637 369.485 240.335Z" fill="#BDBDBD"/>
<path d="M386.231 70.0207L383.107 79.342C383.107 79.342 398.675 84.7811 405.632 74.6814L404.854 66.1384C404.854 66.1384 392.448 78.5636 386.231 70.0207Z" fill="#BDBDBD"/>
<path d="M78.4794 67.4033L71.2208 60.7966C71.2208 60.7966 59.9534 72.7937 66.3558 83.2729L74.4901 86.0265C74.4901 86.0265 68.1558 69.6315 78.4794 67.4033Z" fill="#BDBDBD"/>
<path d="M407.831 329.958L400.563 323.341C400.563 323.341 389.305 335.348 395.698 345.827L403.832 348.571C403.832 348.571 397.507 332.176 407.831 329.958Z" fill="#BDBDBD"/>
<path d="M282.382 66.1968L277.04 61.3318C277.04 61.3318 268.77 70.1569 273.469 77.8728L279.443 79.8966C279.443 79.8966 274.792 67.8314 282.382 66.1968Z" fill="#BDBDBD"/>
<path d="M189.947 253.402L184.605 248.537C184.605 248.537 176.335 257.362 181.035 265.078L187.009 267.092C187.009 267.092 182.358 255.037 189.947 253.402Z" fill="#BDBDBD"/>
<path d="M43.1406 283.691L37.7988 278.826C37.7988 278.826 29.5186 287.652 34.2279 295.367L40.2021 297.391C40.2021 297.391 35.5512 285.326 43.1406 283.691Z" fill="#BDBDBD"/>
<path d="M80.8153 378.15L73.5469 371.534C73.5469 371.534 62.2893 383.541 68.6819 394.02L76.8065 396.774C76.8065 396.774 70.482 380.34 80.8153 378.15Z" fill="#BDBDBD"/>
<path d="M39.3856 123.808L32.127 117.192C32.127 117.192 20.8597 129.199 27.262 139.678L35.3963 142.422C35.3963 142.422 29.0621 126.027 39.3856 123.808Z" fill="#C68B59"/>
<path d="M389.714 160.315L382.445 153.699C382.445 153.699 371.178 165.705 377.58 176.185L385.705 178.929C385.705 178.929 379.38 162.533 389.714 160.315Z" fill="#C68B59"/>
<path d="M427.398 301.673L433.236 293.791C433.236 293.791 420.179 283.779 410.381 291.184L408.435 299.542C408.435 299.542 424.158 291.621 427.398 301.673Z" fill="#C68B59"/>
<path d="M154.141 424.066L146.464 430.186C146.464 430.186 156.534 443.205 167.87 438.544L171.869 430.955C171.869 430.955 154.705 434.584 154.141 424.066Z" fill="#C68B59"/>
<path d="M128.512 160.043L123.705 163.876C123.705 163.876 130.01 172.03 137.123 169.111L139.633 164.363C139.633 164.363 128.862 166.649 128.512 160.043Z" fill="#C68B59"/>
<path d="M196.924 8.18653L190.804 7.50543C190.804 7.50543 189.51 17.7317 196.642 20.6896L201.74 19.1133C201.74 19.1133 192.497 13.1099 196.924 8.18653Z" fill="#C68B59"/>
<path d="M405.087 416.769L398.977 416.088C398.977 416.088 397.682 426.314 404.815 429.272L409.942 427.676C409.942 427.676 400.67 421.692 405.087 416.769Z" fill="#C68B59"/>
<path d="M19.4387 418.754L13.3671 418.043C13.3671 418.043 12.073 428.27 19.2051 431.228L24.3328 429.632C24.3328 429.632 15.0115 423.677 19.4387 418.754Z" fill="#C68B59"/>
<path d="M74.7444 150.799L63.876 156.238L72.4189 164.003L74.7444 150.799Z" fill="#BDBDBD"/>
<path d="M77.7207 438.418L86.0885 447.243L91.0313 436.813L77.7207 438.418Z" fill="#BDBDBD"/>
<path d="M384.08 16.9241L392.448 25.7395L397.391 15.3089L384.08 16.9241Z" fill="#BDBDBD"/>
<path d="M389.081 388.075L388.838 375.922L378.154 380.31L389.081 388.075Z" fill="#C68B59"/>
<path d="M74.0235 304.601L73.7705 292.449L63.0967 296.837L74.0235 304.601Z" fill="#C68B59"/>
<path d="M156.359 83.2243L156.116 71.0618L145.433 75.4598L156.359 83.2243Z" fill="#C68B59"/>
<path d="M62.6499 13.0126L51.5869 18.0625L59.8574 26.1287L62.6499 13.0126Z" fill="#C68B59"/>
<path d="M418.077 123.614L417.824 111.461L407.15 115.849L418.077 123.614Z" fill="#C68B59"/>
</svg>
