<svg width="500" height="369" viewBox="0 0 500 369" fill="none" xmlns="http://www.w3.org/2000/svg">
    <path d="M449.899 343.49H416.779V343.74H449.899V343.49Z" fill="#EBEBEB"/>
    <path d="M331.22 346.21H322.53V346.46H331.22V346.21Z" fill="#EBEBEB"/>
    <path d="M415.78 334.21H396.59V334.46H415.78V334.21Z" fill="#EBEBEB"/>
    <path d="M95.65 335.89H52.46V336.14H95.65V335.89Z" fill="#EBEBEB"/>
    <path d="M110.889 335.89H104.559V336.14H110.889V335.89Z" fill="#EBEBEB"/>
    <path d="M225.149 340.11H131.469V340.36H225.149V340.11Z" fill="#EBEBEB"/>
    <path d="M238.4 282.8H45.2998C43.7855 282.8 42.3331 282.198 41.2623 281.128C40.1914 280.057 39.5898 278.604 39.5898 277.09V5.66C39.603 4.15429 40.2104 2.71475 41.2798 1.65471C42.3492 0.594662 43.7941 -5.77259e-05 45.2998 4.20255e-09H238.4C239.15 4.20255e-09 239.892 0.147692 240.585 0.434647C241.278 0.721601 241.907 1.1422 242.437 1.67242C242.968 2.20264 243.388 2.83211 243.675 3.52488C243.962 4.21765 244.11 4.96015 244.11 5.71V277.09C244.11 277.84 243.962 278.582 243.675 279.275C243.388 279.968 242.968 280.597 242.437 281.128C241.907 281.658 241.278 282.078 240.585 282.365C239.892 282.652 239.15 282.8 238.4 282.8V282.8ZM45.2998 0.200001C43.8526 0.202644 42.4653 0.77874 41.442 1.80212C40.4186 2.82549 39.8425 4.21273 39.8398 5.66V277.09C39.8425 278.537 40.4186 279.924 41.442 280.948C42.4653 281.971 43.8526 282.547 45.2998 282.55H238.4C239.847 282.547 241.234 281.971 242.258 280.948C243.281 279.924 243.857 278.537 243.86 277.09V5.66C243.857 4.21273 243.281 2.82549 242.258 1.80212C241.234 0.77874 239.847 0.202644 238.4 0.200001H45.2998Z" fill="#EBEBEB"/>
    <path d="M454.7 282.8H261.6C260.085 282.8 258.633 282.198 257.562 281.128C256.491 280.057 255.89 278.604 255.89 277.09V5.66C255.903 4.15429 256.51 2.71475 257.58 1.65471C258.649 0.594662 260.094 -5.77259e-05 261.6 4.20255e-09H454.7C456.214 4.20256e-09 457.666 0.601588 458.737 1.67242C459.808 2.74325 460.41 4.19561 460.41 5.71V277.09C460.41 278.604 459.808 280.057 458.737 281.128C457.666 282.198 456.214 282.8 454.7 282.8V282.8ZM261.6 0.200001C260.152 0.202644 258.765 0.77874 257.742 1.80212C256.718 2.82549 256.142 4.21273 256.14 5.66V277.09C256.142 278.537 256.718 279.924 257.742 280.948C258.765 281.971 260.152 282.547 261.6 282.55H454.7C456.147 282.547 457.534 281.971 458.558 280.948C459.581 279.924 460.157 278.537 460.16 277.09V5.66C460.157 4.21273 459.581 2.82549 458.558 1.80212C457.534 0.77874 456.147 0.202644 454.7 0.200001H261.6Z" fill="#EBEBEB"/>
    <path d="M500 327.4H0V327.65H500V327.4Z" fill="#EBEBEB"/>
    <path d="M396.3 275.54H421.55C422.629 275.541 423.697 275.33 424.695 274.918C425.692 274.506 426.598 273.901 427.362 273.139C428.125 272.376 428.731 271.471 429.144 270.474C429.557 269.477 429.77 268.409 429.77 267.33V230.42C429.77 230.022 429.612 229.641 429.33 229.359C429.049 229.078 428.668 228.92 428.27 228.92V228.92C427.872 228.92 427.49 229.078 427.209 229.359C426.928 229.641 426.77 230.022 426.77 230.42V267.33C426.767 268.713 426.216 270.038 425.237 271.015C424.259 271.991 422.933 272.54 421.55 272.54H396.3V275.54Z" fill="#E0E0E0"/>
    <path d="M389.079 310.93V276.55L387.079 275.91C385.972 275.563 385.004 274.871 384.317 273.936C383.63 273.001 383.259 271.871 383.259 270.71H402.299C402.299 271.871 401.928 273.001 401.241 273.936C400.554 274.871 399.586 275.563 398.479 275.91L396.479 276.55V310.93L412.299 318V321L392.769 314.18L373.249 321V318L389.079 310.93Z" fill="#E0E0E0"/>
    <path d="M367.869 272.54H417.679C419.112 272.54 420.487 271.971 421.501 270.959C422.515 269.947 423.086 268.573 423.089 267.14V267.14C423.089 265.705 422.519 264.329 421.504 263.315C420.49 262.3 419.114 261.73 417.679 261.73H367.869C366.434 261.73 365.058 262.3 364.044 263.315C363.029 264.329 362.459 265.705 362.459 267.14V267.14C362.462 268.573 363.033 269.947 364.047 270.959C365.061 271.971 366.436 272.54 367.869 272.54V272.54Z" fill="#F0F0F0"/>
    <path d="M426.469 243.41L429.159 205C429.258 203.572 428.788 202.164 427.85 201.083C426.913 200.001 425.586 199.335 424.159 199.23V199.23C422.733 199.131 421.325 199.602 420.245 200.539C419.165 201.476 418.501 202.804 418.399 204.23L415.709 242.67C415.607 244.098 416.077 245.508 417.014 246.59C417.952 247.672 419.281 248.338 420.709 248.44V248.44C422.14 248.536 423.55 248.06 424.63 247.117C425.71 246.174 426.371 244.841 426.469 243.41V243.41Z" fill="#EBEBEB"/>
    <path d="M408.891 323.15C408.891 323.827 409.091 324.488 409.468 325.051C409.844 325.614 410.379 326.052 411.004 326.311C411.63 326.569 412.318 326.636 412.982 326.504C413.645 326.371 414.255 326.044 414.732 325.565C415.21 325.085 415.535 324.475 415.666 323.811C415.797 323.147 415.728 322.459 415.467 321.834C415.207 321.21 414.767 320.676 414.203 320.302C413.64 319.927 412.977 319.728 412.301 319.73C411.395 319.733 410.528 320.094 409.889 320.735C409.25 321.376 408.891 322.245 408.891 323.15V323.15Z" fill="#E0E0E0"/>
    <path d="M369.829 323.15C369.829 323.826 370.03 324.488 370.405 325.05C370.781 325.612 371.315 326.051 371.94 326.31C372.565 326.569 373.253 326.636 373.916 326.504C374.58 326.372 375.189 326.047 375.667 325.568C376.146 325.09 376.471 324.481 376.603 323.817C376.735 323.154 376.668 322.466 376.409 321.841C376.15 321.216 375.712 320.682 375.149 320.306C374.587 319.931 373.926 319.73 373.249 319.73C372.342 319.73 371.472 320.09 370.831 320.732C370.189 321.373 369.829 322.243 369.829 323.15V323.15Z" fill="#E0E0E0"/>
    <path d="M100.261 275.54H75.0013C73.9223 275.541 72.8536 275.33 71.8563 274.918C70.8591 274.506 69.9529 273.901 69.1894 273.139C68.426 272.376 67.8204 271.471 67.4072 270.474C66.9939 269.477 66.7812 268.409 66.7813 267.33V230.42C66.7813 230.022 66.9393 229.641 67.2206 229.359C67.5019 229.078 67.8834 228.92 68.2812 228.92C68.6791 228.92 69.0606 229.078 69.3419 229.359C69.6232 229.641 69.7812 230.022 69.7812 230.42V267.33C69.7839 268.713 70.335 270.038 71.3137 271.015C72.2923 271.991 73.6186 272.54 75.0013 272.54H100.251L100.261 275.54Z" fill="#E0E0E0"/>
    <path d="M107.48 310.93V276.55L109.48 275.91C110.587 275.563 111.555 274.871 112.242 273.936C112.929 273.001 113.3 271.871 113.3 270.71H94.2998C94.2999 271.871 94.6705 273.001 95.3575 273.936C96.0446 274.871 97.0123 275.563 98.1198 275.91L100.12 276.55V310.93L84.2598 318V321L103.79 314.18L123.32 321V318L107.48 310.93Z" fill="#E0E0E0"/>
    <path d="M128.69 272.54H78.8797C77.4466 272.54 76.0721 271.971 75.0578 270.959C74.0435 269.947 73.4724 268.573 73.4697 267.14V267.14C73.4697 265.705 74.0397 264.329 75.0543 263.315C76.0688 262.3 77.4449 261.73 78.8797 261.73H128.69C130.125 261.73 131.501 262.3 132.515 263.315C133.53 264.329 134.1 265.705 134.1 267.14V267.14C134.097 268.573 133.526 269.947 132.512 270.959C131.497 271.971 130.123 272.54 128.69 272.54V272.54Z" fill="#F0F0F0"/>
    <path d="M70.0907 243.41L67.4007 205C67.3016 203.572 67.7721 202.164 68.7092 201.083C69.6463 200.001 70.9736 199.335 72.4007 199.23V199.23C73.8271 199.131 75.2346 199.602 76.3144 200.539C77.3942 201.476 78.0582 202.804 78.1607 204.23L80.8507 242.67C80.9525 244.098 80.4829 245.508 79.5453 246.59C78.6077 247.672 77.2788 248.338 75.8507 248.44V248.44C74.42 248.536 73.0097 248.06 71.9297 247.117C70.8496 246.174 70.1882 244.841 70.0907 243.41V243.41Z" fill="#EBEBEB"/>
    <path d="M87.6691 323.15C87.6691 323.827 87.4683 324.488 87.092 325.051C86.7158 325.614 86.1811 326.052 85.5556 326.311C84.9301 326.569 84.2419 326.636 83.5782 326.504C82.9145 326.371 82.3052 326.044 81.8273 325.565C81.3494 325.085 81.0244 324.475 80.8936 323.811C80.7628 323.147 80.8319 322.459 81.0923 321.834C81.3527 321.21 81.7926 320.676 82.3563 320.302C82.9201 319.927 83.5823 319.728 84.2591 319.73C85.1644 319.733 86.0317 320.094 86.6709 320.735C87.3102 321.376 87.6691 322.245 87.6691 323.15V323.15Z" fill="#E0E0E0"/>
    <path d="M126.731 323.15C126.731 323.827 126.53 324.488 126.154 325.051C125.777 325.614 125.243 326.052 124.617 326.311C123.992 326.569 123.303 326.636 122.64 326.504C121.976 326.371 121.367 326.044 120.889 325.565C120.411 325.085 120.086 324.475 119.955 323.811C119.824 323.147 119.893 322.459 120.154 321.834C120.414 321.21 120.854 320.676 121.418 320.302C121.982 319.927 122.644 319.728 123.321 319.73C124.226 319.733 125.093 320.094 125.732 320.735C126.372 321.376 126.731 322.245 126.731 323.15V323.15Z" fill="#E0E0E0"/>
    <path d="M207.57 327.69H188.06L186.06 290.71H209.57L207.57 327.69Z" fill="#EBEBEB"/>
    <path d="M192.561 327.69H184.561V326.05L192.561 325.05V327.69Z" fill="#E0E0E0"/>
    <path d="M189 287.71H206.56C207.355 287.71 208.118 288.026 208.681 288.589C209.244 289.151 209.56 289.914 209.56 290.71V290.71H186.06C186.06 289.914 186.376 289.151 186.938 288.589C187.501 288.026 188.264 287.71 189.06 287.71H189Z" fill="#E0E0E0"/>
    <path d="M167.56 231.79H136.35V228.05L167.56 226.05V231.79Z" fill="#E0E0E0"/>
    <path d="M213.729 235.6H121.399V248.38H213.729V235.6Z" fill="#F0F0F0"/>
    <path d="M232.87 231.79H102.59V239.41H232.87V231.79Z" fill="#FAFAFA"/>
    <path d="M220.77 327.69H226.65L216.47 239.41H209.57L220.77 327.69Z" fill="#E6E6E6"/>
    <path d="M125.891 239.41H118.991L108.801 327.69H114.691L125.891 239.41Z" fill="#E6E6E6"/>
    <path d="M199.179 229.89C196.513 216.643 193.846 203.397 191.179 190.15C190.789 188.25 187.899 189.06 188.279 190.94L195.899 228.79H179.399C179.002 228.79 178.62 228.948 178.339 229.229C178.057 229.511 177.899 229.892 177.899 230.29C177.899 230.688 178.057 231.069 178.339 231.351C178.62 231.632 179.002 231.79 179.399 231.79H197.729C197.959 231.785 198.184 231.728 198.389 231.624C198.593 231.52 198.772 231.371 198.911 231.189C199.05 231.006 199.147 230.795 199.193 230.57C199.24 230.345 199.235 230.113 199.179 229.89V229.89Z" fill="#E0E0E0"/>
    <path d="M180.501 219.23L185.641 145.74C187.538 147.098 189.055 148.92 190.048 151.031C191.04 153.142 191.475 155.473 191.311 157.8L187.801 208.08C187.637 210.407 186.88 212.653 185.602 214.605C184.324 216.557 182.568 218.149 180.501 219.23V219.23Z" fill="#FAFAFA"/>
    <path d="M220.55 210.43H212.19C210.588 210.43 209.29 211.728 209.29 213.33V228.89C209.29 230.492 210.588 231.79 212.19 231.79H220.55C222.152 231.79 223.45 230.492 223.45 228.89V213.33C223.45 211.728 222.152 210.43 220.55 210.43Z" fill="#F5F5F5"/>
    <path d="M214.89 202.47C212.68 202.47 210.89 203.02 210.89 203.7C210.89 204.38 212.69 203.46 214.89 203.46C215.18 203.46 215.46 203.46 215.74 203.46V208.31H217V203.65C218.14 203.87 218.89 204.09 218.89 203.65C218.89 203 217.1 202.47 214.89 202.47Z" fill="#E0E0E0"/>
    <path d="M218.62 206.77H214.11V211.28H218.62V206.77Z" fill="#F0F0F0"/>
    <path d="M282.83 248.38H375.16V235.6H282.83V248.38Z" fill="#F0F0F0"/>
    <path d="M263.699 239.41L393.979 239.41V231.79L263.699 231.79V239.41Z" fill="#FAFAFA"/>
    <path d="M275.789 327.69H269.909L280.089 239.41H286.989L275.789 327.69Z" fill="#E6E6E6"/>
    <path d="M370.679 239.41H377.569L387.759 327.69H381.869L370.679 239.41Z" fill="#E6E6E6"/>
    <path d="M348.521 231.79H379.731V228.05L348.521 226.05V231.79Z" fill="#E0E0E0"/>
    <path d="M285.73 164.71V231.79H290.06L291.06 225.79C291.244 224.737 291.793 223.783 292.611 223.096C293.428 222.408 294.462 222.031 295.53 222.03H335.9C336.969 222.031 338.003 222.408 338.82 223.096C339.638 223.783 340.187 224.737 340.37 225.79L341.37 231.79H345.7V164.71H285.73Z" fill="#F5F5F5"/>
    <path d="M305.13 229.89C307.797 216.643 310.464 203.397 313.13 190.15C313.52 188.25 316.41 189.06 316.03 190.94L308.41 228.79H324.91C325.308 228.79 325.69 228.948 325.971 229.229C326.252 229.511 326.41 229.892 326.41 230.29C326.41 230.688 326.252 231.069 325.971 231.351C325.69 231.632 325.308 231.79 324.91 231.79H306.58C306.351 231.785 306.126 231.728 305.921 231.624C305.716 231.52 305.538 231.371 305.399 231.189C305.259 231.006 305.163 230.795 305.117 230.57C305.07 230.345 305.075 230.113 305.13 229.89V229.89Z" fill="#E0E0E0"/>
    <path d="M323.81 219.23L318.67 145.74C316.773 147.098 315.256 148.92 314.263 151.031C313.27 153.142 312.835 155.473 313 157.8L316.51 208.08C316.672 210.407 317.428 212.654 318.706 214.606C319.984 216.558 321.741 218.15 323.81 219.23V219.23Z" fill="#E0E0E0"/>
    <path d="M217.66 92.94H53.8301V192.77H217.66V92.94Z" fill="#EBEBEB"/>
    <path d="M218.88 92.9H217.68V192.73H218.88V92.9Z" fill="#E0E0E0"/>
    <path d="M59.781 97.27H58.791V187.1H59.781V97.27Z" fill="#E0E0E0"/>
    <path d="M212.32 97.27H58.6904V187.1H212.32V97.27Z" fill="white"/>
    <path d="M113.11 136.84V141.12H123.09V136.84H113.11Z" fill="#F5F5F5"/>
    <path d="M115.061 169.05V172.38H125.041V169.05H115.061Z" fill="#F5F5F5"/>
    <path d="M116.68 135.44H84.2598V181H116.68V135.44Z" fill="#F0F0F0"/>
    <path d="M112.819 176.41V179.74H122.799V176.41H112.819Z" fill="#F5F5F5"/>
    <path d="M114.479 145.95V149.28H124.459V145.95H114.479Z" fill="#F5F5F5"/>
    <path d="M112.289 154.22V157.55H122.269V154.22H112.289Z" fill="#F5F5F5"/>
    <path d="M110.18 141.04H88.0801V144.96H110.18V141.04Z" fill="#E6E6E6"/>
    <path d="M110.53 157.79H88.4301L88.0801 156.01H110.17L110.53 157.79Z" fill="#E6E6E6"/>
    <path d="M95.9201 148.88H88.0801V152.8H95.9201V148.88Z" fill="#E6E6E6"/>
    <path d="M162.69 127.21H150.03V145.39H162.69V127.21Z" fill="#F5F5F5"/>
    <path d="M78.7508 156.02H66.0908V174.2H78.7508V156.02Z" fill="#F5F5F5"/>
    <path d="M80.4696 103.78H67.8096V116.44H80.4696V103.78Z" fill="#F5F5F5"/>
    <path d="M140.49 161.82H127.83V174.48H140.49V161.82Z" fill="#F5F5F5"/>
    <path d="M202.671 128.78H170.251V174.34H202.671V128.78Z" fill="#F5F5F5"/>
    <path d="M197.98 135.37H174.69V135.87H197.98V135.37Z" fill="#E0E0E0"/>
    <path d="M186.581 135.86H186.081V169.6H186.581V135.86Z" fill="#E0E0E0"/>
    <path d="M197.28 135.86H196.78V169.6H197.28V135.86Z" fill="#E0E0E0"/>
    <path d="M177.08 135.86H176.58V169.6H177.08V135.86Z" fill="#E0E0E0"/>
    <path d="M175.41 135.86H174.91V169.6H175.41V135.86Z" fill="#E0E0E0"/>
    <path d="M196.779 137.64H175.159V138.14H196.779V137.64Z" fill="#E0E0E0"/>
    <path d="M245.181 368.71C352.263 368.71 439.071 363.642 439.071 357.39C439.071 351.138 352.263 346.07 245.181 346.07C138.099 346.07 51.291 351.138 51.291 357.39C51.291 363.642 138.099 368.71 245.181 368.71Z" fill="#F5F5F5"/>
    <path d="M275.199 150.07C275.199 155.961 272.861 161.61 268.698 165.778C264.536 169.946 258.889 172.292 252.999 172.3H244.919V193.48H222.999V202.17C222.876 207.983 220.48 213.516 216.325 217.583C212.171 221.651 206.588 223.929 200.774 223.929C194.96 223.929 189.377 221.651 185.222 217.583C181.068 213.516 178.672 207.983 178.549 202.17V193.48H158.079V172.3H148.779C142.883 172.3 137.229 169.958 133.06 165.789C128.891 161.62 126.549 155.966 126.549 150.07C126.549 144.174 128.891 138.52 133.06 134.351C137.229 130.182 142.883 127.84 148.779 127.84H158.079V106.66H179.259V116C179.196 118.958 179.725 121.899 180.813 124.651C181.902 127.402 183.529 129.908 185.599 132.023C187.669 134.137 190.14 135.817 192.868 136.964C195.596 138.111 198.525 138.701 201.484 138.701C204.443 138.701 207.372 138.111 210.1 136.964C212.827 135.817 215.299 134.137 217.369 132.023C219.439 129.908 221.066 127.402 222.154 124.651C223.243 121.899 223.772 118.958 223.709 116V106.7H244.889V127.88H252.999C258.882 127.888 264.523 130.228 268.684 134.387C272.846 138.547 275.188 144.186 275.199 150.07V150.07Z" fill="#C68B59"/>
    <g opacity="0.5">
        <path opacity="0.5" d="M275.199 150.07C275.199 155.961 272.861 161.61 268.698 165.778C264.536 169.946 258.889 172.292 252.999 172.3H244.919V193.48H222.999V202.17C222.876 207.983 220.48 213.516 216.325 217.583C212.171 221.651 206.588 223.929 200.774 223.929C194.96 223.929 189.377 221.651 185.222 217.583C181.068 213.516 178.672 207.983 178.549 202.17V193.48H158.079V172.3H148.779C142.883 172.3 137.229 169.958 133.06 165.789C128.891 161.62 126.549 155.966 126.549 150.07C126.549 144.174 128.891 138.52 133.06 134.351C137.229 130.182 142.883 127.84 148.779 127.84H158.079V106.66H179.259V116C179.196 118.958 179.725 121.899 180.813 124.651C181.902 127.402 183.529 129.908 185.599 132.023C187.669 134.137 190.14 135.817 192.868 136.964C195.596 138.111 198.525 138.701 201.484 138.701C204.443 138.701 207.372 138.111 210.1 136.964C212.827 135.817 215.299 134.137 217.369 132.023C219.439 129.908 221.066 127.402 222.154 124.651C223.243 121.899 223.772 118.958 223.709 116V106.7H244.889V127.88H252.999C258.882 127.888 264.523 130.228 268.684 134.387C272.846 138.547 275.188 144.186 275.199 150.07V150.07Z" fill="white"/>
    </g>
    <path d="M253.078 172.19H243.778V193.37H330.598V172.19H338.668C344.564 172.19 350.218 169.848 354.387 165.679C358.556 161.51 360.898 155.856 360.898 149.96C360.898 144.064 358.556 138.41 354.387 134.241C350.218 130.072 344.564 127.73 338.668 127.73H330.598V106.55H309.418V97.25C309.418 91.3543 307.076 85.7 302.907 81.531C298.738 77.3621 293.084 75.02 287.188 75.02C281.293 75.02 275.638 77.3621 271.469 81.531C267.3 85.7 264.958 91.3543 264.958 97.25V106.55H243.778V127.73H253.078C258.974 127.73 264.628 130.072 268.797 134.241C272.966 138.41 275.308 144.064 275.308 149.96C275.308 155.856 272.966 161.51 268.797 165.679C264.628 169.848 258.974 172.19 253.078 172.19Z" fill="#C68B59"/>
    <g opacity="0.3">
        <path opacity="0.3" d="M253.078 172.19H243.778V193.37H330.598V172.19H338.668C344.564 172.19 350.218 169.848 354.387 165.679C358.556 161.51 360.898 155.856 360.898 149.96C360.898 144.064 358.556 138.41 354.387 134.241C350.218 130.072 344.564 127.73 338.668 127.73H330.598V106.55H309.418V97.25C309.418 91.3543 307.076 85.7 302.907 81.531C298.738 77.3621 293.084 75.02 287.188 75.02C281.293 75.02 275.638 77.3621 271.469 81.531C267.3 85.7 264.958 91.3543 264.958 97.25V106.55H243.778V127.73H253.078C258.974 127.73 264.628 130.072 268.797 134.241C272.966 138.41 275.308 144.064 275.308 149.96C275.308 155.856 272.966 161.51 268.797 165.679C264.628 169.848 258.974 172.19 253.078 172.19Z" fill="white"/>
    </g>
    <path d="M258.38 96.73L256.51 96.26C254.496 95.8458 252.535 95.212 250.66 94.37L250.41 94.25C248.57 93.36 246.27 92.25 245.78 88.38C245.771 88.1358 245.677 87.9023 245.515 87.7197C245.352 87.5372 245.131 87.417 244.89 87.38C227.75 86.55 221.78 77.48 221.77 67.38C221.77 57.48 228.28 48.13 246.77 47.91C263.91 47.7 272.49 58.25 271.97 69.12C271.63 76.06 266.19 85.57 255.84 87.73C254.57 88.16 252.31 88.24 251.52 89.38C251.343 89.6563 251.25 89.9772 251.25 90.305C251.25 90.6327 251.343 90.9536 251.52 91.23C251.891 91.7981 252.346 92.3072 252.87 92.74C254.71 94.32 258.38 96.73 258.38 96.73Z" fill="white"/>
    <path d="M258.38 97.23H258.26L256.39 96.77C254.342 96.3441 252.347 95.6969 250.44 94.84L250.2 94.72C248.35 93.83 245.81 92.61 245.29 88.46C245.29 88.37 245.2 87.88 244.86 87.86C224.35 86.86 221.28 74.61 221.27 67.4C221.27 61.49 223.74 47.71 246.77 47.4C257.64 47.29 263.77 51.28 267.05 54.68C268.902 56.5864 270.34 58.8549 271.274 61.3431C272.209 63.8313 272.619 66.4857 272.48 69.14C272.137 73.6654 270.351 77.9614 267.384 81.396C264.417 84.8306 260.427 87.2225 256 88.22C255.58 88.355 255.153 88.4619 254.72 88.54C253.65 88.76 252.44 89.01 251.99 89.67C251.867 89.8627 251.801 90.0865 251.801 90.315C251.801 90.5435 251.867 90.7673 251.99 90.96C252.335 91.4858 252.756 91.9576 253.24 92.36C255.03 93.9 258.66 96.28 258.7 96.31C258.797 96.3736 258.869 96.47 258.902 96.5818C258.935 96.6936 258.927 96.8135 258.88 96.92C258.84 97.0179 258.77 97.1006 258.68 97.1563C258.59 97.212 258.485 97.2378 258.38 97.23ZM247.29 48.4H246.78C224.64 48.67 222.26 61.75 222.27 67.4C222.27 74.26 225.22 85.91 244.91 86.86C245.279 86.8986 245.621 87.0701 245.873 87.3423C246.125 87.6146 246.269 87.9691 246.28 88.34C246.74 91.94 248.8 92.94 250.63 93.82L250.88 93.94C252.456 94.6638 254.105 95.217 255.8 95.59C254.69 94.82 253.42 93.89 252.55 93.14C251.989 92.6733 251.504 92.1236 251.11 91.51C250.874 91.1558 250.749 90.7401 250.749 90.315C250.749 89.8898 250.874 89.4741 251.11 89.12C251.78 88.12 253.2 87.84 254.46 87.58C254.91 87.48 255.35 87.39 255.68 87.28C259.912 86.3485 263.732 84.0799 266.576 80.8095C269.419 77.5392 271.135 73.4407 271.47 69.12C271.603 66.6016 271.215 64.0827 270.329 61.7216C269.442 59.3606 268.077 57.2083 266.32 55.4C263.24 52.18 257.44 48.4 247.29 48.4Z" fill="#C68B59"/>
    <path d="M237.999 92.53C239.189 91.18 239.749 89.83 239.449 88.59C238.829 85.98 236.519 86.02 235.029 85.52C224.679 83.35 219.239 75.85 218.899 68.91C218.379 58.04 226.959 47.48 244.099 47.69C262.599 47.92 269.099 57.27 269.099 67.16C269.099 77.23 263.099 86.3 245.979 87.16C245.409 87.16 245.149 87.71 245.079 88.16C244.599 92.03 242.299 93.16 240.459 94.03L240.209 94.15C238.333 94.9876 236.371 95.6213 234.359 96.04L232.489 96.5C232.489 96.5 236.369 94.35 237.999 92.53Z" fill="white"/>
    <path d="M232.461 97C232.36 97.0015 232.262 96.9727 232.178 96.9175C232.094 96.8622 232.029 96.7829 231.991 96.69C231.946 96.5775 231.944 96.4527 231.985 96.3387C232.025 96.2247 232.105 96.1293 232.211 96.07C232.211 96.07 236.071 93.92 237.591 92.19C238.721 90.89 239.171 89.72 238.931 88.7C238.501 86.89 237.191 86.58 235.811 86.25C235.471 86.17 235.131 86.09 234.811 85.99C223.911 83.71 218.671 75.77 218.341 68.93C218.202 66.2743 218.612 63.6185 219.547 61.1287C220.481 58.6389 221.919 56.3687 223.771 54.46C227.051 51.07 233.181 47.04 244.051 47.18C267.051 47.47 269.561 61.24 269.551 67.18C269.551 74.39 266.471 86.65 245.961 87.64C245.621 87.64 245.541 88.14 245.531 88.24C245.011 92.38 242.471 93.61 240.621 94.5L240.381 94.62C238.456 95.4758 236.444 96.1229 234.381 96.55L232.501 97.01L232.461 97ZM243.551 48.18C233.391 48.18 227.551 51.96 224.551 55.18C222.793 56.9883 221.428 59.1406 220.542 61.5017C219.655 63.8627 219.267 66.3816 219.401 68.9C219.711 75.36 224.701 82.9 235.131 85.04C235.461 85.15 235.771 85.22 236.131 85.3C237.511 85.63 239.411 86.08 239.981 88.48C240.301 89.84 239.781 91.31 238.421 92.87C237.544 93.783 236.564 94.5917 235.501 95.28C237.063 94.9138 238.584 94.3911 240.041 93.72L240.291 93.6C242.111 92.72 244.181 91.72 244.641 88.12C244.647 87.7478 244.79 87.3909 245.043 87.1178C245.295 86.8446 245.64 86.6745 246.011 86.64C265.691 85.69 268.641 74.04 268.651 67.17C268.651 61.56 266.281 48.48 244.131 48.17L243.551 48.18Z" fill="#C68B59"/>
    <path d="M238.391 68.15L242.751 72.51L252.601 64.53" fill="white"/>
    <path d="M242.75 73.51C242.618 73.5107 242.488 73.4855 242.366 73.4358C242.244 73.386 242.133 73.3127 242.04 73.22L237.68 68.86C237.575 68.7703 237.49 68.66 237.43 68.536C237.37 68.4119 237.336 68.2768 237.331 68.139C237.326 68.0013 237.349 67.864 237.399 67.7357C237.449 67.6073 237.526 67.4908 237.623 67.3933C237.72 67.2959 237.837 67.2196 237.965 67.1693C238.094 67.1191 238.231 67.0959 238.369 67.1012C238.506 67.1065 238.642 67.1402 238.766 67.2003C238.89 67.2603 239 67.3453 239.09 67.45L242.82 71.17L251.97 63.76C252.07 63.6694 252.189 63.6002 252.317 63.5567C252.445 63.5131 252.581 63.4961 252.716 63.5066C252.851 63.5172 252.983 63.5551 253.103 63.618C253.223 63.681 253.329 63.7677 253.414 63.8728C253.5 63.978 253.563 64.0994 253.6 64.2297C253.637 64.3601 253.647 64.4966 253.63 64.631C253.613 64.7654 253.568 64.8949 253.5 65.0116C253.431 65.1283 253.339 65.2298 253.23 65.31L243.38 73.31C243.198 73.4461 242.976 73.5166 242.75 73.51Z" fill="#C68B59"/>
    <path d="M370.121 44.43C370.38 44.5236 370.663 44.5303 370.926 44.4491C371.189 44.3679 371.419 44.2033 371.581 43.98L379.161 33.4C379.259 33.2667 379.329 33.1153 379.367 32.9545C379.405 32.7938 379.411 32.627 379.384 32.4639C379.357 32.3009 379.298 32.1449 379.21 32.0051C379.122 31.8654 379.006 31.7446 378.871 31.65C378.6 31.4579 378.264 31.3806 377.936 31.4349C377.608 31.4892 377.315 31.6707 377.121 31.94L369.541 42.52C369.443 42.6533 369.373 42.8047 369.335 42.9655C369.296 43.1262 369.29 43.293 369.317 43.456C369.344 43.6191 369.404 43.7751 369.492 43.9149C369.58 44.0546 369.695 44.1754 369.831 44.27C369.92 44.3367 370.017 44.3906 370.121 44.43V44.43Z" fill="#C68B59"/>
    <path d="M379.082 58.36C379.287 58.435 379.507 58.4556 379.722 58.42L392.292 56.34C392.602 56.2658 392.872 56.077 393.049 55.8114C393.225 55.5459 393.294 55.2235 393.242 54.909C393.19 54.5946 393.021 54.3115 392.768 54.1168C392.516 53.9222 392.199 53.8304 391.882 53.86L379.312 55.94C379.04 55.9872 378.791 56.1227 378.603 56.3255C378.415 56.5282 378.299 56.7871 378.273 57.0622C378.247 57.3372 378.312 57.6133 378.458 57.8478C378.604 58.0823 378.824 58.2622 379.082 58.36V58.36Z" fill="#C68B59"/>
    <path d="M340.461 49.61C340.745 49.7103 341.056 49.7052 341.337 49.5957C341.618 49.4862 341.85 49.2796 341.992 49.0133C342.134 48.747 342.175 48.4388 342.109 48.1446C342.042 47.8504 341.873 47.5897 341.631 47.41L330.731 39.6C330.465 39.4573 330.156 39.4156 329.862 39.4826C329.568 39.5496 329.308 39.7207 329.13 39.9644C328.952 40.2081 328.868 40.5079 328.894 40.8085C328.92 41.1091 329.054 41.3902 329.271 41.6L340.171 49.41C340.257 49.4908 340.355 49.5582 340.461 49.61V49.61Z" fill="#C68B59"/>
    <path d="M385.641 82C385.926 82.106 386.24 82.105 386.525 81.9974C386.809 81.8897 387.046 81.6826 387.19 81.4144C387.333 81.1461 387.375 80.8348 387.307 80.538C387.24 80.2413 387.067 79.9791 386.821 79.8L376.571 72.45C376.436 72.3534 376.284 72.2844 376.122 72.2467C375.961 72.2091 375.794 72.2035 375.63 72.2305C375.467 72.2574 375.31 72.3163 375.17 72.4037C375.029 72.4911 374.907 72.6054 374.811 72.74C374.714 72.8746 374.645 73.0269 374.607 73.1882C374.57 73.3495 374.564 73.5166 374.591 73.68C374.618 73.8435 374.677 74 374.764 74.1407C374.852 74.2814 374.966 74.4035 375.101 74.5L385.351 81.84C385.441 81.9046 385.538 81.9583 385.641 82Z" fill="#C68B59"/>
    <path d="M354.152 41C354.358 41.076 354.581 41.0967 354.797 41.0601C355.014 41.0235 355.218 40.9308 355.387 40.7913C355.557 40.6518 355.688 40.4703 355.766 40.2648C355.844 40.0594 355.866 39.8371 355.832 39.62L353.662 26.51C353.646 26.3377 353.595 26.1707 353.511 26.0191C353.428 25.8676 353.314 25.7349 353.177 25.6292C353.04 25.5235 352.883 25.4472 352.715 25.405C352.547 25.3628 352.373 25.3555 352.202 25.3838C352.031 25.412 351.868 25.475 351.723 25.569C351.578 25.663 351.453 25.7858 351.358 25.93C351.262 26.0741 351.197 26.2364 351.167 26.4067C351.137 26.577 351.142 26.7517 351.182 26.92L353.352 40C353.383 40.2233 353.473 40.4342 353.614 40.6102C353.755 40.7863 353.941 40.9209 354.152 41V41Z" fill="#C68B59"/>
    <g opacity="0.5">
        <path opacity="0.5" d="M370.121 44.43C370.38 44.5236 370.663 44.5303 370.926 44.4491C371.189 44.3679 371.419 44.2033 371.581 43.98L379.161 33.4C379.259 33.2667 379.329 33.1153 379.367 32.9545C379.405 32.7938 379.411 32.627 379.384 32.4639C379.357 32.3009 379.298 32.1449 379.21 32.0051C379.122 31.8654 379.006 31.7446 378.871 31.65C378.6 31.4579 378.264 31.3806 377.936 31.4349C377.608 31.4892 377.315 31.6707 377.121 31.94L369.541 42.52C369.443 42.6533 369.373 42.8047 369.335 42.9655C369.296 43.1262 369.29 43.293 369.317 43.456C369.344 43.6191 369.404 43.7751 369.492 43.9149C369.58 44.0546 369.695 44.1754 369.831 44.27C369.92 44.3367 370.017 44.3906 370.121 44.43V44.43Z" fill="white"/>
        <path opacity="0.5" d="M379.082 58.36C379.287 58.435 379.507 58.4556 379.722 58.42L392.292 56.34C392.602 56.2658 392.872 56.077 393.049 55.8114C393.225 55.5459 393.294 55.2235 393.242 54.909C393.19 54.5946 393.021 54.3115 392.768 54.1168C392.516 53.9222 392.199 53.8304 391.882 53.86L379.312 55.94C379.04 55.9872 378.791 56.1227 378.603 56.3255C378.415 56.5282 378.299 56.7871 378.273 57.0622C378.247 57.3372 378.312 57.6133 378.458 57.8478C378.604 58.0823 378.824 58.2622 379.082 58.36V58.36Z" fill="white"/>
        <path opacity="0.5" d="M340.461 49.61C340.745 49.7103 341.056 49.7052 341.337 49.5957C341.618 49.4862 341.85 49.2796 341.992 49.0133C342.134 48.747 342.175 48.4388 342.109 48.1446C342.042 47.8504 341.873 47.5897 341.631 47.41L330.731 39.6C330.465 39.4573 330.156 39.4156 329.862 39.4826C329.568 39.5496 329.308 39.7207 329.13 39.9644C328.952 40.2081 328.868 40.5079 328.894 40.8085C328.92 41.1091 329.054 41.3902 329.271 41.6L340.171 49.41C340.257 49.4908 340.355 49.5582 340.461 49.61V49.61Z" fill="white"/>
        <path opacity="0.5" d="M385.641 82C385.926 82.106 386.24 82.105 386.525 81.9974C386.809 81.8897 387.046 81.6826 387.19 81.4144C387.333 81.1461 387.375 80.8348 387.307 80.538C387.24 80.2413 387.067 79.9791 386.821 79.8L376.571 72.45C376.436 72.3534 376.284 72.2844 376.122 72.2467C375.961 72.2091 375.794 72.2035 375.63 72.2305C375.467 72.2574 375.31 72.3163 375.17 72.4037C375.029 72.4911 374.907 72.6054 374.811 72.74C374.714 72.8746 374.645 73.0269 374.607 73.1882C374.57 73.3495 374.564 73.5166 374.591 73.68C374.618 73.8435 374.677 74 374.764 74.1407C374.852 74.2814 374.966 74.4035 375.101 74.5L385.351 81.84C385.441 81.9046 385.538 81.9583 385.641 82Z" fill="white"/>
        <path opacity="0.5" d="M354.152 41C354.358 41.076 354.581 41.0967 354.797 41.0601C355.014 41.0235 355.218 40.9308 355.387 40.7913C355.557 40.6518 355.688 40.4703 355.766 40.2648C355.844 40.0594 355.866 39.8371 355.832 39.62L353.662 26.51C353.646 26.3377 353.595 26.1707 353.511 26.0191C353.428 25.8676 353.314 25.7349 353.177 25.6292C353.04 25.5235 352.883 25.4472 352.715 25.405C352.547 25.3628 352.373 25.3555 352.202 25.3838C352.031 25.412 351.868 25.475 351.723 25.569C351.578 25.663 351.453 25.7858 351.358 25.93C351.262 26.0741 351.197 26.2364 351.167 26.4067C351.137 26.577 351.142 26.7517 351.182 26.92L353.352 40C353.383 40.2233 353.473 40.4342 353.614 40.6102C353.755 40.7863 353.941 40.9209 354.152 41V41Z" fill="white"/>
    </g>
    <path d="M343.231 53.19C345.968 49.8084 349.897 47.6048 354.21 47.0329C358.523 46.4609 362.89 47.5642 366.414 50.1154C369.938 52.6667 372.35 56.4718 373.153 60.7475C373.956 65.0232 373.089 69.4441 370.731 73.1C366.731 78.61 359.661 79.16 353.731 81.52C351.891 82.25 348.331 87.37 348.331 87.37L336.671 78.92C336.671 78.92 340.421 73.92 340.541 71.97C340.931 65.6 339.241 58.7 343.231 53.19Z" fill="#C68B59"/>
    <path opacity="0.4" d="M343.231 53.19C345.968 49.8084 349.897 47.6048 354.21 47.0329C358.523 46.4609 362.89 47.5642 366.414 50.1154C369.938 52.6667 372.35 56.4718 373.153 60.7475C373.956 65.0232 373.089 69.4441 370.731 73.1C366.731 78.61 359.661 79.16 353.731 81.52C351.891 82.25 348.331 87.37 348.331 87.37L336.671 78.92C336.671 78.92 340.421 73.92 340.541 71.97C340.931 65.6 339.241 58.7 343.231 53.19Z" fill="white"/>
    <path d="M337.001 85.47L342.001 89.07C342.44 89.3886 342.938 89.6176 343.465 89.7439C343.993 89.8701 344.541 89.8911 345.077 89.8056C345.612 89.7202 346.126 89.53 346.588 89.2459C347.051 88.9618 347.453 88.5894 347.771 88.15L336.101 79.71C335.461 80.5947 335.197 81.6964 335.365 82.7753C335.534 83.8541 336.122 84.8226 337.001 85.47V85.47Z" fill="#263238"/>
    <path d="M337.001 90.78C337.724 91.3026 338.625 91.5171 339.506 91.3765C340.387 91.2359 341.176 90.7517 341.701 90.03V90.03L336.251 86.08C335.728 86.8031 335.514 87.704 335.654 88.585C335.795 89.4661 336.279 90.2554 337.001 90.78Z" fill="#263238"/>
    <path opacity="0.5" d="M337.001 90.78C337.724 91.3026 338.625 91.5171 339.506 91.3765C340.387 91.2359 341.176 90.7517 341.701 90.03V90.03L336.251 86.08C335.728 86.8031 335.514 87.704 335.654 88.585C335.795 89.4661 336.279 90.2554 337.001 90.78Z" fill="white"/>
    <g opacity="0.7">
        <path opacity="0.7" d="M337.001 85.47L342.001 89.07C342.44 89.3886 342.938 89.6176 343.465 89.7439C343.993 89.8701 344.541 89.8911 345.077 89.8056C345.612 89.7202 346.126 89.53 346.588 89.2459C347.051 88.9618 347.453 88.5894 347.771 88.15L336.101 79.71C335.461 80.5947 335.197 81.6964 335.365 82.7753C335.534 83.8541 336.122 84.8226 337.001 85.47V85.47Z" fill="white"/>
    </g>
    <path opacity="0.3" d="M346.701 51.81C340.471 60.5 338.861 74.24 345.571 79.04C352.281 83.84 365.571 76.74 370.991 69.22C374.311 64.59 371.571 56.93 364.861 52.13C358.151 47.33 350.001 47.18 346.701 51.81Z" fill="white"/>
    <path opacity="0.4" d="M344.911 63.33C343.8 64.8773 343.172 66.7196 343.108 68.6236C343.044 70.5277 343.546 72.408 344.55 74.0266C345.555 75.6453 347.017 76.9296 348.752 77.7171C350.487 78.5045 352.416 78.7597 354.296 78.4504C356.176 78.141 357.922 77.281 359.313 75.9792C360.704 74.6774 361.677 72.9923 362.11 71.137C362.544 69.2818 362.417 67.3397 361.746 65.5567C361.075 63.7736 359.89 62.2296 358.341 61.12C356.267 59.6337 353.687 59.0316 351.169 59.446C348.651 59.8603 346.4 61.2573 344.911 63.33V63.33Z" fill="white"/>
    <path opacity="0.4" d="M345.89 67C343.71 70 345.51 72.72 348.55 74.9C351.59 77.08 354.7 77.9 356.88 74.9C359.06 71.9 357.22 69.22 354.19 67.04C351.16 64.86 348.06 64 345.89 67Z" fill="white"/>
    <path d="M106.66 88.25L110.07 91.09L129.79 74.24L154.97 79.33L174.16 61.23L175.88 63.59L180.43 53.33L169.27 54.52L170.99 56.88L154.15 75.53L128.94 70.63L106.66 88.25Z" fill="#C68B59"/>
    <g opacity="0.3">
        <path opacity="0.3" d="M106.66 88.25L110.07 91.09L129.79 74.24L154.97 79.33L174.16 61.23L175.88 63.59L180.43 53.33L169.27 54.52L170.99 56.88L154.15 75.53L128.94 70.63L106.66 88.25Z" fill="white"/>
    </g>
    <path d="M293.099 235.72C293.679 244.78 291.439 256.44 289.299 265.13C287.529 272.31 286.299 274.29 285.829 277.47C285.319 281.09 286.419 286.47 286.139 291.02C285.069 309.02 277.749 345.42 277.749 345.42L271.609 345.03L271.769 274.56L275.769 206.28L299.999 212.74C302.419 226 293.099 235.72 293.099 235.72Z" fill="#DD8C6A"/>
    <path d="M324.281 346.67L318.701 346.51L303.211 277.71L287.551 211.14L312.661 210.39C318.661 222.39 312.571 234.39 312.571 234.39C315.701 242.92 316.891 254.73 317.321 263.68C317.681 271.06 317.031 273.32 317.511 276.49C318.071 280.11 319.831 284.92 320.881 289.39C325.001 307.13 324.281 346.67 324.281 346.67Z" fill="#DD8C6A"/>
    <path d="M242.5 149.59L245.42 153.43C248.33 154.33 248.27 158.66 248.27 158.66C248.9 159.15 254.82 162.89 256.2 164.1L252.71 167.86C251.2 165.55 245.95 161.64 245.95 161.64C245.95 161.64 238.81 157.27 237.64 155.71C236.47 154.15 238.42 149.51 238.42 149.51L242.5 149.59Z" fill="#DD8C6A"/>
    <path d="M250.581 159.05C255.371 162.54 262.441 167.89 262.441 167.89C266.206 163.73 270.177 159.761 274.341 156C276.922 153.55 279.875 151.525 283.091 150L281.861 164.39C278.071 167.65 266.191 177.51 261.551 177.11C257.721 176.78 250.611 168.57 246.551 163.49L250.581 159.05Z" fill="#263238"/>
    <path opacity="0.2" d="M270.15 173.31C272.68 169.04 279.62 157.83 279.62 157.83L281.28 161.6L280.16 165.74C278.4 167.22 272.69 171.46 270.15 173.31Z" fill="black"/>
    <path d="M315.71 157.28C314.693 170.458 312.803 183.553 310.05 196.48C310.05 196.48 324.7 208.48 319.95 257.77C319.95 257.77 305.13 264.33 270.15 256.53L276.8 196.26C276.8 196.26 275.26 157.09 279.42 152.72C283.1 148.84 299.15 143.72 311.42 149.8C312.798 150.48 313.941 151.554 314.705 152.886C315.469 154.218 315.819 155.748 315.71 157.28V157.28Z" fill="#C68B59"/>
    <path opacity="0.4" d="M315.71 157.28C314.693 170.458 312.803 183.553 310.05 196.48C310.05 196.48 324.7 208.48 319.95 257.77C319.95 257.77 305.13 264.33 270.15 256.53L276.8 196.26C276.8 196.26 275.26 157.09 279.42 152.72C283.1 148.84 299.15 143.72 311.42 149.8C312.798 150.48 313.941 151.554 314.705 152.886C315.469 154.218 315.819 155.748 315.71 157.28V157.28Z" fill="black"/>
    <path opacity="0.3" d="M298.681 195.16C298.681 195.16 287.951 197.02 280.411 195.16V199.76C280.411 199.76 286.021 200.57 298.681 199.76V195.16Z" fill="black"/>
    <path d="M304.921 133C303.501 137 301.651 144.15 303.171 148.26C303.353 148.738 303.365 149.263 303.207 149.748C303.049 150.234 302.729 150.651 302.301 150.93C299.211 153.16 294.181 154.93 290.401 154.56C285.551 154.03 286.811 150.56 288.051 148.71C288.381 148.21 288.901 147.5 289.491 147.39C294.261 146.58 295.171 143 294.801 139.39L304.921 133Z" fill="#DD8C6A"/>
    <path opacity="0.3" d="M300.801 135.61L294.801 139.36C294.881 140.245 294.881 141.135 294.801 142.02C296.003 141.984 297.178 141.654 298.224 141.06C299.27 140.465 300.154 139.624 300.801 138.61C301.501 137.34 301.291 135.84 300.801 135.61Z" fill="black"/>
    <path d="M289.171 135.05L286.461 139.92C287.301 139.99 288.061 140.27 288.901 140.34C289.321 139.68 289.821 139.03 290.241 138.34C290.081 139.02 289.531 139.75 289.361 140.42C290.852 140.694 292.365 140.838 293.881 140.85C293.957 140.626 293.987 140.389 293.968 140.154C293.949 139.918 293.882 139.689 293.771 139.48C292.968 137.671 291.551 136.205 289.771 135.34L289.171 135.05Z" fill="#263238"/>
    <path d="M306.81 126.43C305.06 132.66 304.35 136.43 300.46 138.95C294.61 142.79 287.46 138.2 287.29 131.58C287.16 125.58 290.05 116.42 296.77 115.25C299.069 114.842 301.436 115.361 303.353 116.693C305.27 118.026 306.581 120.063 307 122.36C307.249 123.713 307.184 125.106 306.81 126.43Z" fill="#DD8C6A"/>
    <path d="M292.201 126.43C291.448 127.604 290.54 128.67 289.501 129.6C289.748 129.858 290.046 130.06 290.378 130.193C290.709 130.326 291.065 130.386 291.421 130.37L292.201 126.43Z" fill="#FF5652"/>
    <path d="M299.051 124.14C299.1 124.15 299.151 124.15 299.201 124.14C299.273 124.103 299.329 124.041 299.356 123.965C299.384 123.888 299.382 123.805 299.351 123.73C299.153 123.281 298.852 122.885 298.471 122.575C298.09 122.266 297.641 122.051 297.161 121.95C297.08 121.939 296.998 121.959 296.932 122.008C296.867 122.057 296.823 122.129 296.811 122.21C296.799 122.291 296.82 122.373 296.869 122.438C296.917 122.504 296.99 122.548 297.071 122.56V122.56C297.449 122.647 297.802 122.822 298.101 123.07C298.4 123.318 298.636 123.634 298.791 123.99C298.817 124.036 298.855 124.074 298.901 124.1C298.946 124.126 298.998 124.14 299.051 124.14V124.14Z" fill="#263238"/>
    <path d="M289.22 121.2C289.265 121.227 289.317 121.242 289.37 121.242C289.423 121.242 289.475 121.227 289.52 121.2C289.849 120.998 290.22 120.878 290.605 120.848C290.989 120.819 291.375 120.881 291.73 121.03C291.803 121.065 291.887 121.07 291.964 121.044C292.04 121.017 292.104 120.962 292.14 120.89C292.159 120.855 292.171 120.816 292.174 120.776C292.178 120.736 292.174 120.696 292.162 120.658C292.15 120.619 292.13 120.584 292.104 120.553C292.078 120.523 292.046 120.498 292.01 120.48C291.56 120.284 291.069 120.197 290.578 120.229C290.088 120.26 289.612 120.408 289.19 120.66C289.155 120.679 289.124 120.704 289.099 120.735C289.074 120.766 289.055 120.802 289.044 120.84C289.033 120.878 289.03 120.918 289.034 120.958C289.039 120.997 289.051 121.035 289.07 121.07V121.07C289.107 121.126 289.159 121.171 289.22 121.2V121.2Z" fill="#263238"/>
    <path d="M302.941 146.22L295.941 151.64C295.643 151.872 295.295 152.032 294.925 152.107C294.555 152.183 294.173 152.171 293.808 152.075C293.443 151.978 293.105 151.798 292.821 151.549C292.537 151.3 292.315 150.989 292.171 150.64L290.581 147L288.721 147.48C288.508 147.531 288.314 147.64 288.16 147.796C288.006 147.951 287.899 148.147 287.851 148.36C287.481 150.07 286.121 154.25 286.201 158C286.201 158 290.491 152.26 292.911 156.39C292.911 156.39 296.071 152.66 298.621 159.11C300.253 156.764 301.698 154.293 302.941 151.72C304.251 148.66 305.131 147 305.131 147L302.941 146.22Z" fill="white"/>
    <path d="M303.781 146.53C300.715 159.772 298.626 173.222 297.531 186.77C296.121 207.05 295.831 213.18 303.851 212.3C311.871 211.42 318.441 210.41 317.271 207.49C316.101 204.57 311.731 198 312.001 194.65C312.271 191.3 315.061 165.19 315.381 161.24C315.701 157.29 318.081 149 303.781 146.53Z" fill="#263238"/>
    <path d="M305.15 201.76C305.05 201.22 306.97 199.27 309.15 197.91C310.603 197.043 312.145 196.336 313.75 195.8C313.75 195.8 318.23 190.53 319.47 189.1L322.93 192.1C320.676 194.175 318.53 196.365 316.5 198.66L314.64 202.59C313.971 203.538 313.074 204.302 312.03 204.81C310.857 205.355 309.635 205.786 308.38 206.1C308.139 206.164 307.884 206.149 307.652 206.057C307.419 205.965 307.223 205.802 307.09 205.59C306.255 204.418 305.601 203.127 305.15 201.76V201.76Z" fill="#DD8C6A"/>
    <path d="M289.71 147.21C289.71 147.21 283.14 159.57 282.71 180.21C282.28 200.85 283.18 211.79 279.36 212.42C275.54 213.05 274.69 210.42 274.69 210.42C274.69 210.42 275.82 199.22 275.82 196.49C275.82 193.76 274.62 177.23 275.82 165.42C277.02 153.61 275.82 154.33 277.82 153.01C279.82 151.69 284.35 148.3 289.71 147.21Z" fill="#263238"/>
    <path opacity="0.2" d="M313.151 183.49L309.211 160.88C309.211 160.88 312.461 164.19 314.871 166.73C314.411 171.35 313.731 177.87 313.151 183.49Z" fill="black"/>
    <path d="M311.361 149.12C311.361 149.12 308.691 155.93 309.211 160.88C309.431 162.98 324.351 178.98 324.351 178.98L313.101 193.9L318.901 198.9C318.901 198.9 334.901 183.06 335.031 178.77C335.161 174.48 317.371 150.93 311.361 149.12Z" fill="#263238"/>
    <path d="M296.782 125.69C296.682 126.21 296.322 126.57 295.982 126.51C295.642 126.45 295.442 125.97 295.552 125.44C295.662 124.91 296.012 124.56 296.352 124.62C296.692 124.68 296.882 125.16 296.782 125.69Z" fill="#263238"/>
    <path d="M290.89 124.53C290.79 125.05 290.43 125.42 290.09 125.35C289.75 125.28 289.56 124.81 289.66 124.29C289.76 123.77 290.12 123.4 290.46 123.47C290.8 123.54 291 124 290.89 124.53Z" fill="#263238"/>
    <path d="M290.6 123.52L289.42 122.92C289.42 122.92 289.88 124 290.6 123.52Z" fill="#263238"/>
    <path d="M296.49 124.68L295.31 124.08C295.31 124.08 295.77 125.18 296.49 124.68Z" fill="#263238"/>
    <path d="M293.131 133.27C292.798 133.297 292.464 133.297 292.131 133.27C292.108 133.27 292.086 133.265 292.065 133.256C292.044 133.247 292.025 133.233 292.01 133.216C291.995 133.199 291.984 133.179 291.977 133.157C291.97 133.136 291.968 133.113 291.971 133.09V133.09C291.974 133.047 291.993 133.006 292.024 132.976C292.056 132.946 292.098 132.93 292.141 132.93C292.859 132.992 293.582 132.886 294.252 132.621C294.922 132.355 295.521 131.937 296.001 131.4C296.016 131.383 296.034 131.369 296.055 131.36C296.076 131.351 296.098 131.346 296.121 131.346C296.144 131.346 296.166 131.351 296.187 131.36C296.207 131.369 296.226 131.383 296.241 131.4C296.273 131.432 296.291 131.475 296.291 131.52C296.291 131.565 296.273 131.608 296.241 131.64C295.448 132.557 294.337 133.14 293.131 133.27Z" fill="#263238"/>
    <path d="M303.091 114.25C306.16 123.03 305.723 132.655 301.871 141.12C302.741 140.86 303.671 140.66 304.531 140.41C304.951 139.3 305.281 138.16 305.701 137.06C305.561 138.06 305.291 139.3 305.151 140.35L307.501 139.92C307.911 138.85 308.251 137.65 308.661 136.58C308.481 137.53 308.281 138.86 308.091 139.81C310.816 137.952 312.741 135.134 313.481 131.92C314.237 128.361 313.772 124.652 312.161 121.39C310.221 118 306.831 116.61 303.091 114.25Z" fill="#263238"/>
    <path d="M308.999 131.53C308.517 133.091 307.439 134.398 305.999 135.17C304.089 136.17 302.679 134.59 302.829 132.55C302.949 130.72 304.099 127.98 306.199 127.8C306.663 127.763 307.129 127.844 307.553 128.035C307.978 128.227 308.347 128.522 308.626 128.894C308.905 129.267 309.086 129.703 309.151 130.164C309.217 130.625 309.164 131.095 308.999 131.53V131.53Z" fill="#DD8C6A"/>
    <path d="M289.75 162.84C289.445 162.838 289.144 162.766 288.87 162.63C288.559 162.474 288.287 162.247 288.079 161.968C287.871 161.688 287.731 161.364 287.671 161.02C287.612 160.438 287.724 159.852 287.994 159.333C288.264 158.814 288.68 158.386 289.19 158.1C290.09 157.58 291.081 157.241 292.11 157.1H292.231H293.041C293.17 157.108 293.293 157.165 293.382 157.26C293.471 157.354 293.521 157.48 293.52 157.61C293.518 157.739 293.465 157.862 293.374 157.954C293.283 158.045 293.16 158.097 293.03 158.1C292.54 158.1 291.95 159.1 291.83 159.91V160.03C291.831 160.524 291.716 161.012 291.496 161.455C291.276 161.897 290.955 162.282 290.56 162.58C290.317 162.734 290.038 162.823 289.75 162.84V162.84ZM291.421 158.3C290.823 158.41 290.251 158.627 289.731 158.94C289.392 159.133 289.112 159.415 288.922 159.755C288.732 160.095 288.638 160.48 288.65 160.87C288.689 161.055 288.769 161.229 288.885 161.378C289.001 161.527 289.15 161.648 289.321 161.73C289.434 161.791 289.561 161.823 289.69 161.823C289.82 161.823 289.947 161.791 290.06 161.73C290.58 161.46 290.7 160.67 290.82 159.91V159.79C290.922 159.259 291.126 158.753 291.421 158.3V158.3Z" fill="white"/>
    <path d="M295.859 163.17C295.521 163.171 295.19 163.07 294.909 162.88C294.543 162.546 294.262 162.13 294.088 161.665C293.914 161.201 293.853 160.702 293.909 160.21V160.09C293.909 159.3 293.389 158.23 292.909 158.16C292.781 158.145 292.664 158.08 292.583 157.979C292.503 157.877 292.465 157.749 292.479 157.62C292.49 157.492 292.55 157.373 292.647 157.288C292.745 157.204 292.871 157.162 292.999 157.17H293.809H293.929C294.939 157.414 295.893 157.848 296.739 158.45C297.214 158.789 297.579 159.259 297.79 159.803C298.002 160.346 298.05 160.939 297.929 161.51C297.836 161.847 297.662 162.156 297.424 162.412C297.185 162.668 296.889 162.863 296.559 162.98C296.34 163.087 296.103 163.151 295.859 163.17V163.17ZM294.499 158.46C294.737 158.955 294.876 159.492 294.909 160.04V160.17C294.909 160.93 294.989 161.72 295.469 162.06C295.58 162.126 295.705 162.165 295.833 162.173C295.962 162.182 296.091 162.16 296.209 162.11C296.388 162.045 296.55 161.941 296.682 161.804C296.813 161.667 296.912 161.501 296.969 161.32C297.021 160.94 296.969 160.553 296.817 160.201C296.666 159.848 296.421 159.544 296.109 159.32C295.625 158.945 295.081 158.654 294.499 158.46V158.46Z" fill="white"/>
    <path d="M290.001 168.24C289.948 168.251 289.893 168.251 289.841 168.24C289.715 168.199 289.61 168.109 289.55 167.991C289.49 167.873 289.48 167.736 289.521 167.61C290.516 164.518 291.186 161.331 291.521 158.1C291.534 157.967 291.599 157.845 291.702 157.761C291.806 157.677 291.938 157.637 292.071 157.65C292.203 157.663 292.325 157.729 292.41 157.832C292.494 157.935 292.534 158.067 292.521 158.2C292.19 161.5 291.519 164.757 290.521 167.92C290.481 168.023 290.409 168.111 290.315 168.169C290.221 168.226 290.111 168.252 290.001 168.24V168.24Z" fill="white"/>
    <path d="M294 170.73C293.902 170.73 293.805 170.7 293.723 170.645C293.641 170.589 293.578 170.511 293.54 170.42C293.151 169.417 292.932 168.355 292.89 167.28C292.889 166.188 292.979 165.097 293.16 164.02C293.24 163.48 293.32 162.94 293.37 162.4C293.623 160.905 293.351 159.368 292.6 158.05C292.564 157.996 292.538 157.934 292.525 157.87C292.512 157.805 292.511 157.739 292.524 157.675C292.536 157.61 292.561 157.549 292.598 157.494C292.634 157.439 292.681 157.392 292.735 157.355C292.79 157.318 292.851 157.293 292.915 157.279C292.98 157.266 293.046 157.266 293.111 157.279C293.175 157.291 293.237 157.316 293.292 157.352C293.346 157.389 293.393 157.436 293.43 157.49C294.315 158.997 294.644 160.766 294.36 162.49C294.31 163.05 294.23 163.61 294.15 164.16C293.976 165.177 293.89 166.208 293.89 167.24C293.927 168.202 294.123 169.152 294.47 170.05C294.517 170.174 294.514 170.31 294.461 170.431C294.409 170.553 294.312 170.649 294.19 170.7C294.129 170.721 294.065 170.731 294 170.73V170.73Z" fill="white"/>
    <path d="M302.611 125.72C302.071 125.23 301.311 124.62 300.771 124.12C301.027 123.033 301.115 121.913 301.031 120.8C300.781 121.68 300.701 122.58 300.451 123.46L298.611 122.24C298.173 121.881 297.636 121.664 297.071 121.62C297.171 120.71 297.211 119.78 297.321 118.87C297.111 119.68 296.871 120.58 296.671 121.39C295.951 121.29 295.121 121.12 294.411 121.02C294.491 120.02 294.611 119.1 294.701 118.13C294.391 118.89 294.171 120.19 293.861 120.95L293.651 120.66C291.604 120.159 289.482 120.04 287.391 120.31C286.691 117.56 287.531 113.67 290.231 112.78C299.381 109.73 306.871 116.87 307.081 117.46C308.451 121.23 305.921 123.73 302.611 125.72Z" fill="#263238"/>
    <path d="M306 133.4C306 133.572 305.949 133.74 305.853 133.883C305.758 134.026 305.622 134.138 305.463 134.204C305.304 134.27 305.129 134.287 304.96 134.253C304.791 134.22 304.636 134.137 304.515 134.015C304.393 133.894 304.31 133.738 304.276 133.57C304.243 133.401 304.26 133.226 304.326 133.067C304.392 132.908 304.503 132.772 304.646 132.677C304.79 132.581 304.958 132.53 305.13 132.53C305.361 132.53 305.582 132.622 305.745 132.785C305.908 132.948 306 133.169 306 133.4V133.4Z" fill="#C68B59"/>
    <path d="M269.52 343.78C264.69 346.43 264.15 346.48 258.82 347.49C257.65 347.71 258.06 350.49 260.82 350.55C265.33 350.69 264.95 350.55 268.82 350.63C272.1 350.71 276.05 350.99 278.66 351.1H278.75C279.035 351.08 279.3 350.947 279.488 350.731C279.675 350.516 279.77 350.235 279.75 349.95L279.18 344.01C279.164 343.884 279.104 343.768 279.011 343.682C278.917 343.596 278.797 343.546 278.67 343.54L271.23 343.33C270.63 343.322 270.039 343.478 269.52 343.78V343.78Z" fill="#263238"/>
    <path d="M269.55 344.23C269.564 344.206 269.571 344.178 269.571 344.15C269.571 344.122 269.564 344.094 269.55 344.07C269.525 344.053 269.495 344.044 269.465 344.044C269.435 344.044 269.405 344.053 269.38 344.07C269.06 344.18 266.28 345.28 266.07 346.17C266.051 346.255 266.052 346.343 266.075 346.426C266.098 346.51 266.141 346.587 266.2 346.65V346.65C266.297 346.755 266.417 346.836 266.551 346.886C266.684 346.936 266.828 346.955 266.97 346.94C267.97 346.83 269.02 345.24 269.57 344.3L269.55 344.23ZM266.36 346.14C266.56 345.65 267.95 344.95 269.02 344.49C268.23 345.75 267.44 346.49 266.9 346.58C266.806 346.593 266.711 346.582 266.623 346.547C266.535 346.512 266.458 346.454 266.4 346.38C266.373 346.359 266.353 346.331 266.342 346.299C266.332 346.267 266.331 346.233 266.34 346.2L266.36 346.14Z" fill="#C68B59"/>
    <path d="M269.55 344.23C269.557 344.202 269.555 344.172 269.544 344.145C269.533 344.119 269.514 344.096 269.49 344.08C268.749 343.498 267.842 343.166 266.9 343.13C266.743 343.15 266.592 343.202 266.456 343.283C266.32 343.363 266.202 343.472 266.11 343.6V343.6C265.86 343.95 265.93 344.19 266.05 344.33C266.54 344.94 268.66 344.7 269.46 344.33C269.482 344.322 269.502 344.309 269.518 344.292C269.534 344.274 269.545 344.253 269.55 344.23V344.23ZM266.29 343.9L266.4 343.78C266.466 343.685 266.55 343.605 266.648 343.545C266.747 343.485 266.856 343.446 266.97 343.43C267.734 343.448 268.473 343.7 269.09 344.15C268.17 344.43 266.61 344.48 266.32 344.15C266.32 344.15 266.25 344.07 266.32 343.95L266.29 343.9Z" fill="#C68B59"/>
    <path d="M316.11 344.25C313.381 346.484 310.181 348.067 306.75 348.88C305.33 349.28 306.22 351.88 309.62 351.88C315.25 351.79 313.01 351.7 317.82 351.59C321.93 351.51 323.02 351.48 326.28 351.46H326.39C326.555 351.456 326.717 351.419 326.868 351.351C327.018 351.283 327.153 351.186 327.265 351.065C327.377 350.943 327.464 350.801 327.519 350.645C327.575 350.49 327.599 350.325 327.59 350.16L326.5 343.78C326.464 343.635 326.379 343.507 326.258 343.419C326.137 343.331 325.989 343.289 325.84 343.3L317.25 343.53C316.5 343.44 316.69 343.84 316.11 344.25Z" fill="#263238"/>
    <path d="M316.071 344.75C316.09 344.724 316.101 344.692 316.101 344.66C316.101 344.628 316.09 344.596 316.071 344.57C316.058 344.537 316.036 344.508 316.008 344.487C315.98 344.466 315.946 344.453 315.911 344.45C315.481 344.45 311.751 344.57 311.161 345.45C311.11 345.529 311.083 345.621 311.083 345.715C311.083 345.809 311.11 345.901 311.161 345.98C311.242 346.128 311.355 346.256 311.491 346.354C311.628 346.453 311.785 346.52 311.951 346.55C313.131 346.79 315.051 345.55 316.111 344.78L316.071 344.75ZM311.511 345.55C311.941 345.11 313.871 344.89 315.321 344.82C313.861 345.82 312.611 346.31 311.961 346.2C311.852 346.181 311.749 346.137 311.66 346.071C311.572 346.005 311.5 345.919 311.451 345.82C311.429 345.789 311.417 345.753 311.417 345.715C311.417 345.677 311.429 345.641 311.451 345.61L311.511 345.55Z" fill="#C68B59"/>
    <path d="M316.069 344.75C316.087 344.725 316.096 344.695 316.096 344.665C316.096 344.635 316.087 344.605 316.069 344.58C315.999 344.53 314.749 342.9 313.409 342.69C313.024 342.617 312.626 342.688 312.289 342.89V342.89C311.839 343.16 311.829 343.43 311.909 343.61C312.229 344.39 314.829 344.92 315.909 344.85C315.942 344.847 315.974 344.836 316.001 344.819C316.029 344.802 316.052 344.778 316.069 344.75V344.75ZM312.359 343.24L312.489 343.11C312.736 342.964 313.028 342.915 313.309 342.97C314.174 343.233 314.94 343.749 315.509 344.45C314.299 344.4 312.449 343.91 312.259 343.45C312.259 343.45 312.259 343.34 312.389 343.23L312.359 343.24Z" fill="#C68B59"/>
    <path d="M228.081 186.29C226.671 189.07 231.361 192.48 231.361 192.48L233.581 194.75C233.944 195.146 234.442 195.394 234.977 195.446C235.512 195.497 236.048 195.349 236.481 195.03L238.671 193.47L238.741 193.42C239.191 193.076 239.489 192.571 239.573 192.011C239.657 191.451 239.52 190.881 239.191 190.42L237.721 188.42C237.125 187.601 236.362 186.919 235.481 186.42L231.271 184L228.081 186.29Z" fill="#FFC3BD"/>
    <path d="M209.79 125.38C210.321 124.208 211.185 123.218 212.274 122.533C213.364 121.848 214.631 121.499 215.917 121.529C217.204 121.559 218.453 121.966 219.51 122.701C220.566 123.435 221.384 124.464 221.86 125.66L222 126.01C222.865 128.455 223.205 131.055 223 133.64C222.94 136.19 222.86 138.78 222.9 141.25C222.94 143.72 222.9 152.64 222.98 155.06C223.06 157.3 227.59 167.43 231.98 182.06C232.069 182.341 232.179 182.615 232.31 182.88L233.12 184.49C233.12 184.49 231.91 185.26 230.67 186C229.666 186.755 228.566 187.374 227.4 187.84C226.748 187.249 226.209 186.544 225.81 185.76C222.31 180.24 210.88 159.76 210.28 156.76C209.69 153.98 209.28 144.76 209.02 141.96C208.76 139.16 208.56 136.43 208.48 133.67C208.418 132.285 208.472 130.896 208.64 129.52C208.816 128.088 209.204 126.689 209.79 125.37V125.38Z" fill="#263238"/>
    <path opacity="0.3" d="M209.79 125.38C210.321 124.208 211.185 123.218 212.274 122.533C213.364 121.848 214.631 121.499 215.917 121.529C217.204 121.559 218.453 121.966 219.51 122.701C220.566 123.435 221.384 124.464 221.86 125.66L222 126.01C222.865 128.455 223.205 131.055 223 133.64C222.94 136.19 222.86 138.78 222.9 141.25C222.94 143.72 222.9 152.64 222.98 155.06C223.06 157.3 227.59 167.43 231.98 182.06C232.069 182.341 232.179 182.615 232.31 182.88L233.12 184.49C233.12 184.49 231.91 185.26 230.67 186C229.666 186.755 228.566 187.374 227.4 187.84C226.748 187.249 226.209 186.544 225.81 185.76C222.31 180.24 210.88 159.76 210.28 156.76C209.69 153.98 209.28 144.76 209.02 141.96C208.76 139.16 208.56 136.43 208.48 133.67C208.418 132.285 208.472 130.896 208.64 129.52C208.816 128.088 209.204 126.689 209.79 125.37V125.38Z" fill="black"/>
    <path d="M173.879 128.83C175.589 148.53 182.129 159.63 181.249 175.37C181.249 175.37 216.749 176.07 217.969 176.07C218.489 147.07 222.629 149.28 221.359 130.92C221.579 124.92 218.149 121.17 214.679 120.57L199.559 117.44L180.069 120.79C178.216 121.107 176.55 122.11 175.403 123.6C174.256 125.09 173.712 126.957 173.879 128.83Z" fill="#C68B59"/>
    <path d="M201.759 309.2L206.359 345.55L215.319 344.91L212.899 309.2H201.759Z" fill="#FFC3BD"/>
    <path d="M217.5 270.71C218.31 304.99 216.33 334.37 216.33 334.37L204.24 335.19C204.24 335.19 197.43 290.71 200.18 272.54C200.05 268.72 195.63 220.95 194.11 211.92C191.36 195.71 188.42 184.59 188.42 184.59L216.87 183C216.87 183 217 249.13 217.5 270.71Z" fill="#C68B59"/>
    <g opacity="0.2">
        <path opacity="0.2" d="M201.27 197.05C201.27 197.05 200.35 234.6 198.71 255.19C197.86 244.06 195.63 220.95 194.11 211.92L201.27 197.05Z" fill="black"/>
    </g>
    <path d="M163.91 309.87L160.22 344.32L169.15 343.35L175.63 309.44L163.91 309.87Z" fill="#FFC3BD"/>
    <path d="M159.101 334.25L172.811 333.75C172.811 333.75 184.491 291.66 189.421 269.42C194.201 244.63 203.121 182.76 203.121 182.76L180.331 181C168.191 202.93 172.561 255.43 170.411 270.13C160.111 288.5 159.101 334.25 159.101 334.25Z" fill="#C68B59"/>
    <path d="M216.639 172H183.269C183.269 172 177.789 191.31 177.839 191.12C177.889 190.93 216.999 193 216.999 193L216.639 172Z" fill="#C68B59"/>
    <path d="M216.999 342C222.919 345 223.569 345.06 229.999 346.08C231.419 346.31 230.999 349.67 227.729 349.85C222.299 350.18 222.729 349.96 218.119 350.22C214.169 350.44 208.449 350.91 205.299 351.14H205.199C205.027 351.135 204.858 351.096 204.701 351.025C204.544 350.954 204.403 350.854 204.285 350.728C204.167 350.603 204.075 350.455 204.014 350.294C203.953 350.133 203.924 349.962 203.929 349.79L204.409 342.6C204.423 342.447 204.492 342.305 204.602 342.199C204.712 342.092 204.856 342.029 205.009 342.02L214.939 341.51C215.659 341.471 216.374 341.642 216.999 342V342Z" fill="#263238"/>
    <path d="M217 342.52C217.7 343.64 219.06 345.52 220.23 345.61C220.402 345.625 220.576 345.598 220.736 345.532C220.896 345.466 221.038 345.362 221.15 345.23V345.23C221.221 345.153 221.271 345.06 221.295 344.958C221.32 344.857 221.318 344.751 221.29 344.65C221 343.58 217.61 342.36 217.23 342.24C217.192 342.225 217.151 342.222 217.112 342.231C217.073 342.24 217.037 342.26 217.01 342.29C216.993 342.321 216.984 342.355 216.984 342.39C216.984 342.425 216.993 342.459 217.01 342.49L217 342.52ZM220.93 344.75C220.94 344.789 220.939 344.829 220.929 344.868C220.918 344.906 220.898 344.942 220.87 344.97C220.801 345.061 220.709 345.133 220.604 345.177C220.498 345.221 220.383 345.236 220.27 345.22C219.61 345.17 218.64 344.22 217.63 342.78C218.95 343.29 220.63 344.09 220.91 344.67L220.93 344.75Z" fill="#C68B59"/>
    <path d="M217 342.6C218 343 220.55 343.21 221.12 342.46C221.25 342.29 221.34 341.99 221.02 341.58C220.898 341.427 220.747 341.301 220.575 341.208C220.403 341.115 220.215 341.058 220.02 341.04C218.71 340.88 217.02 342.22 216.93 342.27C216.906 342.293 216.886 342.321 216.874 342.352C216.862 342.383 216.857 342.417 216.86 342.45V342.45C216.86 342.488 216.874 342.525 216.9 342.553C216.926 342.58 216.962 342.597 217 342.6V342.6ZM220.82 341.99C220.846 342.027 220.859 342.07 220.859 342.115C220.859 342.16 220.846 342.203 220.82 342.24C220.48 342.68 218.6 342.68 217.48 342.37C218.209 341.808 219.091 341.481 220.01 341.43C220.148 341.444 220.282 341.487 220.402 341.556C220.523 341.625 220.628 341.718 220.71 341.83V341.83L220.85 341.97L220.82 341.99Z" fill="#C68B59"/>
    <path d="M171.35 341.63C173.77 343.75 177.24 345.69 182.66 347.21C184.37 347.69 183.29 350.87 179.19 350.78C172.4 350.68 175.1 350.56 169.3 350.44C164.3 350.34 163.03 350.3 159.09 350.27H159C158.8 350.268 158.604 350.225 158.422 350.144C158.24 350.064 158.076 349.947 157.94 349.801C157.805 349.655 157.7 349.483 157.633 349.295C157.566 349.108 157.537 348.909 157.55 348.71L158.86 341.01C158.904 340.833 159.01 340.677 159.158 340.571C159.307 340.465 159.488 340.415 159.67 340.43L170.03 340.71C170.89 340.65 170.67 341.13 171.35 341.63Z" fill="#263238"/>
    <path d="M171.38 342.26C172.65 343.19 174.96 344.67 176.38 344.39C176.589 344.363 176.789 344.286 176.963 344.166C177.137 344.046 177.28 343.886 177.38 343.7V343.7C177.444 343.606 177.478 343.494 177.478 343.38C177.478 343.266 177.444 343.154 177.38 343.06C176.67 342.01 172.16 341.87 171.65 341.87C171.604 341.869 171.56 341.883 171.524 341.91C171.487 341.937 171.461 341.976 171.45 342.02C171.426 342.05 171.414 342.087 171.414 342.125C171.414 342.163 171.426 342.2 171.45 342.23L171.38 342.26ZM176.98 343.26C177.007 343.296 177.021 343.34 177.021 343.385C177.021 343.43 177.007 343.474 176.98 343.51C176.918 343.629 176.83 343.732 176.723 343.812C176.616 343.891 176.491 343.945 176.36 343.97C175.58 344.1 174.06 343.5 172.3 342.3C174.05 342.39 176.38 342.66 176.9 343.19L176.98 343.26Z" fill="#C68B59"/>
    <path d="M171.559 342.31C172.879 342.4 176.019 341.76 176.399 340.82C176.509 340.6 176.489 340.27 175.949 339.95C175.543 339.71 175.064 339.621 174.599 339.7C172.979 339.96 171.469 341.92 171.389 341.99C171.368 342.019 171.356 342.054 171.356 342.09C171.356 342.126 171.368 342.161 171.389 342.19C171.428 342.25 171.489 342.293 171.559 342.31V342.31ZM175.849 340.38C175.989 340.52 175.949 340.61 176.009 340.65C175.779 341.21 173.549 341.8 172.089 341.87C172.774 341.022 173.697 340.399 174.739 340.08C175.082 340.008 175.439 340.068 175.739 340.25L175.899 340.41L175.849 340.38Z" fill="#C68B59"/>
    <path opacity="0.8" d="M173.88 128.83C175.59 148.53 182.13 159.63 181.25 175.37C181.25 175.37 216.75 176.07 217.97 176.07C218.49 147.07 222.63 149.28 221.36 130.92C221.58 124.92 217.99 121.13 214.52 120.53L199.52 117.44L180.03 120.79C178.184 121.116 176.527 122.123 175.388 123.612C174.25 125.101 173.711 126.963 173.88 128.83V128.83Z" fill="white"/>
    <path d="M210.75 158.14L206.75 165.26L199.51 157.55C199.51 157.36 202.61 125 202.61 125L204.48 124.86C204.3 128.79 210.75 158.14 210.75 158.14Z" fill="#C68B59"/>
    <path d="M209.55 123.63C211.264 137.461 209.849 151.499 205.41 164.71L208.41 197.05C209 201.74 212.01 202.66 214.7 202.91L220.22 202.47L218.22 171.61C218.22 171.61 222.73 137.61 221.69 129.91C221 124.83 219.32 122.85 218.12 121.82C217.605 121.387 216.99 121.092 216.33 120.96C214.23 120.52 208.05 118.85 208.33 118.96C208.61 119.07 209.55 123.63 209.55 123.63Z" fill="#263238"/>
    <path d="M206.62 109.46C205.86 113.07 204.69 117.99 208.62 119.67C210.33 120.41 211.14 122.81 209.5 123.58C207.86 124.35 197.24 123.58 196.31 123.14C194.01 121.96 192.39 121.14 193.63 118.84C195.79 114.91 194.42 106.69 194.13 102.74L206.62 109.46Z" fill="#FFC3BD"/>
    <path d="M205.539 123.2L205.049 124.75C205.015 124.928 204.928 125.092 204.799 125.22C204.671 125.348 204.507 125.435 204.329 125.47L202.459 125.61C202.308 125.611 202.161 125.564 202.039 125.476C201.917 125.388 201.826 125.263 201.779 125.12L200.869 123.74L203.199 122.37L205.539 123.2Z" fill="#C68B59"/>
    <path opacity="0.2" d="M196.61 108.45C197.178 109.837 197.991 111.111 199.01 112.21C200.46 113.87 203.19 114.6 205.83 114.6C205.92 112.852 206.181 111.117 206.61 109.42L206.06 109.13L196.61 108.45Z" fill="black"/>
    <path d="M191.998 202.79C200.998 203.4 203.498 202.47 204.748 195.45C204.748 195.45 207.128 170.28 206.658 164.71C206.658 164.71 200.658 153.01 199.478 144.88C198.198 135.79 192.618 117.59 191.008 117.71C187.918 117.92 176.388 121.96 174.518 124.43C172.038 127.72 173.648 131.52 174.238 135.6C176.118 148.67 177.528 153.17 178.238 166.35C178.238 166.35 172.238 200.35 173.158 200.47C173.858 200.54 184.818 202.3 191.998 202.79Z" fill="#263238"/>
    <path opacity="0.2" d="M181.249 175.37H196.609V176.06C196.609 177.036 196.221 177.972 195.531 178.662C194.841 179.352 193.905 179.74 192.929 179.74H184.929C183.953 179.74 183.017 179.352 182.327 178.662C181.637 177.972 181.249 177.036 181.249 176.06V175.37Z" fill="white"/>
    <path opacity="0.2" d="M218.569 179.91H216.409C215.433 179.948 214.481 179.598 213.762 178.937C213.042 178.275 212.613 177.356 212.569 176.38V175.7L218.509 175.45L218.569 179.91Z" fill="white"/>
    <path d="M212.67 104.4C211.67 111.55 203.38 115.67 197.56 110.85C194.19 108.07 193.56 104.61 192.68 99.1999C192.55 98.3799 192.42 97.5199 192.27 96.5999C192.029 95.1733 192.111 93.7107 192.51 92.3199C192.668 91.739 192.886 91.176 193.16 90.6399C194.161 88.6163 195.84 87.0077 197.905 86.0941C199.97 85.1805 202.289 85.0198 204.46 85.6399C211.59 87.7199 213.56 97.9999 212.67 104.4Z" fill="#FFC3BD"/>
    <path d="M195.55 91.2199C196.52 92.8067 197.34 94.4807 198 96.2199C197.361 96.3653 196.748 96.6046 196.18 96.9299C195.66 97.2599 196.18 98.8199 196.45 99.3999C196.936 100.57 197.501 101.706 198.14 102.8C197.213 103.194 196.243 103.476 195.25 103.64C194.978 102.881 194.533 102.196 193.95 101.64C193.612 101.227 193.157 100.925 192.646 100.773C192.134 100.621 191.588 100.627 191.08 100.79C190.9 99.8999 185.67 95.88 190.03 93.19C190.668 92.6831 191.371 92.2628 192.12 91.94L193.12 91.57C193.904 91.3169 194.726 91.1986 195.55 91.2199Z" fill="#263238"/>
    <path d="M191.32 98.9999C193.55 98.4899 195.62 100.94 196.32 102.8C197.14 104.86 196.16 106.97 193.86 106.56C193.003 106.397 192.187 106.065 191.46 105.584C190.732 105.104 190.107 104.484 189.62 103.76C189.312 103.362 189.109 102.892 189.029 102.395C188.95 101.898 188.998 101.389 189.167 100.915C189.336 100.44 189.622 100.017 189.999 99.6819C190.375 99.3473 190.829 99.1128 191.32 98.9999V98.9999Z" fill="#FFC3BD"/>
    <path d="M204.701 95.9999C205.071 95.9999 205.421 96.3899 205.481 96.9999C205.541 97.6099 205.331 98.0599 204.911 98.0999C204.491 98.1399 204.151 97.7099 204.091 97.0999C204.031 96.4899 204.331 96.0799 204.701 95.9999Z" fill="#263238"/>
    <path d="M211.109 95.58C211.479 95.58 211.829 95.97 211.889 96.58C211.949 97.19 211.699 97.6399 211.319 97.6799C210.939 97.7199 210.599 97.2899 210.539 96.7299C210.479 96.1699 210.739 95.63 211.109 95.58Z" fill="#263238"/>
    <path d="M209.489 102.71C209.971 102.729 210.452 102.641 210.896 102.453C211.341 102.265 211.738 101.98 212.059 101.62C210.653 100.393 209.424 98.9763 208.409 97.41L209.489 102.71Z" fill="#F98C8C"/>
    <path d="M203.17 95.0599C203.375 94.6947 203.663 94.3825 204.01 94.1481C204.357 93.9137 204.754 93.7637 205.17 93.7099H205.28C205.369 93.6952 205.448 93.6459 205.501 93.5728C205.553 93.4997 205.574 93.4088 205.56 93.3199C205.543 93.2324 205.493 93.1546 205.421 93.1025C205.348 93.0505 205.258 93.0281 205.17 93.0399C204.64 93.0901 204.129 93.2659 203.68 93.5529C203.232 93.8398 202.858 94.2296 202.59 94.6899C202.547 94.7665 202.535 94.8562 202.555 94.9413C202.576 95.0265 202.627 95.1009 202.7 95.1499C202.756 95.1643 202.814 95.1643 202.87 95.1499C202.978 95.1597 203.085 95.1275 203.17 95.0599Z" fill="#263238"/>
    <path d="M212.379 94.4799C212.449 94.4248 212.494 94.3449 212.505 94.2571C212.516 94.1694 212.492 94.0807 212.439 94.0099C212.118 93.5859 211.699 93.245 211.219 93.0154C210.739 92.7857 210.211 92.6742 209.679 92.6899V92.6899C209.636 92.6936 209.595 92.706 209.556 92.7263C209.518 92.7466 209.485 92.7744 209.458 92.808C209.43 92.8417 209.41 92.8804 209.399 92.922C209.387 92.9636 209.384 93.0071 209.389 93.0499V93.0499C209.402 93.134 209.446 93.21 209.513 93.2621C209.58 93.3143 209.665 93.3386 209.749 93.3299C210.17 93.3232 210.586 93.4168 210.964 93.6028C211.341 93.7889 211.669 94.0621 211.919 94.3999C211.953 94.4443 211.997 94.4794 212.048 94.5022C212.098 94.5249 212.154 94.5344 212.209 94.5299C212.269 94.524 212.326 94.507 212.379 94.4799V94.4799Z" fill="#263238"/>
    <path d="M201.22 159.16C199.97 154.76 198.53 150.32 195.92 146.57C194.98 145.21 193.92 143.96 192.92 142.57C191.579 140.8 190.347 138.949 189.23 137.03C190.33 136.03 191.78 135.03 192.96 134.11L188.5 130.42C189.621 126.181 190.136 121.804 190.03 117.42C190.519 117.071 191.126 116.927 191.72 117.02C193.852 120.33 195.404 123.979 196.31 127.81C198.871 138.094 200.514 148.585 201.22 159.16V159.16Z" fill="#263238"/>
    <path opacity="0.2" d="M206.13 163.61C206.06 163.52 206 163.41 205.93 163.3C203.09 158.88 190.17 138.7 189.27 137.02C190.38 136.02 191.83 135.02 193.01 134.1L188.55 130.41C189.666 126.17 190.181 121.794 190.08 117.41C190.566 117.062 191.169 116.919 191.76 117.01C193.106 119.098 194.225 121.324 195.1 123.65C195.605 125.005 196.023 126.391 196.35 127.8C198.88 137.74 201.52 153.94 205.97 163.17L206.13 163.61Z" fill="white"/>
    <path d="M212.569 161.29C212.499 156.71 212.569 152.05 213.999 147.7C214.509 146.13 215.189 144.62 215.719 143.05C216.399 141.05 218.469 138.57 218.889 136.47C217.549 135.86 215.889 135.24 214.469 134.75L217.679 129.93C215.379 126.2 211.869 123.16 210.679 118.93C210.111 118.738 209.491 118.773 208.949 119.03C208.239 121.38 209.359 128.22 209.419 129.66C209.919 140.29 210.229 150.92 212.569 161.29Z" fill="#263238"/>
    <path opacity="0.2" d="M218.889 136.47C216.399 143.29 211.209 157.47 206.129 163.61C205.969 163.8 205.819 163.98 205.659 164.15L205.929 163.3C205.926 163.253 205.926 163.207 205.929 163.16C210.559 148.16 209.929 140.01 209.439 129.62C209.379 128.18 208.259 121.15 208.969 118.81C209.237 118.68 209.527 118.605 209.824 118.588C210.121 118.57 210.418 118.612 210.699 118.71C211.869 122.93 215.379 126.15 217.699 129.88C216.639 131.49 215.569 133.09 214.499 134.7C215.849 135.24 217.549 135.86 218.889 136.47Z" fill="white"/>
    <path opacity="0.3" d="M173.46 131.72C173.46 131.72 176.53 138.62 183.94 148.81C191.47 159.16 195.7 159.16 195.7 159.16L201.22 160.82C201.22 160.82 199.8 134.72 183.76 130.82C179 129.63 172.44 131.75 173.46 131.72Z" fill="black"/>
    <path d="M236.199 148.71L227.949 149.09V153.63L236.199 152.47V148.71Z" fill="#FFC3BD"/>
    <path d="M233.83 151.7C233.66 155.7 238.54 156.61 238.54 156.61L241.08 158.69C241.486 159.039 242.004 159.231 242.54 159.231C243.075 159.231 243.593 159.039 244 158.69L246.1 156.9L246.16 156.85C246.596 156.449 246.856 155.891 246.883 155.299C246.909 154.707 246.699 154.128 246.3 153.69L244.59 151.8C243.898 151.028 243.049 150.414 242.1 150L236.2 148.71L233.83 151.7Z" fill="#FFC3BD"/>
    <path d="M174.27 126.22C172.57 129.54 173.33 133.38 175.37 136.5C180.01 143.56 195.31 152.94 198.37 155.01C205.29 159.73 233.37 154.23 233.37 154.23L233.78 147.3L203.78 145.8C203.78 145.8 193.71 129.03 186.78 123.91C183.29 121.35 176.65 121.57 174.27 126.22Z" fill="#263238"/>
    <path d="M196.48 84.73C196.014 84.6763 195.542 84.7226 195.095 84.8657C194.649 85.0089 194.238 85.2455 193.89 85.56C191.902 87.0565 190.512 89.2119 189.97 91.64C189.841 92.1351 189.841 92.6549 189.97 93.15C190.024 93.4027 190.154 93.6331 190.341 93.8115C190.528 93.9898 190.765 94.1077 191.02 94.15C191.722 93.4159 192.6 92.8722 193.57 92.57C195.524 91.9285 197.532 91.4633 199.57 91.18C203.27 90.6174 206.923 89.7818 210.5 88.68C211.21 88.47 212.02 88.15 212.21 87.44C212.4 86.73 210.87 85.57 211.12 85.34C211.51 84.96 212.05 84.62 212.05 84.08C212.044 83.8657 211.986 83.6562 211.88 83.47C211.731 83.1205 211.515 82.8037 211.244 82.5377C210.973 82.2718 210.652 82.0618 210.3 81.92C209.941 81.7973 209.549 81.8197 209.207 81.9823C208.865 82.1448 208.601 82.4347 208.47 82.79C208.36 82.1421 208.213 81.5011 208.03 80.87C207.854 80.5796 207.575 80.3656 207.25 80.27C206.751 80.1273 206.225 80.1093 205.717 80.2174C205.21 80.3255 204.737 80.5564 204.34 80.89C203.547 81.5642 202.871 82.365 202.34 83.26C201.3 84.78 198.3 85.15 196.48 84.73Z" fill="#263238"/>
    <path d="M205.819 103.8C205.804 103.785 205.792 103.767 205.783 103.747C205.775 103.728 205.771 103.706 205.771 103.685C205.771 103.663 205.775 103.642 205.783 103.622C205.792 103.603 205.804 103.585 205.819 103.57C205.847 103.542 205.885 103.527 205.924 103.527C205.964 103.527 206.001 103.542 206.029 103.57C206.486 104.051 207.051 104.418 207.676 104.641C208.302 104.863 208.971 104.935 209.629 104.85C209.673 104.847 209.716 104.861 209.749 104.889C209.783 104.917 209.804 104.957 209.809 105C209.812 105.041 209.799 105.081 209.773 105.113C209.747 105.144 209.71 105.165 209.669 105.17C208.965 105.263 208.248 105.188 207.579 104.949C206.91 104.711 206.306 104.317 205.819 103.8V103.8Z" fill="#263238"/>
    <path d="M191.71 117.34L194.25 116.54C196.839 119.388 200.058 121.59 203.65 122.97C202.027 123.95 200.732 125.392 199.93 127.11C191.43 123.75 191.71 117.34 191.71 117.34Z" fill="white"/>
    <path d="M208.64 117.78L206.33 117.17C206.33 117.17 205.15 121.98 202.72 122.55C206.83 124.38 207.42 126.48 207.42 126.48C213.54 124.83 208.64 117.78 208.64 117.78Z" fill="white"/>
    <path opacity="0.3" d="M203.839 165.9C203.825 166.082 203.757 166.257 203.645 166.401C203.532 166.545 203.38 166.653 203.206 166.711C203.033 166.769 202.846 166.774 202.669 166.727C202.493 166.679 202.334 166.58 202.213 166.443C202.092 166.306 202.015 166.136 201.99 165.955C201.965 165.773 201.994 165.589 202.074 165.424C202.154 165.26 202.28 165.122 202.437 165.029C202.595 164.935 202.776 164.891 202.959 164.9C203.082 164.908 203.203 164.94 203.314 164.994C203.425 165.048 203.525 165.124 203.606 165.217C203.688 165.31 203.751 165.418 203.791 165.535C203.831 165.653 203.847 165.776 203.839 165.9V165.9Z" fill="white"/>
</svg>
