<svg width="450" height="449" viewBox="0 0 450 449" fill="none" xmlns="http://www.w3.org/2000/svg">
<path d="M38.0192 164.526V195.858L17.6806 219.737C12.81 215.578 9.33118 210.025 7.7128 203.828C6.09442 197.631 6.41422 191.087 8.62912 185.077C10.844 179.067 14.8476 173.88 20.1006 170.215C25.3535 166.55 31.6035 164.584 38.0085 164.58L38.0192 164.526Z" fill="#EBEBEB"/>
<path d="M75.73 199.048C75.7388 205.038 74.0302 210.905 70.8066 215.954C67.5831 221.003 62.9798 225.022 57.5422 227.535C52.1046 230.048 46.0606 230.949 40.1263 230.133C34.192 229.316 28.6163 226.815 24.0597 222.927L44.3876 199.101V167.716C48.5029 167.713 52.5785 168.522 56.3811 170.095C60.1837 171.669 63.6388 173.977 66.5488 176.887C69.4588 179.797 71.7665 183.252 73.3401 187.054C74.9137 190.857 75.7222 194.932 75.7194 199.048H75.73Z" fill="#EBEBEB"/>
<path d="M75.73 199.048C75.7388 205.038 74.0302 210.905 70.8066 215.954C67.5831 221.003 62.9798 225.022 57.5422 227.535C52.1046 230.048 46.0606 230.949 40.1263 230.133C34.192 229.316 28.6163 226.815 24.0597 222.927L44.3876 199.101V167.716C48.5029 167.713 52.5785 168.522 56.3811 170.095C60.1837 171.669 63.6388 173.977 66.5488 176.887C69.4588 179.797 71.7665 183.252 73.3401 187.054C74.9137 190.857 75.7222 194.932 75.7194 199.048H75.73Z" fill="#DBDBDB"/>
<path d="M24.6019 140.169H23.5387V180.581H24.6019V140.169Z" fill="#C7C7C7"/>
<path d="M24.0597 140.701C23.3926 140.701 22.7406 140.503 22.1861 140.132C21.6317 139.761 21.1997 139.234 20.9449 138.618C20.6902 138.001 20.624 137.323 20.7549 136.669C20.8859 136.015 21.2079 135.414 21.6803 134.944C22.1527 134.473 22.7542 134.153 23.4087 134.024C24.0632 133.895 24.7411 133.963 25.3568 134.22C25.9724 134.477 26.4981 134.91 26.8671 135.466C27.2362 136.021 27.432 136.674 27.4299 137.341C27.4271 138.233 27.0708 139.088 26.439 139.717C25.8073 140.347 24.9517 140.701 24.0597 140.701ZM24.0597 135.034C23.6034 135.034 23.1573 135.169 22.7779 135.423C22.3985 135.676 22.1028 136.037 21.9282 136.458C21.7536 136.88 21.7079 137.344 21.7969 137.791C21.8859 138.239 22.1056 138.65 22.4283 138.972C22.751 139.295 23.162 139.515 23.6096 139.604C24.0571 139.693 24.521 139.647 24.9425 139.473C25.3641 139.298 25.7244 139.002 25.9779 138.623C26.2314 138.243 26.3667 137.797 26.3667 137.341C26.3667 136.729 26.1237 136.142 25.691 135.71C25.2584 135.277 24.6715 135.034 24.0597 135.034Z" fill="#C7C7C7"/>
<path d="M64.0564 134.502H32.6608V135.916H64.0564V134.502Z" fill="#C7C7C7"/>
<path d="M50.4265 137.341H32.6608V138.755H50.4265V137.341Z" fill="#C7C7C7"/>
<path d="M398.234 44.9617C397.299 51.2721 394.571 57.1812 390.375 61.986C386.178 66.7908 380.69 70.289 374.563 72.0646C368.436 73.8401 361.927 73.8182 355.812 72.0015C349.697 70.1848 344.232 66.6498 340.068 61.8169C335.904 56.984 333.216 51.0567 332.324 44.7401C331.431 38.4235 332.372 31.9835 335.034 26.1861C337.696 20.3888 341.967 15.4781 347.34 12.0384C352.712 8.59859 358.96 6.77447 365.339 6.78299V40.0604L398.234 44.9617Z" fill="#DBDBDB"/>
<path d="M405.378 33.2987C405.377 34.932 405.256 36.563 405.017 38.1787L372.059 33.2987V1.69852e-06C376.432 -0.00139528 380.762 0.858947 384.803 2.53187C388.844 4.20479 392.515 6.6575 395.607 9.74985C398.7 12.8422 401.152 16.5136 402.825 20.5542C404.498 24.5948 405.359 28.9254 405.357 33.2987H405.378Z" fill="#EBEBEB"/>
<path d="M404.315 51.8298H368.901V52.893H404.315V51.8298Z" fill="#C7C7C7"/>
<path d="M406.803 55.3809C406.206 55.3809 405.622 55.2038 405.126 54.872C404.629 54.5402 404.242 54.0687 404.014 53.5169C403.785 52.9652 403.725 52.3581 403.842 51.7724C403.958 51.1867 404.246 50.6487 404.668 50.2264C405.09 49.8041 405.628 49.5166 406.214 49.4001C406.8 49.2836 407.407 49.3434 407.959 49.5719C408.51 49.8004 408.982 50.1874 409.314 50.684C409.645 51.1805 409.823 51.7643 409.823 52.3615C409.823 53.1623 409.504 53.9303 408.938 54.4965C408.372 55.0628 407.604 55.3809 406.803 55.3809ZM406.803 50.4158C406.416 50.4159 406.037 50.5309 405.715 50.7463C405.393 50.9617 405.143 51.2679 404.995 51.6259C404.847 51.984 404.809 52.3779 404.885 52.7577C404.962 53.1374 405.149 53.486 405.424 53.7591C405.698 54.0323 406.048 54.2178 406.428 54.292C406.808 54.3663 407.202 54.3261 407.559 54.1764C407.916 54.0267 408.221 53.7743 408.435 53.4512C408.649 53.1281 408.761 52.7488 408.759 52.3615C408.759 52.1051 408.709 51.8512 408.61 51.6144C408.512 51.3777 408.368 51.1627 408.186 50.9819C408.004 50.8011 407.788 50.658 407.551 50.5609C407.314 50.4637 407.06 50.4144 406.803 50.4158Z" fill="#C7C7C7"/>
<path d="M443.302 50.5007H415.798V51.7446H443.302V50.5007Z" fill="#C7C7C7"/>
<path d="M431.363 52.9888H415.798V54.2327H431.363V52.9888Z" fill="#C7C7C7"/>
<path d="M284.825 355.346H445.545L448.884 289.407H281.487L284.825 355.346Z" fill="#EBEBEB"/>
<path d="M437.922 319.591H370.74L369.475 296.701H439.4L437.922 319.591ZM371.506 318.783H437.167L438.528 297.519H370.336L371.506 318.783Z" fill="#DBDBDB"/>
<path d="M436.689 345.926H373.366L372.303 325.268H437.944L436.689 345.926ZM374.142 345.118H435.924L437.114 326.055H373.196L374.142 345.118Z" fill="#DBDBDB"/>
<path d="M410.801 310.628H399.51L398.797 305.11H411.556L410.801 310.628ZM400.222 309.82H410.088L410.588 305.918H399.722L400.222 309.82Z" fill="#DBDBDB"/>
<path d="M410.801 338.356H399.51L398.797 332.838H411.556L410.801 338.356ZM400.222 337.548H410.088L410.588 333.646H399.722L400.222 337.548Z" fill="#DBDBDB"/>
<path d="M358.896 319.591H291.704L290.439 296.701H360.364L358.896 319.591ZM292.469 318.783H358.131L359.502 297.519H291.3L292.469 318.783Z" fill="#DBDBDB"/>
<path d="M357.653 345.926H294.33L293.267 325.268H358.96L357.653 345.926ZM295.106 345.118H356.887L358.078 326.055H294.16L295.106 345.118Z" fill="#DBDBDB"/>
<path d="M331.764 310.628H320.473L319.761 305.11H332.519L331.764 310.628ZM321.186 309.82H331.052L331.562 305.918H320.686L321.186 309.82Z" fill="#DBDBDB"/>
<path d="M331.764 338.356H320.473L319.761 332.838H332.519L331.764 338.356ZM321.186 337.548H331.052L331.562 333.646H320.686L321.186 337.548Z" fill="#DBDBDB"/>
<path d="M299.242 355.345L298.232 362.533L296.201 376.97H292.235V355.345H299.242Z" fill="#EBEBEB"/>
<path d="M299.242 355.345L298.232 362.533H292.235V355.345H299.242Z" fill="#DBDBDB"/>
<path d="M431.129 355.345L432.139 362.533L434.169 376.97H438.135V355.345H431.129Z" fill="#EBEBEB"/>
<path d="M431.129 355.345L432.139 362.533H438.135V355.345H431.129Z" fill="#DBDBDB"/>
<path d="M420.986 289.365V240.746H408.738V289.365H420.986Z" fill="#C7C7C7"/>
<path d="M420.975 243.499V238.152H408.727V243.499H420.975Z" fill="#DBDBDB"/>
<path d="M420.986 252.324V250.346H408.738V252.324H420.986Z" fill="#DBDBDB"/>
<path d="M420.986 283.007V277.659H408.738V283.007H420.986Z" fill="#DBDBDB"/>
<path d="M408.738 289.375V232.655H400.18V289.375H408.738Z" fill="#DBDBDB"/>
<path d="M407.069 259.798V237.981H401.934V259.798H407.069Z" fill="#EBEBEB"/>
<path d="M345.251 289.345L385.588 249.469L379.571 243.383L339.234 283.258L345.251 289.345Z" fill="#C7C7C7"/>
<path d="M353.498 278.751L369.013 263.414L365.403 259.762L349.888 275.099L353.498 278.751Z" fill="#DBDBDB"/>
<path d="M400.19 289.375V246.295H385.657V289.375H400.19Z" fill="#A6A6A6"/>
<path d="M400.19 284.825V280.806H385.657V284.825H400.19Z" fill="#C7C7C7"/>
<path d="M400.19 278.159V276.607H385.657V278.159H400.19Z" fill="#C7C7C7"/>
<path d="M446.068 285.438L430.099 248.235L420.877 252.193L436.845 289.397L446.068 285.438Z" fill="#A6A6A6"/>
<path d="M444.369 281.493L442.881 278.025L433.658 281.983L435.146 285.452L444.369 281.493Z" fill="#C7C7C7"/>
<path d="M434.887 259.379L433.399 255.911L424.176 259.869L425.665 263.338L434.887 259.379Z" fill="#C7C7C7"/>
<path d="M436.509 263.092L435.93 261.744L426.708 265.703L427.286 267.051L436.509 263.092Z" fill="#C7C7C7"/>
<path d="M225 448.203C331.156 448.203 417.212 436.617 417.212 422.325C417.212 408.034 331.156 396.448 225 396.448C118.844 396.448 32.7884 408.034 32.7884 422.325C32.7884 436.617 118.844 448.203 225 448.203Z" fill="#EBEBEB"/>
<path d="M0 376.971L56.2527 376.705L112.495 376.62L225 376.439L337.505 376.609L393.758 376.705L450 376.971L393.758 377.226L337.505 377.321L225 377.502L112.495 377.321L56.2527 377.226L0 376.971Z" fill="#263238"/>
<path d="M167.812 409.015H161.932L203.152 243.85H217.802L167.812 409.015Z" fill="#455A64"/>
<path d="M217.813 243.861L210.413 268.271H197.06L203.141 243.871L203.152 243.861H217.813Z" fill="#263238"/>
<path d="M224.872 400.243H218.993L223.373 243.85H238.024L224.872 400.243Z" fill="#455A64"/>
<path d="M238.024 243.861L235.972 268.271H222.693L223.373 243.871V243.861H238.024Z" fill="#263238"/>
<path d="M282.188 409.015H288.068L255.619 243.85H240.969L282.188 409.015Z" fill="#455A64"/>
<path d="M260.414 268.271H247.061L240.958 243.861H255.619L255.63 243.871L260.414 268.271Z" fill="#263238"/>
<path d="M270.132 338.26H184.599V341.482H270.132V338.26Z" fill="#455A64"/>
<path d="M378.268 31.5125H71.7219V257.703H378.268V31.5125Z" fill="#EBEBEB"/>
<path d="M389.505 22.4968H60.5054V39.2631H389.505V22.4968Z" fill="#37474F"/>
<path d="M275.278 54.4984H174.722V57.1138H275.278V54.4984Z" fill="#C7C7C7"/>
<path d="M258.086 59.9631H191.914V62.5785H258.086V59.9631Z" fill="#C7C7C7"/>
<path d="M139.733 87.8502H109.018V90.4656H139.733V87.8502Z" fill="#C7C7C7"/>
<path d="M128.283 93.3149H109.018V95.9304H128.283V93.3149Z" fill="#C7C7C7"/>
<path d="M323.323 230.167H295.627V232.782H323.323V230.167Z" fill="#C7C7C7"/>
<path d="M314.892 235.632H295.627V238.247H314.892V235.632Z" fill="#C7C7C7"/>
<path d="M326.831 76.8784H310.533V79.0686H326.831V76.8784Z" fill="#C7C7C7"/>
<path d="M336.102 81.4607H310.533V83.6508H336.102V81.4607Z" fill="#C7C7C7"/>
<path d="M118.342 173.106H109.018V182.43H118.342V173.106Z" fill="#C68B59"/>
<path d="M118.342 190.436H109.018V199.76H118.342V190.436Z" fill="#455A64"/>
<path d="M118.342 207.755H109.018V217.079H118.342V207.755Z" fill="#37474F"/>
<path d="M118.342 225.085H109.018V234.409H118.342V225.085Z" fill="#C7C7C7"/>
<path d="M304.611 128.495H298.38L223.799 153.097H230.029L304.611 128.495Z" fill="#C7C7C7"/>
<path d="M230.029 153.097H223.799L298.38 177.71H304.611L230.029 153.097Z" fill="#C7C7C7"/>
<path d="M230.029 73.4762V153.097L304.611 128.496C293.904 95.0374 264.678 73.4762 230.029 73.4762Z" fill="#37474F"/>
<path d="M232.325 73.5081L230.039 77.4312V76.974L232.07 73.4974L232.325 73.5081ZM234.696 73.6038L230.039 84.1505V84.7671L234.962 73.625L234.696 73.6038ZM243.319 74.5606L230.039 96.6534V97.2275L243.648 74.6138L243.319 74.5606ZM245.19 74.9008L230.039 107.774V108.572L245.509 74.954L245.19 74.9008ZM252.568 84.2036L256.693 78.0159L256.321 77.8777L252.249 83.991L240.097 102.224L230.039 117.311V117.981L240.416 102.426L252.568 84.2036ZM257.246 78.2073L230.039 126.518V127.379L257.618 78.3349L257.246 78.2073ZM266.634 82.3643L230.039 131.037V131.77L267.049 82.5876L266.634 82.3643ZM267.495 82.8215L230.039 140.935V141.86L267.91 83.0554L267.495 82.8215ZM275.586 87.9141L230.039 143.337V144.167L276.032 88.2437L275.586 87.9141ZM276.543 88.6158L234.09 151.758L235.004 151.46L277 88.9667L276.543 88.6158ZM283.613 94.5696L236.195 151.067L237.258 150.716L284.038 94.9523L283.613 94.5696ZM284.4 95.3245L247.188 147.42L248.007 147.154L284.804 95.6966C284.655 95.5902 284.538 95.452 284.4 95.3457V95.3245ZM290.609 102.193L251.09 146.155L252.047 145.836L290.917 102.565L290.609 102.193ZM291.587 103.436L263.125 142.179L263.838 141.945L291.874 103.851L291.587 103.436ZM296.562 110.719L269.536 140.074L270.323 139.808L296.764 111.102C296.705 110.97 296.637 110.843 296.562 110.719ZM297.307 111.963L277.765 137.352L278.361 137.16L297.498 112.303L297.307 111.963ZM301.485 120.192L287.972 134.013L288.631 133.79L301.612 120.511L301.485 120.192ZM302.197 121.883L294.106 131.962L294.606 131.791L302.304 122.223C302.276 122.121 302.241 122.021 302.197 121.925V121.883Z" fill="#263238"/>
<path d="M230.029 73.4762H223.799V153.097H230.029V73.4762Z" fill="#263238"/>
<path d="M230.029 153.097H223.799L149.227 177.71H155.458L230.029 153.097Z" fill="#C68B59"/>
<path d="M230.029 153.097L155.458 177.71C160.447 193.603 170.358 207.499 183.76 217.392C197.162 227.285 213.361 232.663 230.018 232.751C238.259 232.745 246.447 231.42 254.269 228.827C278.977 220.684 296.584 202.801 304.611 177.71L230.029 153.097Z" fill="#C68B59"/>
<path d="M155.458 177.71H149.227C154.216 193.604 164.126 207.501 177.528 217.394C190.93 227.287 207.13 232.665 223.788 232.75H230.018C213.361 232.663 197.162 227.285 183.76 217.392C170.358 207.499 160.447 193.603 155.458 177.71Z" fill="#C68B59"/>
<g opacity="0.1">
<path opacity="0.1" d="M155.458 177.71H149.227C154.216 193.604 164.126 207.501 177.528 217.394C190.93 227.287 207.13 232.665 223.788 232.75H230.018C213.361 232.663 197.162 227.285 183.76 217.392C170.358 207.499 160.447 193.603 155.458 177.71Z" fill="black"/>
</g>
<path opacity="0.1" d="M155.67 177.635L155.543 178.05L155.67 177.635Z" fill="black"/>
<path opacity="0.1" d="M158.86 176.583L158.02 184.652C158.016 184.624 158.016 184.596 158.02 184.567L158.828 176.583H158.86ZM167.291 173.808L161.209 191.191C161.212 191.212 161.212 191.234 161.209 191.255L167.376 173.776L167.291 173.808ZM170.289 172.819L166.664 200.026L166.749 200.143L170.374 172.787L170.289 172.819ZM175.605 171.054L167.907 201.663L167.982 201.77L175.764 170.937L175.605 171.054ZM177.731 170.363L173.797 208.638C173.838 208.689 173.884 208.735 173.936 208.776L177.869 170.363H177.731ZM184.036 168.237L175.031 209.871L175.169 210.009L184.206 168.216L184.036 168.237ZM185.577 167.727L182.122 216.091L182.324 216.239L185.769 167.663L185.577 167.727ZM183.27 216.962C183.333 217.018 183.401 217.068 183.472 217.111L191.85 165.654L191.595 165.749L183.27 216.962ZM193.636 165.069L193.339 223.416L193.615 223.565L193.891 164.984L193.636 165.069ZM194.2 223.873L194.476 224.011L200.855 162.677L200.526 162.794L194.2 223.873ZM202.354 162.209L202.035 162.326L202.982 227.817L203.343 227.956L202.354 162.209ZM203.673 228.126L204.024 228.253L209.02 160.061L208.627 160.199L203.673 228.126ZM210.19 159.678L209.797 159.806L212.412 230.731C212.55 230.731 212.699 230.805 212.848 230.826L210.19 159.678ZM213.209 230.911C213.352 230.953 213.498 230.985 213.645 231.007L218.174 157.01L217.696 157.169L213.209 230.911ZM223.15 232.336L219.312 156.67L218.834 156.829L222.64 232.432H223.15H223.66L225.787 154.448L225.223 154.628L223.15 232.336ZM233.186 232.219L227.009 154.129L226.457 154.309L232.687 232.729C232.85 232.74 233.013 232.74 233.176 232.729H233.229H233.707L235.047 154.82L234.537 154.66L233.186 232.219ZM236.046 155.107L235.536 154.947L243.138 231.645L243.584 231.57L236.046 155.107ZM241.66 156.967L243.584 231.57L244.031 231.485L242.085 157.063L241.66 156.967ZM243.031 157.414L242.585 157.265L254.046 228.934L254.28 228.859H254.407L243.031 157.414ZM253.663 214.996L251.93 194.093L249.038 159.402L248.688 159.285L251.579 194.083L253.312 214.996L254.184 225.447L254.461 228.774L254.822 228.647L254.556 225.457L253.663 214.996ZM250.282 159.806L249.91 159.689L265.666 224.171L265.943 224.033L250.282 159.806ZM258.65 162.57L266.591 223.692L266.868 223.554L258.926 162.666L258.65 162.57ZM260.17 163.07L259.883 162.974L274.501 218.982L274.703 218.844L260.17 163.07ZM278.775 169.215L284.187 211.157L284.336 211.019L278.924 169.258L278.775 169.215ZM280.572 169.811H280.423L291.47 203.12L291.565 203.003L280.572 169.811ZM268.356 165.77L275.852 218.036C275.924 217.998 275.992 217.951 276.054 217.898L268.558 165.802L268.356 165.77ZM275.48 185.131L270.536 168.12L270.004 166.291L269.792 166.217L270.355 168.173L275.299 185.184L283.166 212.104L283.305 211.987L275.48 185.131ZM285.601 171.437L292.278 201.961C292.309 201.924 292.337 201.885 292.363 201.844L285.707 171.469L285.601 171.437ZM287.175 171.958H287.058L296.382 195.901C296.382 195.901 296.435 195.901 296.435 195.816L287.175 171.958ZM292.023 173.553L297.339 194.242C297.339 194.242 297.339 194.189 297.339 194.157L292.023 173.574V173.553ZM294.702 174.435H294.638L301.325 186.396L294.702 174.435ZM299.561 176.041L302.431 183.749L299.571 176.094L299.561 176.041ZM304.09 177.54C304.239 177.731 304.377 177.923 304.504 178.125C304.355 177.912 304.228 177.721 304.09 177.54Z" fill="black"/>
<path d="M230.029 73.4762C186.726 73.4762 151.641 109.167 151.641 153.097C151.571 161.456 152.867 169.77 155.479 177.71L230.05 153.097L230.029 73.4762Z" fill="#455A64"/>
<path d="M230.029 136.565V137.171L160.859 115.546L161.114 115.036L230.029 136.565ZM160.412 116.45L230.029 145.772V145.209L160.657 115.961C160.572 116.12 160.486 116.28 160.412 116.45ZM166.791 106.084C166.672 106.233 166.562 106.389 166.462 106.552L230.071 128.4V127.858L166.791 106.084ZM165.855 107.413L230.071 135.236V134.598L166.174 106.956C166.026 107.094 165.909 107.253 165.813 107.413H165.855ZM181.931 90.2424L181.601 90.5082L230.029 109.167V108.805L181.931 90.2424ZM180.24 91.6245L230.071 115.993V115.546L180.57 91.3587C180.441 91.4404 180.317 91.5291 180.198 91.6245H180.24ZM173.968 97.472C173.84 97.5889 173.723 97.7165 173.617 97.8335L230.071 118.034V117.672L173.968 97.472ZM172.447 99.088L230.071 126.433V125.88L172.734 98.7478L172.447 99.088ZM205.406 77.4843L205.119 77.5693L230.05 89.6895V89.4663L205.406 77.4843ZM201.918 78.7388L230.05 95.7496V95.4519L202.205 78.6538L201.918 78.7388ZM191.808 83.5656C191.694 83.6195 191.584 83.6798 191.478 83.7464L230.05 99.4389V99.1412L191.808 83.5656ZM189.341 85.0222L230.05 106.498V106.137L189.649 84.8733L189.341 85.0222ZM218.621 74.3054H218.387L230.029 80.4612V80.3123L218.621 74.3054ZM213.401 75.2729L229.986 86.4894V86.2661L213.635 75.2197C213.569 75.2298 213.505 75.2476 213.443 75.2729H213.401ZM226.297 73.5718H226.106L229.986 76.3998V76.2085L226.297 73.5718ZM151.875 160.933L183.153 168.545L183.547 168.407L151.853 160.688C151.949 160.774 151.949 160.859 151.96 160.933H151.875ZM151.747 159.264C151.747 159.349 151.747 159.434 151.747 159.519L194.136 164.909L194.721 164.718L151.747 159.264ZM153.544 171.139L165.739 174.329L166.026 174.233L153.501 171.044C153.541 171.079 153.584 171.111 153.629 171.139H153.544ZM153.331 170.215C153.325 170.275 153.325 170.335 153.331 170.395L171.948 172.224L172.383 172.086L153.331 170.215ZM151.641 150.206L200.547 162.804L201.047 162.645L151.63 149.887C151.628 149.993 151.631 150.099 151.641 150.206ZM151.705 148.866C151.699 148.976 151.699 149.086 151.705 149.196L214.549 158.201L215.293 157.956L151.705 148.866ZM165.526 140.467L155.054 137.277L153.278 136.735C153.278 136.863 153.225 136.99 153.204 137.118L154.937 137.649L165.409 140.839L186.354 147.282L218.089 157.01L218.674 156.808L186.47 146.888L165.526 140.467ZM153.395 136.15C153.395 136.278 153.331 136.406 153.31 136.533L228.466 153.608L229.242 153.353L153.395 136.15ZM156.212 126.178L229.316 153.31L229.976 153.097L156.372 125.742C156.309 125.884 156.256 126.029 156.212 126.178ZM156.616 125.061C156.554 125.21 156.501 125.363 156.457 125.519L230.029 146.931V146.378L156.616 125.061Z" fill="#37474F"/>
<path d="M230.029 73.4762H223.799C180.495 73.4762 145.389 109.125 145.389 153.097C145.319 161.456 146.616 169.77 149.227 177.71H155.458C152.853 169.769 151.564 161.455 151.641 153.097C151.641 109.167 186.726 73.4762 230.029 73.4762Z" fill="#37474F"/>
<path d="M272.258 105.797C272.719 102.177 273.897 98.6852 275.724 95.5264C277.513 92.3121 279.924 89.4859 282.816 87.2124L283.336 86.7658L283.911 86.3831L285.059 85.6176L286.207 84.8627C286.6 84.6288 287.015 84.4375 287.43 84.2248C288.248 83.8208 289.067 83.4062 289.896 83.0234L292.48 82.1197L293.777 81.6945L295.116 81.4074L297.785 80.8439C298.683 80.7004 299.588 80.6046 300.496 80.5569L303.197 80.3442V80.4612C301.421 80.7801 299.635 81.0247 297.881 81.3862L295.287 82.0878L293.99 82.4281L292.746 82.9171L290.247 83.8846C289.45 84.2674 288.674 84.7033 287.887 85.1073C287.493 85.3199 287.089 85.5006 286.707 85.7239L285.644 86.4681L284.58 87.2124L284.028 87.5845L283.528 88.0204C280.728 90.2127 278.337 92.8835 276.468 95.9091C275.969 96.6534 275.575 97.4614 275.129 98.2269C274.682 98.9924 274.353 99.8429 274.002 100.662C273.268 102.318 272.685 104.036 272.258 105.797Z" fill="#263238"/>
<path d="M300.145 85.1392L299.348 84.4375L302.803 80.5038L298.625 77.3355L299.263 76.4956L304.355 80.3443L300.145 85.1392Z" fill="#263238"/>
<path d="M266.177 201.196C266.422 202.785 266.777 204.355 267.24 205.895C267.485 206.671 267.74 207.426 268.005 208.181C268.271 208.935 268.59 209.68 268.92 210.403C270.215 213.332 271.892 216.077 273.906 218.568C276.923 222.297 280.603 225.437 284.761 227.828C286.143 228.636 287.621 229.274 289.067 230.029L289.014 230.167L286.739 229.295C285.966 229.038 285.216 228.718 284.495 228.338C283.021 227.626 281.6 226.809 280.243 225.893C274.774 222.186 270.58 216.885 268.229 210.711C267.027 207.673 266.334 204.458 266.177 201.196Z" fill="#263238"/>
<path d="M284.144 232.751L283.772 231.751L288.674 229.901L286.462 225.149L287.43 224.702L290.12 230.486L284.144 232.751Z" fill="#263238"/>
<path d="M174.85 107.115C174.098 105.959 173.274 104.851 172.383 103.798C171.524 102.73 170.601 101.714 169.619 100.757C167.704 98.8383 165.562 97.1603 163.24 95.7602C160.919 94.3594 158.377 93.3602 155.723 92.8046C155.054 92.677 154.394 92.5069 153.725 92.4112L151.641 92.2624C150.958 92.2092 150.272 92.2092 149.589 92.2624L147.526 92.3368V92.1667C150.269 91.5909 153.093 91.5188 155.862 91.954L156.925 92.1135L157.988 92.4006C158.658 92.6132 159.359 92.7408 160.008 93.0172L161.964 93.8465C162.602 94.1442 163.198 94.5163 163.814 94.9097C166.226 96.3433 168.406 98.1358 170.278 100.226C172.124 102.292 173.663 104.612 174.85 107.115Z" fill="#263238"/>
<path d="M150.514 87.5739L151.322 88.2543L147.941 92.2625L152.183 95.3457L151.556 96.2068L146.389 92.4432L150.514 87.5739Z" fill="#263238"/>
<path d="M403.964 370.528C403.964 370.528 405.028 412.651 405.028 412.672C405.028 420.465 404.836 427.291 404.422 430.81V430.863C404.41 431.698 404.21 432.519 403.837 433.266V433.319C401.508 434.882 339.291 436.508 337.101 435.817C334.911 435.126 336.665 428.853 339.026 426.865C341.386 424.877 364.946 413.608 364.946 413.608L364.265 371.506L403.964 370.528Z" fill="#FFBE9D"/>
<path d="M405.102 404.315C405.102 404.315 405.038 412.651 405.038 412.672C405.038 420.465 404.847 427.291 404.432 430.81V430.863C404.328 431.683 404.132 432.489 403.848 433.266V433.319C401.519 434.882 339.302 436.508 337.112 435.817C334.922 435.126 336.676 428.854 339.036 426.865C341.397 424.877 364.957 413.608 364.957 413.608V405.102L405.102 404.315Z" fill="white"/>
<path d="M361.087 413.629C365.222 412.948 370.262 413.682 373.356 416.691C373.473 416.808 373.302 416.978 373.175 416.935C369.256 415.578 365.204 414.644 361.087 414.15C361.026 414.137 360.972 414.105 360.934 414.057C360.895 414.01 360.874 413.95 360.874 413.889C360.874 413.828 360.895 413.768 360.934 413.721C360.972 413.673 361.026 413.641 361.087 413.629Z" fill="#263238"/>
<path d="M358.088 415.362C362.235 414.681 367.264 415.415 370.357 418.424C370.474 418.541 370.304 418.711 370.177 418.668C366.258 417.311 362.206 416.378 358.088 415.883C358.028 415.871 357.974 415.838 357.936 415.79C357.897 415.743 357.875 415.684 357.875 415.622C357.875 415.561 357.897 415.502 357.936 415.454C357.974 415.407 358.028 415.374 358.088 415.362Z" fill="#263238"/>
<path d="M355.069 417.095C359.215 416.404 364.244 417.148 367.338 420.157C367.455 420.274 367.338 420.444 367.157 420.401C363.243 419.043 359.194 418.11 355.08 417.616C355.019 417.605 354.964 417.573 354.925 417.527C354.885 417.48 354.862 417.421 354.861 417.36C354.86 417.298 354.88 417.238 354.918 417.19C354.956 417.142 355.009 417.108 355.069 417.095Z" fill="#263238"/>
<path d="M337.069 435.817C339.26 436.498 401.477 434.882 403.805 433.319C404.698 432.734 404.996 423.655 405.028 412.683V412.332L364.882 412.927V413.607C364.882 413.607 341.343 424.877 338.962 426.865C336.58 428.853 334.879 435.158 337.069 435.817Z" fill="#37474F"/>
<path d="M405.038 412.332V412.683C405.038 423.655 404.698 432.734 403.805 433.319C402.742 434.031 389.261 434.754 374.695 435.275C357.259 435.892 338.26 436.189 337.069 435.828C334.879 435.147 336.644 428.853 338.994 426.865C341.343 424.877 364.914 413.607 364.914 413.607V412.927L378.299 412.725L405.038 412.332Z" fill="#C68B59"/>
<path d="M337.697 433.436C348.169 432.904 390.494 431.756 400.892 432.032C400.977 432.032 400.977 432.085 400.892 432.096C390.515 432.851 348.19 433.648 337.697 433.606C337.495 433.563 337.495 433.436 337.697 433.436Z" fill="#263238"/>
<path opacity="0.1" d="M378.267 412.725C377.289 419.455 375.79 429.364 374.695 435.275C357.259 435.892 338.26 436.189 337.069 435.828C334.879 435.147 336.644 428.854 338.994 426.865C341.343 424.877 364.914 413.608 364.914 413.608V412.927L378.267 412.725Z" fill="black"/>
<path d="M408.653 412.906L363.628 413.331C363.628 413.331 361.076 340.036 360.885 315.582C360.661 287.663 362.245 203.949 362.245 203.949H395.906C395.906 203.949 404.932 222.406 399.776 243.18L398.351 317.9L408.653 412.906Z" fill="#37474F"/>
<path d="M405.315 405.028C404.126 404.868 402.93 404.772 401.732 404.741C400.403 404.645 399.074 404.549 397.745 404.485C395.183 404.379 392.62 404.337 390.058 404.326C384.88 404.326 379.713 404.326 374.546 404.507C371.612 404.602 368.667 404.719 365.733 404.879C365.707 404.879 365.683 404.889 365.665 404.907C365.647 404.925 365.637 404.949 365.637 404.974C365.637 405 365.647 405.024 365.665 405.042C365.683 405.06 365.707 405.07 365.733 405.07C370.857 405.251 375.992 405.336 381.117 405.432C386.241 405.527 391.366 405.634 396.48 405.538C397.958 405.538 399.425 405.538 400.892 405.41C402.359 405.283 403.858 405.41 405.293 405.198C405.379 405.187 405.421 405.038 405.315 405.028Z" fill="#263238"/>
<path d="M366.87 364.563C366.349 352.443 365.967 340.312 365.626 328.181C364.967 303.927 364.793 279.665 365.105 255.396C365.275 241.788 365.637 228.179 366.041 214.57C366.041 214.411 365.818 214.422 365.807 214.57C364.521 238.938 364.021 263.338 364 287.738C363.978 312.138 364.478 336.272 365.679 360.513C366.349 374.111 367.179 387.719 368.454 401.285C368.454 401.311 368.464 401.335 368.482 401.353C368.5 401.371 368.525 401.381 368.55 401.381C368.575 401.381 368.6 401.371 368.618 401.353C368.636 401.335 368.646 401.311 368.646 401.285C368.093 389.038 367.402 376.8 366.87 364.563Z" fill="#263238"/>
<path d="M355.771 377.226C355.771 377.226 355.43 417.935 355.43 417.956C355.43 425.738 355.25 432.564 354.835 436.094C354.839 436.111 354.839 436.129 354.835 436.147C354.834 436.983 354.634 437.807 354.25 438.55C354.255 438.567 354.255 438.585 354.25 438.603C351.933 440.166 289.716 441.792 287.525 441.101C285.335 440.41 287.079 434.137 289.45 432.149C291.821 430.161 315.37 418.881 315.37 418.881L316.093 378.204L355.771 377.226Z" fill="#FFBE9D"/>
<path d="M355.537 409.599C355.537 409.599 355.462 417.935 355.462 417.956C355.462 425.738 355.282 432.564 354.867 436.094C354.871 436.111 354.871 436.129 354.867 436.147C354.767 436.968 354.571 437.775 354.282 438.55C354.287 438.567 354.287 438.585 354.282 438.603C351.965 440.166 289.747 441.792 287.557 441.101C285.367 440.41 287.111 434.137 289.482 432.149C291.853 430.161 315.37 418.881 315.37 418.881L315.317 410.375L355.537 409.599Z" fill="white"/>
<path d="M311.532 418.913C315.678 418.222 320.707 418.966 323.801 421.975C323.918 422.092 323.801 422.262 323.62 422.219C319.706 420.861 315.656 419.927 311.543 419.434C311.482 419.423 311.427 419.391 311.388 419.345C311.348 419.298 311.325 419.239 311.324 419.178C311.323 419.116 311.343 419.056 311.381 419.008C311.419 418.96 311.472 418.926 311.532 418.913Z" fill="#263238"/>
<path d="M308.512 420.678C312.659 419.987 317.688 420.678 320.782 423.74C320.909 423.856 320.782 424.027 320.601 423.973C316.684 422.624 312.636 421.694 308.523 421.199C308.463 421.188 308.408 421.156 308.368 421.109C308.328 421.063 308.306 421.004 308.305 420.942C308.303 420.881 308.323 420.821 308.361 420.773C308.399 420.725 308.453 420.691 308.512 420.678Z" fill="#263238"/>
<path d="M305.493 422.368C309.639 421.688 314.679 422.432 317.762 425.441C317.89 425.558 317.762 425.728 317.581 425.674C313.665 424.321 309.617 423.388 305.504 422.889C305.443 422.878 305.389 422.847 305.349 422.8C305.309 422.753 305.287 422.694 305.285 422.633C305.284 422.571 305.304 422.512 305.342 422.463C305.38 422.415 305.433 422.381 305.493 422.368Z" fill="#263238"/>
<path d="M287.504 441.101C289.694 441.782 351.901 440.166 354.229 438.592C355.122 438.018 355.42 428.938 355.462 417.956C355.462 417.839 355.462 417.733 355.462 417.616L315.317 418.211V418.891C315.317 418.891 291.789 430.161 289.407 432.149C287.026 434.137 285.303 440.431 287.504 441.101Z" fill="#C68B59"/>
<path d="M288.142 438.677C298.625 438.146 340.939 436.997 351.348 437.263C351.422 437.263 351.433 437.327 351.348 437.338C340.971 438.082 298.636 438.89 288.142 438.847C287.929 438.847 287.919 438.688 288.142 438.677Z" fill="#263238"/>
<path d="M376.375 246.997C376.375 246.997 357.897 305.206 357.567 315.912C357.291 325.034 358.45 418.626 358.45 418.626L311.67 418.913C311.67 418.913 315.615 323.461 316.348 313.945C317.709 296.18 333.285 247.38 344.416 203.906H394.821C394.821 203.906 394.385 226.669 384.03 243.138C384.062 243.127 379.373 245.307 376.375 246.997Z" fill="#37474F"/>
<path d="M355.973 410.046C350.572 409.886 344.969 409.727 339.568 409.865C334.167 410.003 328.84 410.078 323.482 410.397C320.452 410.577 317.422 410.673 314.392 410.981C314.376 410.987 314.362 410.998 314.352 411.013C314.342 411.027 314.336 411.044 314.336 411.061C314.336 411.079 314.342 411.095 314.352 411.11C314.362 411.124 314.376 411.135 314.392 411.141C319.793 411.46 325.215 411.396 330.616 411.343C336.017 411.29 341.343 411.237 346.702 410.992C349.742 410.854 352.762 410.694 355.792 410.492C356.121 410.429 356.302 410.046 355.973 410.046Z" fill="#263238"/>
<path d="M345.745 231.337C344.076 236.897 327.671 295.489 325.47 306.61C323.269 317.73 320.463 390.441 320.665 402.093C320.665 403.55 320.665 404.996 320.771 406.442C320.771 406.47 320.782 406.497 320.802 406.517C320.822 406.537 320.849 406.548 320.877 406.548C320.905 406.548 320.932 406.537 320.952 406.517C320.972 406.497 320.984 406.47 320.984 406.442C321.303 394.843 324.396 318.517 326.384 307.152C328.341 295.988 344.65 237.758 346.085 231.422C346.085 231.381 346.072 231.342 346.047 231.31C346.022 231.279 345.987 231.256 345.948 231.246C345.909 231.237 345.868 231.24 345.831 231.257C345.794 231.273 345.764 231.301 345.745 231.337Z" fill="#263238"/>
<path d="M364.808 248.124C367.136 248.109 369.458 247.895 371.75 247.486C374.025 246.985 376.271 246.364 378.48 245.626C380.656 245.133 382.862 244.778 385.082 244.562C387.32 244.235 389.497 243.583 391.547 242.628C391.565 242.623 391.585 242.624 391.603 242.632C391.621 242.64 391.635 242.654 391.644 242.672C391.653 242.689 391.655 242.709 391.651 242.728C391.647 242.747 391.636 242.764 391.621 242.776C389.635 243.848 387.562 244.748 385.423 245.466C383.211 246.168 380.894 246.264 378.64 246.806C376.37 247.501 374.058 248.048 371.718 248.443C369.414 248.729 367.08 248.689 364.786 248.326C364.701 248.262 364.723 248.124 364.808 248.124Z" fill="#263238"/>
<path d="M361.863 294.426C362.309 292.703 362.724 290.97 363.192 289.259C364.138 285.782 365.095 282.305 366.147 278.861C368.274 272.014 370.209 265.124 372.409 258.309C373.664 254.45 374.791 250.538 376.258 246.753C376.258 246.733 376.266 246.714 376.28 246.7C376.294 246.686 376.313 246.678 376.333 246.678C376.352 246.678 376.371 246.686 376.385 246.7C376.399 246.714 376.407 246.733 376.407 246.753C375.663 250.283 374.621 253.738 373.685 257.225C372.75 260.712 371.75 264.168 370.74 267.623C368.752 274.502 366.796 281.391 364.627 288.217C364.01 290.13 363.383 292.033 362.724 293.926C362.065 295.818 361.522 297.87 360.714 299.752C360.711 299.763 360.705 299.774 360.698 299.783C360.69 299.792 360.681 299.799 360.671 299.804C360.66 299.81 360.649 299.813 360.637 299.814C360.626 299.815 360.614 299.814 360.603 299.811C360.592 299.807 360.581 299.801 360.572 299.794C360.563 299.786 360.556 299.777 360.55 299.767C360.545 299.757 360.542 299.745 360.541 299.734C360.54 299.722 360.541 299.71 360.544 299.699C360.853 297.945 361.406 296.19 361.863 294.426Z" fill="#263238"/>
<path d="M363.426 149.302C352.581 165.675 332.381 184.652 327.416 181.282C314.806 172.777 304.504 146.569 302.272 140.679C300.964 137.245 323.833 122.701 325.662 126.146C327.852 130.165 332.498 151.885 334.167 152.502C335.453 152.959 353.038 142.667 357.365 140.807C368.093 136.171 368.029 142.37 363.426 149.302Z" fill="#FFBE9D"/>
<path d="M348.328 172.713L333.444 151.354C333.444 151.354 348.584 141.307 359.056 138.085C369.528 134.864 370.134 141.445 364.584 150.556C359.035 159.668 348.328 172.713 348.328 172.713Z" fill="#C68B59"/>
<path d="M344.076 158.945C343.023 159.315 342.031 159.838 341.131 160.497C342.242 160.409 343.335 160.158 344.373 159.753C345.427 159.379 346.423 158.856 347.329 158.201C346.214 158.288 345.118 158.539 344.076 158.945ZM353.379 144.922C353.004 143.868 352.482 142.872 351.826 141.966C352.036 144.201 352.827 146.342 354.123 148.175C354.028 147.059 353.77 145.963 353.357 144.922H353.379ZM366.594 140.595C367.059 140.996 367.561 141.352 368.093 141.658C368.109 141.414 368.109 141.168 368.093 140.924C367.596 140.773 367.087 140.663 366.573 140.595H366.594Z" fill="white"/>
<path d="M338.079 149.77C342.638 155.568 346.801 161.667 350.54 168.025C350.54 168.025 350.423 168.173 350.391 168.131C346.702 163.357 340.078 153.31 337.877 149.929C337.835 149.865 338.037 149.717 338.079 149.77Z" fill="#263238"/>
<path d="M364.616 150.556C359.056 159.668 348.328 172.713 348.328 172.713L337.622 157.318L364.01 137.267C369.592 137.458 369.103 143.189 364.616 150.556Z" fill="#263238"/>
<path d="M331.318 122.807C327.182 121.585 321.685 117.747 318.474 117.864C317.686 117.865 316.919 118.12 316.287 118.591C315.656 119.062 315.192 119.724 314.966 120.479C314.966 120.479 312.903 117.598 310.012 118.183C308.534 118.48 307.704 121.128 307.704 121.128C307.205 120.505 306.545 120.031 305.795 119.755C305.046 119.48 304.236 119.414 303.452 119.565C301.432 120.107 300.911 122.669 300.911 122.669C300.911 122.669 298.221 121.298 296.339 122.51C292.533 124.966 295.329 142.71 302.293 144.422C305.546 145.219 304.621 140.924 304.621 140.924C304.621 140.924 307.439 146.782 311.107 146.24C314.775 145.698 313.233 140.244 313.233 140.244C313.233 140.244 316.008 145.9 319.761 145.017C323.673 144.092 321.196 138.84 321.196 138.84C321.196 138.84 324.492 142.37 327.214 141.03C331.711 138.819 324.588 132.291 324.896 128.272L330.988 125.083L331.318 122.807Z" fill="#FFBE9D"/>
<path d="M325.183 120.128C329.202 120.947 333.146 115.504 337.091 115.727C342.407 116.035 338.292 122.648 330.988 125.136L324.981 126.061L325.183 120.128Z" fill="#FFBE9D"/>
<path d="M307.662 121.043C307.662 120.979 307.545 120.979 307.534 121.043C307.007 127.992 308.983 134.901 313.105 140.52C313.254 140.722 313.584 140.743 313.424 140.52C310.809 136.576 308.077 126.837 307.662 121.043Z" fill="#263238"/>
<path d="M321.643 139.202C317.666 133.673 315.87 127.422 314.945 120.734C314.945 120.649 314.807 120.734 314.796 120.734C314.36 124.126 315.391 128.325 316.476 131.526C317.427 134.512 319.143 137.199 321.451 139.319C321.547 139.425 321.749 139.329 321.643 139.202Z" fill="#263238"/>
<path d="M356.334 147.516C359.715 147.962 365.541 141.838 367.359 137.522C367.033 135.24 366.589 132.976 366.03 130.739C365.594 128.613 365.169 126.135 364.967 123.892L351.242 128.761C352.332 131.495 353.085 134.351 353.485 137.267C353.506 137.578 353.506 137.891 353.485 138.202C353.485 138.202 353.485 138.298 353.485 138.351C353.336 140.106 353.06 147.091 356.334 147.516Z" fill="#FFBE9D"/>
<path d="M353.453 138.17C353.453 138.17 353.453 138.266 353.453 138.33C353.94 138.341 354.426 138.316 354.91 138.255C363.17 137.075 364.382 127.571 364.542 124.041L351.21 128.761C352.306 131.494 353.063 134.35 353.464 137.267C353.48 137.568 353.476 137.87 353.453 138.17Z" fill="#263238"/>
<path d="M366.955 107.338C368.678 112.303 366.551 126.89 363.107 130.25C358.11 135.119 349.657 135.885 345.447 129.814C341.365 123.924 344.469 104.957 348.339 101.884C354.059 97.3445 364.425 100.013 366.955 107.338Z" fill="#FFBE9D"/>
<path d="M352.581 116.609C352.581 116.609 352.645 116.609 352.645 116.705C352.485 117.683 352.475 118.831 353.325 119.267V119.331C352.262 119.054 352.294 117.534 352.581 116.609Z" fill="#263238"/>
<path d="M353.644 115.705C355.239 115.79 354.963 118.98 353.485 118.895C352.007 118.81 352.273 115.642 353.644 115.705Z" fill="#263238"/>
<path d="M347.042 116.131C347.042 116.131 346.968 116.131 346.957 116.205C346.957 117.194 346.68 118.332 345.755 118.576V118.629C346.861 118.576 347.148 117.077 347.042 116.131Z" fill="#263238"/>
<path d="M346.255 115.014C344.671 114.759 344.267 117.938 345.734 118.204C347.201 118.47 347.574 115.238 346.255 115.014Z" fill="#263238"/>
<path d="M354.995 114.355C354.569 114.206 354.208 114.004 353.793 113.813C353.345 113.681 352.952 113.404 352.677 113.026C352.616 112.89 352.6 112.738 352.633 112.592C352.665 112.447 352.744 112.315 352.858 112.218C353.115 112.067 353.409 111.987 353.708 111.987C354.007 111.987 354.301 112.067 354.559 112.218C355.133 112.432 355.608 112.853 355.888 113.398C355.939 113.526 355.952 113.665 355.927 113.8C355.902 113.935 355.839 114.06 355.745 114.161C355.651 114.261 355.531 114.333 355.398 114.367C355.265 114.402 355.125 114.397 354.995 114.355Z" fill="#263238"/>
<path d="M345.139 113.303C345.575 113.254 346.008 113.18 346.436 113.079C346.901 113.067 347.349 112.903 347.712 112.612C347.805 112.494 347.856 112.347 347.856 112.197C347.856 112.047 347.805 111.901 347.712 111.782C347.504 111.567 347.243 111.411 346.956 111.329C346.668 111.247 346.364 111.242 346.075 111.315C345.463 111.381 344.898 111.673 344.49 112.133C344.401 112.245 344.347 112.381 344.335 112.524C344.323 112.667 344.353 112.81 344.423 112.935C344.492 113.061 344.597 113.162 344.725 113.228C344.852 113.293 344.997 113.319 345.139 113.303Z" fill="#263238"/>
<path d="M352.081 122.659C351.795 123.027 351.436 123.332 351.026 123.556C350.616 123.779 350.165 123.915 349.7 123.956C349.298 124.014 348.89 124.014 348.488 123.956H348.254H348.041C347.99 123.942 347.944 123.911 347.912 123.869C347.879 123.827 347.861 123.775 347.861 123.722C347.861 123.722 347.861 123.658 347.861 123.615V123.53C347.861 122.765 348.084 121.606 348.084 121.606C347.786 121.723 346.319 122.244 346.372 121.84C346.765 118.416 347.498 115.039 348.562 111.761C348.569 111.742 348.581 111.726 348.597 111.714C348.613 111.703 348.633 111.697 348.653 111.697C348.673 111.697 348.692 111.703 348.708 111.714C348.724 111.726 348.737 111.742 348.743 111.761C348.403 114.951 347.51 118.012 347.116 121.191C347.644 121.003 348.195 120.889 348.754 120.851C348.86 120.851 348.371 123.073 348.382 123.413C349.001 123.528 349.637 123.517 350.253 123.382C350.868 123.247 351.45 122.99 351.965 122.627C352.071 122.51 352.145 122.584 352.081 122.659Z" fill="#263238"/>
<path d="M348.966 123.562C349.336 124.14 349.849 124.613 350.455 124.934C350.784 125.097 351.154 125.156 351.518 125.104C352.326 124.966 352.4 124.243 352.315 123.605C352.263 123.269 352.17 122.941 352.039 122.627C351.139 123.255 350.064 123.583 348.966 123.562Z" fill="#263238"/>
<path d="M350.455 124.934C350.784 125.097 351.155 125.156 351.518 125.104C352.326 124.966 352.4 124.243 352.315 123.605C351.902 123.589 351.495 123.712 351.159 123.952C350.822 124.193 350.574 124.538 350.455 124.934Z" fill="#FF97B8"/>
<path opacity="0.2" d="M363.925 102.884C363.734 104.851 363.277 110.911 364.021 112.282C364.765 113.654 366.317 116.79 367.21 117.385C367.678 113.356 367.646 109.465 366.913 107.338C366.325 105.617 365.295 104.08 363.925 102.884Z" fill="#263238"/>
<path d="M351.422 106.679C351.89 107.368 352.526 107.926 353.271 108.298C354.015 108.671 354.843 108.845 355.675 108.806C356.52 108.776 357.343 108.53 358.066 108.09C358.788 107.651 359.385 107.033 359.8 106.297C359.8 106.297 359.885 106.297 359.864 106.297C359.494 107.113 358.906 107.813 358.166 108.319C357.425 108.825 356.56 109.119 355.664 109.167C354.79 109.173 353.929 108.95 353.167 108.519C352.406 108.088 351.771 107.464 351.327 106.711C351.284 106.679 351.38 106.615 351.422 106.679Z" fill="#263238"/>
<path d="M357.759 95.3456C359.031 95.4967 360.246 95.9654 361.29 96.7086C362.334 97.4517 363.174 98.4454 363.734 99.5983C364.178 100.744 364.223 102.006 363.861 103.181C363.861 103.181 363.744 103.181 363.755 103.181C363.934 102.125 363.826 101.041 363.44 100.042C363.055 99.0424 362.407 98.1657 361.565 97.5038C360.652 96.7415 359.575 96.2016 358.418 95.9267C357.262 95.6518 356.057 95.6494 354.899 95.9197C353.769 96.1611 352.762 96.7983 352.06 97.7164C351.996 97.8015 351.794 97.7164 351.848 97.6208C352.804 95.9303 355.239 95.016 357.759 95.3456Z" fill="#263238"/>
<path d="M340.886 99.5983C341.5 98.2736 342.562 97.2081 343.884 96.5896C345.724 95.7284 347.637 96.1005 349.541 96.5151C349.594 96.5151 349.541 96.6002 349.541 96.5896C347.951 96.1217 346.261 96.1217 344.671 96.5896C343.356 97.0747 342.25 98.0034 341.545 99.2156C340.854 100.464 340.636 101.92 340.931 103.316C341.225 104.712 342.014 105.955 343.151 106.817C343.817 107.304 344.575 107.65 345.38 107.832C346.184 108.015 347.018 108.032 347.829 107.88C347.829 107.88 347.924 107.966 347.829 107.976C346.373 108.306 344.846 108.093 343.536 107.376C342.226 106.66 341.224 105.489 340.716 104.085C340.212 102.62 340.273 101.021 340.886 99.5983Z" fill="#263238"/>
<path d="M367.689 110.283C367.689 110.283 370.878 105.573 368.975 102.437C367.912 100.662 363.713 100.428 363.713 100.428C362.778 98.6495 361.176 97.3149 359.258 96.7172C355.856 95.5371 351.486 97.1318 351.486 97.1318C351.486 97.1318 348.382 94.8673 345.107 96.3026C340.503 98.312 340.333 104.957 344.458 107.551C347.361 109.369 351.805 107.115 351.805 107.115C352.198 107.211 356.058 110.124 359.502 106.817C359.502 106.817 361.778 109.316 364.202 107.998C364.482 108.688 364.966 109.276 365.589 109.684C366.212 110.092 366.944 110.301 367.689 110.283Z" fill="#263238"/>
<path d="M364.276 119.267C364.276 119.267 367.466 114.525 369.592 115.652C371.718 116.779 369.379 123.626 366.902 124.594C366.593 124.741 366.257 124.824 365.914 124.838C365.572 124.852 365.23 124.796 364.91 124.673C364.59 124.551 364.298 124.365 364.052 124.127C363.806 123.888 363.611 123.602 363.479 123.286L364.276 119.267Z" fill="#FFBE9D"/>
<path d="M403.688 215.485C403.55 215.665 338.834 221.513 338.175 220.907C337.271 220.035 341.131 155.288 352.687 142.051C355.526 138.798 365.573 134.885 368.88 136.916C377.459 142.232 382.754 154.139 386.146 161.092C388.665 166.238 391.897 175.094 394.896 184.195C399.839 199.175 404.166 214.815 403.688 215.485Z" fill="#C68B59"/>
<path d="M362.883 158.764C362.404 159.774 362.074 160.849 361.905 161.954C362.619 161.095 363.213 160.144 363.67 159.126C364.145 158.114 364.474 157.04 364.648 155.936C363.934 156.794 363.34 157.746 362.883 158.764ZM351.986 201.185C351.511 202.197 351.181 203.271 351.008 204.375C351.731 203.519 352.326 202.563 352.773 201.536C353.252 200.525 353.585 199.451 353.761 198.346C353.038 199.203 352.44 200.159 351.986 201.185ZM378.874 199.154C378.386 200.163 378.049 201.237 377.874 202.344C378.607 201.497 379.205 200.544 379.65 199.516C380.13 198.505 380.463 197.431 380.638 196.326C379.919 197.18 379.325 198.133 378.874 199.154ZM396.235 207.926C395.224 207.447 394.15 207.114 393.046 206.937C394.774 208.364 396.844 209.317 399.053 209.701C398.203 208.978 397.254 208.38 396.235 207.926ZM352.39 174.382C351.379 173.903 350.305 173.57 349.2 173.394C350.052 174.119 351.005 174.717 352.028 175.169C353.04 175.644 354.114 175.973 355.218 176.147C354.366 175.424 353.414 174.829 352.39 174.382ZM369.751 141.583C368.742 141.101 367.667 140.768 366.562 140.595C367.418 141.32 368.374 141.917 369.401 142.37C370.412 142.845 371.486 143.174 372.59 143.348C371.734 142.626 370.778 142.032 369.751 141.583ZM353.357 144.922C353.062 144.109 352.684 143.329 352.23 142.593L351.933 142.997C352.077 143.757 352.283 144.504 352.549 145.23C352.926 146.28 353.448 147.271 354.101 148.175C354.014 147.06 353.763 145.964 353.357 144.922ZM379.161 171.501C378.782 170.452 378.26 169.461 377.608 168.556C377.701 169.667 377.951 170.759 378.353 171.799C378.729 172.852 379.251 173.847 379.905 174.754C379.81 173.647 379.56 172.559 379.161 171.522V171.501ZM383.158 216.155C383.183 216.58 383.24 217.003 383.328 217.42L383.934 217.367C383.71 216.938 383.451 216.529 383.158 216.144V216.155ZM343.193 216.622C342.817 215.569 342.294 214.574 341.641 213.667C341.729 214.782 341.979 215.878 342.385 216.92C342.762 217.97 343.284 218.961 343.938 219.865C343.845 218.751 343.594 217.655 343.193 216.612V216.622ZM395.342 185.578L394.534 185.854C393.479 186.222 392.484 186.741 391.578 187.396C392.693 187.303 393.788 187.052 394.832 186.651C395.087 186.559 395.342 186.453 395.597 186.332L395.342 185.578ZM365.063 212.795C364.013 213.168 363.022 213.687 362.118 214.337C364.349 214.125 366.486 213.333 368.316 212.04C367.201 212.129 366.105 212.38 365.063 212.784V212.795ZM367.189 187.279C366.137 187.648 365.144 188.171 364.244 188.831C365.356 188.742 366.448 188.491 367.487 188.087C368.541 187.712 369.536 187.19 370.442 186.534C369.338 186.625 368.253 186.876 367.221 187.279H367.189ZM345.734 158.424C345.67 158.701 345.596 158.966 345.532 159.243C346.15 158.952 346.735 158.596 347.276 158.18C346.767 158.219 346.262 158.3 345.766 158.424H345.734ZM381.702 152.279C380.818 152.619 379.985 153.076 379.224 153.64C380.209 153.571 381.179 153.363 382.106 153.023L381.702 152.279Z" fill="white"/>
<path d="M363.064 153.151C360.438 170.002 354.293 195.391 346.053 201.249C341.864 204.226 315.455 204.332 307.056 203.46C303.484 203.088 307.184 176.764 311.011 177.03C315.264 177.317 330.605 177.699 333.444 177.317C335.071 177.104 343.013 160.561 350.721 147.803C359.832 132.823 365.201 139.468 363.064 153.151Z" fill="#FFBE9D"/>
<path d="M312.967 177.561C312.967 177.561 303.537 173.17 297.232 170.597C293.713 169.151 287.462 167.227 284.4 167.355C279.807 167.535 260.733 171.246 261.531 175.86C262.254 180.113 278.244 174.797 278.244 174.797C278.244 174.797 261.648 178.688 263.444 183.589C265.241 188.49 282.518 180.134 282.518 180.134C282.518 180.134 265.507 184.514 268.208 189.277C270.217 192.871 286.281 186.183 286.281 186.183C286.281 186.183 271.727 190.053 273.64 193.838C275.767 198.027 290.959 192.775 290.959 192.775C297.424 201.589 304.111 203.141 309.033 203.673C310.182 203.843 312.967 177.561 312.967 177.561Z" fill="#FFBE9D"/>
<path d="M283.889 173.117C281.922 173.5 279.934 173.872 278.01 174.435C276.086 174.999 274.183 175.626 272.311 176.36C269.855 177.27 267.515 178.466 265.337 179.921C269.398 177.636 276.256 175.52 278.18 174.956C280.104 174.393 281.997 173.744 283.921 173.181C283.964 173.17 283.943 173.106 283.889 173.117Z" fill="#263238"/>
<path d="M286.037 180.028C283.549 180.623 281.061 181.091 278.595 181.846C276.128 182.601 272.747 183.664 270.344 184.546C270.164 184.61 270.185 184.897 270.344 184.844C272.779 184.068 276.298 183.09 278.733 182.335C281.168 181.58 283.581 180.74 286.037 180.081C286.101 180.07 286.079 180.017 286.037 180.028Z" fill="#263238"/>
<path d="M288.95 185.631C285.109 186.461 281.365 187.687 277.776 189.288C277.606 189.362 277.776 189.447 277.925 189.373C281.614 188.097 284.506 187.055 288.982 185.758C289.046 185.716 289.035 185.609 288.95 185.631Z" fill="#263238"/>
<path d="M322.908 177.423C324.758 177.295 326.608 177.242 328.458 177.189L331.222 177.093L332.593 177.03C332.806 177.03 333.051 177.03 333.231 176.966H333.38C333.38 176.966 333.38 176.966 333.433 176.913C333.486 176.859 333.54 176.838 333.614 176.753C334.203 176.089 334.736 175.378 335.209 174.627C335.719 173.872 336.198 173.075 336.697 172.309C337.686 170.746 338.643 169.12 339.664 167.61C338.941 169.322 338.111 170.98 337.229 172.617C336.388 174.304 335.361 175.891 334.167 177.349C333.961 177.584 333.679 177.738 333.37 177.784C333.127 177.824 332.882 177.849 332.636 177.859C332.168 177.859 331.7 177.859 331.233 177.859C330.308 177.859 329.383 177.859 328.458 177.859C326.608 177.731 324.758 177.625 322.908 177.423Z" fill="#263238"/>
<path d="M361.437 177.561L337.792 166.706C337.792 166.706 345.734 150.355 353.113 142.253C360.491 134.152 364.361 139.521 364.212 150.184C364.063 160.848 361.437 177.561 361.437 177.561Z" fill="#C68B59"/>
<path d="M344.076 158.945C343.023 159.315 342.031 159.838 341.131 160.497C342.242 160.408 343.335 160.158 344.373 159.753C345.427 159.379 346.423 158.856 347.329 158.201C346.214 158.288 345.118 158.539 344.076 158.945ZM353.379 144.922C353.128 144.261 352.833 143.618 352.496 142.997C352.347 143.157 352.209 143.327 352.06 143.497C352.192 144.085 352.362 144.664 352.571 145.23C352.947 146.28 353.47 147.271 354.123 148.175C354.028 147.059 353.77 145.963 353.357 144.922H353.379ZM362.947 158.743C362.467 159.753 362.138 160.827 361.969 161.932C362.683 161.074 363.276 160.123 363.734 159.104V159.019C363.798 158.328 363.851 157.637 363.904 156.957C363.522 157.535 363.181 158.139 362.883 158.764L362.947 158.743Z" fill="white"/>
<path d="M340.961 163.006C347.833 165.683 354.518 168.819 360.97 172.394C360.97 172.394 360.97 172.575 360.895 172.564C355.292 170.332 344.469 165.037 340.865 163.24C340.791 163.208 340.886 162.974 340.961 163.006Z" fill="#263238"/>
<path d="M358.471 176.2C359.534 176.541 360.523 176.945 361.544 177.263L361.182 177.465C361.565 173.691 362.012 169.938 362.49 166.185L363.224 160.561C363.472 158.69 363.737 156.812 364.021 154.926C364.099 156.826 364.099 158.729 364.021 160.635C363.915 162.528 363.776 164.42 363.553 166.313C363.151 170.09 362.541 173.841 361.724 177.551L361.65 177.901L361.363 177.742C360.374 177.263 359.407 176.764 358.471 176.2Z" fill="#263238"/>
<path d="M363.277 163.942C363.394 162.99 363.612 162.053 363.925 161.146C364.212 160.225 364.597 159.337 365.073 158.498C364.952 159.453 364.735 160.394 364.425 161.305C364.135 162.222 363.75 163.106 363.277 163.942Z" fill="#263238"/>
<path d="M350.285 167.514H350.04L349.817 167.461L345.362 166.398L345.096 166.345L342.555 165.749L342.258 165.685L338.228 164.75L337.899 164.665L335.432 164.091L335.071 164.016L330.425 162.953L330.031 162.857L327.246 162.209L326.81 162.113L323.344 161.263L322.876 161.156L319.825 160.444L319.336 160.338L315.083 159.359L314.647 159.253L311.458 158.509L311.032 158.413L307.96 157.701L307.598 157.616L304.09 156.797L303.739 156.712L300.698 156.01L300.486 155.947L296.233 154.958L295.924 154.883L291.427 153.82L291.183 153.757L287.727 152.959L287.504 152.906L283.039 151.843H282.847L279.084 150.971H278.914L274.969 150.057L278.467 148.504L278.616 148.441L282.645 146.644L282.826 146.569L286.282 145.028L286.483 144.943L290.896 142.987L291.14 142.87L294.096 141.562L294.362 141.445L300.858 138.553L301.177 138.415L302.803 137.692L303.143 137.543L309.523 134.726L309.916 134.556L311.309 133.939L311.723 133.758L318.241 130.866L318.74 130.654L320.197 130.005L320.675 129.793L327.522 126.752L328.022 126.529L328.819 126.178L329.287 125.965L336.836 122.616L337.271 122.425L337.962 122.127L338.366 121.946L345.873 118.608L346.138 119.246L346.362 119.777L346.425 119.937C346.521 120.15 346.606 120.362 346.691 120.575C348.827 125.931 350.392 131.497 351.359 137.182C351.359 137.405 351.433 137.628 351.475 137.862C351.891 140.464 352.165 143.087 352.294 145.719C352.294 146.229 352.347 146.729 352.358 147.239C352.5 154.057 351.804 160.866 350.285 167.514Z" fill="#C7C7C7"/>
<path d="M278.531 148.377L278.999 150.95H278.829L278.382 148.483L278.531 148.377ZM282.56 146.58L282.762 151.822H282.954L282.741 146.506L282.56 146.58ZM286.398 144.879L286.196 144.964L287.419 152.906L287.642 152.959L286.398 144.879ZM290.811 142.923L291.098 153.757L291.342 153.82L291.055 142.806L290.811 142.923ZM294.277 141.381L294.011 141.498L295.839 154.883L296.148 154.958L294.277 141.381ZM300.602 147.314L300.485 155.947L300.783 156.021L300.964 147.346L301.145 138.372L300.826 138.511L300.602 147.314ZM303.058 137.479L302.718 137.628L303.781 156.702L304.132 156.787L303.058 137.479ZM307.63 157.605L307.992 157.69L309.788 134.492L309.395 134.662L307.63 157.605ZM311.181 133.864L311.117 158.403L311.543 158.498L311.649 133.684L311.181 133.864ZM318.113 130.792L314.69 159.243L315.125 159.349L318.613 130.569L318.113 130.781V130.792ZM320.069 129.92L319.336 160.327L319.825 160.433L320.548 129.707L320.069 129.92ZM327.394 126.667L322.876 161.146L323.344 161.252L327.894 126.444L327.394 126.667ZM328.692 126.093L326.81 162.06L327.246 162.156L329.159 125.88L328.692 126.093ZM336.708 122.531L330.031 162.804L330.425 162.9L337.144 122.34L336.708 122.531ZM337.835 122.031L335.071 163.974L335.432 164.048L338.239 121.84L337.835 122.031ZM346.234 119.692L346.011 119.161L337.899 164.633L338.228 164.718L346.202 119.703L346.234 119.692ZM346.298 119.873L342.258 165.653L342.555 165.717L346.564 120.511C346.478 120.298 346.393 120.086 346.298 119.873ZM351.348 137.809C351.348 137.575 351.273 137.352 351.231 137.128L345.139 166.313L345.405 166.366L351.348 137.873V137.809ZM352.166 145.676L349.817 167.408L350.04 167.461L352.23 147.261C352.22 146.686 352.198 146.187 352.166 145.676Z" fill="#DBDBDB"/>
<path d="M350.285 167.514H344.054L268.654 149.993H274.884L350.285 167.514Z" fill="#A6A6A6"/>
<path d="M274.884 149.993H268.654L339.515 118.512H345.745L274.884 149.993Z" fill="#A6A6A6"/>
<path d="M53.8286 320.282C54.1583 311.893 54.0412 303.493 53.4778 295.116C52.2434 277.839 49.6087 260.69 45.5996 243.839C43.4308 234.345 40.7303 225.053 37.881 215.697C37.7959 215.421 37.3494 215.495 37.4238 215.793C46.1525 248.645 53.3077 282.539 52.8186 316.688C52.6804 326.257 51.5747 335.634 50.6923 345.128C50.6923 345.383 51.0856 345.479 51.1494 345.224C52.7687 337.004 53.6652 328.658 53.8286 320.282Z" fill="#C68B59"/>
<path d="M37.4451 215.793C37.4451 215.793 24.2298 249.336 27.1961 257.257C30.1623 265.177 36.2543 266.825 36.2543 266.825C36.2543 266.825 28.1635 278.371 33.8196 289.205C39.4757 300.039 52.0212 299.518 52.8505 311.798C52.8505 311.755 53.5522 260.414 37.4451 215.793Z" fill="#C68B59"/>
<path d="M51.4152 290.555C51.4363 290.497 51.4363 290.433 51.4152 290.375C49.67 267.483 45.3657 244.86 38.5827 222.927C38.5827 222.913 38.5771 222.899 38.5671 222.889C38.5571 222.879 38.5436 222.874 38.5295 222.874C38.5154 222.874 38.5019 222.879 38.4919 222.889C38.4819 222.899 38.4763 222.913 38.4763 222.927C41.0918 232.743 43.4059 242.606 45.4189 252.515C43.6397 250.837 41.4686 249.63 39.1036 249.006C39.1036 249.006 39.0398 249.006 39.1036 249.07C41.5886 249.985 43.8218 251.475 45.6209 253.419C46.0036 255.364 46.3864 257.31 46.6841 259.255C43.7391 255.96 39.6352 254.322 35.542 252.759V252.855C39.7947 254.588 44.0474 256.831 46.9499 260.51C47.9918 266.067 48.8671 271.652 49.5759 277.266C47.4414 275.03 44.7051 273.461 41.6978 272.747C41.6021 272.747 41.5489 272.864 41.6446 272.885C44.7488 273.785 47.5258 275.565 49.6397 278.01C49.9055 279.987 50.1607 281.954 50.3946 283.932C48.7392 282.537 46.8732 281.414 44.866 280.604C44.866 280.604 44.781 280.668 44.866 280.689C46.9114 281.576 48.7859 282.814 50.4052 284.346H50.469C50.6922 286.228 50.9155 288.099 51.0963 289.981C48.1214 286.385 44.2585 283.629 39.8904 281.986C39.8053 281.986 39.7628 282.082 39.8904 282.114C44.2015 284.022 47.9902 286.939 50.9368 290.619C50.9678 290.661 51.0114 290.692 51.0611 290.707C51.1108 290.722 51.1641 290.721 51.2132 290.704C51.4967 293.582 51.7483 296.474 51.9681 299.38H52.0318C51.8617 296.477 51.7023 293.522 51.4152 290.555Z" fill="#263238"/>
<path d="M40.7941 245.668C38.4037 244.182 35.6741 243.329 32.8628 243.191C32.8487 243.191 32.8352 243.197 32.8252 243.206C32.8152 243.216 32.8096 243.23 32.8096 243.244C32.8096 243.258 32.8152 243.272 32.8252 243.282C32.8352 243.292 32.8487 243.297 32.8628 243.297C35.5812 243.796 38.2203 244.658 40.709 245.86C40.7333 245.866 40.7589 245.863 40.7814 245.852C40.8038 245.841 40.8217 245.822 40.8319 245.8C40.842 245.777 40.8438 245.751 40.8369 245.727C40.83 245.703 40.8148 245.682 40.7941 245.668Z" fill="#263238"/>
<path d="M42.3995 281.178C40.5622 280.129 38.5414 279.439 36.4457 279.147C36.4316 279.147 36.4181 279.153 36.4081 279.163C36.3981 279.173 36.3925 279.187 36.3925 279.201C36.3925 279.215 36.3981 279.228 36.4081 279.238C36.4181 279.248 36.4316 279.254 36.4457 279.254C38.4965 279.666 40.4792 280.363 42.3357 281.327C42.4101 281.401 42.4845 281.231 42.3995 281.178Z" fill="#263238"/>
<path d="M88.6051 257.767C83.0163 261.633 77.8838 266.12 73.306 271.142C68.5876 276.455 64.9445 282.633 62.5786 289.333C57.5614 303.302 54.8607 317.998 54.5835 332.838C54.4178 341.053 55.2099 349.259 56.9437 357.291C56.9604 357.346 56.9968 357.393 57.046 357.423C57.0952 357.453 57.1538 357.464 57.2104 357.453C57.2671 357.443 57.3178 357.412 57.353 357.366C57.3881 357.321 57.4052 357.263 57.4009 357.206C55.2457 343.024 55.3247 328.592 57.6348 314.434C59.91 300.613 63.4716 285.463 72.296 274.183C77.1015 268.037 83.0872 263.211 89.0091 258.235C89.3174 258.012 88.9134 257.544 88.6051 257.767Z" fill="#C68B59"/>
<path d="M56.5291 322.865C59.7007 317.715 63.4302 312.931 67.6499 308.598C74.2629 301.985 79.8339 297.296 80.6845 292.916C81.535 288.535 74.0609 285.325 74.0609 285.325C74.0609 285.325 83.2148 286.973 85.7558 283.135C88.2968 279.296 89.4769 257.055 89.4769 257.055C89.4769 257.055 72.8276 268.941 65.0239 285.59C57.2202 302.24 56.5291 322.865 56.5291 322.865Z" fill="#C68B59"/>
<path d="M83.5125 277.914C82.4181 277.753 81.3091 277.714 80.206 277.797C80.0784 277.797 80.0891 278.031 80.206 278.031C81.2692 278.031 82.3962 278.031 83.4912 278.031C83.5001 278.037 83.5101 278.04 83.5205 278.04C83.5308 278.041 83.5412 278.039 83.5507 278.035C83.5601 278.031 83.5684 278.024 83.5749 278.016C83.5813 278.008 83.5856 277.998 83.5874 277.988C83.5893 277.978 83.5886 277.967 83.5855 277.958C83.5824 277.948 83.5769 277.939 83.5695 277.931C83.5621 277.924 83.5531 277.919 83.5431 277.916C83.5332 277.913 83.5227 277.912 83.5125 277.914Z" fill="#263238"/>
<path d="M71.5412 299.475C69.78 299.523 68.0413 299.883 66.406 300.539C66.406 300.539 66.406 300.624 66.406 300.613C68.1071 300.209 69.8188 300.039 71.5305 299.763C71.69 299.72 71.6794 299.475 71.5412 299.475Z" fill="#263238"/>
<path d="M67.9476 292.033C67.2339 292.03 66.5216 292.097 65.8213 292.235C65.8043 292.235 65.7881 292.242 65.7762 292.254C65.7642 292.266 65.7575 292.282 65.7575 292.299C65.7575 292.316 65.7642 292.332 65.7762 292.344C65.7881 292.356 65.8043 292.363 65.8213 292.363C66.5495 292.402 67.2798 292.366 68.0008 292.256C68.0254 292.245 68.0454 292.226 68.0573 292.201C68.0692 292.177 68.0723 292.149 68.066 292.123C68.0597 292.097 68.0445 292.073 68.0229 292.057C68.0013 292.04 67.9747 292.032 67.9476 292.033Z" fill="#263238"/>
<path d="M7.73993 281.401C13.1561 283.234 18.3459 285.677 23.2091 288.684C28.2565 291.894 32.6327 296.054 36.0948 300.932C43.3867 311.076 48.9678 322.346 52.6166 334.294C54.6559 340.908 55.9154 347.738 56.3696 354.644C56.3592 354.688 56.3341 354.728 56.2984 354.756C56.2627 354.784 56.2185 354.8 56.1729 354.8C56.1273 354.8 56.0831 354.784 56.0474 354.756C56.0117 354.728 55.9866 354.688 55.9762 354.644C54.4444 342.67 51.0434 331.01 45.8973 320.09C40.8579 309.384 34.4788 297.987 24.7295 290.896C19.4136 287.036 13.4598 284.516 7.51666 281.837C7.20834 281.699 7.43161 281.263 7.73993 281.401Z" fill="#C68B59"/>
<path d="M48.736 326.629C44.9716 323.201 40.8431 320.195 36.4244 317.666C29.5457 313.849 23.9534 311.287 22.2416 307.991C20.5299 304.696 25.8458 300.315 25.8458 300.315C25.8458 300.315 18.8289 303.76 15.9158 301.24C13.0026 298.72 6.87875 280.987 6.87875 280.987C6.87875 280.987 23.0922 286.717 33.2243 298.412C43.3563 310.107 48.736 326.629 48.736 326.629Z" fill="#C68B59"/>
<path d="M35.2762 310.341C33.6841 310.233 32.0859 310.428 30.5663 310.915C30.5663 310.915 30.5663 311 30.5663 310.99C32.1172 310.729 33.6834 310.57 35.2549 310.511C35.2775 310.514 35.3002 310.508 35.3182 310.494C35.3361 310.48 35.3478 310.459 35.3506 310.437C35.3534 310.414 35.3472 310.391 35.3332 310.374C35.3193 310.356 35.2988 310.344 35.2762 310.341Z" fill="#263238"/>
<path d="M21.1359 291.789C20.4246 291.74 19.71 291.783 19.0096 291.916C18.9245 291.916 18.9564 292.055 19.0096 292.044C19.7219 291.969 20.4236 292.044 21.1359 291.98C21.1613 291.98 21.1857 291.97 21.2036 291.952C21.2216 291.934 21.2316 291.91 21.2316 291.884C21.2316 291.859 21.2216 291.835 21.2036 291.817C21.1857 291.799 21.1613 291.789 21.1359 291.789Z" fill="#263238"/>
<path d="M69.6487 376.97H33.0435L38.2637 338.739L39.6033 328.936H63.0995L64.4285 338.739L69.6487 376.97Z" fill="#455A64"/>
<path d="M64.4285 338.739H38.2637L39.6033 328.936H63.0995L64.4285 338.739Z" fill="#263238"/>
<path d="M66.4591 325.534H36.2437V333.837H66.4591V325.534Z" fill="#455A64"/>
</svg>
