<svg width="450" height="354" viewBox="0 0 450 354" fill="none" xmlns="http://www.w3.org/2000/svg">
    <path d="M450 312.548H0V312.773H450V312.548Z" fill="#EBEBEB"/>
    <path d="M399.501 321.116H369.693V321.341H399.501V321.116Z" fill="#EBEBEB"/>
    <path d="M163.197 324.167H118.323V324.392H163.197V324.167Z" fill="#EBEBEB"/>
    <path d="M368.793 329.477H342.216V329.702H368.793V329.477Z" fill="#EBEBEB"/>
    <path d="M66.6548 327.965H47.2148V328.19H66.6548V327.965Z" fill="#EBEBEB"/>
    <path d="M109.196 327.965H74.6631V328.19H109.196V327.965Z" fill="#EBEBEB"/>
    <path d="M298.098 318.677H213.786V318.902H298.098V318.677Z" fill="#EBEBEB"/>
    <path d="M213.3 272.408H39.5187C38.1573 272.406 36.8525 271.863 35.8907 270.9C34.9289 269.936 34.3887 268.631 34.3887 267.269V22.9822C34.4005 21.6287 34.9459 20.3344 35.9065 19.3806C36.867 18.4269 38.165 17.8906 39.5187 17.8882H213.3C214.663 17.8882 215.97 18.4297 216.934 19.3934C217.897 20.3572 218.439 21.6643 218.439 23.0272V267.269C218.439 268.632 217.897 269.939 216.934 270.903C215.97 271.867 214.663 272.408 213.3 272.408V272.408ZM39.5187 18.0682C38.217 18.0706 36.9694 18.5894 36.0498 19.5107C35.1302 20.432 34.6137 21.6805 34.6137 22.9822V267.269C34.6137 268.571 35.1302 269.819 36.0498 270.741C36.9694 271.662 38.217 272.181 39.5187 272.183H213.3C214.602 272.181 215.851 271.662 216.772 270.741C217.693 269.82 218.211 268.572 218.214 267.269V22.9822C218.211 21.6797 217.693 20.4312 216.772 19.5101C215.851 18.5891 214.602 18.0706 213.3 18.0682H39.5187Z" fill="#EBEBEB"/>
    <path d="M407.979 272.408H234.189C232.827 272.406 231.521 271.864 230.558 270.9C229.594 269.937 229.052 268.631 229.05 267.269V22.9822C229.064 21.6278 229.611 20.3336 230.573 19.3801C231.535 18.4265 232.834 17.8905 234.189 17.8882H407.979C409.331 17.8929 410.627 18.4303 411.585 19.3838C412.544 20.3373 413.088 21.6302 413.1 22.9822V267.269C413.1 268.629 412.561 269.933 411.601 270.897C410.641 271.86 409.339 272.403 407.979 272.408V272.408ZM234.189 18.0682C232.886 18.0706 231.638 18.5891 230.717 19.5101C229.796 20.4312 229.277 21.6797 229.275 22.9822V267.269C229.277 268.572 229.796 269.82 230.717 270.741C231.638 271.662 232.886 272.181 234.189 272.183H407.979C409.281 272.181 410.53 271.662 411.451 270.741C412.372 269.82 412.89 268.572 412.893 267.269V22.9822C412.89 21.6797 412.372 20.4312 411.451 19.5101C410.53 18.5891 409.281 18.0706 407.979 18.0682H234.189Z" fill="#EBEBEB"/>
    <path d="M297.234 131.108C320.481 131.108 339.327 112.263 339.327 89.0153C339.327 65.7679 320.481 46.9223 297.234 46.9223C273.986 46.9223 255.141 65.7679 255.141 89.0153C255.141 112.263 273.986 131.108 297.234 131.108Z" fill="#FAFAFA"/>
    <path d="M382.5 76.7303C375.624 70.0883 366.66 65.3183 360 65.3183C355.851 65.3183 353.376 67.1903 352.719 70.2323C350.089 68.6008 347.095 67.6482 344.007 67.4603C339.507 67.4603 337.851 70.6643 339.462 75.2003C337.043 74.2253 334.485 73.642 331.884 73.4723C327.267 73.2653 324.684 75.1103 324.423 78.1073C323.401 77.6172 322.301 77.3124 321.174 77.2073C318.474 77.0903 317.808 78.9533 319.59 81.3653C319.698 81.5183 319.815 81.6623 319.932 81.8153H393.147C392.094 79.4843 385.767 76.8563 382.5 76.7303Z" fill="#F0F0F0"/>
    <path d="M162.369 74.5883C151.011 63.5363 136.161 55.6883 125.172 55.6883C118.278 55.6883 114.174 58.7843 113.085 63.7883C108.018 60.9173 102.906 59.1893 98.6401 59.1893C91.1521 59.1893 88.4521 64.5173 91.1161 72.0233C87.1083 70.4171 82.8702 69.4601 78.5611 69.1883C70.9021 68.8463 66.6001 71.8883 66.1771 76.8833C64.4825 76.0726 62.6508 75.5872 60.7771 75.4523C56.3671 75.2543 55.1971 78.3413 58.1491 82.3373C58.3381 82.5893 58.5361 82.8323 58.7251 83.0753H180.108C178.326 79.0883 167.832 74.7503 162.369 74.5883Z" fill="#F0F0F0"/>
    <path d="M108.269 153.419C108.053 153.406 107.837 153.406 107.621 153.419C104.444 151.07 101.222 149.576 98.945 149.576C97.298 149.576 96.398 150.359 96.245 151.682C90.296 147.128 84.167 144.167 79.892 144.167C76.436 144.167 74.834 146.093 75.032 149.234C72.089 147.434 69.281 146.372 67.148 146.372C63.395 146.372 62.81 149.684 65.24 154.355C63.1276 153.376 60.8627 152.767 58.544 152.555C54.674 152.348 52.964 154.247 53.477 157.352C52.5829 156.857 51.5965 156.55 50.579 156.452C48.464 156.335 48.221 158.045 49.94 160.331H121.319C117.998 156.848 112.319 153.788 108.269 153.419Z" fill="#F5F5F5"/>
    <path d="M277.299 37.1662C277.188 37.1575 277.076 37.1575 276.966 37.1662C275.689 36.0779 274.127 35.3783 272.466 35.1502C272.3 35.1263 272.13 35.1363 271.968 35.1795C271.806 35.2228 271.655 35.2984 271.523 35.4019C271.391 35.5053 271.281 35.6344 271.2 35.7815C271.119 35.9285 271.069 36.0903 271.053 36.2572C267.957 33.8722 264.753 32.3332 262.521 32.3332C262.162 32.2762 261.796 32.3063 261.452 32.4209C261.107 32.5355 260.796 32.7313 260.544 32.9917C260.291 33.2521 260.105 33.5695 260.001 33.917C259.897 34.2646 259.878 34.632 259.947 34.9882C258.726 34.1463 257.31 33.6318 255.834 33.4942C253.881 33.4942 253.575 35.2222 254.844 37.6612C253.74 37.1613 252.559 36.8568 251.352 36.7612C249.327 36.6532 248.436 37.6612 248.706 39.2632C248.238 39.0084 247.724 38.8493 247.194 38.7952C246.087 38.7322 245.961 39.6322 246.861 40.8202H284.112C282.282 38.9155 279.898 37.6367 277.299 37.1662V37.1662Z" fill="#F5F5F5"/>
    <path d="M378.954 127.157H378.621C376.956 125.933 375.282 125.15 374.121 125.15C373.956 125.125 373.787 125.134 373.625 125.176C373.463 125.218 373.311 125.293 373.179 125.396C373.047 125.498 372.937 125.627 372.856 125.773C372.775 125.92 372.725 126.082 372.708 126.248C369.612 123.872 366.408 122.324 364.176 122.324C363.822 122.274 363.46 122.309 363.122 122.426C362.783 122.543 362.477 122.739 362.23 122.997C361.982 123.256 361.799 123.569 361.696 123.912C361.593 124.255 361.573 124.618 361.638 124.97C360.418 124.128 359.002 123.614 357.525 123.476C355.572 123.476 355.266 125.204 356.526 127.643C355.422 127.147 354.241 126.843 353.034 126.743C351.009 126.635 350.118 127.643 350.388 129.245C349.919 128.994 349.405 128.835 348.876 128.777C347.769 128.723 347.643 129.614 348.543 130.811H385.794C383.955 128.904 381.562 127.626 378.954 127.157Z" fill="#FAFAFA"/>
    <path d="M116.559 105.485C121.203 104.324 124.092 101.885 127.359 105.971C122.796 102.848 116.721 107.411 116.721 107.411C116.721 107.411 109.953 103.955 105.993 107.816C108.531 103.28 111.789 105.134 116.559 105.485Z" fill="#F5F5F5"/>
    <path d="M95.1933 118.769C98.1363 118.031 99.9723 116.51 102.051 119.075C99.1533 117.095 95.3013 119.975 95.3013 119.975C95.3013 119.975 90.9993 117.779 88.4883 120.236C90.0993 117.365 92.1603 118.544 95.1933 118.769Z" fill="#F5F5F5"/>
    <path d="M359.216 29.2913C363.851 28.1303 366.74 25.6913 370.016 29.7773C365.444 26.6543 359.378 31.2173 359.378 31.2173C359.378 31.2173 352.61 27.7613 348.65 31.6223C351.188 27.0863 354.446 28.9403 359.216 29.2913Z" fill="#F5F5F5"/>
    <path d="M337.851 42.5752C340.794 41.8372 342.63 40.3162 344.709 42.8812C341.811 40.9012 337.95 43.7812 337.95 43.7812C337.95 43.7812 333.657 41.5852 331.137 44.0422C332.748 41.1712 334.8 42.3502 337.851 42.5752Z" fill="#F5F5F5"/>
    <path d="M145.089 128.894C148.959 127.922 151.389 125.924 154.089 129.299C150.273 126.689 145.197 130.505 145.197 130.505C145.197 130.505 139.545 127.616 136.197 130.847C138.384 127.049 141.102 128.588 145.089 128.894Z" fill="#F5F5F5"/>
    <path d="M296.145 308.075C297.103 308.115 298.019 308.476 298.746 309.101C300.282 307.317 302.196 305.897 304.349 304.945C306.502 303.992 308.84 303.53 311.193 303.593C313.458 303.689 315.654 304.398 317.547 305.645C320.247 300.245 325.107 296.465 329.913 296.465C331.188 296.451 332.447 296.743 333.585 297.316C334.724 297.89 335.708 298.727 336.456 299.759C340.11 296.159 344.556 293.927 348.975 293.927C354.447 293.927 358.623 297.329 360.567 302.576C362.253 301.087 364.403 300.228 366.651 300.146C368.027 300.158 369.366 300.588 370.491 301.379C371.616 302.169 372.474 303.284 372.951 304.574C373.212 304.561 373.473 304.561 373.734 304.574C378.432 305.024 381.942 308.507 381.834 312.503H290.493C290.798 311.236 291.522 310.109 292.548 309.305C293.574 308.501 294.842 308.068 296.145 308.075V308.075Z" fill="#FAFAFA"/>
    <path d="M325.503 236.75H333.495L334.683 247.721H337.257L335.745 257.504L336.528 264.767L337.428 264.632L337.617 271.445L339.669 264.821L340.488 247.073H345.159L351.315 227.174H365.823L355.491 263.075L358.74 263.876L350.703 282.902L349.767 282.974L341.262 312.548H324.9L329.274 298.409L331.83 287.249L328.158 267.521L327.645 267.476L325.332 256.982L327.204 256.55L325.503 236.75Z" fill="#F0F0F0"/>
    <path d="M405 195.62C408.357 189.32 406.224 184.82 399.969 182.84C397.548 175.109 380.844 166.478 358.956 162.293C334.116 157.559 316.764 161.978 308.808 168.503C303.524 167.85 298.162 168.617 293.274 170.726C284.688 174.326 279.36 180.347 279.333 185.639C273.186 187.745 271.233 192.335 274.833 198.698C276.633 201.938 280.233 205.133 285.633 207.455C285.555 209.728 286.167 211.972 287.388 213.89C288.152 215.22 289.104 216.432 290.214 217.49C287.406 219.974 287.037 223.682 289.674 228.353C292.149 232.718 297.855 237.029 306.837 239.153C310.257 244.391 321.975 248.252 335.916 248.252C350.523 248.252 362.691 244.013 365.418 238.352C367.218 238.478 369.018 238.55 370.818 238.55C387.432 238.55 397.404 232.484 400.905 226.301C402.885 222.8 403.164 219.848 402.012 217.535C406.818 215.267 410.112 212.279 411.786 209.255C415.8 202.208 412.911 197.321 405 195.62Z" fill="#F5F5F5"/>
    <path d="M159.777 307.544C158.704 307.582 157.675 307.985 156.861 308.687C155.141 306.689 152.997 305.098 150.586 304.03C148.175 302.963 145.557 302.444 142.92 302.513C140.382 302.622 137.922 303.418 135.801 304.817V304.817C132.768 298.796 127.323 294.53 121.941 294.53C120.515 294.514 119.106 294.84 117.831 295.48C116.556 296.121 115.454 297.057 114.615 298.211C110.52 294.161 105.534 291.677 100.584 291.677C94.4554 291.677 89.7844 295.493 87.5884 301.37C85.698 299.71 83.2903 298.755 80.7754 298.67C79.2275 298.675 77.718 299.152 76.4489 300.039C75.1798 300.925 74.2118 302.178 73.6744 303.629C73.3864 303.629 73.0894 303.629 72.7744 303.629C67.5184 304.133 63.5854 308.048 63.6844 312.521H166.104C165.77 311.097 164.962 309.829 163.812 308.925C162.663 308.021 161.24 307.534 159.777 307.544V307.544Z" fill="#FAFAFA"/>
    <path d="M149.878 245.939H142.849L137.242 255.587H134.974L132.238 264.182L128.53 270.554L127.792 270.437L124.786 276.431L125.74 270.608L132.409 255.02H128.305L131.185 237.524H118.432L112.555 269.078L109.378 269.771L108.505 286.502L109.306 286.565L104.473 312.548H118.846L120.889 300.119L123.292 290.318L134.731 272.975L135.199 272.939L141.607 263.723L140.131 263.336L149.878 245.939Z" fill="#F0F0F0"/>
    <path d="M66.5996 214.988C63.2066 208.688 65.3666 204.098 71.6936 202.055C74.1416 194.225 91.0436 185.495 113.193 181.274C138.321 176.468 155.889 180.95 163.935 187.574C169.273 186.902 174.695 187.666 179.64 189.788C188.343 193.442 193.725 199.517 193.752 204.881C199.971 207.014 201.969 211.658 198.333 218.093C196.479 221.369 192.834 224.609 187.38 226.949C187.447 229.253 186.82 231.523 185.58 233.465C184.797 234.792 183.833 236.003 182.718 237.065C185.553 239.576 185.931 243.365 183.258 248.045C180.756 252.473 174.987 256.829 165.897 259.007C162.432 264.299 150.597 268.205 136.485 268.205C121.698 268.205 109.386 263.921 106.623 258.233C104.823 258.359 103.023 258.431 101.124 258.431C84.3116 258.431 74.2226 252.302 70.6856 246.038C68.6876 242.501 68.3996 239.504 69.5696 237.173C64.7006 234.869 61.4066 231.845 59.6696 228.794C55.6466 221.675 58.6076 216.725 66.5996 214.988Z" fill="#F5F5F5"/>
    <path d="M225 353.192C321.374 353.192 399.501 348.631 399.501 343.004C399.501 337.378 321.374 332.816 225 332.816C128.626 332.816 50.499 337.378 50.499 343.004C50.499 348.631 128.626 353.192 225 353.192Z" fill="#F5F5F5"/>
    <path d="M271.538 128.534L273.752 122.9C274.009 122.244 274.068 121.526 273.921 120.836C273.774 120.147 273.427 119.516 272.924 119.021C272.302 118.407 271.548 117.943 270.719 117.662L264.23 115.475L260.774 119.075C259.649 122.927 266.372 126.14 266.372 126.14L271.538 128.534Z" fill="#7F3E3B"/>
    <path d="M263.24 314.735H163.097C161.225 314.735 159.695 316.697 159.695 319.091C159.695 321.485 161.225 323.438 163.097 323.438H263.24C265.112 323.438 266.642 321.476 266.642 319.091C266.642 316.706 265.112 314.735 263.24 314.735Z" fill="#263238"/>
    <path d="M262.242 124.763C261.319 124.993 260.523 125.58 260.031 126.394C259.538 127.209 259.389 128.186 259.614 129.11L297.9 284.288C298.13 285.214 298.718 286.011 299.535 286.504C300.351 286.996 301.33 287.145 302.256 286.916V286.916C303.18 286.687 303.975 286.1 304.468 285.285C304.96 284.471 305.11 283.494 304.884 282.569L266.625 127.409C266.514 126.946 266.311 126.51 266.03 126.126C265.749 125.742 265.394 125.417 264.986 125.171C264.579 124.925 264.126 124.763 263.655 124.692C263.184 124.622 262.704 124.647 262.242 124.763Z" fill="#263238"/>
    <path d="M296.793 287.78C290.984 289.603 285.715 292.831 281.452 297.179C277.19 301.526 274.066 306.858 272.358 312.701C271.984 313.962 271.909 315.292 272.14 316.586C272.371 317.88 272.9 319.103 273.687 320.156C274.474 321.209 275.496 322.064 276.671 322.653C277.847 323.242 279.143 323.547 280.458 323.546H307.665V292.559C307.666 291.621 307.446 290.695 307.024 289.857C306.601 289.019 305.988 288.292 305.233 287.734C304.479 287.177 303.603 286.804 302.678 286.646C301.753 286.488 300.804 286.55 299.907 286.826L296.793 287.78Z" fill="#C68B59"/>
    <path d="M278.792 311.288H163.052C160.955 311.288 159.236 313.484 159.236 316.166C159.236 318.848 160.955 321.044 163.052 321.044H278.792C280.889 321.044 282.608 318.848 282.608 316.166C282.608 313.484 280.889 311.288 278.792 311.288Z" fill="#C68B59"/>
    <path d="M294.092 253.904C292.621 254.27 291.356 255.204 290.571 256.501C289.787 257.798 289.548 259.353 289.907 260.825L298.124 294.125C298.493 295.595 299.427 296.859 300.723 297.643C302.019 298.427 303.573 298.667 305.045 298.31C306.517 297.942 307.783 297.007 308.567 295.708C309.351 294.41 309.589 292.854 309.23 291.38L301.013 258.08C300.645 256.611 299.711 255.347 298.414 254.565C297.117 253.783 295.564 253.545 294.092 253.904V253.904Z" fill="#C68B59"/>
    <path d="M300.141 270.788C299.643 270.912 299.215 271.227 298.95 271.666C298.686 272.105 298.605 272.631 298.728 273.128L301.5 284.378C301.623 284.876 301.939 285.305 302.377 285.571C302.815 285.837 303.341 285.92 303.84 285.8V285.8C304.337 285.673 304.763 285.355 305.028 284.915C305.292 284.476 305.373 283.95 305.253 283.451L302.472 272.183C302.344 271.691 302.028 271.269 301.592 271.008C301.156 270.747 300.635 270.668 300.141 270.788V270.788Z" fill="#263238"/>
    <path d="M299.7 297.149C294.125 298.88 289.261 302.372 285.837 307.1C282.413 311.828 280.614 317.538 280.71 323.375C280.73 324.289 280.962 325.185 281.388 325.994C281.813 326.802 282.421 327.501 283.162 328.035C283.904 328.569 284.759 328.924 285.661 329.071C286.563 329.218 287.487 329.154 288.36 328.883L326.979 316.922C327.853 316.655 328.652 316.189 329.315 315.559C329.977 314.93 330.484 314.155 330.795 313.295C331.106 312.436 331.212 311.516 331.106 310.609C331 309.701 330.684 308.831 330.183 308.066C326.965 303.196 322.255 299.5 316.759 297.531C311.263 295.563 305.278 295.429 299.7 297.149Z" fill="#C68B59"/>
    <path opacity="0.6" d="M299.7 297.149C294.125 298.88 289.261 302.372 285.837 307.1C282.413 311.828 280.614 317.538 280.71 323.375C280.73 324.289 280.962 325.185 281.388 325.994C281.813 326.802 282.421 327.501 283.162 328.035C283.904 328.569 284.759 328.924 285.661 329.071C286.563 329.218 287.487 329.154 288.36 328.883L326.979 316.922C327.853 316.655 328.652 316.189 329.315 315.559C329.977 314.93 330.484 314.155 330.795 313.295C331.106 312.436 331.212 311.516 331.106 310.609C331 309.701 330.684 308.831 330.183 308.066C326.965 303.196 322.255 299.5 316.759 297.531C311.263 295.563 305.278 295.429 299.7 297.149Z" fill="white"/>
    <path d="M321.876 337.111C329.725 329.262 329.725 316.538 321.876 308.689C314.028 300.841 301.303 300.841 293.455 308.689C285.607 316.538 285.607 329.262 293.455 337.111C301.303 344.959 314.028 344.959 321.876 337.111Z" fill="#263238"/>
    <path opacity="0.3" d="M318.491 333.725C324.469 327.747 324.469 318.054 318.491 312.075C312.512 306.096 302.819 306.096 296.841 312.075C290.862 318.054 290.862 327.747 296.841 333.725C302.819 339.704 312.512 339.704 318.491 333.725Z" fill="white"/>
    <path opacity="0.3" d="M315.904 324.253C316.642 319.709 313.556 315.428 309.013 314.691C304.47 313.953 300.189 317.039 299.452 321.582C298.714 326.125 301.799 330.406 306.343 331.144C310.886 331.881 315.167 328.796 315.904 324.253Z" fill="#263238"/>
    <path d="M160.74 322.907H141.885C140.997 322.909 140.12 322.709 139.32 322.322L122.319 314.141C121.495 313.745 120.775 313.163 120.214 312.442C119.654 311.72 119.269 310.878 119.089 309.982C118.909 309.086 118.94 308.16 119.179 307.278C119.417 306.396 119.858 305.581 120.465 304.898C123.667 301.328 127.764 298.678 132.333 297.22C136.902 295.763 141.777 295.551 146.455 296.607C151.133 297.662 155.445 299.948 158.945 303.226C162.445 306.505 165.006 310.658 166.365 315.257C166.634 316.139 166.693 317.072 166.538 317.981C166.383 318.89 166.018 319.751 165.472 320.494C164.925 321.237 164.213 321.842 163.392 322.261C162.57 322.68 161.662 322.901 160.74 322.907V322.907Z" fill="#C68B59"/>
    <path d="M154.746 337.12C162.595 329.271 162.595 316.546 154.746 308.698C146.898 300.85 134.173 300.85 126.325 308.698C118.477 316.546 118.477 329.271 126.325 337.12C134.173 344.968 146.898 344.968 154.746 337.12Z" fill="#263238"/>
    <path opacity="0.3" d="M151.361 333.734C157.34 327.755 157.34 318.062 151.361 312.084C145.383 306.105 135.689 306.105 129.711 312.084C123.732 318.062 123.732 327.755 129.711 333.734C135.689 339.712 145.383 339.712 151.361 333.734Z" fill="white"/>
    <path opacity="0.3" d="M148.769 324.253C149.507 319.71 146.422 315.429 141.878 314.692C137.335 313.954 133.054 317.039 132.317 321.583C131.579 326.126 134.665 330.407 139.208 331.144C143.751 331.882 148.032 328.797 148.769 324.253Z" fill="#263238"/>
    <path d="M171.657 328.892H146.826C145.875 328.878 144.968 328.495 144.295 327.822C143.623 327.15 143.24 326.243 143.226 325.292C143.24 324.342 143.623 323.434 144.295 322.762C144.968 322.09 145.875 321.706 146.826 321.692H171.657C172.607 321.706 173.515 322.09 174.187 322.762C174.859 323.434 175.243 324.342 175.257 325.292C175.245 326.243 174.862 327.152 174.189 327.825C173.517 328.498 172.608 328.881 171.657 328.892V328.892Z" fill="#263238"/>
    <path d="M178.055 319.091H140.399C139.388 319.094 138.418 319.496 137.703 320.212C136.988 320.927 136.585 321.896 136.583 322.907C136.588 323.918 136.991 324.886 137.706 325.6C138.421 326.315 139.388 326.719 140.399 326.723H178.028C179.039 326.719 180.006 326.315 180.721 325.6C181.436 324.886 181.839 323.918 181.844 322.907V322.907C181.842 321.901 181.443 320.935 180.733 320.221C180.024 319.507 179.062 319.101 178.055 319.091V319.091Z" fill="#C68B59"/>
    <path opacity="0.6" d="M178.055 319.091H140.399C139.388 319.094 138.418 319.496 137.703 320.212C136.988 320.927 136.585 321.896 136.583 322.907C136.588 323.918 136.991 324.886 137.706 325.6C138.421 326.315 139.388 326.719 140.399 326.723H178.028C179.039 326.719 180.006 326.315 180.721 325.6C181.436 324.886 181.839 323.918 181.844 322.907V322.907C181.842 321.901 181.443 320.935 180.733 320.221C180.024 319.507 179.062 319.101 178.055 319.091V319.091Z" fill="white"/>
    <path d="M150.731 324.194H143.099C142.758 324.194 142.431 324.059 142.189 323.817C141.948 323.576 141.813 323.249 141.813 322.907C141.812 322.565 141.948 322.237 142.189 321.994C142.43 321.751 142.757 321.614 143.099 321.611H150.758C151.101 321.614 151.43 321.751 151.672 321.994C151.915 322.236 152.052 322.564 152.054 322.907V322.907C152.053 323.079 152.018 323.249 151.951 323.407C151.883 323.565 151.785 323.708 151.662 323.828C151.539 323.947 151.393 324.041 151.234 324.104C151.074 324.167 150.903 324.198 150.731 324.194Z" fill="white"/>
    <path opacity="0.3" d="M262.35 317.759H234.9C234.478 317.757 234.074 317.588 233.776 317.29C233.478 316.992 233.309 316.588 233.307 316.166V316.166C233.307 315.744 233.474 315.339 233.773 315.04C234.072 314.741 234.477 314.573 234.9 314.573H262.35C262.773 314.573 263.179 314.741 263.479 315.039C263.779 315.338 263.949 315.743 263.952 316.166V316.166C263.949 316.59 263.779 316.995 263.479 317.293C263.179 317.592 262.773 317.759 262.35 317.759V317.759Z" fill="white"/>
    <path d="M266.318 126.563C266.318 127.571 266.019 128.556 265.459 129.393C264.9 130.231 264.104 130.884 263.173 131.27C262.242 131.655 261.218 131.756 260.23 131.559C259.242 131.363 258.334 130.878 257.622 130.165C256.909 129.453 256.424 128.545 256.228 127.557C256.031 126.569 256.132 125.545 256.518 124.614C256.903 123.683 257.556 122.888 258.394 122.328C259.232 121.768 260.216 121.469 261.224 121.469C262.575 121.469 263.871 122.006 264.826 122.961C265.781 123.917 266.318 125.212 266.318 126.563V126.563Z" fill="#263238"/>
    <path d="M269.289 131.522L262.845 128.822C262.158 128.537 261.612 127.992 261.327 127.305C261.042 126.619 261.041 125.847 261.324 125.159V125.159C261.609 124.472 262.154 123.927 262.841 123.641C263.528 123.356 264.299 123.355 264.987 123.638L271.431 126.338C272.116 126.625 272.66 127.171 272.945 127.857C273.23 128.543 273.232 129.314 272.952 130.001C272.663 130.685 272.117 131.228 271.432 131.512C270.747 131.797 269.977 131.8 269.289 131.522V131.522Z" fill="#263238"/>
    <path d="M296.748 275.81C295.356 275.804 293.977 275.541 292.68 275.036C291.302 274.539 290.044 273.759 288.985 272.747C287.927 271.735 287.091 270.513 286.533 269.159C285.426 266.288 285.633 263.156 285.84 260.159L285.921 258.881C286.434 250.16 284.967 242.888 281.547 237.281C280.288 235.315 278.899 233.436 277.389 231.656C276.615 230.702 275.814 229.712 275.058 228.704C269.43 221.163 266.003 212.21 265.158 202.838C264.456 194.657 265.788 186.404 267.075 178.43C267.489 175.865 267.921 173.21 268.272 170.609C269.433 162.023 270.333 149.441 264.717 139.334L265.572 138.857C271.332 149.225 270.423 162.014 269.244 170.735C268.893 173.354 268.461 176.018 268.047 178.583C266.769 186.503 265.446 194.693 266.139 202.748C266.951 211.937 270.297 220.72 275.805 228.119C276.552 229.109 277.344 230.09 278.118 231.035C279.653 232.851 281.066 234.766 282.348 236.768C285.867 242.564 287.388 250.025 286.848 258.944L286.767 260.231C286.569 263.147 286.362 266.162 287.397 268.835C287.931 270.044 288.699 271.135 289.656 272.046C290.613 272.957 291.741 273.67 292.974 274.144C294.208 274.619 295.523 274.844 296.844 274.809C298.165 274.774 299.465 274.478 300.672 273.938L301.113 274.838C299.753 275.497 298.259 275.83 296.748 275.81V275.81Z" fill="#263238"/>
    <path d="M205.911 50.3783C187.542 57.0383 169.2 47.9573 152.1 49.0463C135 50.1353 120.6 61.0883 117.189 65.5883C124.686 66.7853 129.042 77.4413 129.042 77.4413C129.042 77.4413 144.963 62.1413 161.55 60.3413C188.136 57.4073 195.606 63.4193 208.98 57.4073L205.911 50.3783Z" fill="#263238"/>
    <path d="M244.665 284.567L249.948 305.213L259.839 302.783L254.556 282.137L244.665 284.567Z" fill="#7F3E3B"/>
    <path d="M260.037 298.571L248.868 300.992C248.694 301.027 248.539 301.126 248.434 301.269C248.329 301.413 248.282 301.59 248.301 301.766L249.075 309.965C249.156 310.368 249.387 310.725 249.721 310.964C250.055 311.203 250.468 311.306 250.875 311.252C254.07 311.252 255.447 309.902 259.875 308.93C265.059 307.796 268.398 309.479 273.897 306.563C277.227 304.763 276.03 301.163 274.446 301.559C269.415 302.927 265.104 300.452 262.422 298.787C261.684 298.412 260.83 298.334 260.037 298.571V298.571Z" fill="#263238"/>
    <path opacity="0.2" d="M244.665 284.567L247.383 295.214L257.283 292.784L254.556 282.137L244.665 284.567Z" fill="black"/>
    <path d="M227.034 205.007C215.253 170.339 205.911 129.407 205.911 129.407L239.535 127.283C239.535 127.283 244.485 180.383 247.068 204.845C249.768 230.288 258.102 287.735 258.102 287.735L242.937 290.804C242.937 290.804 228.708 236.732 227.034 205.007Z" fill="#263238"/>
    <path opacity="0.2" d="M221.4 148.712L213.3 158.801C215.379 166.586 217.8 175.334 220.5 184.28C222.003 172.485 222.304 160.568 221.4 148.712V148.712Z" fill="black"/>
    <path d="M257.877 289.895L243.972 292.946C243.695 293.007 243.406 292.964 243.16 292.824C242.914 292.685 242.729 292.459 242.64 292.19L241.101 287.69C241.047 287.538 241.027 287.376 241.04 287.215C241.054 287.055 241.101 286.899 241.179 286.757C241.258 286.616 241.365 286.493 241.494 286.397C241.623 286.3 241.771 286.232 241.929 286.196L257.022 282.641C257.184 282.603 257.354 282.601 257.517 282.634C257.681 282.668 257.835 282.737 257.97 282.836C258.104 282.936 258.216 283.063 258.296 283.21C258.376 283.356 258.423 283.518 258.435 283.685L258.786 288.671C258.809 288.951 258.73 289.23 258.563 289.455C258.395 289.681 258.151 289.837 257.877 289.895Z" fill="#263238"/>
    <path opacity="0.1" d="M257.877 289.895L243.972 292.946C243.695 293.007 243.406 292.964 243.16 292.824C242.914 292.685 242.729 292.459 242.64 292.19L241.101 287.69C241.047 287.538 241.027 287.376 241.04 287.215C241.054 287.055 241.101 286.899 241.179 286.757C241.258 286.616 241.365 286.493 241.494 286.397C241.623 286.3 241.771 286.232 241.929 286.196L257.022 282.641C257.184 282.603 257.354 282.601 257.517 282.634C257.681 282.668 257.835 282.737 257.97 282.836C258.104 282.936 258.216 283.063 258.296 283.21C258.376 283.356 258.423 283.518 258.435 283.685L258.786 288.671C258.809 288.951 258.73 289.23 258.563 289.455C258.395 289.681 258.151 289.837 257.877 289.895Z" fill="white"/>
    <path d="M189.215 283.847L188.594 305.159L198.791 305.015L199.412 283.703L189.215 283.847Z" fill="#7F3E3B"/>
    <path d="M199.035 300.65L188.19 300.803C188.014 300.803 187.845 300.868 187.715 300.986C187.585 301.104 187.504 301.267 187.488 301.442L186.588 309.632C186.565 309.843 186.587 310.057 186.653 310.258C186.719 310.46 186.827 310.645 186.97 310.802C187.113 310.959 187.288 311.083 187.482 311.167C187.677 311.251 187.888 311.292 188.1 311.288C191.7 311.171 192.843 310.874 197.379 310.802C202.689 310.721 203.841 311.387 210.069 311.288C213.84 311.225 214.443 307.418 212.823 307.076C208.548 306.216 204.574 304.245 201.303 301.361C200.666 300.843 199.854 300.589 199.035 300.65V300.65Z" fill="#263238"/>
    <path opacity="0.2" d="M189.216 283.856L188.892 294.836L199.089 294.692L199.413 283.712L189.216 283.856Z" fill="black"/>
    <path d="M193.5 206.069C196.371 169.592 192.168 148.154 196.407 130.037L227.007 128.147C227.007 128.147 219.303 183.488 214.056 207.788C208.809 232.088 201.411 289.166 201.411 289.166L186.372 289.355C186.372 289.355 186.3 234.527 193.5 206.069Z" fill="#263238"/>
    <path d="M201.365 291.848L187.145 292.073C186.849 292.079 186.562 291.969 186.344 291.768C186.126 291.567 185.994 291.289 185.975 290.993L185.66 286.295C185.651 286.141 185.672 285.987 185.723 285.841C185.775 285.695 185.855 285.561 185.959 285.447C186.063 285.333 186.189 285.24 186.33 285.176C186.47 285.111 186.622 285.076 186.776 285.071L202.265 284.585C202.438 284.581 202.609 284.616 202.766 284.686C202.924 284.756 203.063 284.86 203.175 284.991C203.287 285.122 203.369 285.277 203.414 285.443C203.459 285.609 203.466 285.784 203.435 285.953L202.499 290.912C202.449 291.176 202.308 291.414 202.101 291.585C201.894 291.756 201.634 291.849 201.365 291.848Z" fill="#263238"/>
    <path opacity="0.1" d="M201.365 291.848L187.145 292.073C186.849 292.079 186.562 291.969 186.344 291.768C186.126 291.567 185.994 291.289 185.975 290.993L185.66 286.295C185.651 286.141 185.672 285.987 185.723 285.841C185.775 285.695 185.855 285.561 185.959 285.447C186.063 285.333 186.189 285.24 186.33 285.176C186.47 285.111 186.622 285.076 186.776 285.071L202.265 284.585C202.438 284.581 202.609 284.616 202.766 284.686C202.924 284.756 203.063 284.86 203.175 284.991C203.287 285.122 203.369 285.277 203.414 285.443C203.459 285.609 203.466 285.784 203.435 285.953L202.499 290.912C202.449 291.176 202.308 291.414 202.101 291.585C201.894 291.756 201.634 291.849 201.365 291.848Z" fill="white"/>
    <path d="M237.663 66.9743C238.761 69.4313 239.751 71.9153 240.786 74.3903C241.821 76.8653 242.784 79.3763 243.729 81.8873C244.674 84.3983 245.628 86.9183 246.528 89.4563C247.428 91.9943 248.328 94.5413 249.174 97.1693L248.742 96.2693C249.765 98.1606 250.939 99.9664 252.252 101.669C253.62 103.469 255.087 105.269 256.635 107.069C258.183 108.869 259.767 110.588 261.396 112.262C262.215 113.099 263.034 113.936 263.853 114.692C264.258 115.079 264.663 115.448 265.023 115.763L265.473 116.15C265.473 116.15 265.545 116.222 265.428 116.213H265.302H265.032H264.816C264.69 116.203 264.563 116.203 264.438 116.213C264.272 116.245 264.11 116.29 263.952 116.348C263.723 116.427 263.508 116.539 263.313 116.681C263.642 116.439 264.016 116.265 264.414 116.171C264.812 116.076 265.225 116.063 265.628 116.133C266.031 116.202 266.416 116.352 266.759 116.574C267.103 116.796 267.398 117.085 267.627 117.424C267.856 117.763 268.014 118.144 268.091 118.546C268.169 118.947 268.165 119.36 268.079 119.76C267.993 120.16 267.827 120.538 267.591 120.872C267.355 121.206 267.054 121.489 266.706 121.703C266.474 121.861 266.223 121.988 265.959 122.081C265.764 122.156 265.562 122.21 265.356 122.243C265.195 122.269 265.032 122.284 264.87 122.288H264.546C264.379 122.286 264.214 122.268 264.051 122.234L263.7 122.162C263.395 122.088 263.095 121.998 262.8 121.892C262.332 121.721 261.972 121.559 261.63 121.397C260.946 121.073 260.334 120.749 259.74 120.416C258.57 119.75 257.463 119.057 256.392 118.328C254.241 116.879 252.198 115.322 250.218 113.684C248.214 112.02 246.301 110.25 244.485 108.383C242.532 106.416 240.774 104.264 239.238 101.957C239.159 101.841 239.093 101.718 239.04 101.588L238.806 101.048L232.506 86.4863C231.444 84.0473 230.418 81.5903 229.392 79.1333C228.366 76.6763 227.331 74.2103 226.377 71.7353C225.839 70.2536 225.892 68.6216 226.527 67.1784C227.161 65.7352 228.327 64.5918 229.782 63.9858C231.237 63.3799 232.87 63.3579 234.341 63.9245C235.812 64.4911 237.008 65.6027 237.681 67.0283L237.663 66.9743Z" fill="#803E3C"/>
    <path d="M229.878 56.3003C241.227 60.0443 246.267 79.8803 246.267 79.8803C241.659 85.0823 236.835 88.8803 231.615 90.1493C231.615 90.1493 227.601 82.6613 223.515 73.4183C219.105 63.3473 220.896 53.3393 229.878 56.3003Z" fill="#C68B59"/>
    <path d="M240.237 70.3043C239.697 65.8851 237.554 61.8176 234.215 58.8732C230.876 55.9287 226.572 54.3119 222.12 54.3293C213.575 54.398 205.059 55.3359 196.704 57.1283C195.407 57.4094 194.18 57.9466 193.093 58.7082C192.006 59.4699 191.083 60.4407 190.376 61.5639C189.669 62.6871 189.194 63.94 188.978 65.2492C188.762 66.5584 188.809 67.8976 189.117 69.1883C196.839 101.282 190.467 119.147 192.384 132.881C208.638 135.914 227.808 128.912 241.272 131.333C242.712 107.834 241.839 84.0473 240.237 70.3043Z" fill="#C68B59"/>
    <path d="M223.839 103.217C217.08 103.217 211.14 96.1253 210.591 87.4133C210.285 82.4723 211.734 77.9003 214.578 74.8763C215.503 73.8409 216.634 73.0104 217.899 72.4385C219.163 71.8665 220.534 71.5657 221.922 71.5553C228.681 71.5553 234.621 78.6383 235.161 87.3503C235.476 92.2913 234.018 96.8633 231.174 99.8963C230.252 100.933 229.123 101.764 227.859 102.336C226.596 102.908 225.226 103.208 223.839 103.217V103.217ZM221.922 72.6173C220.681 72.628 219.456 72.8986 218.326 73.4117C217.196 73.9248 216.186 74.669 215.361 75.5963C212.715 78.4133 211.365 82.6883 211.662 87.3413C212.175 95.4953 217.638 102.137 223.839 102.137C225.08 102.125 226.304 101.854 227.434 101.341C228.564 100.828 229.574 100.084 230.4 99.1583C233.046 96.3413 234.396 92.0573 234.099 87.4043C233.586 79.2593 228.123 72.6263 221.922 72.6263V72.6173Z" fill="white"/>
    <path d="M225.242 89.3303L231.182 76.8203L227.159 73.6252L223.352 72.2032L220.256 85.5053L222.443 87.1793L219.707 101.732L227.762 91.2742L225.242 89.3303Z" fill="white"/>
    <path d="M204.3 35.7893C205.641 40.9553 207.216 50.0273 204.75 54.9863C204.494 55.4701 204.415 56.0279 204.527 56.5636C204.639 57.0992 204.934 57.5791 205.362 57.9203C208.53 60.3593 212.562 62.6363 218.511 62.2673C224.721 61.8893 224.262 58.1723 222.687 55.6883C222.524 55.4267 222.31 55.2004 222.058 55.0226C221.806 54.8449 221.521 54.7193 221.22 54.6533C215.352 53.4473 215.28 48.7763 216.117 44.2853L204.3 35.7893Z" fill="#7F3E3B"/>
    <path d="M205.955 47.0933C201.734 45.4463 201.968 47.7863 202.058 51.0803C202.148 54.3743 197.999 54.7883 200.591 57.7493C203.183 60.7103 212.354 64.2653 218.753 63.1493C229.841 61.1783 224.063 56.9123 223.118 54.5903C222.173 52.2683 224.783 47.8493 221.552 47.2283C218.321 46.6073 212.165 49.5143 205.955 47.0933Z" fill="#263238"/>
    <path opacity="0.2" d="M220.779 54.6173C215.478 56.9663 207.711 56.1563 203.256 52.9703C208.862 54.9986 214.893 55.5654 220.779 54.6173" fill="black"/>
    <path opacity="0.2" d="M209.097 39.2543L216.09 44.2853C215.871 45.3734 215.748 46.4786 215.721 47.5883C213.183 47.4713 209.574 45.0503 209.151 42.4493C208.941 41.3962 208.923 40.3138 209.097 39.2543Z" fill="black"/>
    <path d="M221.067 28.0403C224.847 26.6993 225.414 21.2273 221.967 18.2303C215.1 16.8353 217.287 25.1513 221.067 28.0403Z" fill="#263238"/>
    <path d="M202.104 27.0143C203.166 34.9073 203.409 39.6143 207.558 43.2143C213.795 48.7133 222.858 44.0423 224.109 35.9063C225.198 28.5893 223.272 16.9073 215.595 14.5583C207.918 12.2093 201.033 19.1213 202.104 27.0143Z" fill="#7F3E3B"/>
    <path d="M203.04 31.8923C207.234 31.3343 208.503 26.1143 206.361 22.3343C208.161 22.2353 214.587 22.1363 214.29 19.2383C218.934 21.2363 224.937 22.5143 224.64 18.7883C224.388 15.7103 221.985 13.1903 216.891 11.0843C211.797 8.97829 197.442 8.94229 198.135 19.1843C190.8 23.8913 196.488 32.5853 203.04 31.8923Z" fill="#263238"/>
    <path d="M199.458 33.4673C200.27 35.1959 201.713 36.5483 203.49 37.2473C205.74 38.0753 206.829 35.8523 206.19 33.4133C205.596 31.2173 203.706 28.1483 201.456 28.3913C199.206 28.6343 198.405 31.2623 199.458 33.4673Z" fill="#7F3E3B"/>
    <path d="M223.623 21.1823L210.042 22.8293C208.337 23.0367 206.784 23.9104 205.721 25.2595C204.659 26.6087 204.174 28.3235 204.372 30.0293L205.155 36.4463C205.234 37.1311 205.106 37.8239 204.788 38.4353C204.469 39.0467 203.975 39.5485 203.368 39.876C202.762 40.2035 202.071 40.3417 201.385 40.2725C200.699 40.2034 200.05 39.9303 199.521 39.4883C197.58 37.8756 196.016 35.8577 194.939 33.5763C193.861 31.2948 193.296 28.8051 193.282 26.282C193.269 23.7589 193.809 21.2634 194.862 18.9709C195.916 16.6783 197.459 14.6442 199.383 13.0113C201.306 11.3785 203.564 10.1864 205.997 9.51888C208.43 8.85134 210.98 8.72448 213.468 9.1472C215.955 9.56993 218.32 10.532 220.396 11.9659C222.472 13.3998 224.21 15.2707 225.486 17.4473C225.697 17.8045 225.816 18.209 225.831 18.6238C225.846 19.0387 225.757 19.4507 225.571 19.8222C225.386 20.1937 225.111 20.5128 224.77 20.7504C224.43 20.988 224.035 21.1365 223.623 21.1823V21.1823Z" fill="#C68B59"/>
    <path opacity="0.2" d="M201.707 35.0873C202.238 36.3833 202.004 37.6973 201.194 38.0213C200.384 38.3453 199.295 37.5713 198.773 36.2753C198.251 34.9793 198.485 33.6653 199.295 33.3323C200.105 32.9993 201.185 33.7913 201.707 35.0873Z" fill="white"/>
    <path d="M213.129 27.5453C213.183 28.1933 213.579 28.6883 214.029 28.6433C214.479 28.5983 214.749 28.0493 214.695 27.4013C214.641 26.7533 214.245 26.2583 213.795 26.2943C213.345 26.3303 213.075 26.8883 213.129 27.5453Z" fill="#263238"/>
    <path d="M220.751 27.2213C220.814 27.8693 221.201 28.3643 221.651 28.3193C222.101 28.2743 222.371 27.7163 222.317 27.0683C222.263 26.4203 221.867 25.9343 221.417 25.9703C220.967 26.0063 220.697 26.5733 220.751 27.2213Z" fill="#263238"/>
    <path d="M218.403 27.2303C219.356 29.1369 220.567 30.9027 222.003 32.4773C220.95 33.6653 218.952 33.3773 218.952 33.3773L218.403 27.2303Z" fill="#630F0F"/>
    <path d="M216.251 36.5273C215.524 36.5808 214.793 36.4863 214.103 36.2497C213.413 36.013 212.779 35.639 212.237 35.1503C212.2 35.1132 212.18 35.0631 212.18 35.0108C212.18 34.9586 212.2 34.9084 212.237 34.8713C212.255 34.8534 212.276 34.8391 212.299 34.8294C212.322 34.8196 212.347 34.8146 212.372 34.8146C212.397 34.8146 212.422 34.8196 212.445 34.8294C212.469 34.8391 212.49 34.8534 212.507 34.8713C213.114 35.4041 213.837 35.7868 214.619 35.9885C215.4 36.1902 216.219 36.2052 217.007 36.0323C217.031 36.0257 217.057 36.0242 217.082 36.028C217.107 36.0318 217.13 36.0408 217.152 36.0544C217.173 36.0679 217.191 36.0858 217.205 36.1068C217.219 36.1278 217.228 36.1515 217.232 36.1763C217.237 36.2012 217.238 36.2268 217.233 36.2518C217.228 36.2767 217.218 36.3003 217.203 36.3213C217.189 36.3423 217.171 36.3602 217.149 36.374C217.128 36.3877 217.104 36.397 217.079 36.4013C216.807 36.4637 216.53 36.5058 216.251 36.5273V36.5273Z" fill="#263238"/>
    <path d="M210.312 25.4663C210.246 25.4597 210.184 25.4348 210.132 25.3943C210.054 25.3294 210.005 25.2373 209.993 25.1369C209.981 25.0365 210.008 24.9354 210.069 24.8543C210.432 24.3643 210.906 23.9669 211.451 23.6948C211.997 23.4226 212.6 23.2834 213.21 23.2883C213.26 23.2917 213.31 23.3052 213.355 23.328C213.4 23.3508 213.44 23.3824 213.473 23.421C213.506 23.4597 213.53 23.5045 213.545 23.5528C213.56 23.6011 213.566 23.652 213.561 23.7023C213.552 23.8035 213.503 23.8969 213.426 23.9626C213.348 24.0282 213.248 24.0608 213.147 24.0533V24.0533C212.664 24.0547 212.189 24.1695 211.759 24.3883C211.329 24.6072 210.957 24.9241 210.672 25.3133C210.631 25.3692 210.576 25.4131 210.513 25.44C210.45 25.467 210.38 25.4761 210.312 25.4663V25.4663Z" fill="#263238"/>
    <path d="M224.937 24.6203C224.874 24.6299 224.81 24.6224 224.752 24.5987C224.693 24.5749 224.642 24.5357 224.604 24.4853C224.306 24.1106 223.925 23.811 223.49 23.6109C223.056 23.4108 222.58 23.3157 222.102 23.3333C222.002 23.3436 221.902 23.3146 221.823 23.2524C221.744 23.1903 221.692 23.0999 221.679 23.0003C221.669 22.9004 221.698 22.8004 221.76 22.7214C221.822 22.6425 221.912 22.5908 222.012 22.5773C222.617 22.5386 223.223 22.6479 223.776 22.8956C224.33 23.1434 224.814 23.5222 225.189 23.9993C225.253 24.0773 225.285 24.1775 225.277 24.2785C225.268 24.3795 225.22 24.4731 225.144 24.5393C225.083 24.5832 225.011 24.6111 224.937 24.6203Z" fill="#263238"/>
    <path d="M197.55 74.3813L195.957 77.4773C195.417 78.5393 194.895 79.6103 194.382 80.6813C193.365 82.8323 192.339 84.9833 191.394 87.1523C189.482 91.3662 187.876 95.7125 186.588 100.157L186.174 101.759C186.174 101.876 186.174 101.759 186.174 101.759V101.696C186.157 101.773 186.157 101.853 186.174 101.93C186.233 102.75 186.391 103.56 186.642 104.342C187.336 106.468 188.169 108.545 189.135 110.561C191.106 114.827 193.473 119.165 195.732 123.458L195.777 123.548C196.131 124.197 196.237 124.953 196.077 125.674C195.917 126.396 195.502 127.035 194.907 127.474C194.312 127.913 193.579 128.122 192.842 128.062C192.105 128.002 191.415 127.677 190.899 127.148C187.249 123.484 183.936 119.499 180.999 115.241C179.426 112.991 178.056 110.606 176.904 108.113C176.191 106.606 175.679 105.011 175.383 103.37C175.293 102.832 175.238 102.287 175.221 101.741C175.204 101.424 175.204 101.105 175.221 100.787C175.221 100.634 175.221 100.445 175.221 100.265L175.284 99.8153L175.626 97.7723C176.107 95.1252 176.75 92.5102 177.552 89.9423C178.299 87.3953 179.208 84.9383 180.144 82.5173C181.08 80.0963 182.124 77.7203 183.249 75.3893C183.798 74.2193 184.374 73.0673 184.968 71.9153C185.562 70.7633 186.156 69.6563 186.858 68.4233C187.632 66.9911 188.942 65.9248 190.502 65.459C192.061 64.9932 193.742 65.1659 195.174 65.9393C196.606 66.7127 197.673 68.0233 198.138 69.5829C198.604 71.1424 198.432 72.8231 197.658 74.2553L197.55 74.3813Z" fill="#803E3C"/>
    <path d="M195.677 57.4073C182.438 60.7463 176.957 79.3763 176.957 79.3763C176.957 79.3763 180.728 79.4393 185.66 83.3633C191.141 87.7103 195.866 87.3863 195.866 87.3863C195.866 87.3863 199.286 85.2173 200.51 75.1913C201.095 70.4033 198.359 57.2813 195.677 57.4073Z" fill="#C68B59"/>
    <path d="M193.644 121.595L201.294 124.448L195.435 132.305C195.435 132.305 188.82 128.876 190.035 125.105L193.644 121.595Z" fill="#7F3E3B"/>
    <path d="M204.885 132.188L202.365 134.6C201.877 135.061 201.242 135.336 200.572 135.375C199.902 135.415 199.24 135.217 198.702 134.816L195.435 132.35L201.294 124.493L204.894 128.147C205.162 128.411 205.375 128.726 205.52 129.073C205.666 129.42 205.74 129.793 205.739 130.17C205.738 130.546 205.662 130.919 205.516 131.265C205.369 131.612 205.154 131.926 204.885 132.188V132.188Z" fill="#7F3E3B"/>
    <path opacity="0.2" d="M222.192 17.3033C221.418 18.6083 218.664 18.4103 216.036 16.8533C213.408 15.2963 211.914 12.9833 212.688 11.6783C213.462 10.3733 216.216 10.5713 218.844 12.1193C221.472 13.6673 222.966 15.9983 222.192 17.3033Z" fill="white"/>
</svg>