<svg width="656" height="650" viewBox="0 0 656 650" fill="none" xmlns="http://www.w3.org/2000/svg">
<g opacity="0.8">
<path d="M655.46 150.84H585.781V169.273H655.46V150.84Z" fill="#EBEBEB"/>
<path d="M294.373 577.568C294.38 571.38 292.959 565.274 290.223 559.725C287.486 554.175 283.507 549.331 278.594 545.569C273.681 541.807 267.966 539.229 261.895 538.034C255.823 536.84 249.558 537.062 243.586 538.682C237.614 540.303 232.097 543.278 227.462 547.378C222.827 551.478 219.2 556.591 216.862 562.32C214.524 568.049 213.539 574.241 213.983 580.412C214.428 586.584 216.289 592.571 219.422 597.906L219.537 598.05C221.084 600.656 223.017 602.518 224.98 605.211L248.326 636.205C249.002 637.104 249.878 637.833 250.885 638.335C251.892 638.837 253.001 639.098 254.126 639.098C255.251 639.098 256.361 638.837 257.367 638.335C258.374 637.833 259.25 637.104 259.927 636.205L282.843 605.755C284.938 603.287 286.889 600.699 288.687 598.007L288.773 597.906C292.421 591.748 294.354 584.726 294.373 577.568ZM254.055 595.085C250.55 595.085 247.124 594.045 244.21 592.098C241.296 590.151 239.025 587.383 237.685 584.144C236.344 580.906 235.994 577.343 236.679 573.906C237.364 570.469 239.053 567.312 241.532 564.835C244.011 562.358 247.169 560.671 250.607 559.989C254.045 559.307 257.607 559.66 260.845 561.003C264.082 562.347 266.848 564.62 268.793 567.535C270.738 570.451 271.774 573.877 271.772 577.382C271.772 579.708 271.313 582.011 270.423 584.16C269.532 586.309 268.227 588.261 266.582 589.905C264.936 591.549 262.983 592.853 260.834 593.741C258.684 594.63 256.381 595.087 254.055 595.085Z" fill="#E0E0E0"/>
<path d="M144.974 63.2144H75.294V81.6476H144.974V63.2144Z" fill="#EBEBEB"/>
<path d="M114.61 101.069C114.603 100.959 114.603 100.849 114.61 100.74V99.7944C114.61 98.9207 114.61 97.7176 114.61 96.1564C114.61 92.9768 114.61 88.4079 114.495 82.6359L114.71 82.8507L44.9444 82.9939L45.3024 82.6359V87.348C45.3024 88.9092 45.3024 90.4703 45.3024 92.0029V101.069L44.9444 100.725L94.6009 100.883L109.253 100.983H113.22H114.252H114.624C114.624 100.983 114.524 100.983 114.309 100.983H113.306H109.425L94.8444 101.083L44.9444 101.413H44.6006V101.069C44.6006 98.0995 44.6006 95.0775 44.6006 92.0029V82.6645L44.9587 82.3065L114.638 82.4497H114.853V82.6645C114.853 88.4938 114.767 93.1057 114.738 96.314C114.738 97.8465 114.738 99.0496 114.738 99.8946C114.738 100.267 114.738 100.568 114.738 100.811C114.738 101.055 114.624 101.083 114.61 101.069Z" fill="#E0E0E0"/>
<path d="M647.74 550.255H578.061V568.688H647.74V550.255Z" fill="#EBEBEB"/>
<path d="M617.376 588.095C617.364 587.986 617.364 587.875 617.376 587.766C617.376 587.522 617.376 587.207 617.376 586.821C617.376 585.947 617.376 584.744 617.376 583.197C617.376 580.003 617.305 575.434 617.262 569.662L617.477 569.877L547.797 570.02C547.955 569.863 547.439 570.378 548.141 569.662V588.081L547.797 587.737L597.454 587.895L612.106 587.995H616.073H617.104H617.477H617.147H616.159H612.263L597.697 588.095L547.668 588.496H547.31V569.676C548.012 568.975 547.511 569.49 547.668 569.318L617.348 569.462H617.563V569.676C617.563 575.506 617.477 580.118 617.448 583.34C617.448 584.858 617.448 586.062 617.448 586.921C617.448 587.293 617.448 587.58 617.448 587.823C617.431 587.916 617.408 588.007 617.376 588.095Z" fill="#E0E0E0"/>
<path d="M463.165 71.8079C463.159 71.6982 463.159 71.5882 463.165 71.4785V70.5332C463.165 69.6595 463.165 68.4564 463.165 66.9096C463.165 63.73 463.165 59.1467 463.05 53.3747L463.265 53.5895L393.586 53.7328L393.944 53.3747V62.7274C393.944 65.802 393.944 68.824 393.944 71.7936L393.6 71.4499L443.256 71.6074L457.908 71.7077H461.876H462.921H463.165C463.165 71.7077 463.065 71.7077 462.85 71.7077H461.847H457.966L443.385 71.8079L393.485 71.9655H393.142V71.6074C393.142 68.6426 393.142 65.6205 393.142 62.5412V53.389L393.5 53.0453L463.179 53.1742H463.394V53.389C463.394 59.2183 463.308 63.8302 463.279 67.0528C463.279 68.5853 463.279 69.7741 463.279 70.6335V71.5358C463.165 71.722 463.165 71.8222 463.165 71.8079Z" fill="#E0E0E0"/>
<path d="M472.618 53.3747C472.606 53.2604 472.606 53.1453 472.618 53.031V52.057C472.618 51.1404 472.618 49.9087 472.618 48.3618C472.618 45.1249 472.532 40.556 472.475 34.9415L472.732 35.1993L430.867 35.2996C430.552 35.6147 431.297 34.8699 431.211 34.9415V44.4231C431.211 47.5168 431.211 50.4959 431.211 53.3604L430.882 53.031L460.83 53.1885L469.553 53.2745H471.902H472.747C472.494 53.295 472.24 53.295 471.988 53.2745H469.696L461.102 53.3747L430.925 53.5323H430.581V53.1885C430.581 50.324 430.581 47.3449 430.581 44.2512V34.9558L430.939 34.5978L472.804 34.698H473.062V34.9558C473.062 40.6849 472.947 45.2538 472.919 48.5194C472.919 50.0519 472.919 51.2693 472.919 52.1573C472.919 53.0453 472.632 53.4034 472.618 53.3747Z" fill="#E0E0E0"/>
<path d="M69.923 596.216C69.923 596.216 69.923 596.087 69.923 595.873V594.927C69.923 594.068 69.923 592.85 69.923 591.304C69.923 588.124 69.923 583.541 69.7941 577.783L70.009 577.998L0.32942 578.127L0.687485 577.783V587.121C0.687485 590.186 0.687485 593.223 0.687485 596.188L0.343743 595.83L50.0003 596.001L64.6523 596.087H68.6197H69.6652H70.0233H69.7082H68.7056H64.8242L50.2437 596.188L0.343743 596.345H0V596.001C0 593.037 0 590 0 586.935V577.597L0.358065 577.239L70.0376 577.382H70.2524V577.597C70.2524 583.412 70.1665 588.038 70.1379 591.246C70.1379 592.779 70.1379 593.968 70.1379 594.827V595.729C70.103 595.905 70.0297 596.072 69.923 596.216Z" fill="#E0E0E0"/>
<path d="M79.3187 577.783C79.3081 577.664 79.3081 577.544 79.3187 577.425C79.3187 577.167 79.3187 576.838 79.3187 576.451C79.3187 575.549 79.3187 574.317 79.3187 572.756C79.3187 569.519 79.2327 564.95 79.1754 559.35L79.4332 559.593L37.5682 559.694L37.912 559.35V568.817C37.912 571.897 37.912 574.89 37.912 577.754L37.5826 577.411L67.5311 577.568L76.2536 577.669H78.6025H79.4476C79.1949 577.689 78.9411 577.689 78.6885 577.669H76.3968L67.8033 577.754L37.6255 577.912H37.2818V577.583C37.2818 574.718 37.2818 571.725 37.2818 568.645V559.178L37.6398 558.82L79.5048 558.92H79.7627V559.178C79.7627 564.907 79.6481 569.462 79.6194 572.742C79.6194 574.274 79.6194 575.477 79.6194 576.379C79.6194 577.282 79.3903 577.797 79.3187 577.783Z" fill="#E0E0E0"/>
<path d="M620.628 649.525C620.628 649.726 483.46 649.897 314.296 649.897C145.131 649.897 7.93473 649.726 7.93473 649.525C7.93473 649.325 145.074 649.153 314.296 649.153C483.517 649.153 620.628 649.325 620.628 649.525Z" fill="#263238"/>
<path d="M591.38 108.674H37.2668C27.118 108.674 18.8909 116.901 18.8909 127.05V502.03C18.8909 512.179 27.118 520.406 37.2668 520.406H591.38C601.529 520.406 609.756 512.179 609.756 502.03V127.05C609.756 116.901 601.529 108.674 591.38 108.674Z" fill="#263238"/>
<path d="M609.757 127.05L609.671 125.761C609.647 125.232 609.585 124.706 609.485 124.186C609.378 123.453 609.215 122.73 608.998 122.023C608.311 119.629 607.143 117.401 605.564 115.475C603.985 113.549 602.03 111.966 599.817 110.823C598.275 110.034 596.631 109.46 594.933 109.118C593.04 108.807 591.12 108.692 589.204 108.775H575.898H542.713L331.239 108.904H185.148H39.5447C37.7446 108.832 35.9418 108.928 34.1594 109.19C32.3864 109.491 30.671 110.066 29.0749 110.894C25.8501 112.55 23.1958 115.134 21.4553 118.313C20.6105 119.915 19.9935 121.626 19.622 123.398C19.3267 125.206 19.2115 127.039 19.2782 128.869V162.57C19.2782 177.686 19.2782 192.963 19.2782 208.403V302.932C19.2782 367.169 19.2782 433.669 19.2782 501.787C19.266 505.979 20.7217 510.044 23.3928 513.275C26.064 516.506 29.7819 518.7 33.9016 519.476C35.9729 519.783 38.069 519.889 40.1606 519.791H207.277H392.526H560.1H589.247C590.826 519.842 592.406 519.77 593.973 519.576C597.799 519.046 601.352 517.296 604.105 514.587C606.858 511.878 608.664 508.354 609.256 504.537C609.433 503.012 609.495 501.475 609.442 499.94C609.442 498.393 609.442 496.86 609.442 495.313V486.133C609.442 461.775 609.442 438.414 609.442 416.052C609.442 326.779 609.542 254.522 609.571 204.579C609.571 179.629 609.571 160.179 609.642 147.088C609.642 140.528 609.642 135.515 609.642 132.135C609.642 128.755 609.642 127.05 609.642 127.05C609.642 127.05 609.642 128.769 609.642 132.135C609.642 135.501 609.642 140.528 609.642 147.088C609.642 160.236 609.642 179.629 609.642 204.579C609.642 254.522 609.728 326.779 609.785 416.052C609.785 438.376 609.785 461.736 609.785 486.133C609.785 489.183 609.785 492.234 609.785 495.313V499.94C609.832 501.504 609.766 503.069 609.585 504.623C609.134 507.801 607.876 510.811 605.93 513.363C603.984 515.916 601.416 517.927 598.471 519.204C596.98 519.832 595.416 520.27 593.816 520.507C592.22 520.704 590.611 520.781 589.003 520.736H560.158H392.583H207.334H40.1893C38.0496 520.833 35.9055 520.722 33.7871 520.407C29.4764 519.594 25.5858 517.299 22.7894 513.92C19.993 510.54 18.4671 506.288 18.4762 501.902C18.4762 433.784 18.4762 367.269 18.4762 303.047C18.4762 270.935 18.4762 239.426 18.4762 208.517V129.012C18.4146 127.133 18.5394 125.253 18.8486 123.398C19.2353 121.552 19.8763 119.768 20.7535 118.099C22.5814 114.789 25.3469 112.093 28.7025 110.35C30.3677 109.493 32.1552 108.899 34.0019 108.588C35.8267 108.318 37.6727 108.217 39.5161 108.288H103.81H185.163H331.254L542.727 108.417H575.913H589.204C591.121 108.352 593.04 108.476 594.933 108.789C596.65 109.134 598.309 109.722 599.86 110.536C602.087 111.695 604.051 113.298 605.633 115.247C607.215 117.195 608.379 119.448 609.055 121.866C609.264 122.573 609.418 123.296 609.513 124.028C609.61 124.553 609.667 125.085 609.685 125.618C609.757 126.606 609.757 127.05 609.757 127.05Z" fill="#263238"/>
<path d="M580.066 298.735C583.182 298.735 586.228 299.659 588.819 301.391C591.41 303.122 593.429 305.582 594.622 308.461C595.814 311.34 596.126 314.508 595.518 317.564C594.91 320.62 593.41 323.427 591.206 325.631C589.003 327.834 586.196 329.335 583.14 329.943C580.084 330.55 576.916 330.238 574.037 329.046C571.158 327.854 568.698 325.834 566.966 323.243C565.235 320.652 564.311 317.606 564.311 314.49C564.311 310.312 565.971 306.305 568.926 303.35C571.88 300.395 575.888 298.735 580.066 298.735Z" fill="#455A64"/>
<path d="M50.1148 272.353V356.47C50.1167 357.24 49.9666 358.004 49.673 358.716C49.3795 359.428 48.9483 360.076 48.4042 360.621C47.86 361.167 47.2136 361.6 46.5019 361.895C45.7903 362.19 45.0274 362.342 44.2569 362.342C43.4857 362.342 42.7221 362.19 42.0097 361.895C41.2972 361.6 40.6499 361.168 40.1046 360.622C39.5593 360.077 39.1267 359.43 38.8316 358.717C38.5365 358.005 38.3846 357.241 38.3846 356.47V272.396C38.3846 270.839 39.0033 269.345 40.1046 268.244C41.2058 267.143 42.6995 266.524 44.2569 266.524C45.8056 266.524 47.2912 267.137 48.389 268.23C49.4867 269.322 50.1073 270.805 50.1148 272.353Z" fill="#455A64"/>
<path d="M554.486 122.009H61.043V507.774H554.486V122.009Z" fill="#EBEBEB"/>
<path d="M379.191 400.483L417.347 467.728L511.16 466.339L505.846 393.365L379.191 400.483Z" fill="#E0E0E0"/>
<path d="M255.186 173.398L241.408 279.686L269.867 286.475L325.51 280.947L315.298 164.833L255.186 173.398Z" fill="#E0E0E0"/>
<path d="M168.749 390.93H102.98V311.74L174.449 312.457L168.749 390.93Z" fill="#F5F5F5"/>
<path d="M439.504 393.365C439.504 391.116 451.091 312.457 451.091 312.457C451.091 312.457 496.436 300.039 496.608 301.815C496.78 303.591 505.631 391.274 505.631 391.274L439.504 393.365Z" fill="#F5F5F5"/>
<path d="M110.542 191.903C110.671 193.822 141.951 256.727 141.951 256.727L178.173 247.131V174.759L140.82 173.9L110.542 191.903Z" fill="#E0E0E0"/>
<path d="M331.74 323.156H281.654V346.788H331.74V323.156Z" fill="#E0E0E0"/>
<path d="M331.97 354.622L281.525 357.172L278.962 405.067L336.567 400.483L331.97 354.622Z" fill="#E0E0E0"/>
<path d="M534.033 265.808L527.029 168.586H554.357L554.486 263.874L534.033 265.808Z" fill="#E0E0E0"/>
<path d="M422.116 152.659L433.503 273.814L493.242 268.457L482.815 165.12L435.522 152.659H422.116Z" fill="#E0E0E0"/>
<path d="M147.638 174.329L61.3867 173.026L61.4727 167.297L142.968 168.529L152.378 122.052L158.007 123.183L147.638 174.329Z" fill="white"/>
<path d="M102.564 267.913L60.7709 174.186L62.0742 173.599L103.381 266.209L178.001 246.429L178.36 247.819L102.564 267.913Z" fill="white"/>
<path d="M174.464 311.024H61.444V313.889H174.464V311.024Z" fill="white"/>
<path d="M103.681 267.068H102.249V390.944H103.681V267.068Z" fill="white"/>
<path d="M169.136 390.3H61.444V391.732H169.136V390.3Z" fill="white"/>
<path d="M163.55 503.005L60.9857 480.375L62.2174 474.775L158.322 495.987L174.808 266.61L177.285 171.207L181.138 122.395L186.839 122.839L183 171.579L180.537 266.896L163.55 503.005Z" fill="white"/>
<path d="M179.906 177.81L145.017 174.286L145.604 168.586L176.44 171.708L181.539 160.823L227.5 171.966L434.176 148.405L506.176 167.111L554.271 165.721L554.443 171.436L505.531 172.868L433.761 154.22L227.142 177.767L184.747 167.497L179.906 177.81Z" fill="white"/>
<path d="M420.197 397.819L414.511 397.075L430.61 273.786L418.235 152.774V122.009H423.964V152.63L436.382 273.857L420.197 397.819Z" fill="white"/>
<path d="M166.314 414.777L165.97 409.063L503.798 388.524L549.774 294.911L554.915 297.432L507.479 394.038L505.818 394.138L166.314 414.777Z" fill="white"/>
<path d="M335.464 403.935L313.866 164.962L312.691 122.667L315.556 122.582L316.73 164.805L338.315 403.677L335.464 403.935Z" fill="white"/>
<path d="M290.119 506.242L265.14 404.236V288.853L237.025 281.863L249.228 172.338L248.096 122.066L253.825 121.937L254.971 172.596L254.957 172.782L243.27 277.509L270.869 284.384V403.534L295.69 504.881L290.119 506.242Z" fill="white"/>
<path d="M268.005 311.74H174.449V313.173H268.005V311.74Z" fill="white"/>
<path d="M177.8 266.106L177.512 267.509L239.995 280.369L240.284 278.966L177.8 266.106Z" fill="white"/>
<path d="M267.847 359.879L245.619 354.966V312.457H247.051V353.82L268.162 358.475L267.847 359.879Z" fill="white"/>
<path d="M233.144 506.17L220.654 466.081H163.493V460.352H224.865L238.615 504.466L233.144 506.17Z" fill="white"/>
<path d="M416.931 468.459L378.575 400.827L379.822 400.125L417.762 467.012L554.171 464.978L554.199 466.41L416.931 468.459Z" fill="white"/>
<path d="M484.047 467.728H482.615V506.342H484.047V467.728Z" fill="white"/>
<path d="M510.444 466.396L505.13 393.422L477.745 122.08L479.178 121.937L506.562 393.293L511.876 466.282L510.444 466.396Z" fill="white"/>
<path d="M554.434 263.132L267.952 285.88L268.066 287.308L554.547 264.56L554.434 263.132Z" fill="white"/>
<path d="M528.444 170.944L525.591 171.2L534.098 265.964L536.951 265.708L528.444 170.944Z" fill="white"/>
<path d="M531.701 224.179L489.728 234.566L490.072 235.957L532.046 225.569L531.701 224.179Z" fill="white"/>
<path d="M513.251 228.956L505.818 186.819L484.864 184.599L485.007 183.181L507.035 185.515L514.655 228.698L513.251 228.956Z" fill="white"/>
<path d="M371.392 159.943L368.538 160.187L378.487 276.233L381.341 275.989L371.392 159.943Z" fill="white"/>
<path d="M427.041 223.394L376.279 234.565L376.586 235.963L427.349 224.793L427.041 223.394Z" fill="white"/>
<path d="M415.96 467.56L410.746 507.987L413.587 508.353L418.801 467.926L415.96 467.56Z" fill="white"/>
<path d="M180.15 314.891L174.449 403.806L263.321 399.481V364.591L240.047 359.449V318.715L180.15 314.891Z" fill="#E0E0E0"/>
<path d="M155.673 336.547C155.674 333.443 154.96 330.38 153.586 327.597C152.212 324.813 150.215 322.384 147.749 320.498C145.284 318.611 142.417 317.319 139.371 316.72C136.325 316.122 133.182 316.234 130.186 317.047C127.19 317.86 124.422 319.354 122.097 321.41C119.772 323.467 117.952 326.032 116.78 328.906C115.607 331.78 115.112 334.886 115.335 337.982C115.557 341.079 116.49 344.082 118.061 346.759V346.831C118.835 348.134 119.794 349.065 120.783 350.44L132.499 365.966C132.839 366.417 133.279 366.782 133.785 367.034C134.291 367.286 134.848 367.417 135.413 367.417C135.978 367.417 136.535 367.286 137.041 367.034C137.547 366.782 137.987 366.417 138.328 365.966L149.786 350.698C150.834 349.458 151.814 348.163 152.722 346.816C154.616 343.723 155.636 340.174 155.673 336.547ZM135.478 345.341C133.717 345.344 131.996 344.824 130.531 343.848C129.066 342.872 127.924 341.483 127.249 339.857C126.574 338.231 126.396 336.442 126.739 334.715C127.082 332.989 127.929 331.402 129.174 330.158C130.419 328.913 132.005 328.066 133.732 327.723C135.458 327.38 137.248 327.557 138.874 328.232C140.499 328.907 141.888 330.05 142.865 331.514C143.841 332.979 144.36 334.701 144.358 336.461C144.354 338.815 143.417 341.072 141.753 342.736C140.088 344.401 137.832 345.337 135.478 345.341Z" fill="#865439"/>
<path d="M345.719 265.493C345.727 262.386 345.017 259.319 343.646 256.531C342.275 253.743 340.279 251.308 337.813 249.418C335.348 247.527 332.479 246.231 329.431 245.63C326.382 245.029 323.237 245.139 320.238 245.953C317.239 246.766 314.469 248.26 312.142 250.319C309.815 252.378 307.994 254.946 306.822 257.824C305.65 260.701 305.157 263.81 305.383 266.909C305.608 270.008 306.546 273.013 308.122 275.69V275.776C308.896 277.08 309.87 278.011 310.858 279.386L322.603 294.883C322.943 295.334 323.384 295.699 323.889 295.951C324.395 296.203 324.952 296.334 325.517 296.334C326.082 296.334 326.64 296.203 327.145 295.951C327.651 295.699 328.091 295.334 328.432 294.883L339.99 279.629C341.018 278.39 341.974 277.095 342.855 275.748C344.716 272.65 345.706 269.107 345.719 265.493ZM325.524 274.287C323.765 274.287 322.046 273.765 320.583 272.788C319.12 271.81 317.98 270.421 317.307 268.796C316.634 267.171 316.458 265.383 316.801 263.657C317.144 261.932 317.991 260.347 319.235 259.103C320.479 257.859 322.064 257.012 323.789 256.669C325.515 256.326 327.303 256.502 328.928 257.175C330.553 257.848 331.942 258.988 332.92 260.451C333.897 261.914 334.419 263.633 334.419 265.392C334.419 266.562 334.188 267.719 333.74 268.799C333.292 269.879 332.636 270.861 331.809 271.687C330.981 272.513 329.999 273.168 328.918 273.614C327.837 274.06 326.679 274.289 325.51 274.287H325.524Z" fill="#865439"/>
<path d="M261.875 440.429C261.882 438.298 261.396 436.193 260.457 434.28C259.517 432.366 258.149 430.696 256.458 429.398C254.767 428.1 252.799 427.21 250.708 426.797C248.616 426.384 246.458 426.459 244.401 427.017C242.343 427.575 240.443 428.6 238.846 430.013C237.25 431.425 236.001 433.187 235.197 435.162C234.394 437.136 234.056 439.269 234.212 441.395C234.367 443.521 235.011 445.582 236.094 447.419C236.624 448.307 237.297 448.951 237.97 449.882L246.005 460.538C246.239 460.844 246.541 461.092 246.886 461.262C247.231 461.433 247.611 461.522 247.996 461.522C248.381 461.522 248.761 461.433 249.106 461.262C249.452 461.092 249.753 460.844 249.987 460.538L257.893 450.068C258.613 449.217 259.287 448.327 259.913 447.404C261.177 445.296 261.855 442.888 261.875 440.429ZM248.025 446.459C246.817 446.462 245.636 446.106 244.631 445.438C243.626 444.769 242.842 443.817 242.378 442.702C241.914 441.588 241.791 440.361 242.024 439.176C242.258 437.992 242.838 436.903 243.691 436.048C244.544 435.194 245.631 434.611 246.815 434.374C247.999 434.138 249.226 434.258 250.342 434.719C251.458 435.181 252.412 435.963 253.083 436.966C253.754 437.97 254.112 439.15 254.112 440.358C254.114 441.158 253.958 441.951 253.653 442.691C253.348 443.432 252.899 444.104 252.334 444.671C251.769 445.238 251.097 445.687 250.357 445.994C249.618 446.301 248.825 446.459 248.025 446.459Z" fill="#865439"/>
<path d="M513.108 189.039C513.093 185.588 511.791 182.268 509.457 179.727C507.123 177.187 503.924 175.609 500.488 175.302C497.051 174.996 493.624 175.983 490.877 178.071C488.131 180.159 486.262 183.196 485.637 186.589C485.046 189.836 485.646 193.188 487.327 196.028C487.857 196.916 488.53 197.561 489.203 198.506L497.238 209.148C497.472 209.453 497.774 209.701 498.119 209.872C498.464 210.042 498.844 210.131 499.229 210.131C499.614 210.131 499.994 210.042 500.339 209.872C500.685 209.701 500.986 209.453 501.22 209.148L509.126 198.678C509.846 197.826 510.52 196.937 511.146 196.014C512.41 193.905 513.088 191.497 513.108 189.039ZM499.258 195.068C498.05 195.071 496.868 194.715 495.863 194.046C494.857 193.377 494.073 192.424 493.609 191.309C493.146 190.193 493.024 188.965 493.259 187.78C493.494 186.595 494.075 185.507 494.929 184.653C495.783 183.798 496.872 183.217 498.057 182.982C499.242 182.747 500.47 182.869 501.585 183.333C502.701 183.796 503.653 184.581 504.323 185.586C504.992 186.592 505.348 187.773 505.345 188.981C505.345 190.596 504.704 192.144 503.562 193.286C502.421 194.427 500.872 195.068 499.258 195.068Z" fill="#865439"/>
<path d="M218.248 195.627C218.252 191.853 217.386 188.128 215.717 184.743C214.048 181.358 211.621 178.403 208.624 176.108C205.627 173.814 202.142 172.241 198.439 171.512C194.735 170.783 190.914 170.918 187.271 171.907C183.629 172.895 180.263 174.71 177.436 177.21C174.608 179.711 172.396 182.83 170.97 186.324C169.544 189.819 168.943 193.595 169.213 197.36C169.484 201.124 170.619 204.776 172.53 208.03L172.602 208.116C173.533 209.706 174.722 210.838 175.91 212.499L190.161 231.391C190.575 231.937 191.11 232.379 191.724 232.684C192.338 232.989 193.014 233.148 193.699 233.148C194.384 233.148 195.06 232.989 195.674 232.684C196.288 232.379 196.823 231.937 197.237 231.391L211.259 212.771C212.536 211.264 213.726 209.686 214.825 208.045C217.053 204.285 218.235 199.997 218.248 195.627ZM193.685 206.312C191.545 206.312 189.454 205.677 187.676 204.488C185.897 203.299 184.511 201.61 183.693 199.633C182.875 197.656 182.662 195.481 183.08 193.383C183.498 191.285 184.53 189.358 186.043 187.847C187.557 186.335 189.485 185.306 191.584 184.891C193.683 184.475 195.857 184.691 197.833 185.512C199.809 186.332 201.496 187.721 202.683 189.501C203.869 191.281 204.501 193.373 204.498 195.512C204.495 198.378 203.354 201.125 201.326 203.149C199.299 205.174 196.55 206.312 193.685 206.312Z" fill="#865439"/>
<path d="M86.48 587.881C86.48 587.881 54.2254 550.857 42.0799 513.818C29.9343 476.78 35.7206 481.077 35.7206 481.077C35.7206 481.077 52.1057 517.012 64.552 534.386C76.9984 551.759 99.1555 577.267 99.1555 577.267L86.48 587.881Z" fill="#455A64"/>
<path d="M92.8249 486.806C92.611 486.422 92.2695 486.126 91.8596 485.968C91.4498 485.811 90.9976 485.802 90.5819 485.943C90.1662 486.085 89.8133 486.367 89.5846 486.742C89.3558 487.117 89.2658 487.56 89.3302 487.995C91.2924 501.014 95.5319 531.535 95.36 551.329C95.1451 577.11 95.36 586.993 95.36 586.993H108.752C108.752 586.993 106.374 533.827 103.352 517.614C101.247 506.256 96.735 493.638 92.8249 486.806Z" fill="#455A64"/>
<path d="M100.115 582.667C105.733 569.956 109.449 556.486 111.144 542.693C112.246 533.225 110.284 520.421 107.348 503.348C106.22 497.105 105.654 490.773 105.658 484.428C105.678 483.726 105.928 483.049 106.371 482.503C106.815 481.958 107.425 481.574 108.109 481.41C108.793 481.247 109.511 481.314 110.153 481.601C110.795 481.887 111.324 482.378 111.659 482.996C113.278 485.86 117.947 495.729 119.136 501.916C122.387 518.774 126.053 527.196 123.246 543.194C120.439 559.192 110.069 583.827 110.069 583.827L100.115 582.667Z" fill="#455A64"/>
<path d="M112.261 583.756C112.261 583.756 147.58 507.846 150.029 496.574C152.479 485.302 160.8 459.335 161.788 460.767C162.777 462.2 164.237 475.949 157.864 491.618C151.49 507.287 124.32 586.004 124.32 586.004H112.261" fill="#455A64"/>
<path d="M96.248 580.361C95.9011 580.158 95.5707 579.928 95.2597 579.674C94.6295 579.201 93.6843 578.528 92.5241 577.583C90.1752 575.735 86.881 572.928 83.0282 569.204C73.0801 559.394 64.4652 548.318 57.4051 536.262C50.3638 524.238 44.5024 511.56 39.9028 498.407C38.1268 493.366 36.8378 489.241 35.9927 486.376C35.5631 484.944 35.2623 483.827 35.0475 483.068C34.9307 482.683 34.8398 482.29 34.7753 481.893C34.9488 482.258 35.0925 482.636 35.205 483.025C35.4628 483.827 35.8209 484.915 36.2792 486.29C37.1958 489.155 38.5708 493.222 40.4041 498.235C45.1353 511.304 51.0413 523.916 58.0496 535.918C65.0934 547.913 73.6099 558.979 83.4006 568.86C87.1818 572.613 90.4187 575.477 92.7103 577.454C93.8418 578.442 94.7584 579.144 95.36 579.659C95.6778 579.864 95.9752 580.099 96.248 580.361Z" fill="#263238"/>
<path d="M100.115 543.939C99.9532 543.203 99.8478 542.456 99.8 541.704C99.6281 540.129 99.4133 538.081 99.1555 535.617C98.5969 530.49 97.7232 523.4 96.4628 515.566C95.2024 507.731 93.8275 500.785 92.739 495.729C92.2233 493.308 91.7937 491.289 91.4499 489.742C91.2497 489.016 91.1202 488.273 91.0632 487.522C91.3412 488.22 91.5662 488.938 91.7364 489.67C92.1374 491.103 92.6673 493.093 93.2689 495.614C94.4863 500.641 95.9615 507.645 97.2076 515.437C98.4537 523.228 99.2557 530.361 99.6854 535.488C99.9003 538.066 100.029 540.158 100.101 541.604C100.179 542.38 100.184 543.162 100.115 543.939Z" fill="#263238"/>
<path d="M108.394 482.323C108.565 482.633 108.704 482.959 108.809 483.297L109.869 486.161C110.341 487.379 110.871 488.883 111.387 490.673C111.903 492.463 112.59 494.468 113.106 496.76C113.378 497.892 113.679 499.08 113.979 500.326C114.28 501.572 114.481 502.89 114.753 504.236C115.326 506.929 115.684 509.851 116.185 512.916C116.945 519.595 117.228 526.32 117.03 533.039C116.751 539.769 115.99 546.47 114.753 553.091C114.108 556.127 113.535 559.02 112.776 561.684C112.404 563.002 112.103 564.305 111.716 565.523C111.33 566.74 110.943 567.9 110.585 569.018C109.912 571.266 109.153 573.214 108.437 574.962C107.72 576.709 107.162 578.17 106.603 579.359L105.343 582.094C105.218 582.423 105.054 582.735 104.856 583.025C104.945 582.687 105.06 582.357 105.2 582.037L106.331 579.244C106.847 578.041 107.448 576.566 108.05 574.804C108.651 573.042 109.482 571.094 110.084 568.86L111.158 565.351C111.53 564.134 111.817 562.845 112.16 561.527C112.905 558.877 113.435 555.998 114.065 552.933C115.252 546.355 115.994 539.703 116.285 533.025C116.474 526.331 116.211 519.632 115.498 512.973C115.097 509.922 114.753 507.001 114.209 504.38C113.951 503.033 113.765 501.716 113.478 500.484L112.662 496.918C112.175 494.626 111.545 492.621 111.058 490.83C110.571 489.04 110.084 487.522 109.625 486.276C109.167 485.03 108.924 484.142 108.694 483.411C108.552 483.061 108.452 482.696 108.394 482.323Z" fill="#263238"/>
<path d="M161.316 462.343C161.322 462.457 161.322 462.572 161.316 462.687C161.316 462.959 161.215 463.274 161.158 463.675C161.001 464.534 160.8 465.823 160.456 467.456C159.769 470.721 158.637 475.419 156.876 481.12C155.114 486.82 152.693 493.509 149.829 500.856C146.964 508.204 143.67 516.21 140.534 524.732C137.397 533.254 134.905 541.561 132.599 549.081C130.293 556.6 128.144 563.403 126.039 568.989C124.425 573.415 122.565 577.747 120.468 581.965C119.751 583.469 119.035 584.586 118.677 585.36L118.176 586.233C118.123 586.335 118.061 586.431 117.99 586.52C117.99 586.52 117.99 586.405 118.119 586.19L118.534 585.288C118.921 584.5 119.522 583.355 120.21 581.836C121.642 578.829 123.547 574.403 125.552 568.803C127.557 563.203 129.677 556.428 131.926 548.88C134.174 541.332 136.638 532.996 139.832 524.46C143.026 515.924 146.306 507.917 149.184 500.584C152.063 493.251 154.541 486.605 156.346 480.948C158.15 475.29 159.382 470.607 160.156 467.37C160.542 465.752 160.786 464.505 160.986 463.632C161.086 463.245 161.158 462.916 161.215 462.658C161.232 462.548 161.266 462.442 161.316 462.343Z" fill="#263238"/>
<path d="M52.3778 445.571C51.8885 445.109 51.2601 444.821 50.5904 444.753C49.9207 444.686 49.2473 444.841 48.6752 445.196C48.1031 445.55 47.6644 446.084 47.4274 446.714C47.1904 447.344 47.1684 448.035 47.3649 448.679C48.5714 452.599 50.0551 456.428 51.8049 460.137C56.6603 470.449 70.9256 507.488 77.5856 527.826C84.2456 548.164 93.6413 586.062 93.6413 586.062L107.964 583.756C107.964 583.756 94.916 521.409 82.1832 498.951C71.9139 480.905 61.6732 454.809 52.3778 445.571Z" fill="#455A64"/>
<path d="M81.51 540.501C81.8048 541.051 82.0493 541.626 82.2405 542.22C82.6702 543.337 83.2431 544.97 83.8876 547.004C85.2053 551.071 86.7521 556.757 88.4279 563.059C90.1036 569.361 91.3926 575.119 92.3236 579.287L93.3978 584.228C93.5393 584.83 93.6209 585.444 93.6413 586.061C93.3793 585.498 93.1823 584.907 93.0541 584.3C92.7103 582.996 92.2663 581.364 91.7507 579.416C90.6622 575.119 89.2299 569.49 87.6401 563.246C86.0503 557.001 84.5035 551.258 83.3433 547.161L81.9111 542.306C81.7089 541.722 81.5743 541.116 81.51 540.501Z" fill="#263238"/>
<path d="M100.803 584.916C100.756 584.791 100.727 584.661 100.717 584.529C100.717 584.228 100.616 583.856 100.559 583.412C100.402 582.424 100.273 580.948 99.9719 579.115C99.4563 575.363 98.5396 569.977 96.9785 563.36C95.159 555.652 92.9311 548.045 90.3041 540.573C87.4396 532.123 83.7157 522.999 79.5621 513.546C71.1691 494.669 62.7904 477.94 57.2762 465.551C54.4976 459.378 52.3348 454.336 50.9169 450.827C50.2008 449.08 49.6852 447.705 49.3128 446.774L48.9261 445.714C48.8725 445.595 48.834 445.47 48.8115 445.342C48.8115 445.342 48.8115 445.442 48.9977 445.686L49.456 446.717L51.189 450.713C52.7502 454.193 54.9702 459.192 57.8347 465.322C63.4635 477.639 71.9139 494.325 80.3212 513.231C84.4891 522.698 88.1414 531.85 91.0346 540.329C93.6402 547.841 95.8254 555.491 97.58 563.246C98.758 568.448 99.6758 573.706 100.33 579C100.588 580.877 100.674 582.352 100.774 583.297C100.774 583.77 100.774 584.142 100.874 584.429C100.879 584.594 100.854 584.759 100.803 584.916Z" fill="#263238"/>
<path d="M107.964 583.756C107.749 582.966 107.591 582.162 107.491 581.349C107.205 579.688 106.832 577.468 106.374 574.804C105.4 569.275 103.896 561.67 101.734 553.32C99.5708 544.97 97.1933 537.665 95.3457 532.366L93.1113 526.093C92.8004 525.339 92.5467 524.564 92.3522 523.772C92.7593 524.481 93.1043 525.224 93.3835 525.992C93.9993 527.425 94.8157 529.544 95.847 532.18C98.4234 539.042 100.632 546.037 102.464 553.134C104.305 560.216 105.787 567.386 106.904 574.618C107.305 577.396 107.62 579.645 107.778 581.221C107.917 582.058 107.979 582.907 107.964 583.756Z" fill="#263238"/>
<path d="M137.211 581.707H81.553V649.525H137.211V581.707Z" fill="#865439"/>
<g opacity="0.3">
<path opacity="0.3" d="M137.211 581.707H81.553V649.525H137.211V581.707Z" fill="black"/>
</g>
<path d="M119.465 581.707H70.0806V649.525H119.465V581.707Z" fill="#865439"/>
<path d="M333.96 438.839C333.96 438.839 333.96 489.198 333.33 492.034C332.7 494.869 331.225 509.965 334.906 516.969C338.587 523.973 347.338 538.167 354.957 540.143C362.577 542.12 366.888 540.143 366.888 540.143C366.888 540.143 371.572 507.344 370.039 497.934C368.507 488.525 365.026 467.986 365.026 467.986L341.423 441.203L333.96 438.839Z" fill="#FFBE9D"/>
<path d="M393.285 369.718L415.528 362.887L457.593 360.079L483.045 364.906L455.402 409.206L415.528 406.198L393.285 369.718Z" fill="#FFBE9D"/>
<path d="M481.34 278.297C481.576 288.948 479.554 299.527 475.406 309.34C471.259 319.153 465.081 327.976 457.278 335.23C453.688 324.85 450.103 314.462 446.522 304.064" fill="#263238"/>
<path d="M400.246 216.309C409.484 211.267 420.641 210.58 430.953 212.614C441.266 214.647 450.89 219.345 460 224.616C465.098 227.566 470.197 230.818 473.878 235.444C480.581 243.88 487.198 257.73 487.857 268.486C488.373 277.18 484.993 298.95 481.369 306.856C477.989 314.104 462.205 319.618 454.414 321.408L382.958 238.251C384.242 233.63 386.431 229.311 389.399 225.544C392.367 221.777 396.054 218.638 400.246 216.309Z" fill="#263238"/>
<path d="M387.914 227.566L405.101 224.501C395.734 246.816 393.199 297.833 387.828 321.437C381.512 312.27 366.845 284.356 367.633 273.241C368.421 262.127 367.547 225.633 387.914 227.566Z" fill="#263238"/>
<path d="M469.195 264.676C468.889 258.418 466.584 252.423 462.619 247.571C458.655 242.719 453.238 239.267 447.166 237.721L407.693 227.695C390.635 225.862 379.234 246.845 378.117 263.974C376.885 282.995 376.112 303.061 378.332 317.269C382.801 345.814 404.671 349.509 404.671 349.509C404.671 349.509 404.671 363.087 404.671 371.423L439.934 399.366L460.444 367.298L469.266 265.077C469.295 264.533 469.238 265.321 469.195 264.676Z" fill="#FFBE9D"/>
<path d="M386.696 285.473C386.684 286.428 387.046 287.351 387.704 288.044C388.362 288.736 389.265 289.145 390.22 289.182C390.685 289.219 391.154 289.163 391.597 289.017C392.041 288.87 392.451 288.637 392.803 288.33C393.155 288.023 393.442 287.649 393.648 287.23C393.854 286.811 393.974 286.354 394.001 285.888C394.013 284.933 393.651 284.01 392.993 283.317C392.335 282.624 391.432 282.216 390.478 282.179C390.012 282.14 389.542 282.194 389.098 282.34C388.654 282.486 388.243 282.719 387.89 283.026C387.538 283.333 387.25 283.708 387.045 284.128C386.84 284.549 386.722 285.006 386.696 285.473Z" fill="#263238"/>
<path d="M382.4 275.089C382.858 275.576 385.636 273.528 389.561 273.542C393.485 273.556 396.378 275.547 396.808 275.06C397.023 274.845 396.565 273.986 395.304 273.069C393.604 271.882 391.577 271.252 389.504 271.265C387.449 271.247 385.442 271.884 383.775 273.084C382.6 274.015 382.185 274.831 382.4 275.089Z" fill="#263238"/>
<path d="M421.042 285.473C421.033 286.413 421.387 287.32 422.03 288.005C422.673 288.691 423.555 289.102 424.494 289.154C424.96 289.193 425.429 289.138 425.873 288.992C426.318 288.847 426.728 288.613 427.081 288.306C427.433 287.999 427.721 287.624 427.926 287.204C428.131 286.784 428.25 286.326 428.275 285.859C428.291 284.905 427.932 283.983 427.276 283.29C426.621 282.596 425.719 282.187 424.766 282.15C424.302 282.119 423.837 282.181 423.397 282.332C422.958 282.483 422.553 282.72 422.206 283.029C421.859 283.339 421.578 283.714 421.378 284.134C421.178 284.553 421.064 285.009 421.042 285.473Z" fill="#263238"/>
<path d="M419.81 275.089C420.269 275.576 423.047 273.528 426.972 273.542C430.896 273.556 433.803 275.547 434.219 275.06C434.434 274.845 433.975 273.986 432.715 273.069C431.015 271.882 428.988 271.252 426.914 271.265C424.86 271.249 422.854 271.886 421.185 273.084C420.011 274.015 419.595 274.831 419.81 275.089Z" fill="#263238"/>
<path d="M407.507 306.04C407.507 305.811 405.072 305.381 401.105 304.866C400.102 304.765 399.143 304.55 398.985 303.877C398.898 302.834 399.133 301.789 399.658 300.884L402.652 293.236C406.805 282.336 409.813 273.384 409.383 273.184C408.954 272.983 405.216 281.777 401.062 292.62L398.197 300.325C397.572 301.538 397.385 302.929 397.668 304.264C397.819 304.612 398.047 304.922 398.334 305.17C398.622 305.418 398.962 305.598 399.329 305.696C399.884 305.852 400.457 305.933 401.033 305.94C405.015 306.241 407.493 306.255 407.507 306.04Z" fill="#263238"/>
<path d="M442.54 339.283C442.54 339.283 433.245 358.89 404.686 356.155V349.452C418.002 349.632 431.107 346.112 442.54 339.283Z" fill="#EB996E"/>
<path d="M421.056 260.852C421.443 261.926 425.353 261.425 429.994 261.998C434.634 262.571 438.344 263.831 438.96 262.872C439.246 262.413 438.587 261.439 437.083 260.365C435.084 259.072 432.806 258.272 430.438 258.031C428.077 257.732 425.68 258.007 423.448 258.833C421.744 259.506 420.884 260.351 421.056 260.852Z" fill="#263238"/>
<path d="M383.689 263.044C384.376 263.946 387.097 263.044 390.363 263.044C393.629 263.044 396.393 263.659 397.023 262.714C397.309 262.27 396.865 261.368 395.662 260.523C394.045 259.499 392.159 258.981 390.245 259.034C388.332 259.088 386.478 259.711 384.92 260.824C383.76 261.683 383.388 262.6 383.689 263.044Z" fill="#263238"/>
<path d="M385.823 237.836C387.57 233.539 392.282 230.961 396.908 230.674C401.573 230.667 406.142 231.999 410.071 234.513C427.072 244.338 435.852 268.071 452.609 278.24C456.748 280.746 462.119 278.455 465.628 281.763C469.137 285.072 471.429 290.357 469.481 294.782C471.888 291.795 473.851 288.476 475.31 284.928C476.031 283.147 476.362 281.233 476.28 279.313C476.199 277.393 475.707 275.513 474.838 273.8C473.405 271.279 470.813 269.36 470.111 266.538C469.495 264.06 470.469 261.468 470.369 258.904C470.08 256.307 469.182 253.814 467.748 251.628C461.174 239.984 452.122 229.471 440.463 222.983C432.86 218.579 424.198 216.336 415.413 216.495C406.593 216.703 398.139 220.062 391.58 225.962C387.813 229.457 383.875 233.124 385.851 237.836" fill="#263238"/>
<path d="M465.285 285.358C465.585 284.542 480.467 279.171 480.667 294.997C480.853 310.366 465.342 307.343 465.313 306.899C465.285 306.455 465.285 285.358 465.285 285.358Z" fill="#FFBE9D"/>
<path d="M469.997 301.027C470.068 301.027 470.269 301.213 470.727 301.414C471.371 301.671 472.089 301.671 472.732 301.414C474.351 300.798 475.697 298.206 475.74 295.441C475.772 294.119 475.503 292.806 474.952 291.603C474.803 291.125 474.54 290.69 474.186 290.335C473.832 289.981 473.397 289.718 472.918 289.569C472.609 289.504 472.286 289.543 472.001 289.68C471.716 289.818 471.485 290.045 471.343 290.328C471.142 290.758 471.243 291.059 471.171 291.087C471.1 291.116 470.827 290.829 470.956 290.199C471.031 289.816 471.239 289.471 471.544 289.225C471.954 288.917 472.465 288.774 472.976 288.824C473.615 288.936 474.215 289.211 474.717 289.622C475.219 290.034 475.606 290.568 475.84 291.173C476.514 292.503 476.849 293.979 476.814 295.47C476.814 298.564 475.181 301.485 472.961 302.144C472.55 302.267 472.117 302.297 471.693 302.23C471.269 302.163 470.865 302.001 470.512 301.758C470.04 301.4 469.954 301.056 469.997 301.027Z" fill="#EB996E"/>
<path d="M471.4 277.452C471.074 277.312 470.762 277.139 470.469 276.936C469.882 276.564 468.966 276.063 467.891 275.304C464.866 273.079 462.082 270.545 459.584 267.741C455.96 263.537 452.575 259.133 449.444 254.55C445.655 248.958 441.411 243.689 436.754 238.795C434.264 236.353 431.517 234.188 428.561 232.336C425.786 230.639 422.813 229.287 419.71 228.311C414.457 226.622 408.931 225.947 403.425 226.32C399.708 226.543 396.038 227.26 392.511 228.454C391.251 228.841 390.32 229.256 389.647 229.514C389.319 229.66 388.979 229.776 388.63 229.858C388.938 229.677 389.258 229.519 389.59 229.385C390.518 228.927 391.474 228.53 392.454 228.197C395.98 226.889 399.674 226.088 403.425 225.819C408.999 225.382 414.605 226.019 419.939 227.695C423.095 228.671 426.12 230.028 428.948 231.734C431.948 233.617 434.738 235.816 437.27 238.294C441.96 243.227 446.215 248.555 449.988 254.221C453.094 258.806 456.441 263.223 460.014 267.455C462.454 270.268 465.164 272.834 468.106 275.117C469.166 275.92 470.04 276.449 470.598 276.865C470.881 277.039 471.149 277.235 471.4 277.452Z" fill="#455A64"/>
<path d="M471.758 303.748C472.513 303.617 473.29 303.777 473.932 304.196C474.573 304.616 475.031 305.263 475.213 306.008C475.395 306.752 475.287 307.538 474.912 308.206C474.536 308.874 473.921 309.375 473.191 309.606C472.452 309.864 471.641 309.825 470.93 309.497C470.219 309.17 469.663 308.579 469.379 307.849C469.095 307.12 469.105 306.308 469.408 305.586C469.71 304.864 470.28 304.287 470.999 303.978" fill="white"/>
<path d="M471.028 303.978C470.349 304.5 469.848 305.221 469.596 306.04C469.484 306.462 469.481 306.904 469.586 307.327C469.691 307.75 469.902 308.14 470.197 308.461C470.542 308.863 470.999 309.155 471.509 309.299C472.019 309.443 472.56 309.434 473.065 309.271C473.569 309.109 474.015 308.802 474.346 308.388C474.677 307.973 474.878 307.47 474.924 306.942C474.976 306.513 474.921 306.078 474.764 305.675C474.606 305.273 474.351 304.916 474.021 304.636C473.351 304.111 472.537 303.802 471.687 303.748C471.687 303.748 471.93 303.591 472.417 303.577C472.855 303.583 473.287 303.679 473.686 303.859C474.085 304.039 474.444 304.298 474.739 304.621C475.034 304.945 475.26 305.325 475.402 305.739C475.545 306.153 475.602 306.592 475.568 307.028C475.521 307.689 475.277 308.319 474.867 308.839C474.457 309.359 473.901 309.744 473.27 309.945C472.64 310.145 471.963 310.152 471.328 309.964C470.694 309.776 470.13 309.402 469.71 308.89C469.362 308.487 469.124 308.002 469.018 307.48C468.913 306.958 468.944 306.417 469.109 305.911C469.313 305.246 469.725 304.664 470.283 304.25C470.756 303.978 471.014 303.935 471.028 303.978Z" fill="#263238"/>
<path d="M467.533 281.806C467.777 286.003 467.963 290.4 466.029 294.167C464.096 297.933 459.183 300.44 455.545 298.349C452.566 296.659 451.664 292.835 451.162 289.44C449.73 279.658 449.043 269.747 447.496 259.964L467.533 281.806Z" fill="#263238"/>
<path d="M389.661 230.531C389.661 230.617 391.022 230.273 393.485 230.187C396.965 230.131 400.421 230.764 403.654 232.049C405.888 232.916 408.024 234.016 410.028 235.329C412.32 236.876 414.519 238.555 416.616 240.357C421.452 244.452 425.779 249.111 429.507 254.235C431.469 256.971 433.202 259.792 435.064 262.413C436.839 264.956 438.912 267.279 441.237 269.331C445.215 272.724 449.574 275.641 454.228 278.025C458.166 280.116 461.389 281.563 463.723 282.58L466.344 283.697C466.646 283.843 466.963 283.954 467.29 284.026C467.021 283.826 466.728 283.662 466.416 283.539L463.867 282.265C461.632 281.176 458.395 279.629 454.514 277.495C449.961 275.048 445.687 272.113 441.767 268.744C439.505 266.71 437.491 264.417 435.766 261.912C433.918 259.334 432.185 256.512 430.223 253.734C426.459 248.547 422.066 243.847 417.146 239.741C415.021 237.935 412.787 236.261 410.458 234.728C408.398 233.405 406.198 232.315 403.898 231.477C400.583 230.214 397.041 229.663 393.5 229.858C392.536 229.909 391.578 230.038 390.635 230.245C390.3 230.3 389.973 230.397 389.661 230.531Z" fill="#455A64"/>
<path d="M467.949 272.31C468.388 272.672 468.869 272.979 469.381 273.227L473.277 275.519L474.594 276.263C475.106 276.568 475.678 276.758 476.27 276.822C476.636 276.858 477.003 276.772 477.316 276.578C477.477 276.459 477.612 276.306 477.71 276.131C477.809 275.956 477.87 275.762 477.888 275.562C477.85 274.853 477.595 274.173 477.158 273.614C475.726 271.394 474.293 268.959 472.646 266.381L472.031 266.954C475.043 269.174 478.736 270.273 482.472 270.062C482.959 270.059 483.443 269.977 483.904 269.818C484.165 269.743 484.407 269.612 484.613 269.434C484.818 269.256 484.982 269.035 485.093 268.787C485.182 268.526 485.205 268.246 485.16 267.974C485.115 267.702 485.003 267.445 484.835 267.226C484.573 266.881 484.28 266.559 483.961 266.266C481.934 264.303 480.172 262.083 478.719 259.663C477.444 257.383 476.333 255.013 475.396 252.574C475.462 253.285 475.626 253.984 475.883 254.651C476.476 256.493 477.248 258.273 478.189 259.964C479.6 262.486 481.355 264.8 483.403 266.839C483.976 267.383 484.548 267.999 484.319 268.486C484.09 268.973 483.274 269.217 482.457 269.217C478.919 269.388 475.428 268.347 472.56 266.266L470.727 264.92L471.959 266.839L476.571 274C476.915 274.408 477.138 274.904 477.215 275.433C477.208 275.535 477.178 275.635 477.128 275.726C477.078 275.816 477.009 275.894 476.926 275.955C476.843 276.016 476.748 276.059 476.647 276.08C476.546 276.101 476.442 276.1 476.342 276.077C475.354 275.888 474.414 275.504 473.577 274.946L469.553 272.883C469.045 272.624 468.506 272.432 467.949 272.31Z" fill="#455A64"/>
<path d="M422.489 313.302C422.2 312.132 421.51 311.1 420.539 310.386C419.568 309.671 418.378 309.32 417.175 309.392C416.298 309.507 415.462 309.834 414.741 310.346C414.02 310.858 413.434 311.538 413.036 312.328C412.659 313.127 412.445 313.993 412.406 314.876C412.366 315.758 412.503 316.64 412.807 317.469L412.892 317.842C413.709 318.73 414.781 319.345 415.96 319.601C417.139 319.857 418.369 319.743 419.481 319.274C420.57 318.749 421.456 317.879 422 316.799C422.544 315.719 422.716 314.489 422.489 313.302Z" fill="#EB996E"/>
<path d="M410.028 317.928C410.028 317.326 414.01 317.512 417.017 314.247C420.025 310.981 419.782 306.713 420.34 306.713C420.598 306.713 421.071 307.701 421.028 309.492C420.945 311.827 420.042 314.058 418.478 315.794C416.981 317.478 414.883 318.506 412.635 318.658C410.959 318.687 409.999 318.2 410.028 317.928Z" fill="#263238"/>
<path d="M365.055 531.807L366.917 542.65L365.169 548.551C365.169 548.551 347.166 571.467 341.394 588.339C335.622 605.211 335.178 649.654 335.178 649.654L540.278 649.525C540.278 649.525 533.116 583.512 507.336 562.73V557.989L513.709 548.551C513.709 548.551 515.858 541.246 506.548 542.335C502.853 542.764 365.055 531.807 365.055 531.807Z" fill="#455A64"/>
<path d="M508.482 556.385H507.049L502.881 556.285C499.272 556.199 494.044 556.127 487.571 556.17C481.097 556.213 473.406 556.356 464.855 556.528C456.304 556.7 446.909 556.872 437.026 556.714C427.735 556.588 418.457 555.995 409.226 554.938C401.687 554.07 394.214 552.706 386.854 550.857C381.893 549.62 377.01 548.09 372.231 546.273C370.526 545.657 369.251 545.056 368.363 544.698L367.375 544.254C367.146 544.154 367.031 544.096 367.046 544.082L367.404 544.182L368.421 544.555C369.323 544.87 370.612 545.428 372.331 545.987C377.137 547.671 382.028 549.105 386.983 550.284C394.337 552.049 401.794 553.35 409.312 554.179C417.791 555.168 427.172 555.712 437.04 555.898C446.909 556.084 456.29 555.898 464.841 555.769C473.391 555.64 481.097 555.526 487.571 555.569C494.044 555.612 499.286 555.741 502.896 555.927C504.7 555.998 506.104 556.099 507.049 556.17L508.138 556.256C508.367 556.342 508.496 556.371 508.482 556.385Z" fill="#263238"/>
<path d="M508.482 565.895C508.363 565.918 508.242 565.918 508.124 565.895H507.035L502.867 565.795C499.258 565.709 494.03 565.637 487.556 565.68C481.082 565.723 473.391 565.867 464.841 566.039C456.29 566.21 446.894 566.382 437.012 566.225C427.129 566.067 417.719 565.466 409.212 564.449C401.673 563.58 394.199 562.217 386.84 560.367C381.878 559.127 376.995 557.592 372.216 555.769C370.512 555.153 369.237 554.566 368.349 554.208L367.361 553.764C367.132 553.664 367.017 553.606 367.031 553.592L367.39 553.692L368.406 554.065C369.309 554.38 370.598 554.924 372.317 555.497C377.123 557.182 382.013 558.617 386.969 559.794C394.322 561.559 401.78 562.86 409.298 563.69C417.777 564.678 427.158 565.222 437.026 565.408C446.894 565.595 456.276 565.408 464.826 565.279C473.377 565.151 481.082 565.036 487.556 565.079C494.03 565.122 499.272 565.251 502.882 565.437C504.686 565.509 506.09 565.609 507.035 565.68L508.124 565.766C508.367 565.867 508.496 565.881 508.482 565.895Z" fill="#263238"/>
<path d="M373.835 577.038C373.949 576.024 374.22 575.034 374.637 574.102C375.486 571.796 376.57 569.583 377.874 567.499C379.162 565.41 380.659 563.457 382.342 561.67C382.994 560.885 383.762 560.204 384.62 559.651C384.791 559.808 381.469 563.059 378.504 567.886C375.539 572.713 374.05 577.038 373.835 577.038Z" fill="#263238"/>
<path d="M381.125 590.229C381.035 589.835 381.01 589.429 381.053 589.026C381.065 587.93 381.137 586.835 381.268 585.746C381.705 582.153 382.482 578.609 383.588 575.162C384.671 571.72 386.022 568.368 387.627 565.136C388.228 563.763 388.973 562.457 389.847 561.24C389.349 562.645 388.766 564.018 388.1 565.351C386.66 568.624 385.393 571.971 384.304 575.377C383.214 578.791 382.377 582.281 381.798 585.818C381.354 588.496 381.239 590.244 381.125 590.229Z" fill="#263238"/>
<path d="M385.98 538.367C386.194 539.018 386.334 539.69 386.396 540.372C386.731 541.969 387.181 543.538 387.742 545.07C389.017 548.679 390.721 551.329 390.606 551.444C388.989 549.7 387.793 547.607 387.112 545.328C386.516 543.757 386.126 542.115 385.952 540.444C385.788 539.76 385.797 539.046 385.98 538.367Z" fill="#263238"/>
<path d="M392.053 542.664C392.785 544.158 393.297 545.75 393.571 547.39C394.091 548.972 394.366 550.624 394.388 552.289C393.128 549.217 392.341 545.972 392.053 542.664Z" fill="#263238"/>
<path d="M428.705 541.232C429.201 546.089 429.201 550.984 428.705 555.841C428.208 550.984 428.208 546.089 428.705 541.232Z" fill="#263238"/>
<path d="M433.288 544.97C434.359 548.633 434.259 552.539 433.001 556.142C432.787 556.142 433.202 553.621 433.274 550.556C433.345 547.491 433.087 544.999 433.288 544.97Z" fill="#263238"/>
<path d="M445.677 578.786C445.148 576.721 444.747 574.626 444.474 572.512C443.952 570.44 443.569 568.334 443.328 566.21C444.295 568.143 444.929 570.225 445.204 572.369C445.73 574.465 445.89 576.636 445.677 578.786Z" fill="#263238"/>
<path d="M322.803 435.975C322.402 434.671 337.47 391.575 346.407 385.044C355.344 378.513 395.691 369.16 395.691 369.16C395.691 369.16 412.678 385.917 435.451 382.437C458.224 378.957 475.711 362.887 475.711 362.887C475.711 362.887 518.808 368.53 526.127 373.743C533.446 378.956 553.34 426.207 553.34 426.207L518.221 455.468L515.113 481.965C515.113 481.965 516.746 537.15 513.079 542.807C509.413 548.465 365.9 534.07 365.9 534.07C365.9 534.07 358.581 532.767 364.267 519.748C369.953 506.729 374.035 498.02 374.035 498.02C374.035 498.02 363.866 486.72 362.233 466.726C360.601 446.731 356.605 444.583 356.605 444.583L322.803 435.975Z" fill="#865439"/>
<path d="M514.927 480.948C514.712 480.948 516.875 462.959 519.754 440.845C522.632 418.73 525.11 400.741 525.311 400.813C525.511 400.884 523.32 418.788 520.455 440.973C517.591 463.159 515.127 480.977 514.927 480.948Z" fill="#263238"/>
<path d="M361.102 451.916C360.916 451.988 358.237 445.542 355.101 437.507C351.964 429.472 349.601 422.913 349.787 422.841C349.973 422.769 352.652 429.215 355.803 437.235C358.953 445.256 361.302 451.844 361.102 451.916Z" fill="#263238"/>
<g opacity="0.3">
<path opacity="0.3" d="M406.605 474.875C405.955 471.143 404.401 467.627 402.079 464.634C398.713 460.825 393.385 459.206 388.315 459.235C383.231 459.506 378.212 460.494 373.405 462.171L364.253 476.493C364.552 477.359 365.041 478.145 365.686 478.795C366.331 479.445 367.114 479.941 367.977 480.246C369.701 480.846 371.508 481.17 373.333 481.206C382.805 481.893 392.277 482.289 401.749 482.394C402.972 482.521 404.206 482.292 405.301 481.736C407.307 480.332 407.163 477.281 406.605 474.875Z" fill="black"/>
</g>
<path d="M344.058 409.206C344.363 409.677 344.612 410.182 344.803 410.71C345.247 411.684 345.848 413.116 346.564 414.906C347.997 418.473 349.916 423.5 351.849 428.985C353.783 434.471 355.387 439.598 356.461 443.308C357.006 445.141 357.435 446.645 357.693 447.691C357.877 448.218 357.993 448.767 358.037 449.323C357.778 448.831 357.572 448.312 357.421 447.777L355.989 443.48C354.786 439.828 353.124 434.786 351.176 429.258C349.228 423.729 347.424 418.73 346.106 415.121C345.49 413.431 344.975 411.999 344.559 410.824C344.329 410.307 344.16 409.763 344.058 409.206Z" fill="#263238"/>
<path d="M343.986 413.76L360.042 472.326C360.322 473.284 360.91 474.123 361.715 474.714C362.521 475.304 363.498 475.612 364.496 475.591H399.315C399.985 475.614 400.652 475.484 401.264 475.212C401.877 474.939 402.42 474.531 402.852 474.017C403.284 473.504 403.593 472.9 403.757 472.249C403.921 471.599 403.935 470.92 403.798 470.263L389.718 411.727C389.461 410.739 388.879 409.868 388.066 409.252C387.252 408.636 386.255 408.312 385.235 408.332H348.426C347.748 408.309 347.074 408.443 346.456 408.724C345.838 409.004 345.293 409.423 344.864 409.948C344.434 410.473 344.131 411.09 343.979 411.752C343.827 412.413 343.83 413.1 343.986 413.76Z" fill="#263238"/>
<path d="M356.075 424.703C356.075 424.703 351.921 422.726 348.641 424.703C345.361 426.679 340.048 435.416 340.048 435.416L336.768 449.309L339.016 468.186L339.904 476.938L361.102 479.344V472.34L385.379 454.193C385.379 454.193 393.901 451.83 393.242 449.295C392.583 446.76 391.494 444.998 389.088 445.456C386.682 445.915 360.672 452.618 360.672 452.618C360.672 452.618 356.519 453.491 356.733 452.389C356.948 451.286 368.979 445.614 370.941 444.296C372.904 442.979 382.099 440.802 380.967 436.648C380.831 435.899 380.526 435.191 380.076 434.576C379.627 433.962 379.044 433.457 378.371 433.1C377.699 432.743 376.954 432.543 376.193 432.515C375.432 432.487 374.675 432.632 373.978 432.938L352.981 440.587L349.486 441.46L349.93 435.989L353.64 430.962C353.972 431.067 354.321 431.104 354.668 431.071C355.014 431.038 355.351 430.936 355.657 430.77C355.963 430.604 356.232 430.379 356.449 430.107C356.666 429.834 356.826 429.521 356.92 429.186C357.214 428.435 357.291 427.616 357.141 426.823C356.992 426.03 356.622 425.296 356.075 424.703Z" fill="#FFBE9D"/>
<path d="M353.253 440.487C351.64 441.41 349.911 442.114 348.111 442.578C346.395 443.3 344.588 443.782 342.74 444.01C344.357 443.093 346.085 442.391 347.882 441.919C349.601 441.205 351.407 440.723 353.253 440.487Z" fill="#EB996E"/>
<path d="M358.037 453.105C356.531 453.935 354.916 454.547 353.239 454.924C351.631 455.538 349.942 455.914 348.226 456.041C351.336 454.606 354.643 453.641 358.037 453.176V453.105Z" fill="#EB996E"/>
<path d="M384.047 454.408C383.675 454.704 383.265 454.949 382.829 455.138C382.013 455.568 380.824 456.155 379.32 456.843C375.426 458.602 371.444 460.161 367.389 461.512C363.334 462.875 359.208 464.017 355.029 464.935C353.425 465.293 352.165 465.537 351.205 465.68C350.735 465.789 350.255 465.842 349.773 465.837C351.448 465.26 353.155 464.782 354.886 464.405C358.051 463.589 362.405 462.371 367.132 460.796C371.858 459.22 376.069 457.573 379.105 456.342C380.715 455.604 382.364 454.959 384.047 454.408Z" fill="#EB996E"/>
<path d="M345.605 464.677C345.533 464.864 344.173 464.147 343.743 462.486C343.313 460.825 344.029 459.521 344.187 459.621C344.344 459.722 344.058 460.882 344.459 462.257C344.86 463.632 345.719 464.505 345.605 464.677Z" fill="#EB996E"/>
<path d="M341.423 453.635C341.423 453.721 341.036 453.635 340.549 453.391C339.94 452.973 339.482 452.369 339.245 451.669C339.007 450.97 339.003 450.212 339.231 449.51C339.432 448.98 339.69 448.736 339.775 448.779C339.861 448.822 339.46 450.054 339.962 451.429C340.463 452.804 341.423 453.434 341.423 453.635Z" fill="#EB996E"/>
<path d="M339.002 440.114C339.014 440.346 338.99 440.577 338.93 440.802C338.83 441.332 338.701 441.962 338.558 442.749C338.2 444.554 337.699 447.046 337.126 449.997V449.911C338.057 456.556 339.332 466.181 340.721 476.981V477.066V477.167C340.449 477.897 340.148 478.671 339.861 479.458C336.737 488.294 335.28 497.633 335.565 507.001C335.644 509.838 335.878 512.668 336.266 515.48C336.395 516.411 336.496 517.17 336.582 517.771C336.641 518.039 336.665 518.314 336.653 518.588C336.557 518.332 336.485 518.069 336.438 517.8C336.324 517.284 336.138 516.525 335.966 515.523C335.479 512.709 335.168 509.867 335.035 507.015C334.589 497.564 335.99 488.116 339.16 479.201C339.446 478.413 339.747 477.625 340.019 476.895V477.081C338.587 466.267 337.441 456.642 336.667 449.968L338.372 442.807C338.572 442.033 338.73 441.374 338.859 440.888C338.887 440.626 338.934 440.368 339.002 440.114Z" fill="#EB996E"/>
<path d="M364.597 470.292C363.221 471.711 361.568 472.832 359.741 473.586C358.016 474.554 356.109 475.153 354.141 475.348C354.141 475.147 356.547 474.316 359.412 472.913C362.276 471.509 364.468 470.106 364.597 470.292Z" fill="#EB996E"/>
<path d="M498.971 500.054C498.971 500.054 504.514 501.487 505.058 505.096C505.603 508.705 501.177 570.98 501.177 570.98H506.448C506.448 570.98 508.553 509.292 508.467 504.881C508.381 500.47 506.29 500.183 505.502 499.868C503.359 499.25 501.076 499.316 498.971 500.054Z" fill="#263238"/>
<path d="M496.178 499.94L521.544 500.914L516.488 470.292L518.221 455.468L551.836 427.396C551.836 427.396 563.595 495.6 564.655 503.477C565.915 512.93 564.082 525.463 559.499 529.946C555.589 533.755 527.416 529.946 516.531 529.946C510.515 529.946 496.135 530.046 496.135 530.046L491.094 506.528L496.178 499.94Z" fill="#FFBE9D"/>
<path d="M559.499 501C559.399 501.128 557.68 499.567 554.371 498.135C550.085 496.198 545.386 495.351 540.693 495.671C538.123 495.844 535.591 496.384 533.174 497.276C530.954 498.078 529.035 499.138 527.33 499.796C525.987 500.368 524.569 500.745 523.119 500.914C522.594 501.012 522.055 501.012 521.53 500.914C523.462 500.699 525.348 500.176 527.115 499.367C528.777 498.651 530.653 497.562 532.93 496.688C535.403 495.733 538.006 495.158 540.65 494.984C545.459 494.652 550.27 495.59 554.6 497.705C555.897 498.349 557.133 499.106 558.296 499.968C558.736 500.264 559.139 500.61 559.499 501Z" fill="#EB996E"/>
<path d="M470.025 556.414C469.094 557.603 458.381 649.897 458.381 649.897L569.711 649.525L552.065 556.7L470.025 556.414Z" fill="#865439"/>
<path d="M488.487 649.654C488.287 649.654 487.127 628.915 485.909 603.306C484.692 577.697 483.875 556.987 484.09 556.987C484.305 556.987 485.437 577.726 486.654 603.335C487.871 628.943 488.688 649.64 488.487 649.654Z" fill="#263238"/>
<path d="M443.113 501.486C446.188 501.04 449.231 500.394 452.222 499.553C453.624 498.871 454.978 498.096 456.276 497.233L470.598 496.073L496.164 499.94C496.164 499.94 500.461 503.033 499.845 512.529C499.322 518.889 497.954 525.15 495.777 531.149C495.777 531.149 484.319 540.473 481.254 541.046C478.189 541.618 460.716 540.645 458.983 539.284C457.958 538.508 457.101 537.534 456.462 536.419C455.528 535.943 454.777 535.174 454.321 534.23C453.866 533.286 453.733 532.219 453.941 531.192C453.941 531.192 447.94 523.443 447.166 520.149C446.393 516.855 447.353 516.081 447.353 516.081C447.353 516.081 445.62 511.627 446.966 510.08C447.305 509.703 447.716 509.397 448.176 509.183C448.635 508.968 449.134 508.849 449.64 508.831C450.147 508.814 450.653 508.899 451.126 509.082C451.599 509.264 452.03 509.54 452.394 509.894C453.755 511.441 462.277 510.281 462.277 510.281L469.825 505.239C465.941 506.226 461.992 506.939 458.009 507.373C453.955 507.488 441.753 510.209 443.113 501.486Z" fill="#FFBE9D"/>
<path d="M472.747 519.748C472.747 519.862 471.185 520.134 468.751 520.98C467.533 521.395 466.087 521.939 464.454 522.412C462.66 523.014 460.788 523.352 458.897 523.414C456.959 523.475 455.045 522.978 453.383 521.982C452.068 521.15 450.902 520.104 449.931 518.888C449.281 518.087 448.683 517.245 448.14 516.368C447.754 515.752 447.568 515.394 447.61 515.365C447.653 515.336 448.627 516.625 450.332 518.545C451.307 519.67 452.453 520.637 453.726 521.409C455.294 522.301 457.08 522.737 458.882 522.67C462.749 522.569 466.044 521.094 468.607 520.435C469.937 519.968 471.338 519.736 472.747 519.748Z" fill="#EB996E"/>
<path d="M477.96 512.93C478.032 512.93 478.304 513.102 478.504 513.632C478.748 514.323 478.748 515.076 478.504 515.766C478.271 516.464 477.799 517.057 477.172 517.442C476.685 517.728 476.342 517.728 476.299 517.642C476.256 517.556 477.344 516.883 477.803 515.523C478.261 514.162 477.774 513.016 477.96 512.93Z" fill="#EB996E"/>
<path d="M477.387 529.874C476.214 530.213 475.01 530.429 473.792 530.518C471.558 530.834 468.464 531.206 465.055 531.564C463.441 531.781 461.815 531.905 460.186 531.936C458.832 531.963 457.484 531.75 456.204 531.306C454.979 530.976 453.918 530.206 453.225 529.143C454.18 529.861 455.244 530.422 456.376 530.805C457.613 531.161 458.9 531.311 460.186 531.249C461.618 531.249 463.265 531.005 464.969 530.834C468.393 530.461 471.486 530.175 473.735 530.003C474.945 529.838 476.168 529.794 477.387 529.874Z" fill="#EB996E"/>
<path d="M484.004 523.744C484.09 523.744 484.362 524.03 484.548 524.675C484.793 525.517 484.793 526.411 484.548 527.253C484.309 528.097 483.844 528.86 483.202 529.459C482.701 529.888 482.3 530.017 482.257 529.946C482.214 529.874 483.36 528.8 483.832 527.081C484.025 525.98 484.083 524.859 484.004 523.744Z" fill="#EB996E"/>
<path d="M479.894 537.68C478.786 538.005 477.639 538.178 476.485 538.195C470.945 538.637 465.37 538.29 459.928 537.164C458.783 537.008 457.665 536.695 456.605 536.233C457.752 536.269 458.892 536.408 460.014 536.649C462.105 536.964 464.998 537.322 468.206 537.522C471.415 537.723 474.336 537.723 476.456 537.68C477.599 537.571 478.75 537.571 479.894 537.68Z" fill="#EB996E"/>
<path d="M504.128 499.524C504.128 499.524 509.14 503.277 510.071 505.554C511.002 507.831 521.014 556.399 521.014 556.399H525.311C525.311 556.399 515.099 503.778 512.607 501.744C511.711 501.02 510.752 500.378 509.742 499.825C508.9 499.38 507.972 499.12 507.021 499.063C506.069 499.006 505.117 499.154 504.228 499.496L504.128 499.524Z" fill="#263238"/>
<path d="M406.318 509.063C404.892 509.252 403.448 509.252 402.022 509.063C395.209 508.424 388.64 506.197 382.844 502.561C381.611 501.86 380.471 501.009 379.449 500.026C379.521 499.925 380.881 500.842 383.116 502.102C386.047 503.767 389.131 505.148 392.325 506.227C395.518 507.298 398.802 508.074 402.136 508.548C404.714 508.863 406.318 508.949 406.318 509.063Z" fill="#263238"/>
<g opacity="0.3">
<path opacity="0.3" d="M431.426 508.29C428.798 508.061 426.151 508.162 423.548 508.591C410.157 510.023 396.335 510.023 384.061 503.162C385.824 506.845 388.84 509.779 392.569 511.441C396.814 512.892 401.273 513.623 405.76 513.603C416.532 514.044 427.323 513.564 438.014 512.171C437.272 511.077 436.295 510.161 435.156 509.49C434.017 508.819 432.743 508.409 431.426 508.29Z" fill="black"/>
</g>
</g>
</svg>
